<svg xmlns="http://www.w3.org/2000/svg" viewBox="0 0 365.07 353.63"><defs><style>.cls-1{isolation:isolate;}.cls-2{fill:#ffc0bb;}.cls-3{fill:#07085b;}.cls-4{fill:#55769f;}.cls-10,.cls-5{fill:#f99893;}.cls-6{fill:#ff5b7e;}.cls-13,.cls-7,.cls-8{fill:#daeef7;}.cls-10,.cls-8{mix-blend-mode:multiply;}.cls-9{fill:#333;}.cls-10{opacity:0.2;}.cls-11{fill:#fc8d84;opacity:0.6;}.cls-12{fill:#446284;}.cls-13{opacity:0.1;}</style></defs><title>Datový zdroj 5</title><g class="cls-1"><g id="Vrstva_2" data-name="Vrstva 2"><g id="Vrstva_1-2" data-name="Vrstva 1"><path class="cls-2" d="M262.13,208.7s-25.42-26.32-30-5.88C227.72,222.16,240.56,329,242,340.41l-14.27,9.27a1.84,1.84,0,0,0,1,3.4h25.48a1.63,1.63,0,0,0,1.63-1.63V340.57l0,0Z"/><path class="cls-3" d="M231,347.5l-3.35,2.18a1.84,1.84,0,0,0,1,3.4h25.48a1.63,1.63,0,0,0,1.63-1.63v-5.33C238.81,351.52,233,349.88,231,347.5Z"/><path class="cls-2" d="M259.54,208.7s25.42-26.32,30-5.88c4.37,19.34-8.47,126.21-9.85,137.59L294,349.68a1.84,1.84,0,0,1-1,3.4H267.52a1.63,1.63,0,0,1-1.63-1.63V340.57l0,0Z"/><path class="cls-3" d="M290.64,347.5l3.35,2.18a1.84,1.84,0,0,1-1,3.4H267.52a1.63,1.63,0,0,1-1.63-1.63v-5.33C282.86,351.52,288.72,349.88,290.64,347.5Z"/><path class="cls-4" d="M275.22,147.24,259.28,151l-.13,0v-.34l-.72.17-.73-.17V151l-.13,0-15.93-3.74s-33.86,53-25.89,121.71c0,0,6.53,1.33,16.64,2.44L235,226l9.23,46.4c18.28,1.15,42.21.62,61.93-6.73C306.13,180.2,275.22,147.24,275.22,147.24Z"/><path class="cls-2" d="M339.7,73.22c3.4,2.58,7.3,5.56,10.73,8.18l3-6.65c1.06-.9,2-1.61,2-1.61,10.13-10.26,9.85-10.49,9.54-10.92s-5.68,2.58-5.84,2,5.53-6.87,4.79-7-6.7,5-6.95,4.6,5.33-6.39,4.49-7.09-6.74,6-7.18,5.21,5.78-7.59,4.91-8.11-7.87,6.95-10.12,9.31a.53.53,0,0,1-.9-.25c-1.46-6.32-1.95-6.72-2.6-6.4-.47.23-1.77,8.79-2.55,14.26l0,0Z"/><path class="cls-2" d="M248.37,83.92h22.06l-.92,3.51-14,9.47s-3.16-6.17-3.76-6.83S248.37,83.92,248.37,83.92Z"/><path class="cls-3" d="M268,24.41c-10.33-9-30.25-4.45-33.57,9.94-2.24,9.74-11.47,9.1-8.54,23.85,2.71,13.64-15.64,19.7-1,34.93l66.17-2.34c8.28-4.7,4.73-20.53,1.89-24.55-4.7-6.65,7.16-14.67-6.8-28.35C281.78,33.6,281.65,23.16,268,24.41Z"/><rect class="cls-2" x="252.62" y="75.23" width="13.57" height="23.82"/><path class="cls-5" d="M266.17,79.3V71.18H252.62v6.91C255.54,79.66,259.86,80.56,266.17,79.3Z"/><path class="cls-6" d="M284.2,108.28l37.43,7.49a18.88,18.88,0,0,0,18.95-12.31l12-27a75.15,75.15,0,0,0-10.83-6l-17.47,23.2-45.44-9.38S279.65,103.28,284.2,108.28Z"/><path class="cls-7" d="M266.4,87.1a13.62,13.62,0,0,1-13.91,0l-.48-.28-6.65,30.94.19,40.51c1.6.42,3.4.83,5.34,1.16a46.89,46.89,0,0,0,8.36.78h.39a46.7,46.7,0,0,0,8.35-.78,62.74,62.74,0,0,0,7.24-1.69c0-11.09,0-27.6.48-29.35.55-2.23-6.52-32-8.82-41.58Z"/><path class="cls-3" d="M259.56,28.83s20.32-1.14,21.4,23.74a5.45,5.45,0,0,0-2.58.48s-16.09-4-20.09-19.62Z"/><path class="cls-8" d="M259.4,89.5c11.82,5,11.13-4.59,11-5.51a19.14,19.14,0,0,1-4,3.11,13.62,13.62,0,0,1-13.91,0,19.29,19.29,0,0,1-4.12-3.18S247,94.79,259.4,89.5Z"/><path class="cls-2" d="M282.07,52.91a4.08,4.08,0,0,0-3.69.14,19.6,19.6,0,1,0-39.2,0,4.08,4.08,0,0,0-3.69-.14c-2.2,1.09-2.89,4.2-1.53,7s4.25,4.11,6.45,3a3.67,3.67,0,0,0,.83-.56C242.5,71.3,250,78,258.78,77.9c8.79.13,16.28-6.6,17.54-15.58a3.67,3.67,0,0,0,.83.56c2.2,1.09,5.09-.26,6.45-3S284.27,54,282.07,52.91Z"/><path class="cls-9" d="M253.83,56.91a1.65,1.65,0,1,1-1.74-1.55A1.65,1.65,0,0,1,253.83,56.91Z"/><path class="cls-9" d="M268,57.07a1.65,1.65,0,1,1-1.74-1.56A1.65,1.65,0,0,1,268,57.07Z"/><path class="cls-3" d="M255.64,53.54a15.36,15.36,0,0,0-2.4-.65,8.13,8.13,0,0,0-2.3-.1,7.71,7.71,0,0,0-2.23.57l-.28.11c-.09,0-.18.09-.27.13l-.55.27c-.37.18-.72.42-1.13.6a7.24,7.24,0,0,1,.77-1.07,6,6,0,0,1,1-.87,5.36,5.36,0,0,1,2.56-.93,5.57,5.57,0,0,1,2.69.38A5.21,5.21,0,0,1,255.64,53.54Z"/><path class="cls-3" d="M262.29,53.51a5.25,5.25,0,0,1,2.11-1.57,5.58,5.58,0,0,1,2.69-.4,5.27,5.27,0,0,1,2.56.91,5.67,5.67,0,0,1,1,.86,6.58,6.58,0,0,1,.77,1.07c-.41-.18-.75-.42-1.13-.6l-.55-.26c-.09,0-.18-.1-.27-.13l-.28-.11a7.67,7.67,0,0,0-2.23-.55,8.59,8.59,0,0,0-2.31.11A16.46,16.46,0,0,0,262.29,53.51Z"/><path class="cls-5" d="M259.24,57a10.39,10.39,0,0,0,.16,2.89,7.48,7.48,0,0,0,.41,1.43,3.68,3.68,0,0,0,.86,1.35c.46.36.69.47.84.83a1.28,1.28,0,0,1-.08,1,4,4,0,0,1-2,1.71,3.25,3.25,0,0,0,2.62-1.35,2,2,0,0,0,.27-1.69,2.45,2.45,0,0,0-1-1.22,3.72,3.72,0,0,1-.69-1c-.2-.39-.34-.83-.51-1.26C259.79,58.83,259.53,57.92,259.24,57Z"/><path class="cls-3" d="M235.72,52.79s-1.21-22.48,23.84-24c0,0-.78,22.08-20.38,24.22Z"/><path class="cls-3" d="M239.18,53.05s28-3.64,31-17.5l-6.74-5.25-9.25.89s-5,7.92-5.7,8.71S239.18,53.05,239.18,53.05Z"/><path class="cls-3" d="M265.24,35.25s2.33,14,13.14,17.8c0,0,1-2.95,1.2-3.64s-3.07-10.89-3.07-10.89a15.65,15.65,0,0,0-2.87-2.68c-1.38-.89-7.4-2.41-7.4-2.41Z"/><path class="cls-10" d="M255.85,68.6a5,5,0,0,1,4.16.27s2.07-1.5,3.86-.33a4.12,4.12,0,0,1-4.13,3.3A3.68,3.68,0,0,1,255.85,68.6Z"/><path class="cls-5" d="M253.91,67.58a12,12,0,0,0,1.33.8,10.15,10.15,0,0,0,1.39.62,9,9,0,0,0,3,.58,7.91,7.91,0,0,0,3-.53,11.06,11.06,0,0,0,2.64-1.56,8.8,8.8,0,0,1-1.17,1,8,8,0,0,1-1.35.8,7.23,7.23,0,0,1-1.51.5,7.56,7.56,0,0,1-1.58.15,8.08,8.08,0,0,1-3.07-.69A8.9,8.9,0,0,1,253.91,67.58Z"/><path class="cls-2" d="M229.64,177.75c.67.9,1.21,1.72,1.21,1.72,7.76,8.63,8,8.41,8.32,8.18s-1.81-4.68-1.32-4.78,5.25,4.77,5.38,4.18-3.72-5.62-3.37-5.8,4.88,4.58,5.48,3.94-4.53-5.7-3.84-6,5.82,5,6.28,4.32-5.21-6.64-7-8.56a.43.43,0,0,1,.25-.71c5.14-.89,5.49-1.25,5.26-1.8-.16-.38-7-1.83-11.33-2.71l-5.33,8Z"/><path class="cls-6" d="M252.63,83.91,247,83.76a26.57,26.57,0,0,0-9.67,1.11S216,90.22,196.76,126.92c0,0-1.16,2.58,1,7.89,1.7,4.29,15.58,29.55,27.55,41.44a84.7,84.7,0,0,0-4.7,13.49s18.6,3.76,29.9,3.76C250.46,193.5,255.14,92.18,252.63,83.91Zm-34.77,49.57c.19-.95,7.65-9.29,13.95-16.19,1.79,11.78,5.25,34.57,5.62,37.27-.45.64-1.74,2.5-3.43,5.22C226.76,148.69,217.66,134.49,217.86,133.48Z"/><path class="cls-6" d="M266.18,83.87l6.72-.13a26.78,26.78,0,0,1,9.67,1.11s5.49,1.38,13.4,7.5c-3.07,10.11-12.91,59.63-13.29,62.33a103.15,103.15,0,0,1,12,21.55,83.72,83.72,0,0,1,4.7,13.49s-18.6,3.77-29.9,3.77C269.46,193.49,263.67,92.14,266.18,83.87Z"/><path class="cls-7" d="M275.87,170.34l-.74-3a2.51,2.51,0,1,0-4.88,1.21l3.13,12.63a2.51,2.51,0,1,0,4.88-1.21l-.74-3a1.43,1.43,0,0,0,1-1.73l-1-3.9A1.43,1.43,0,0,0,275.87,170.34Z"/><path class="cls-3" d="M275.27,196l-53.48,13.26a3.87,3.87,0,0,1-4.69-2.83l-8.38-33.78a3.88,3.88,0,0,1,2.83-4.69L265,154.65a3.87,3.87,0,0,1,4.7,2.83l8.37,33.77A3.88,3.88,0,0,1,275.27,196Z"/><path class="cls-2" d="M230.48,178.43c.68,1,1.21,2,1.21,2,7.89,10.05,8.13,9.83,8.54,9.61s-1.64-5.29-1.1-5.36,5.42,5.63,5.61,5-3.68-6.45-3.28-6.63,5,5.41,5.74,4.75-4.56-6.6-3.78-6.89,6,5.92,6.58,5.21-5.24-7.69-7.06-9.93a.48.48,0,0,1,.32-.77c5.72-.58,6.13-1,5.92-1.58-.15-.43-7.54-2.52-12.26-3.82l-6.45,8.43Z"/><path class="cls-6" d="M217,166.48l12.35,13.07L240,168l-6.64-9.11s-11.76,1.42-11.82,1.58S217,166.48,217,166.48Z"/><path class="cls-2" d="M240.26,55.21l-1.08-2.16a4.06,4.06,0,0,0-3.46-.26c-1.73.78,2.44,5.51,2.58,5.41S240.26,55.21,240.26,55.21Z"/><path class="cls-3" d="M96,342.1v10a1.51,1.51,0,0,1-1.51,1.5H71a1.7,1.7,0,0,1-.91-3.13L83,342.1S88.47,345.88,96,342.1Z"/><path class="cls-3" d="M147.88,342.1v10a1.5,1.5,0,0,0,1.5,1.5h23.51a1.7,1.7,0,0,0,.92-3.13l-12.88-8.4S155.44,345.88,147.88,342.1Z"/><path class="cls-2" d="M15.9,82.19s2.49,2.21,2.49,3.28,2.14,11.09,2.14,15.58-13,8-13,8l-3.31-8S6,86,6.26,86,15.9,82.19,15.9,82.19Z"/><path class="cls-9" d="M71.24,165.17c12.23,15.11,36.67,36.91,36.67,36.91h0L96,344.94s-11.71,2-17.32-1.54C78.71,343.4,70.44,207.57,71.24,165.17Z"/><path class="cls-9" d="M75.87,170.79c0-2.15-4.72,4.17-4.63,2.46,1.87-35.56,61.22-5.74,61.22-5.74L146.94,180l19,164.72s-9.55,4-18.08,1.3L107.91,203.86S94.85,199.26,75.87,170.79Z"/><polygon class="cls-2" points="124 54.01 124.06 70.4 108.11 67.94 110.78 49.51 124 54.01"/><path class="cls-11" d="M109.55,58l1.23-8.49L124,55.56V58.8C120.83,59.58,114.86,60.27,109.55,58Z"/><polygon class="cls-3" points="101.12 20.55 100.15 31.81 101.93 32.92 105.22 19.22 101.12 20.55"/><path class="cls-5" d="M103.51,30.64c.49,2.55-.77,4.93-2.81,5.33s-4.09-1.36-4.58-3.91.77-4.93,2.81-5.32S103,28.1,103.51,30.64Z"/><path class="cls-2" d="M101.43,44.56a18.81,18.81,0,0,1-.84-3.52,37.17,37.17,0,0,1-.16-9.45c.06-.61.09-1.23.1-1.84a20.1,20.1,0,1,1,39.82,4.41,4.37,4.37,0,0,1,3.9.47c2.13,1.51,2.32,4.89.43,7.55s-5.15,3.59-7.28,2.08a4.17,4.17,0,0,1-.78-.73c-2.91,9.44-12.31,15.29-21.76,13.24a18,18,0,0,1-11-7.38,8.89,8.89,0,0,1-.55-.76A17.29,17.29,0,0,1,101.43,44.56Z"/><path class="cls-9" d="M122.3,32.33A1.76,1.76,0,1,0,124.39,31,1.77,1.77,0,0,0,122.3,32.33Z"/><path class="cls-9" d="M107.37,30.1a1.76,1.76,0,1,0,2.09-1.34A1.75,1.75,0,0,0,107.37,30.1Z"/><path class="cls-3" d="M121,28.49a16.47,16.47,0,0,1,2.63-.28,8.59,8.59,0,0,1,2.44.29,8.05,8.05,0,0,1,2.24,1l.27.16a2.53,2.53,0,0,1,.27.18l.53.38c.36.25.68.56,1.08.82a7.65,7.65,0,0,0-.62-1.25,6.74,6.74,0,0,0-.92-1.08,5.76,5.76,0,0,0-2.53-1.41,6,6,0,0,0-2.89-.05A5.62,5.62,0,0,0,121,28.49Z"/><path class="cls-3" d="M114,27.34a5.6,5.6,0,0,0-2-2,6,6,0,0,0-2.75-.87,5.65,5.65,0,0,0-2.85.52,6.26,6.26,0,0,0-1.22.73,8.41,8.41,0,0,0-1,1c.47-.12.87-.31,1.29-.44l.63-.18c.1,0,.2-.07.3-.09l.31-.06a7.82,7.82,0,0,1,2.44-.21,8.52,8.52,0,0,1,2.4.51A17,17,0,0,1,114,27.34Z"/><path class="cls-5" d="M116.73,27.62a13.71,13.71,0,0,1-.2,3.78,9.61,9.61,0,0,1-.54,1.86A4.82,4.82,0,0,1,114.87,35c-.63.49-.91.63-1.1,1.09a1.68,1.68,0,0,0,.1,1.36,5.26,5.26,0,0,0,2.61,2.24,4.31,4.31,0,0,1-3.43-1.77,2.59,2.59,0,0,1-.35-2.2,3.14,3.14,0,0,1,1.36-1.6,4.77,4.77,0,0,0,.9-1.33,17.19,17.19,0,0,0,.66-1.65C116,30,116.36,28.83,116.73,27.62Z"/><path class="cls-7" d="M98.23,64.06h10.44c7.82,7.83,15.39,0,15.39,0h7s18.55,97.29-8.2,102.16-40.78-3.76-40.78-3.76V116.81Z"/><path class="cls-12" d="M98.23,64.06s-7.88.45-21.64,17.07S54.4,136.31,40,122.35s-19.31-21.06-19.31-21.06-8.21,2.66-13.1,7.76c0,0,25.31,46.54,37.07,49s37.46-21.49,37.46-21.49Z"/><path class="cls-4" d="M131.07,64.06s29.3,4.66,32,9,27.44,85.33,9.46,118.91c0,0-9.36,3.08-18.07.42v9s-22.68,5.65-38.33,0C116.09,201.35,114.76,94,131.07,64.06Z"/><path class="cls-4" d="M98.23,64.06s-15,111-10.65,133.3c0,0-13.65,1-21.64-2C65.94,195.37,65.27,71,98.23,64.06Z"/><path class="cls-12" d="M131.07,64.06l10,15.6-25,121.69S114.76,94,131.07,64.06Z"/><path class="cls-12" d="M86.26,77.38l12-13.32s-15,111-10.65,133.3C77.45,173.05,86.26,77.38,86.26,77.38Z"/><path class="cls-7" d="M124.84,181.81l.77-3.08a2.6,2.6,0,1,1,5,1.25l-3.24,13a2.6,2.6,0,1,1-5-1.25l.76-3.08a1.48,1.48,0,0,1-1.07-1.78l1-4A1.48,1.48,0,0,1,124.84,181.81Z"/><rect class="cls-3" x="136.44" y="161.28" width="43.94" height="64.99" rx="4.27" transform="translate(-67.75 300.97) rotate(-76.1)"/><path class="cls-2" d="M154.6,192.42l4,1s3.15.23,3.26.2,3.5-.12,3.5-.12l5.52-1c-.81,3.56-4,16.23-4.4,16.22s-1-5.92-1.6-5.72-2.44,8.13-2.93,7.61.34-8.06-.14-8-2.16,7.71-3.18,7.43,1.12-8.64.22-8.53-2.88,8.71-3.76,8.31,1.23-10,1.88-13.1a.51.51,0,0,0-.69-.58c-5.82,2.28-6.41,2.11-6.51,1.42C149.67,197.18,151.94,194.94,154.6,192.42Z"/><path class="cls-4" d="M178.17,172.16s-2.59,17.5-5.68,19.79c0,0-9.58,3.08-18.36.62v-8.64l-.2-18.76h13.41Z"/><path class="cls-7" d="M146.5,114l.69,2.74c.22.91.42,1.83.63,2.75l.31,1.37.29,1.38c.19.92.39,1.84.56,2.77q1.08,5.53,1.92,11.12t1.46,11.18q1.26,11.22,1.84,22.49c.38,7.44.6,14.89.52,22.35a14.89,14.89,0,0,0,3.8,1,26.31,26.31,0,0,0,4.17.21,41.77,41.77,0,0,0,4.18-.32c1.39-.18,2.78-.39,4.15-.7a38.19,38.19,0,0,1-4.12.88,42.14,42.14,0,0,1-4.2.47,26.11,26.11,0,0,1-4.24-.07,14.46,14.46,0,0,1-4.16-1l-.17-.07v-.2c-.11-7.5-.44-15-.89-22.49s-1.08-15-1.87-22.43c-.42-3.72-.86-7.45-1.37-11.16s-1.08-7.43-1.73-11.12-1.38-7.37-2.19-11-1.76-7.29-2.79-10.91C144.51,106.78,145.55,110.39,146.5,114Z"/><path class="cls-3" d="M101.08,17.05c-5.33,9.94,16.63,4.42,16.63,4.42-3.43,5.13,15.41-1,15.41-1l0,0c-1.17,9.13,4.9,25-7.88,30.35a10.56,10.56,0,0,0-1.67-5.53c-1.65-2.46-4.41-3.94-8.2-4.4-4-.5-7.21.27-9.4,2.28a9.12,9.12,0,0,0-2.42,3.75c-3.54-5.16-3.42-12-3.42-12S94.1,60.08,113.29,63s25.89-18.66,24.78-26.31a5.14,5.14,0,0,1,2.28-2.51,4,4,0,0,1,3.42.18l.17.11h0C154.63-10.88,111.88.27,104.59,3.84s-1.38,4.7-1.38,4.7C93,15.83,101.08,17.05,101.08,17.05Zm22.38,34.39a30.15,30.15,0,0,1-7.72,1.14c-5,.17-8.47-1.54-10.78-4a7.93,7.93,0,0,1,2.26-4.16c1.79-1.62,4.46-2.23,8-1.81,3.24.4,5.57,1.61,6.91,3.61A9.14,9.14,0,0,1,123.46,51.44Z"/><path class="cls-5" d="M119.13,44.9a10.9,10.9,0,0,1-2.56,1,8.23,8.23,0,0,1-2.7.24,7,7,0,0,1-2.6-.75,10,10,0,0,1-2.2-1.64,7.21,7.21,0,0,0,2.08,1.85,6.83,6.83,0,0,0,1.29.59,7.39,7.39,0,0,0,1.4.28,7.59,7.59,0,0,0,2.8-.33A8.47,8.47,0,0,0,119.13,44.9Z"/><rect class="cls-9" x="2.69" y="74.29" width="14.54" height="27.33" rx="1.39" transform="translate(-17.55 3.82) rotate(-11.65)"/><rect class="cls-13" x="3.33" y="75.09" width="12.94" height="24.13" rx="1.39" transform="translate(-17.4 3.77) rotate(-11.65)"/><path class="cls-2" d="M.7,84.56c1.67-1.2,5.19-3.63,5.93-3.22,1,.55-4.21,4.83-3.82,5.1s6.22-1.7,6.38-1S3.82,88.9,3.88,89.29s5.6-.56,5.92.1-5.28,2.42-5.31,2.68c-.24,2.2,5.89,1.33,6,2.05.08.52-4,1.35-6.32,1.77l.93,4.51-.86.66L0,86.25A1.71,1.71,0,0,1,.7,84.56Z"/><path class="cls-7" d="M145.55,24.24a14.15,14.15,0,0,1-8.65,2.83,16.11,16.11,0,0,1-3.8-.45c0-.44-.06-.89-.07-1.32a13.38,13.38,0,0,0,12.6-2.77C145.61,23.09,145.59,23.66,145.55,24.24Z"/><path class="cls-7" d="M133,22.51c0-.44,0-.87.07-1.29,1.37.26,8.24,1.28,12.36-3.77.06.57.12,1.15.16,1.75A13.5,13.5,0,0,1,136,22.76,17.76,17.76,0,0,1,133,22.51Z"/></g></g></g></svg>