<svg xmlns="http://www.w3.org/2000/svg" viewBox="0 0 16 16"><defs><style>.cls-1{fill:#265130;}</style></defs><title>home-icon</title><g id="Vrstva_2" data-name="Vrstva 2"><g id="Layer_1" data-name="Layer 1"><path class="cls-1" d="M15.45,7,14,5.55V2a1,1,0,0,0-1-1H12a1,1,0,0,0-1,1v.55l-2-2A1.39,1.39,0,0,0,8,0,1.39,1.39,0,0,0,7,.56L.55,7A1.38,1.38,0,0,0,0,8,1,1,0,0,0,1,9H2v6a1,1,0,0,0,1,1H6V11a1,1,0,0,1,1-1H9a1,1,0,0,1,1,1v5h3a1,1,0,0,0,1-1V9h1a1,1,0,0,0,1-1A1.38,1.38,0,0,0,15.45,7Z"/></g></g></svg>