<svg xmlns="http://www.w3.org/2000/svg" viewBox="0 0 197.8 187.47"><defs><style>.cls-1{fill:#050647;}.cls-2{fill:#feb546;}.cls-3{fill:#ffc0bb;}.cls-4,.cls-9{fill:#daeef7;}.cls-5{fill:#f99893;}.cls-6{fill:#333;}.cls-7{fill:#07085b;}.cls-8{fill:#fff;}.cls-9{opacity:0.2;}.cls-10{fill:#7cc492;}.cls-11{fill:#55769f;}.cls-12{fill:#446284;}.cls-13{fill:#ff5b7e;}.cls-14{fill:#e03268;}</style></defs><title>KidsColor</title><g id="Vrstva_2" data-name="Vrstva 2"><g id="Vrstva_1-2" data-name="Vrstva 1"><path class="cls-1" d="M153.89,33.12c5.46-12.86,34.35-3.76,21.14,26.17-9,20.39,11.91,32-4.85,42,3.76-11.36-4-14.79-10.14-20.67S155,60,159,51.57,151.76,39.32,153.89,33.12Z"/><path class="cls-2" d="M153,33.45h0a1.17,1.17,0,0,1,1.67,0l2,2.07a1.21,1.21,0,0,1-.11,1.78h0a1.21,1.21,0,0,1-1.67-.12L153,35.09A1.17,1.17,0,0,1,153,33.45Z"/><path class="cls-1" d="M130.38,33.12C124.91,20.26,96,29.36,109.23,59.29c9,20.39-11.9,32,4.86,42-3.76-11.36,4-14.79,10.13-20.67s5-20.64,1-29.08S132.5,39.32,130.38,33.12Z"/><path class="cls-2" d="M131.36,33.45h0a1.19,1.19,0,0,0-1.68,0l-2,2.07a1.21,1.21,0,0,0,.11,1.78h0a1.21,1.21,0,0,0,1.67-.12l1.93-2.11A1.17,1.17,0,0,0,131.36,33.45Z"/><path class="cls-3" d="M115.63,128.05c-.38.5-.74.91-.74.91-3.41,5.51-3.26,5.59-3.08,5.74s2.23-1.7,2.36-1.45-1.74,3.56-1.4,3.53,2.43-2.87,2.58-2.71-1.69,3.33-1.25,3.55,2.34-3.32,2.62-3-1.77,3.91-1.34,4,2.75-3.84,3.5-5.1a.24.24,0,0,1,.42,0c1.27,2.62,1.52,2.75,1.78,2.54a47.52,47.52,0,0,0-.32-6.49l-5.13-1.6Z"/><path class="cls-4" d="M129.06,73.73s-8.67-5.86-14.71,54.05a31.49,31.49,0,0,0,8.35,2.45c5.44,1,7.94-49.89,8.49-50.65S129.06,73.73,129.06,73.73Z"/><path class="cls-3" d="M197.75,62.83c-.16-.22-2.82,1.28-2.9,1s2.75-3.4,2.38-3.46-3.32,2.5-3.45,2.29,2.64-3.17,2.23-3.52-3.34,3-3.56,2.58,2.86-3.76,2.43-4-3.89,3.45-5,4.62a.27.27,0,0,1-.45-.12c-.72-3.14-1-3.34-1.29-3.18s-.87,4.36-1.26,7.07h0L177.6,78.41l-22.52-4.65V85.13l21.19,4.24a9.36,9.36,0,0,0,9.39-6.1L192,69c.53-.45,1-.8,1-.8C198,63.16,197.9,63,197.75,62.83Z"/><path class="cls-3" d="M143.58,139l-16.87,1.3,4.68,39.82h0l-4.19,2.74L125.5,184l-.63,1.74s1.31,0,1.35.25,2.27.49,4.29.39,1.87,0,5.2,0,2.7-.71,3.23-1c.35-.16.55-1.36.65-2.17l.08,0v-3.05S143.58,139,143.58,139Z"/><rect class="cls-3" x="137.63" y="67.29" width="9.63" height="9.63"/><path class="cls-5" d="M147.26,73.07V67.29h-9.63V72.2C139.7,73.32,142.77,74,147.26,73.07Z"/><path class="cls-3" d="M161,50.11a3.34,3.34,0,0,0-3,.12,16,16,0,1,0-31.93,0,3.32,3.32,0,0,0-3-.12c-1.8.89-2.35,3.42-1.25,5.66s3.46,3.35,5.26,2.46a2.85,2.85,0,0,0,.67-.46,14.39,14.39,0,0,0,28.58,0,2.85,2.85,0,0,0,.67.46c1.79.89,4.14-.21,5.25-2.46S162.78,51,161,50.11Z"/><path class="cls-3" d="M129.06,73.73s15.65,10.31,26,0Z"/><path class="cls-6" d="M138,53.37a1.34,1.34,0,1,1-1.41-1.27A1.34,1.34,0,0,1,138,53.37Z"/><path class="cls-6" d="M149.55,53.5a1.34,1.34,0,1,1-1.42-1.27A1.34,1.34,0,0,1,149.55,53.5Z"/><path class="cls-7" d="M139.46,50.62a12.94,12.94,0,0,0-2-.53,6.63,6.63,0,0,0-1.88-.07,5.81,5.81,0,0,0-1.81.46l-.23.08c-.08,0-.15.08-.22.11l-.45.22c-.3.15-.58.34-.92.49a6.56,6.56,0,0,1,.62-.87,5.11,5.11,0,0,1,.83-.71,4.41,4.41,0,0,1,2.08-.76,4.51,4.51,0,0,1,2.19.32A4.17,4.17,0,0,1,139.46,50.62Z"/><path class="cls-7" d="M144.87,50.6a4.27,4.27,0,0,1,1.73-1.28,4.63,4.63,0,0,1,2.19-.33,4.4,4.4,0,0,1,2.08.75,4.73,4.73,0,0,1,.84.7,6,6,0,0,1,.62.87c-.33-.15-.61-.34-.92-.49L151,50.6l-.22-.1-.23-.08A5.87,5.87,0,0,0,148.7,50a6.62,6.62,0,0,0-1.88.09A11.65,11.65,0,0,0,144.87,50.6Z"/><path class="cls-8" d="M147.88,60.56c-.39,1.77-2.42,3.17-4.9,3.24s-4.6-1.19-5.1-2.93Z"/><path class="cls-5" d="M142.68,51.53a7.19,7.19,0,0,0,.12,2.12,5.77,5.77,0,0,0,.29,1,2.69,2.69,0,0,0,.63,1c.33.27.5.34.62.61a1,1,0,0,1-.06.77,2.88,2.88,0,0,1-1.46,1.24,2.41,2.41,0,0,0,1.92-1,1.48,1.48,0,0,0,.2-1.24c-.15-.45-.4-.6-.77-.89a2.88,2.88,0,0,1-.5-.75,7.67,7.67,0,0,1-.37-.92C143.08,52.87,142.89,52.21,142.68,51.53Z"/><path class="cls-4" d="M128.82,158.26l2.57,21.88h0l-4.19,2.74L125.5,184l-.63,1.74s1.31,0,1.35.25,2.27.49,4.29.39,1.87,0,5.2,0,2.7-.71,3.23-1c.35-.16.55-1.36.65-2.17l.08,0v-3.05s1-10.91,2-21.49A49.45,49.45,0,0,1,128.82,158.26Z"/><path class="cls-7" d="M131.19,185.4c-3.4.34-5-.4-5.69-1.42l-2.3,1.5a1.08,1.08,0,0,0,.58,2h14.93a1,1,0,0,0,1-.95v-4C138.71,183.47,136.45,184.87,131.19,185.4Z"/><path class="cls-3" d="M146.44,139l16.87,1.3-4.68,39.82h0l4.19,2.74,1.69,1.1.63,1.74s-1.31,0-1.35.25-2.26.49-4.28.39-1.88,0-5.21,0-2.7-.71-3.23-1c-.35-.16-.55-1.36-.65-2.17l-.08,0v-3.05S146.44,139,146.44,139Z"/><path class="cls-4" d="M161.2,158.26l-2.57,21.88h0l4.19,2.74,1.69,1.1.63,1.74s-1.31,0-1.35.25-2.26.49-4.28.39-1.88,0-5.21,0-2.7-.71-3.23-1c-.35-.16-.55-1.36-.65-2.17l-.08,0v-3.05s-1-10.91-2-21.49A49.45,49.45,0,0,0,161.2,158.26Z"/><path class="cls-7" d="M158.84,185.4c3.39.34,5-.4,5.68-1.42l2.3,1.5a1.08,1.08,0,0,1-.58,2H151.31a1,1,0,0,1-1-.95v-4C151.31,183.47,153.57,184.87,158.84,185.4Z"/><path class="cls-4" d="M157.72,85.66l18.55,3.71a9.36,9.36,0,0,0,9.39-6.1l6-13.37a37.36,37.36,0,0,0-5.37-3l-8.66,11.5-22.52-4.65S155.46,83.18,157.72,85.66Z"/><path class="cls-7" d="M155.08,73.73a9.86,9.86,0,0,0-3.77,0,38.33,38.33,0,0,1-18.53,0,14.75,14.75,0,0,0-3.72,0s-7.65,62.39-10.69,70.6c0,0,24.4,8.12,53.28-2.24,0,0-10-39.49-13.93-56.43C155.28,83,155.08,73.73,155.08,73.73Z"/><path class="cls-4" d="M132.78,73.73s2.79,7.52,9.66,1.13A61,61,0,0,1,132.78,73.73Z"/><path class="cls-4" d="M151.79,73.62s-2.64,7.63-9.51,1.24A71,71,0,0,0,151.79,73.62Z"/><path class="cls-9" d="M133.54,88.23h18.23a0,0,0,0,1,0,0V90.1a6.52,6.52,0,0,1-6.52,6.52h-5.19a6.52,6.52,0,0,1-6.52-6.52V88.23A0,0,0,0,1,133.54,88.23Z"/><path class="cls-7" d="M142.43,32.08h-.9C121.61,31.86,126,50.23,126,50.23c13.92-2.57,16-13,16-13s2.07,10.47,16,13C158,50.23,162.35,31.86,142.43,32.08Z"/><path class="cls-4" d="M45.19,167.5l.57,15.2,5.78,3.11,2.74-5L55.66,169A71.25,71.25,0,0,1,45.19,167.5Z"/><path class="cls-4" d="M81.67,167.5l-.56,15.2-5.79,3.11-2.74-5L71.2,169A71,71,0,0,0,81.67,167.5Z"/><path class="cls-3" d="M81.93,76.83c-.13,3,.76,10.43.83,14.09s2,15.16,2.09,16.33l5.74.21c1.53-7.87.69-37.92.69-37.92l.23-.57S84.18,70,82,71.38,82.05,73.81,81.93,76.83Z"/><polygon class="cls-3" points="83.34 122.25 81.1 182.7 75.31 185.81 72.57 180.84 66.64 129.96 83.34 122.25"/><polygon class="cls-3" points="43.52 122.25 45.76 182.7 51.54 185.81 54.28 180.84 60.22 129.96 43.52 122.25"/><path class="cls-10" d="M43.8,100.92l-8.09,29.7S49.91,135,61,133.83l1.24-15.67L65,117l1.79,17.41s13.47.77,22-1.63l-6.3-32.56Z"/><path class="cls-3" d="M70.7,47.49s-5.54-1.16-15.85-.43,4.77,6.53,4.77,6.53,5.29-.17,5.52-.21S70.7,47.49,70.7,47.49Z"/><rect class="cls-3" x="57.59" y="41.68" width="9.15" height="16.03" transform="translate(124.33 99.39) rotate(180)"/><path class="cls-3" d="M25.76,58.12l-6.33,2.71-9-11.91-5,2.64L11.68,65.5a9,9,0,0,0,9,5.86l11-.72Z"/><path class="cls-3" d="M5.58,51.84c-.51-.43-1-.77-1-.77-4.83-4.89-4.7-5-4.55-5.2s2.71,1.23,2.78,1S.2,43.55.55,43.49s3.19,2.4,3.31,2.2-2.54-3-2.14-3.38,3.21,2.87,3.42,2.48S2.39,41.18,2.8,40.93s3.75,3.31,4.83,4.43a.25.25,0,0,0,.43-.12c.7-3,.93-3.2,1.24-3s.84,4.18,1.21,6.78L5.58,51.85Z"/><path class="cls-3" d="M90.55,107c.25.62.51,1.14.51,1.14,2,6.56,1.86,6.59,1.63,6.71s-1.83-2.35-2-2.13.83,4.12.49,4-1.73-3.59-1.93-3.47.85,3.87.34,4-1.52-4-1.89-3.78.77,4.48.29,4.51-1.79-4.67-2.23-6.16a.25.25,0,0,0-.43-.09c-2,2.34-2.31,2.41-2.51,2.13s1.19-4.1,2.06-6.58l5.7-.27Z"/><path class="cls-5" d="M57.61,44.42V39h9.13V43.6C64.77,44.66,61.86,45.27,57.61,44.42Z"/><path class="cls-3" d="M43.2,22.63a3.38,3.38,0,0,1,3.06.12A15.68,15.68,0,0,1,62.53,6.5,15.68,15.68,0,0,1,78.8,22.75a3.38,3.38,0,0,1,3.06-.12c1.83.9,2.39,3.48,1.27,5.76s-3.53,3.4-5.36,2.5a2.66,2.66,0,0,1-.68-.47,14.66,14.66,0,0,1-29.12,0,2.66,2.66,0,0,1-.68.47c-1.83.9-4.23-.22-5.36-2.5S41.37,23.53,43.2,22.63Z"/><path class="cls-6" d="M66.64,25.94a1.37,1.37,0,1,0,1.44-1.29A1.37,1.37,0,0,0,66.64,25.94Z"/><path class="cls-6" d="M54.85,26.07a1.37,1.37,0,1,0,1.45-1.29A1.37,1.37,0,0,0,54.85,26.07Z"/><path class="cls-7" d="M65.14,23.15a12,12,0,0,1,2-.54A6.55,6.55,0,0,1,69,22.53a6.15,6.15,0,0,1,1.85.47,5.47,5.47,0,0,1,.91.42c.31.15.59.35.93.5A6,6,0,0,0,72.1,23a5.31,5.31,0,0,0-.84-.72,4.43,4.43,0,0,0-2.12-.77,4.71,4.71,0,0,0-2.24.32A4.36,4.36,0,0,0,65.14,23.15Z"/><path class="cls-7" d="M59.62,23.13a4.27,4.27,0,0,0-1.76-1.31,4.67,4.67,0,0,0-2.23-.33,4.58,4.58,0,0,0-2.13.75,5.8,5.8,0,0,0-.84.72,4.94,4.94,0,0,0-.64.88c.34-.15.63-.34.94-.49a5.44,5.44,0,0,1,.91-.41,6.13,6.13,0,0,1,1.85-.46,6.92,6.92,0,0,1,1.92.09A12.09,12.09,0,0,1,59.62,23.13Z"/><path class="cls-5" d="M61.91,24.07A7.76,7.76,0,0,0,62,26.22a5.79,5.79,0,0,0,.3,1.06,2.92,2.92,0,0,0,.64,1c.36.28.52.35.63.61a.94.94,0,0,1-.06.78A2.93,2.93,0,0,1,62.06,31a2.44,2.44,0,0,0,2-1,1.49,1.49,0,0,0,.2-1.26,1.86,1.86,0,0,0-.78-.91,2.59,2.59,0,0,1-.51-.76c-.15-.29-.25-.61-.38-.93C62.32,25.43,62.13,24.76,61.91,24.07Z"/><path class="cls-11" d="M70.61,46.89l9,1.55a11.26,11.26,0,0,1,7.18,4.45l8.48,17-12.46,7,2.07,29.68s-27.66,7-44.46-.51L42.7,65.22,32.1,75S23.31,65,22.53,58L42.18,47.93l12.92-1.3S62.6,54.89,70.61,46.89Z"/><path class="cls-12" d="M84.83,106.51,82.76,76.83l-1.64-9.3L78.6,49.7l-7.9-.78s-7.44,7.26-16.3,0l-9.5,1.87L42.11,75.55,40.37,106S52.45,113.46,84.83,106.51Z"/><path class="cls-4" d="M82.76,76.83c-.12-1.57-.36-3.13-.63-4.68a46.45,46.45,0,0,0-1-4.62c.13,1.58.36,3.14.63,4.69S82.34,75.31,82.76,76.83Z"/><path class="cls-5" d="M66.34,32.64a10.49,10.49,0,0,1-2.42,1.24,8,8,0,0,1-2.64.48,6.91,6.91,0,0,1-2.62-.51,10.11,10.11,0,0,1-2.32-1.42,7.44,7.44,0,0,0,2.22,1.64,6.15,6.15,0,0,0,2.72.61A7.2,7.2,0,0,0,64,34.11,7.78,7.78,0,0,0,66.34,32.64Z"/><path class="cls-7" d="M44.5,18.07v4.25a2.63,2.63,0,0,1,2.69,1.75s2.52-1.18,2.47-5.15S44.5,18.07,44.5,18.07Z"/><path class="cls-7" d="M80.47,18.07v4.25a2.63,2.63,0,0,0-2.69,1.75s-2.52-1.18-2.46-5.15S80.47,18.07,80.47,18.07Z"/><path class="cls-13" d="M80.76,16.39,76.07,1.14S69.4.2,62.6,0C55.8.2,49.13,1.14,49.13,1.14L44.44,16.39l-6.23,4.84A137.67,137.67,0,0,1,62.6,19.45,137.67,137.67,0,0,1,87,21.23Z"/><path class="cls-14" d="M44.44,16.39l-6.23,4.84A137.67,137.67,0,0,1,62.6,19.45,137.67,137.67,0,0,1,87,21.23l-6.23-4.84C53.07,13.06,44.44,16.39,44.44,16.39Z"/><path class="cls-7" d="M72.44,179.57v6.74a1,1,0,0,0,1,1H89.26a1.14,1.14,0,0,0,.61-2.11l-8.65-5.64S77.53,182.11,72.44,179.57Z"/><path class="cls-7" d="M54.41,179.57v6.74a1,1,0,0,1-1,1H37.6a1.15,1.15,0,0,1-.62-2.11l8.66-5.64S49.33,182.11,54.41,179.57Z"/></g></g></svg>