<?xml version="1.0" encoding="UTF-8"?>
<!DOCTYPE svg PUBLIC "-//W3C//DTD SVG 1.1//EN" "http://www.w3.org/Graphics/SVG/1.1/DTD/svg11.dtd">
<!-- Creator: CorelDRAW -->
<svg xmlns="http://www.w3.org/2000/svg" xml:space="preserve" width="297mm" height="60mm" style="shape-rendering:geometricPrecision; text-rendering:geometricPrecision; image-rendering:optimizeQuality; fill-rule:evenodd; clip-rule:evenodd"
viewBox="0 0 297 60"
 xmlns:xlink="http://www.w3.org/1999/xlink">
 <defs>
  <style type="text/css">
   <![CDATA[
    .str2 {stroke:#00923F;stroke-width:0.0762}
    .str0 {stroke:white;stroke-width:0.0762}
    .str1 {stroke:white;stroke-width:0.3528}
    .fil2 {fill:#00923F}
    .fil1 {fill:white}
    .fil0 {fill:#7CC492}
   ]]>
  </style>
 </defs>
 <g id="Vrstva_x0020_1">
  <metadata id="CorelCorpID_0Corel-Layer"/>
  <g id="_157359544">
   <rect id="_157309144" class="fil0" width="297" height="60"/>
   <polygon id="_165933584" class="fil1 str0" points="32.096,14.68 32.5924,14.68 32.5924,17.1013 34.9999,17.1013 34.9999,17.5925 32.5924,17.5925 32.5924,20 32.096,20 32.096,17.5925 29.6781,17.5925 29.6781,17.1013 32.096,17.1013 "/>
   <path id="_161087352" class="fil1 str0" d="M225.25 37.9637l5.3218 0 0 0.4929 -5.3218 0 0 -0.4929zm0 1.8904l5.3218 0 0 0.5015 -5.3218 0 0 -0.5015z"/>
   <path id="_161086624" class="fil1 str0" d="M90.6694 8.0387l-0.1937 0 -0.4445 -4.1093c-0.0207,-0.1782 -0.0311,-0.3044 -0.0311,-0.3753 0,-0.2249 0.0553,-0.403 0.1678,-0.531 0.1106,-0.128 0.2456,-0.192 0.4047,-0.192 0.1625,0 0.2974,0.064 0.4081,0.192 0.109,0.128 0.1643,0.32 0.1643,0.5776 0,0.0848 -0.0086,0.1972 -0.0259,0.339l-0.4497 4.099zm0.4601 1.3992c0,0.1557 -0.0536,0.2871 -0.1643,0.3978 -0.109,0.1089 -0.2422,0.1643 -0.3978,0.1643 -0.1522,0 -0.2819,-0.0554 -0.3926,-0.1643 -0.109,-0.1107 -0.1643,-0.2421 -0.1643,-0.3978 0,-0.1557 0.0553,-0.2871 0.1643,-0.3961 0.1107,-0.1072 0.2404,-0.1608 0.3926,-0.1608 0.1556,0 0.2888,0.0536 0.3978,0.1608 0.1107,0.109 0.1643,0.2404 0.1643,0.3961z"/>
   <path id="_161086984" class="fil1 str0" d="M261.35 8.4688l10.2601 7.0442 1.7955 -0.4362c0.0743,-0.1266 0.057,-0.2349 -0.0448,-0.325l-3.4883 -2.9396c0.1288,-0.1179 0.2426,-0.1394 0.3387,-0.059l3.5147 2.8625c0.1427,0.1131 0.1826,0.2391 0.1264,0.3709l2.8047 -0.7717 0.0711 -0.1489 -7.1444 -4.148 -8.1075 -1.7132 -0.1262 0.264zm-0.2284 5.0284c1.5404,-0.7546 3.0074,-0.7991 4.4007,-0.1335 0.2557,0.1222 0.5076,0.2736 0.7545,0.4502 1.5294,1.1032 2.5131,2.6842 2.9497,4.7456 0.2406,-0.4096 0.5042,-0.7736 0.7839,-1.0919 0.6769,-0.7669 1.4049,-1.2507 2.1867,-1.45 0.273,-0.0731 0.5351,-0.0583 0.7903,0.0429l0.4133 -0.8652 -1.8529 0.4915 -7.2464 -5.0179c-0.2515,0.0351 -0.7125,0.1841 -1.3788,0.4523 -0.7373,0.431 -1.3386,1.2202 -1.801,2.376zm8.8236 -1.671l3.4909 2.934c0.1087,0.083 0.1208,0.2095 0.0429,0.3724l-2.2693 4.7503c0.0191,0.061 0.0519,0.1008 0.0967,0.1153 0.0562,0.0268 0.1049,0.0259 0.142,-0.0012l2.1164 -4.4301c0.1328,-0.2781 0.2092,-0.4451 0.2264,-0.4956 0.051,-0.1861 0.0164,-0.3303 -0.0941,-0.4314 -0.5569,-0.4593 -1.7187,-1.4145 -3.4895,-2.8574 -0.0707,-0.0614 -0.1568,-0.0473 -0.2624,0.0437zm3.9006 3.2608c-0.0583,0.1654 -0.1305,0.331 -0.2153,0.4941l-0.2859 0.5983c0.3579,0.1537 0.6443,0.363 0.8595,0.6349 0.034,-0.2011 0.031,-0.5994 -0.0132,-1.2001 -0.0348,-0.1512 -0.1077,-0.3379 -0.219,-0.5601l-0.1261 0.0329zm-3.528 4.9944c-0.0782,0.2938 0.113,0.5508 0.5793,0.7736 0.4663,0.2228 0.7892,0.2114 0.9686,-0.0341 0.0103,-0.1228 -0.0139,-0.3034 -0.0766,-0.5404 -0.0517,-0.0868 -0.1508,-0.1755 -0.2985,-0.2634 -0.0478,0.0566 -0.1144,0.0662 -0.2043,0.0232 -0.0871,-0.0416 -0.1216,-0.0994 -0.1076,-0.1721 -0.1216,-0.0271 -0.2529,-0.0484 -0.3925,-0.0668 -0.132,0.0163 -0.2876,0.1111 -0.4684,0.28zm-0.7288 0.7456l-0.0073 0.138 0.5308 -0.4538 -0.4871 0.6368 0.0935 0.1654 0.5201 -0.583 -0.3849 0.7477 0.1304 0.1244 0.4903 -0.687 -0.296 0.8074 0.1577 0.096 0.4505 -0.7336 -0.2847 0.8128 0.171 0.061 0.4449 -0.7363 -0.2292 0.8118 0.1815 0.0246 0.3371 -0.7706 -0.124 0.7723 0.1846 -0.0325 0.1921 -0.7777 -0.0194 0.698 0.1028 -0.0924 0.1375 -0.9452c-0.1637,0.2633 -0.5061,0.2723 -1.023,0.0253 -0.5141,-0.2456 -0.7223,-0.5175 -0.6231,-0.8117l-0.6461 0.7023z"/>
   <path id="_167129096" class="fil1 str0" d="M142.892 5.5623c0,0.1557 -0.0537,0.2888 -0.1626,0.3978 -0.1073,0.1107 -0.2404,0.166 -0.3944,0.166 -0.1556,0 -0.2888,-0.0553 -0.3977,-0.166 -0.1107,-0.109 -0.1661,-0.2421 -0.1661,-0.3978 0,-0.1557 0.0554,-0.2871 0.1661,-0.3978 0.1089,-0.1089 0.2421,-0.1643 0.3977,-0.1643 0.154,0 0.2871,0.0554 0.3944,0.1643 0.1089,0.1107 0.1626,0.2421 0.1626,0.3978zm-3.2135 1.3577l5.3217 0 0 0.5033 -5.3217 0 0 -0.5033zm3.2238 1.8852c0,0.1556 -0.0553,0.2888 -0.166,0.3978 -0.109,0.1106 -0.2422,0.166 -0.3961,0.166 -0.1556,0 -0.2888,-0.0554 -0.3978,-0.166 -0.1107,-0.109 -0.166,-0.2422 -0.166,-0.3978 0,-0.1557 0.0553,-0.2889 0.166,-0.3996 0.109,-0.1124 0.2422,-0.1677 0.3978,-0.1677 0.1539,0 0.2871,0.0553 0.3961,0.1677 0.1107,0.1107 0.166,0.2439 0.166,0.3996z"/>
   <polygon id="_158927544" class="fil1 str0" points="207.096,42.06 207.592,42.06 207.592,44.4813 210,44.4813 210,44.9725 207.592,44.9725 207.592,47.38 207.096,47.38 207.096,44.9725 204.678,44.9725 204.678,44.4813 207.096,44.4813 "/>
   <polygon id="_161086264" class="fil1 str0" points="212.339,5.0001 217.661,5.0001 217.661,5.5034 212.339,5.5034 "/>
   <polygon id="_166186312" class="fil1 str0" points="25.0001,50.0001 30.3219,50.0001 30.3219,50.5034 25.0001,50.5034 "/>
   <polygon id="_166186136" class="fil1 str0" points="245.617,3.7317 247.5,5.6065 249.385,3.7317 249.735,4.0759 247.856,5.9663 249.735,7.8411 249.385,8.1956 247.5,6.3156 245.617,8.1956 245.262,7.8411 247.145,5.9611 245.262,4.0863 "/>
   <path id="_166185840" class="fil1 str0" d="M45.0002 32.3879c0,0.2931 -0.0586,0.605 -0.1712,0.9333 -0.1243,0.3541 -0.2673,0.5839 -0.4268,0.6941l0.3846 0.1102 0 0.4385 -0.3166 0.1032c-0.0352,0.1337 -0.075,0.3565 -0.1172,0.6683 -0.0047,0.3284 0.0352,0.6473 0.1172,0.9545l0.3166 0.143 0 0.4198 -6.2096 3.147 -4.0123 -3.4425c-0.4549,-0.3893 -0.6707,-1.0201 -0.6473,-1.8971 0.0047,-0.2744 0.0657,-0.4737 0.1783,-0.5956 0.0609,-0.0704 0.1993,-0.1572 0.4197,-0.2627 0.1595,-0.0774 0.6519,-0.1923 1.4774,-0.3424l-1.0717 -0.5018 0 -0.3447 0.4127 -0.1079c0.0868,-0.3306 0.129,-0.666 0.129,-1.0037 0,-0.0773 -0.007,-0.1875 -0.0187,-0.3306l-2.0144 -0.4315 0 -0.3447 0.2626 -0.0328c0.0962,-0.2533 0.1431,-0.5534 0.1431,-0.9005 0,-0.3541 -0.0469,-0.659 -0.1431,-0.9146l-0.2626 0 0 -0.2532 3.5879 -0.4057 6.3596 0.4127c0.3025,0.0211 0.5535,0.1548 0.7528,0.394 0.1993,0.2415 0.3002,0.5534 0.3002,0.938 0,0.5229 -0.2557,0.9169 -0.7645,1.1819 0.4127,-0.0047 0.6894,0.0445 0.8325,0.1501 0.1407,0.1055 0.2626,0.3189 0.3634,0.6401 0.0915,0.2885 0.1384,0.5488 0.1384,0.7833zm-0.3236 0.0211c0.0047,-0.3588 -0.0704,-0.6707 -0.2275,-0.9357 -0.1454,-0.2509 -0.3025,-0.3681 -0.4737,-0.3494l-3.8599 0.4596c0.1595,0.4174 0.2392,0.8771 0.2392,1.3812 0,0.5347 -0.082,1.0811 -0.2462,1.6345l4.0803 -0.9614c0.1243,-0.0282 0.2345,-0.1618 0.3307,-0.4057 0.0961,-0.2416 0.1477,-0.5183 0.1571,-0.8231zm-6.5872 -2.9477c0.0071,-0.4033 -0.1008,-0.7199 -0.3283,-0.9521 -0.2251,-0.2321 -0.5018,-0.3306 -0.8278,-0.2978l-3.1329 0.2884c0.1008,0.2885 0.1524,0.6074 0.1524,0.9615 0,0.3471 -0.0516,0.6847 -0.1524,1.0083l2.9078 0.469c0.054,0.0094 0.1102,0.0118 0.1642,0.0118 0.3306,0 0.612,-0.1384 0.8489,-0.4151 0.2345,-0.2767 0.3587,-0.6355 0.3681,-1.074zm2.1504 3.5034c0,-0.5041 -0.0844,-0.9638 -0.2486,-1.3812l-1.1818 -0.2204c-0.788,0.1102 -1.3367,0.1665 -1.6486,0.1665 -0.0774,0 -0.1383,-0.0047 -0.1782,-0.0141l-1.4234 -0.3095c0.014,0.1501 0.0211,0.265 0.0211,0.3424 0,0.34 -0.0563,0.7152 -0.1712,1.1279l4.5821 1.9229c0.1642,-0.5534 0.2486,-1.0998 0.2486,-1.6345zm4.1835 3.5457c-0.1149,-0.3729 -0.1712,-0.748 -0.1665,-1.1279 0,-0.1689 0.0375,-0.3964 0.1102,-0.6801l-5.6679 1.937c-0.0914,0.3025 -0.136,0.6589 -0.136,1.0717 0,0.4947 0.0493,0.9825 0.1501,1.4633l5.7101 -2.664zm-5.8602 2.664c-0.0961,-0.4808 -0.1454,-0.9686 -0.1454,-1.4633 0,-0.4128 0.0493,-0.7692 0.1454,-1.0717l-3.5738 -2.3497c-0.1055,-0.068 -0.2087,-0.1032 -0.3095,-0.1032 -0.2697,0 -0.3987,0.2181 -0.3916,0.6543 0.014,0.612 0.1454,1.0177 0.3916,1.2147l3.8833 3.1189z"/>
   <path id="_166185080" class="fil1 str0" d="M90.6499 45.3251l-0.2076 0c0.0242,-0.4255 0.0761,-0.7766 0.1592,-1.055 0.083,-0.2785 0.2542,-0.6676 0.5154,-1.164 0.2023,-0.3805 0.3337,-0.6745 0.3943,-0.8786 0.0605,-0.2041 0.0916,-0.4116 0.0916,-0.6209 0,-0.4289 -0.1141,-0.7696 -0.3424,-1.0239 -0.2283,-0.2525 -0.5067,-0.3787 -0.8388,-0.3787 -0.294,0 -0.5241,0.0691 -0.6936,0.2075 -0.1695,0.1384 -0.2542,0.2888 -0.2542,0.4497 0,0.1263 0.0519,0.2802 0.1522,0.4618 0.102,0.1833 0.1522,0.3217 0.1522,0.4151 0,0.1228 -0.0381,0.2248 -0.1159,0.3078 -0.0778,0.0813 -0.1729,0.1228 -0.2836,0.1228 -0.1418,0 -0.2716,-0.0692 -0.3874,-0.2093 -0.1176,-0.1401 -0.1747,-0.3355 -0.1747,-0.5863 0,-0.3805 0.1626,-0.7195 0.4912,-1.0135 0.3268,-0.294 0.7713,-0.4393 1.3317,-0.4393 0.697,0 1.2072,0.2024 1.5358,0.6071 0.2439,0.2975 0.3649,0.6261 0.3649,0.9876 0,0.2473 -0.0553,0.4998 -0.1643,0.7609 -0.1107,0.2595 -0.3182,0.5656 -0.626,0.9167 -0.4895,0.5534 -0.7904,0.946 -0.8994,1.1778 -0.1107,0.2318 -0.1764,0.55 -0.2006,0.9547zm-0.0709 0.6295c0.1591,0 0.294,0.0554 0.403,0.1644 0.1089,0.1089 0.1643,0.2438 0.1643,0.4029 0,0.1557 -0.0554,0.2871 -0.1661,0.3978 -0.1124,0.109 -0.2456,0.1643 -0.4012,0.1643 -0.1557,0 -0.2871,-0.0553 -0.3978,-0.1643 -0.109,-0.1107 -0.1643,-0.2421 -0.1643,-0.3978 0,-0.1591 0.0553,-0.294 0.1643,-0.4029 0.1107,-0.109 0.2421,-0.1644 0.3978,-0.1644z"/>
   <path id="_166184784" class="fil1 str0" d="M252.718 50.4344c-0.818,-0.1158 -1.515,-0.4185 -2.0944,-0.9131l-1.1381 -0.1211 -1.458 -0.614c0.2456,-0.5206 0.595,-0.78 1.0481,-0.78 0.0986,0 0.2041,0.0156 0.3183,0.0484 0.1158,0.0329 0.2369,0.0813 0.3649,0.1505 0.2577,-0.0778 0.4687,-0.1384 0.6382,-0.1782 0.0398,-0.2161 0.0605,-0.3839 0.0605,-0.5015 -0.2836,-0.2093 -0.5119,-0.4134 -0.6883,-0.614 -0.2058,0.1193 -0.4376,0.23 -0.6936,0.3355 -0.0605,0.6728 -0.4202,1.0083 -1.0792,1.0083l0 -1.4995 1.1761 -1.0947 -0.9634 -0.8164c-0.4462,-0.3701 -0.6693,-0.7022 -0.6693,-0.9927 0,-0.2058 0.1021,-0.4169 0.3044,-0.633l1.6621 1.2106 -0.1626 -0.3597c-0.1418,-0.3131 -0.2127,-0.5932 -0.2127,-0.8406 0,-0.3372 0.1954,-0.5932 0.588,-0.7696l1.119 1.9855 0.045 -0.3597c0.0778,-0.6694 0.3805,-1.0032 0.908,-1.0032 0.0329,0 0.0934,0.0035 0.1764,0.0104 -0.0294,0.2335 -0.045,0.512 -0.045,0.8354 0,0.7869 0.0623,1.6569 0.1868,2.6098l2.4127 3.1772c-0.3615,0.6658 -0.7938,1.0775 -1.2971,1.2366l-0.5068 -0.5172zm-0.9322 -4.3272c-0.0847,-0.6521 -0.1262,-1.3715 -0.1262,-2.1585 0,-0.1591 0.0086,-0.3666 0.0259,-0.6226 -0.2145,0.0571 -0.3632,0.1678 -0.448,0.3338 -0.0847,0.166 -0.1262,0.4324 -0.1262,0.8008 0,0.1037 0.0104,0.275 0.0311,0.5119l0.6434 1.1346zm-0.5223 -0.3857l-1.6413 -2.9073c-0.1609,0.1072 -0.2422,0.249 -0.2422,0.4254 0,0.2197 0.0986,0.5396 0.2941,0.9616l0.2473 0.5327 1.3421 0.9876zm-0.1159 0.2075l-3.2532 -2.3504c-0.0571,0.0986 -0.0865,0.1903 -0.0865,0.2733 0,0.2438 0.2421,0.5621 0.7247,0.9581l0.9633 0.7852 1.6517 0.3338zm1.6569 4.2374l0.4808 0.5309c0.403,-0.2525 0.7108,-0.5811 0.927,-0.9823l-2.6081 -3.4107 -2.2242 -0.4963 -1.1397 1.0481 0.0052 1.1293c0.3857,-0.0864 0.5776,-0.3338 0.5776,-0.7385 0,-0.0553 -0.0017,-0.1158 -0.0052,-0.1833 0.3736,-0.1211 0.7022,-0.2802 0.9824,-0.4756 0.2491,0.2698 0.5552,0.55 0.9201,0.8405 0,0.2404 -0.0467,0.5137 -0.1418,0.8216 -0.1487,0.0276 -0.2888,0.0588 -0.4203,0.0951 -0.1989,0.0605 -0.3493,0.1038 -0.4548,0.1262 -0.1004,-0.0709 -0.2024,-0.1245 -0.3062,-0.1591 -0.102,-0.0363 -0.2075,-0.0536 -0.3113,-0.0536 -0.2698,0 -0.4964,0.1366 -0.678,0.4116l1.1536 0.486 1.1381 0.1073c0.6088,0.5396 1.3109,0.8405 2.1048,0.9028z"/>
   <g>
    <path id="_166183560" class="fil1 str1" d="M14.9664 41.4276c0,0.789 -0.3695,1.4644 -1.1039,2.0219 -0.7365,0.5595 -1.6262,0.8393 -2.6688,0.8393 -0.5027,0 -0.9836,-0.0722 -1.4405,-0.2164 -0.1399,0.8656 -0.6316,1.2984 -1.4732,1.2984 -0.2864,0 -0.6251,-0.1137 -1.0185,-0.3453 0.3563,-0.0394 0.6425,-0.1881 0.8655,-0.4503 0.223,-0.2645 0.3322,-0.5968 0.3322,-1.0034 0,-0.059 -0.0021,-0.1223 -0.0066,-0.1857 -0.6819,-0.5508 -1.0229,-1.2045 -1.0229,-1.9585 0,-0.7869 0.3673,-1.447 1.1017,-1.9804 0.7212,-0.5246 1.6065,-0.7868 2.6558,-0.7868 1.0469,0 1.9388,0.2644 2.6753,0.7934 0.7344,0.5289 1.1039,1.1869 1.1039,1.9738z"/>
    <path id="_166183264" class="fil1 str0" d="M20.2288 38.1178c0,0.8961 -0.4524,1.6305 -1.3573,2.201 -0.0219,0.1509 -0.0328,0.2886 -0.0328,0.4176 0,0.3803 0.1158,0.6994 0.3453,0.9595 0.0263,0.0306 0.2667,0.2361 0.7235,0.6165 -0.7541,0.0153 -1.342,-0.1181 -1.7596,-0.4044 -0.3168,-0.2143 -0.5705,-0.5509 -0.7628,-1.0121 -0.3038,0.0612 -0.6098,0.0896 -0.9223,0.0896 -0.3454,0 -0.7104,-0.0525 -1.0951,-0.1595 -0.1487,-0.5596 -0.4678,-1.0645 -0.9531,-1.517 -0.5223,-0.4874 -1.0754,-0.7519 -1.659,-0.7957 -0.0393,-0.166 -0.059,-0.2972 -0.059,-0.3955 0,-0.7782 0.3672,-1.4251 1.1016,-1.941 0.7213,-0.5006 1.6109,-0.7497 2.6646,-0.7497 1.0535,0 1.9431,0.2491 2.6645,0.7497 0.7344,0.5159 1.1015,1.1628 1.1015,1.941z"/>
   </g>
   <path id="_166183416" class="fil1 str0" d="M260 35.7557l0.2232 0c0.038,0.4636 0.1833,0.8181 0.4358,1.0654 0.2542,0.2456 0.633,0.3926 1.1363,0.4411l0 -2.9593c-0.761,-0.4704 -1.2678,-0.8855 -1.5203,-1.2469 -0.1798,-0.256 -0.2698,-0.5691 -0.2698,-0.9374 0,-0.4151 0.1557,-0.7783 0.4635,-1.0897 0.3096,-0.3113 0.7507,-0.4981 1.3266,-0.562l0 -0.467 0.3234 0 0 0.467c0.2767,0.0172 0.5102,0.0484 0.6987,0.0968 0.0986,0.0225 0.422,0.1401 0.9738,0.3494l0 1.515 -0.1972 0c-0.045,-0.5378 -0.1833,-0.9304 -0.4185,-1.1778 -0.2353,-0.249 -0.5864,-0.396 -1.0568,-0.4445l0 2.5736c0.8509,0.5949 1.3975,1.0342 1.6396,1.3162 0.2404,0.2819 0.3615,0.6312 0.3615,1.0515 0,0.4652 -0.1764,0.8751 -0.5293,1.2314 -0.3528,0.3546 -0.844,0.5587 -1.4718,0.6123l0 0.6486 -0.3234 0 0 -0.6486c-0.3182,-0.0139 -0.614,-0.0502 -0.8873,-0.109 -0.2732,-0.0588 -0.5759,-0.1556 -0.908,-0.2905l0 -1.4356zm1.7953 -2.5891l0 -2.3556c-0.339,0.0415 -0.5898,0.1488 -0.7541,0.3217 -0.1626,0.1747 -0.2456,0.3926 -0.2456,0.6573 0,0.2455 0.0744,0.4756 0.2231,0.69 0.1488,0.2145 0.4082,0.4445 0.7766,0.6866zm0.3234 4.0956c0.2542,-0.045 0.448,-0.1073 0.5829,-0.1886 0.1885,-0.1176 0.339,-0.2732 0.4479,-0.4635 0.1107,-0.1902 0.1643,-0.3943 0.1643,-0.6105 0,-0.2231 -0.0657,-0.4341 -0.1989,-0.633 -0.1332,-0.1989 -0.4652,-0.4808 -0.9962,-0.8457l0 2.7413z"/>
   <path id="_166182184" class="fil1 str0" d="M180.88 7.5162l0.2232 0c0.038,0.4636 0.1833,0.8181 0.4358,1.0654 0.2542,0.2456 0.633,0.3926 1.1363,0.4411l0 -2.9593c-0.761,-0.4704 -1.2678,-0.8855 -1.5203,-1.2469 -0.1798,-0.256 -0.2698,-0.5691 -0.2698,-0.9374 0,-0.4151 0.1557,-0.7783 0.4635,-1.0897 0.3096,-0.3113 0.7507,-0.4981 1.3266,-0.562l0 -0.467 0.3234 0 0 0.467c0.2767,0.0172 0.5102,0.0484 0.6987,0.0968 0.0986,0.0225 0.422,0.1401 0.9738,0.3494l0 1.515 -0.1972 0c-0.045,-0.5378 -0.1833,-0.9304 -0.4185,-1.1778 -0.2353,-0.249 -0.5864,-0.396 -1.0568,-0.4445l0 2.5736c0.8509,0.5949 1.3975,1.0342 1.6396,1.3162 0.2404,0.2819 0.3615,0.6312 0.3615,1.0515 0,0.4652 -0.1764,0.8751 -0.5293,1.2314 -0.3528,0.3546 -0.844,0.5587 -1.4718,0.6123l0 0.6486 -0.3234 0 0 -0.6486c-0.3182,-0.0139 -0.614,-0.0502 -0.8873,-0.109 -0.2732,-0.0588 -0.5759,-0.1556 -0.908,-0.2905l0 -1.4356zm1.7953 -2.5891l0 -2.3556c-0.339,0.0415 -0.5898,0.1488 -0.7541,0.3217 -0.1626,0.1747 -0.2456,0.3926 -0.2456,0.6573 0,0.2455 0.0744,0.4756 0.2231,0.69 0.1488,0.2145 0.4082,0.4445 0.7766,0.6866zm0.3234 4.0956c0.2542,-0.045 0.448,-0.1073 0.5829,-0.1886 0.1885,-0.1176 0.339,-0.2732 0.4479,-0.4635 0.1107,-0.1902 0.1643,-0.3943 0.1643,-0.6105 0,-0.2231 -0.0657,-0.4341 -0.1989,-0.633 -0.1332,-0.1989 -0.4652,-0.4808 -0.9962,-0.8457l0 2.7413z"/>
   <path id="_167629800" class="fil1 str0" d="M57.506 51.3889l0 -0.3857c0,-0.3269 0.0415,-0.5863 0.1245,-0.7766 0.083,-0.1919 0.2543,-0.4254 0.5137,-0.7022l0.6693 -0.7039c0.2128,-0.2266 0.32,-0.3736 0.32,-0.441 0,-0.0744 -0.1297,-0.2439 -0.3909,-0.5068l-0.6693 -0.6901c-0.2266,-0.23 -0.3771,-0.4427 -0.4531,-0.6381 -0.0761,-0.1955 -0.1142,-0.4653 -0.1142,-0.8112l0 -0.4151c0,-0.2871 0.1868,-0.5015 0.5621,-0.6451 0.3753,-0.1435 0.9374,-0.2162 1.688,-0.2162 1.4995,0 2.2501,0.2871 2.2501,0.8613l0 0.4151c0,0.3459 -0.038,0.6157 -0.1141,0.8112 -0.0761,0.1954 -0.2266,0.4081 -0.4532,0.6381l-0.6693 0.6901c-0.2577,0.2629 -0.3857,0.4324 -0.3857,0.5068 0,0.0674 0.1055,0.2144 0.3148,0.441l0.6693 0.7039c0.2595,0.2768 0.4307,0.5103 0.5137,0.7022 0.083,0.1903 0.1245,0.4497 0.1245,0.7766l0 0.3857c0,0.3113 -0.1902,0.5448 -0.5724,0.7039 -0.3823,0.1591 -0.9409,0.2387 -1.6777,0.2387 -0.7368,0 -1.2954,-0.0796 -1.6776,-0.2387 -0.3823,-0.1591 -0.5725,-0.3926 -0.5725,-0.7039zm2.2501 -5.7455c0.4653,0 0.8959,-0.0519 1.292,-0.1574 0.3943,-0.1038 0.5898,-0.2179 0.5828,-0.339 -0.0069,-0.1245 -0.1885,-0.23 -0.5448,-0.3148 -0.3562,-0.0847 -0.8008,-0.1262 -1.33,-0.1262 -0.5344,0 -0.9789,0.0432 -1.3369,0.1297 -0.358,0.0865 -0.5379,0.1937 -0.5379,0.3217 0,0.1176 0.1989,0.2283 0.595,0.3321 0.3978,0.102 0.8232,0.1539 1.2798,0.1539zm-2.001 -0.192l0 0.486c0,0.2335 0.0345,0.4134 0.102,0.5396 0.0674,0.1263 0.2404,0.3407 0.5223,0.6399l0.5725 0.6088c0.2871,0.3131 0.4306,0.5345 0.4306,0.6642 0,0.1314 -0.1314,0.3389 -0.396,0.6226l-0.659 0.7039c-0.2559,0.2733 -0.4168,0.4774 -0.479,0.6123 -0.0623,0.1366 -0.0934,0.3407 -0.0934,0.614l0 0.3649c0,0.2196 0.0795,0.3718 0.2386,0.4548 0.3874,0.2128 0.9755,0.32 1.7624,0.32 0.7904,0 1.3785,-0.1072 1.7624,-0.32 0.1591,-0.083 0.2387,-0.2352 0.2387,-0.4548l0 -0.3649c0,-0.2733 -0.0311,-0.4774 -0.0934,-0.614 -0.0623,-0.1349 -0.2231,-0.339 -0.4791,-0.6123l-0.6589 -0.7039c-0.2629,-0.2837 -0.3944,-0.4981 -0.3944,-0.6434 0,-0.1159 0.1453,-0.3303 0.4359,-0.6434l0.5673 -0.6088c0.2801,-0.2992 0.4531,-0.5136 0.5205,-0.6399 0.0675,-0.1262 0.1021,-0.3061 0.1021,-0.5396l0 -0.486c-0.4635,0.294 -1.1294,0.441 -2.0011,0.441 -0.4358,0 -0.8198,-0.038 -1.1519,-0.1124 -0.3337,-0.0744 -0.6157,-0.1833 -0.8491,-0.3286zm0.5361 1.0031c0.4998,0.3165 0.9893,0.4756 1.4649,0.4756 0.4756,0 0.9651,-0.1591 1.4684,-0.4756 -0.083,0.1349 -0.2698,0.358 -0.5569,0.6694l-0.4203 0.46c-0.1885,0.2058 -0.3027,0.3494 -0.3442,0.4289 -0.0397,0.0796 -0.0743,0.2301 -0.1003,0.4532 -0.0069,0.0674 -0.0225,0.1695 -0.045,0.3044 -0.0242,-0.1349 -0.0397,-0.237 -0.0466,-0.3044 -0.0277,-0.2231 -0.0606,-0.3736 -0.1004,-0.4532 -0.0415,-0.0795 -0.1556,-0.2231 -0.3459,-0.4289l-0.4202 -0.46c-0.2871,-0.3114 -0.4722,-0.5345 -0.5535,-0.6694zm-0.2836 4.9499c0.0553,-0.2023 0.2577,-0.396 0.6088,-0.5776l0.4462 -0.2283c0.2802,-0.1453 0.4479,-0.2422 0.505,-0.294 0.0553,-0.0502 0.1176,-0.1626 0.1902,-0.339 0.0727,0.1764 0.1384,0.2888 0.192,0.339 0.0536,0.0518 0.2214,0.1487 0.5016,0.294l0.4445 0.2283c0.3511,0.1816 0.5534,0.3753 0.6088,0.5776 -0.4307,0.2162 -1.0118,0.3234 -1.7486,0.3234 -0.7368,0 -1.3196,-0.1072 -1.7485,-0.3234z"/>
   <path id="_167911256" class="fil1 str0" d="M12.9406 6.3401c0,0.2587 -0.1655,0.6079 -0.494,1.0476 -0.3828,0.5198 -0.6053,0.8613 -0.6674,1.0217 -0.6414,-0.2173 -1.2518,-0.3259 -1.8338,-0.3259 -0.3673,0 -0.7501,0.0232 -1.1433,0.0698 -0.4759,-0.9208 -0.7112,-1.5597 -0.7112,-1.9192 0,-0.1966 0.1655,-0.3311 0.4991,-0.4009 0.2871,-0.0595 0.582,-0.0906 0.8872,-0.0906l-0.1215 1.151 0.15 0.0311 0.4242 -1.3631c0.2069,-0.0621 0.613,-0.0931 1.2131,-0.0931 0.3491,0 0.7087,0.0672 1.076,0.1991 0.4811,0.1707 0.7216,0.3958 0.7216,0.6725zm0.6958 7.5786c0,0.7035 -0.1164,1.3114 -0.3492,1.8261 -0.3725,0.8225 -1.5235,1.2364 -3.4479,1.2364 -1.5545,0 -2.6667,-0.3596 -3.334,-1.076 -0.2871,-0.3104 -0.432,-0.8458 -0.432,-1.6063 0,-1.1381 0.2121,-2.227 0.6363,-3.2668 0.4967,-1.2286 1.1821,-2.0615 2.0615,-2.5012 0.3957,-0.0465 0.776,-0.0672 1.1458,-0.0672 0.5794,0 1.1976,0.1112 1.8546,0.3336 0.5716,0.5355 1.0346,1.3243 1.3864,2.3719 0.3207,0.9493 0.4785,1.8649 0.4785,2.7495zm-2.7883 -2.5917c-0.1216,-0.5717 -0.4164,-0.9053 -0.8872,-1.0088l0.0388 -0.3181 -0.3336 -0.044 -0.0388 0.3337c-0.3441,0.0103 -0.6234,0.1112 -0.8407,0.3026 -0.2276,0.2069 -0.3414,0.4785 -0.3414,0.8173 0,0.4242 0.3,0.8044 0.9027,1.1381l-0.1966 1.658c-0.375,-0.0957 -0.5897,-0.388 -0.644,-0.8768l-0.5924 0.1112c0.1061,0.7397 0.4967,1.1717 1.1666,1.2958l-0.0595 0.5174 0.3259 0.0439 0.0673 -0.5302c0.3983,0 0.732,-0.119 1.0009,-0.3595 0.2665,-0.2406 0.4009,-0.5587 0.4009,-0.9597 0,-0.4888 -0.3569,-0.9415 -1.0759,-1.3553l0.1526 -1.2364c0.2379,0.0724 0.3802,0.2638 0.4319,0.5768l0.5225 -0.106zm-1.2881 -0.507l-0.1293 1.0838c-0.2483,-0.1682 -0.3699,-0.3415 -0.3699,-0.5225 0,-0.344 0.1655,-0.5303 0.4992,-0.5613zm0.6518 2.6512c0,0.4604 -0.2457,0.7165 -0.7346,0.7656l0.1889 -1.5157c0.3647,0.2224 0.5457,0.4734 0.5457,0.7501z"/>
   <path id="_167644728" class="fil1 str0" d="M71.2373 3.8262c0.3987,0 0.704,0.1607 0.9129,0.4849 0.2103,0.3243 0.3155,0.688 0.3155,1.094 0,0.4952 -0.1213,0.8793 -0.3608,1.151 -0.2395,0.2702 -0.5273,0.406 -0.8632,0.406 -0.3856,0 -0.6894,-0.1519 -0.91,-0.4557 -0.2206,-0.3038 -0.3316,-0.6719 -0.3316,-1.1013 0,-0.3009 0.0585,-0.5755 0.1739,-0.8282 0.1153,-0.2526 0.2716,-0.4411 0.4673,-0.5652 0.1972,-0.1242 0.3959,-0.1855 0.596,-0.1855zm0.0044 0.2395c-0.1461,0 -0.2761,0.0847 -0.39,0.2556 -0.114,0.1724 -0.1709,0.5302 -0.1709,1.075 0,0.3988 0.0307,0.7011 0.0935,0.9071 0.0482,0.1592 0.1241,0.2819 0.2278,0.3681 0.0599,0.0511 0.1329,0.0759 0.222,0.0759 0.1373,0 0.2542,-0.073 0.3506,-0.222 0.1431,-0.2191 0.2147,-0.5857 0.2147,-1.0998 0,-0.5419 -0.0701,-0.9232 -0.2103,-1.1422 -0.0906,-0.1461 -0.2045,-0.2177 -0.3374,-0.2177zm4.4067 -0.2395l-4.2271 6.174 -0.3812 0 4.227 -6.174 0.3813 0zm-0.1797 3.0541c0.1913,0 0.3871,0.0643 0.5886,0.1928 0.2016,0.1286 0.3564,0.3155 0.466,0.5609 0.111,0.2454 0.165,0.5142 0.165,0.8092 0,0.5039 -0.1212,0.891 -0.3637,1.1568 -0.2424,0.2673 -0.5287,0.4002 -0.8603,0.4002 -0.3272,0 -0.6164,-0.1387 -0.8647,-0.4177 -0.2468,-0.2775 -0.371,-0.6573 -0.371,-1.1393 0,-0.2965 0.0555,-0.5696 0.1666,-0.8194 0.111,-0.2498 0.2643,-0.4367 0.4601,-0.5594 0.1957,-0.1227 0.4002,-0.1841 0.6134,-0.1841zm-0.0044 0.2279c-0.1417,0 -0.2629,0.0745 -0.3637,0.2264 -0.1285,0.2001 -0.1928,0.5769 -0.1928,1.1334 0,0.5142 0.0658,0.872 0.1972,1.0751 0.0979,0.1446 0.2147,0.2176 0.3506,0.2176 0.1314,0 0.2483,-0.0789 0.352,-0.2352 0.1358,-0.2089 0.2045,-0.5667 0.2045,-1.0735 0,-0.5375 -0.0687,-0.9129 -0.2045,-1.1262 -0.095,-0.146 -0.2089,-0.2176 -0.3433,-0.2176z"/>
   <path id="_29335104" class="fil1 str0" d="M45.7844 7.3105l1.0934 -1.6803 4.5547 -3.4681c0.5213,0.1572 0.8051,0.5247 0.8515,1.1037l-4.5683 3.468 -1.9313 0.5767zm4.8362 -4.3229c0.3336,0.1764 0.5417,0.4568 0.6231,0.8413l0.8514 -0.6468c-0.0768,-0.406 -0.2872,-0.683 -0.6298,-0.8311l-0.8447 0.6366zm-3.3391 2.5374c0.0373,-0.009 0.0678,-0.0135 0.0927,-0.0135 0.0882,0 0.1323,0.0418 0.1323,0.1255l-0.0034 0.0328 2.7466 -2.1032c-0.0735,-0.0555 -0.1447,-0.0984 -0.2159,-0.129l-2.7523 2.0874zm0.3177 0.2714c0.1018,0.0249 0.1527,0.0893 0.1527,0.1956l2.759 -2.1134c-0.0327,-0.0735 -0.0791,-0.1379 -0.139,-0.1956l-2.7727 2.1134zm0.2488 0.3245c0.0418,0.0023 0.0724,0.0136 0.0927,0.0317 0.0192,0.0192 0.0294,0.0464 0.0294,0.0814 0,0.0305 -0.0147,0.0758 -0.0429,0.1357l2.7432 -2.0976c-0.026,-0.0949 -0.0554,-0.1775 -0.0859,-0.2476l-2.7365 2.0964zm-1.4542 0.5473l0.1889 0.2386 1.0301 -0.3053c0.1504,-0.1323 0.225,-0.2307 0.225,-0.2951 0,-0.026 -0.0068,-0.0453 -0.0215,-0.0577 -0.0147,-0.0124 -0.0373,-0.0181 -0.0678,-0.0181 -0.0645,0 -0.1741,0.0385 -0.3313,0.1165 0.1323,-0.1267 0.199,-0.2318 0.199,-0.3155 0,-0.0418 -0.0113,-0.0735 -0.0351,-0.0938 -0.0226,-0.0215 -0.0588,-0.0317 -0.1074,-0.0317 -0.0509,0 -0.1549,0.0373 -0.3121,0.1131 0.1391,-0.1199 0.2092,-0.2251 0.2092,-0.3155 0,-0.0249 -0.0068,-0.043 -0.0203,-0.0554 -0.0125,-0.0125 -0.034,-0.0181 -0.0622,-0.0181 -0.0995,0 -0.2058,0.043 -0.3178,0.13l-0.5767 0.908z"/>
   <path id="_29335528" class="fil1 str0" d="M286.834 20.4051l-0.2076 0c0.0242,-0.4255 0.0761,-0.7766 0.1592,-1.055 0.083,-0.2785 0.2542,-0.6676 0.5154,-1.164 0.2023,-0.3805 0.3337,-0.6745 0.3943,-0.8786 0.0605,-0.2041 0.0916,-0.4116 0.0916,-0.6209 0,-0.4289 -0.1141,-0.7696 -0.3424,-1.0239 -0.2283,-0.2525 -0.5067,-0.3787 -0.8388,-0.3787 -0.294,0 -0.5241,0.0691 -0.6936,0.2075 -0.1695,0.1384 -0.2542,0.2888 -0.2542,0.4497 0,0.1263 0.0519,0.2802 0.1522,0.4618 0.102,0.1833 0.1522,0.3217 0.1522,0.4151 0,0.1228 -0.0381,0.2248 -0.1159,0.3078 -0.0778,0.0813 -0.1729,0.1228 -0.2836,0.1228 -0.1418,0 -0.2716,-0.0692 -0.3874,-0.2093 -0.1176,-0.1401 -0.1747,-0.3355 -0.1747,-0.5863 0,-0.3805 0.1626,-0.7195 0.4912,-1.0135 0.3268,-0.294 0.7713,-0.4393 1.3317,-0.4393 0.697,0 1.2072,0.2024 1.5358,0.6071 0.2439,0.2975 0.3649,0.6261 0.3649,0.9876 0,0.2473 -0.0553,0.4998 -0.1643,0.7609 -0.1107,0.2595 -0.3182,0.5656 -0.626,0.9167 -0.4895,0.5534 -0.7904,0.946 -0.8994,1.1778 -0.1107,0.2318 -0.1764,0.55 -0.2006,0.9547zm-0.0709 0.6295c0.1591,0 0.294,0.0554 0.403,0.1644 0.1089,0.1089 0.1643,0.2438 0.1643,0.4029 0,0.1557 -0.0554,0.2871 -0.1661,0.3978 -0.1124,0.109 -0.2456,0.1643 -0.4012,0.1643 -0.1557,0 -0.2871,-0.0553 -0.3978,-0.1643 -0.109,-0.1107 -0.1643,-0.2421 -0.1643,-0.3978 0,-0.1591 0.0553,-0.294 0.1643,-0.4029 0.1107,-0.109 0.2421,-0.1644 0.3978,-0.1644z"/>
   <g>
    <path id="_156966328" class="fil1 str2" d="M285.44 50.0502c0,0.1712 -0.0848,0.2577 -0.2577,0.2577l-7.9299 0c-0.1729,0 -0.2577,-0.0865 -0.2577,-0.2577l0 -5.4428c0,-0.173 0.0848,-0.2578 0.2577,-0.2578l7.9299 0c0.1729,0 0.2577,0.0848 0.2577,0.2578l0 5.4428z"/>
    <g>
     <path id="_157344056" class="fil1 str2" d="M287.462 48.8624c-0.0786,0.1521 -0.1936,0.1901 -0.3472,0.1108l-7.046 -3.6385c-0.1536,-0.0793 -0.1893,-0.1951 -0.1107,-0.3472l2.4973 -4.8361c0.0793,-0.1537 0.1936,-0.1901 0.3472,-0.1108l7.046 3.6384c0.1536,0.0794 0.19,0.1936 0.1107,0.3473l-2.4973 4.8361z"/>
     <g>
      <path id="_157344952" class="fil1 str2" d="M282.71 43.0745c-0.1155,-0.0363 -0.2311,-0.0726 -0.3474,-0.1113 -0.1295,-0.0318 -0.248,-0.021 -0.3593,0.0325 0.0167,0.0203 0.0466,0.0416 0.0912,0.0646 0.129,0.0666 0.2299,0.1012 0.3027,0.1038 0.0733,0.0048 0.1766,-0.0257 0.3128,-0.0896z"/>
      <path id="_157345496" class="fil1 str2" d="M283.116 42.8168c-0.0362,-0.1259 -0.1678,-0.2405 -0.3923,-0.3447 -0.1156,0.0278 -0.1962,0.0933 -0.2401,0.2011 0.0216,0.0675 0.1245,0.1849 0.3087,0.3521l0.0154 0.004c0.0818,-0.0414 0.1847,-0.1128 0.3083,-0.2125z"/>
      <path id="_157346040" class="fil1 str2" d="M285.412 44.5902c0.0306,-0.0367 0.0259,-0.0917 -0.0142,-0.161 -0.2212,-0.1182 -0.3766,-0.1867 -0.4684,-0.2088 -0.0252,0.0414 0.0026,0.1006 0.0835,0.1813 0.068,0.0682 0.127,0.1161 0.1777,0.1423 0.0261,0.0135 0.1002,0.0284 0.2214,0.0462z"/>
      <path id="_157346856" class="fil1 str2" d="M284.875 44.017l-0.1881 0.0099 -0.4413 -0.2045c-0.1001,-0.0361 -0.1376,-0.0729 -0.1146,-0.1098 -0.2195,-0.016 -0.4538,-0.0863 -0.6996,-0.2133 -0.06,-0.031 -0.0809,-0.0846 -0.0653,-0.1603l0.2118 -0.0444c-0.1342,-0.0303 -0.3563,-0.0866 -0.6715,-0.1696l0.1077 0.1004 -0.1285 0.0076 -0.1124 -0.1028c-0.2545,0.1158 -0.4996,0.1118 -0.7363,-0.0104 -0.046,-0.0238 -0.0881,-0.0629 -0.126,-0.1214l0.0627 -0.065c0.2444,-0.0549 0.4501,-0.0459 0.6177,0.0289 -0.0657,-0.0651 -0.1122,-0.1144 -0.1381,-0.1511 -0.0424,-0.0648 -0.0601,-0.1284 -0.0508,-0.1917 0.0405,-0.0783 0.1093,-0.1362 0.2057,-0.176 0.0965,-0.0398 0.1839,-0.0393 0.2622,0.0011 0.0661,0.0342 0.138,0.0946 0.2196,0.1815 0.0947,0.1034 0.1285,0.1811 0.1007,0.235 -0.0215,0.0415 -0.1136,0.1068 -0.2772,0.1936 0.1819,0.055 0.4541,0.1235 0.818,0.2063l-0.2768 0.1179c0.1181,0.0804 0.3276,0.1458 0.6294,0.1946 0.2725,0.0453 0.4928,0.0598 0.66,0.045l0.033 0.0792c-0.126,-0.0046 -0.3056,0.0039 -0.5363,0.0248 0.0567,0.0371 0.1612,0.0872 0.3152,0.1511 0.1768,0.0758 0.2837,0.1251 0.3191,0.1434z"/>
      <path id="_157347400" class="fil1 str2" d="M288.015 45.6212c-0.1903,0.0068 -0.318,0.0051 -0.3804,-0.0096 -0.0633,-0.0132 -0.1779,-0.0627 -0.3424,-0.1476 -0.1013,-0.0523 -0.1314,-0.1223 -0.0861,-0.2099l-0.3428 -0.1205 0.1744 -0.1378c-0.4201,0.003 -0.8187,-0.0919 -1.1968,-0.2871 -0.1122,-0.0579 -0.205,-0.1155 -0.2816,-0.1745 0.0117,0.0527 0.012,0.0899 -0.0007,0.1144 -0.0484,0.0937 -0.1844,0.0819 -0.4057,-0.0324 -0.2228,-0.115 -0.334,-0.2503 -0.3336,-0.4057 0.0821,-0.0609 0.2495,-0.027 0.5031,0.1 -0.0562,-0.136 -0.0655,-0.2575 -0.0301,-0.3638 0.1493,-0.0515 0.3315,-0.0236 0.5481,0.0883 0.0815,0.042 0.0935,0.1165 0.0396,0.221l-0.0204 0.0283 -0.1269 0.0046c0.0361,-0.0398 0.0558,-0.0705 0.0653,-0.0928l0.0209 -0.0516c-0.0382,-0.0392 -0.0573,-0.0587 -0.0603,-0.0603 -0.103,-0.0532 -0.2287,-0.085 -0.3778,-0.0977 -0.0451,0.072 -0.0013,0.2134 0.1282,0.4262 0.0276,0.0182 0.0575,0.0395 0.0875,0.0608 0.0567,0.0371 0.1227,0.0751 0.198,0.114 0.4256,0.2198 0.9558,0.3164 1.5921,0.2868l-0.3277 0.2804 0.2752 0.0623 -0.0698 0.1352 0.1099 0.0626c0.172,0.0966 0.3838,0.1651 0.6408,0.2064z"/>
      <polygon id="_157347824" class="fil1 str2" points="280.949,45.359 281.199,44.8734 280.92,44.729 280.669,45.2146 "/>
      <polygon id="_157356680" class="fil1 str2" points="281.745,44.5324 281.843,44.3434 281.01,43.9133 280.912,44.1023 "/>
      <polygon id="_157357224" class="fil1 str2" points="288.234,46.4231 288.784,45.3566 282.009,41.8578 281.458,42.9243 "/>
      <polygon id="_157357768" class="fil1 str2" points="281.26,45.65 280.282,45.1453 280.633,44.4661 281.61,44.9708 "/>
      <polygon id="_157358504" class="fil1 str2" points="281.683,44.8309 280.705,44.3262 281.056,43.647 282.033,44.1517 "/>
      <polygon id="_157359240" class="fil1 str2" points="285.56,47.0164 282.446,45.4079 282.553,45.2004 285.668,46.8089 "/>
      <polygon id="_157359976" class="fil1 str2" points="284.761,45.8054 282.771,44.7778 282.878,44.5703 284.868,45.598 "/>
      <polygon id="_167621192" class="fil1 str2" points="285.408,46.5387 282.608,45.0929 282.715,44.8854 285.515,46.3313 "/>
      <polygon id="_167621928" class="fil1 str2" points="286.048,46.0713 282.933,44.4628 283.041,44.2554 286.156,45.8639 "/>
      <polygon id="_167622664" class="fil1 str2" points="288.278,46.5606 281.322,42.969 281.967,41.7212 288.922,45.3128 "/>
      <path id="_167623400" class="fil1 str2" d="M289.662 44.2526l0.1325 -0.2566c0.0326,-0.0631 0.0177,-0.1097 -0.0453,-0.1422l-7.0459 -3.6384c-0.063,-0.0326 -0.1111,-0.0185 -0.1437,0.0446l-0.1325 0.2566 7.2349 3.736z"/>
     </g>
    </g>
   </g>
   <path id="_157350984" class="fil1 str0" d="M70.7201 37.9173c-0.1643,-0.4012 -0.2473,-0.8025 -0.2473,-1.2003 0,-0.4082 0.0917,-0.8077 0.2733,-1.1951l0.5932 0c0.1349,0 0.2352,-0.0225 0.2992,-0.0692 0.064,-0.0449 0.1712,-0.1712 0.3234,-0.377l0.1419 -0.1868c0.1556,-0.2127 0.2663,-0.3563 0.3303,-0.4306l0.9426 -0.998 0.2542 -1.1259 0.1418 0.0363c0.5327,0.1245 0.7991,0.4393 0.7991,0.9426 0,0.1816 -0.09,0.441 -0.2681,0.7748l-0.0761 0.1419c-0.1487,0.2836 -0.2421,0.5776 -0.2836,0.882l0.1418 0c0.4894,0 0.8855,0.0848 1.1847,0.256 0.3009,0.1712 0.4514,0.3926 0.4514,0.6658 0,0.2405 -0.0934,0.4584 -0.2784,0.6538 0.0743,0.1176 0.1107,0.23 0.1107,0.3338 0,0.2594 -0.1367,0.4272 -0.4099,0.5016 0.0103,0.0605 0.0155,0.1089 0.0155,0.147 0,0.313 -0.1833,0.486 -0.5482,0.5154 0.0069,0.0449 0.0103,0.0761 0.0103,0.0968 0,0.1764 -0.0622,0.3079 -0.185,0.3961 -0.1228,0.0882 -0.3096,0.1314 -0.5586,0.1314l-0.2232 0 -0.1764 -0.0916c-0.2231,0.0605 -0.4202,0.0916 -0.588,0.0916 -0.0605,0 -0.1557,-0.0052 -0.2836,-0.0155 -0.4065,-0.1851 -0.7835,-0.4774 -1.1312,-0.8769l-0.7558 0zm2.7586 0.5327l0.2024 0.0951c0.0847,0.0173 0.1487,0.026 0.192,0.026 0.166,0 0.2888,-0.0329 0.3718,-0.0969 0.083,-0.064 0.1245,-0.1574 0.1245,-0.2836 0,-0.0709 -0.0052,-0.1522 -0.0155,-0.2474 0.3753,0 0.5621,-0.102 0.5621,-0.3043 0,-0.0398 -0.0156,-0.1367 -0.045,-0.2889 0.2767,-0.057 0.4151,-0.1608 0.4151,-0.313 0,-0.0952 -0.0623,-0.2214 -0.1868,-0.3805 0.2439,-0.2128 0.3649,-0.4289 0.3649,-0.6521 0,-0.2161 -0.1349,-0.377 -0.4029,-0.4842 -0.2681,-0.1055 -0.6711,-0.1591 -1.2073,-0.1591l-0.1833 0 0.0052 -0.1419c0,-0.3995 0.1314,-0.818 0.3943,-1.2573l0.0657 -0.1124c0.1159,-0.192 0.173,-0.3719 0.173,-0.5362 0,-0.3182 -0.1695,-0.5344 -0.5068,-0.6503l-0.2023 0.9391 -1.0187 1.0844c-0.1729,0.2145 -0.3027,0.3823 -0.3909,0.4999 -0.2196,0.3044 -0.3822,0.4825 -0.4894,0.5327 -0.1055,0.0501 -0.3719,0.0761 -0.7973,0.0761 -0.1159,0.3217 -0.173,0.6468 -0.173,0.9772 0,0.2801 0.0519,0.5742 0.1574,0.882l0.6987 0c0.2871,0.3822 0.6503,0.6936 1.0862,0.9374l0.1418 -0.0052c0.2629,0 0.4843,-0.0449 0.6641,-0.1366z"/>
   <g>
    <g>
     <path id="_167997224" class="fil2 str2" d="M175.723 36.6097c0,0.3203 0.1144,0.5938 0.3417,0.8218 0.2273,0.2274 0.5008,0.341 0.8212,0.341 0.3203,0 0.5938,-0.1136 0.8211,-0.341 0.2273,-0.228 0.341,-0.5015 0.341,-0.8218 0,-0.3203 -0.1137,-0.5938 -0.341,-0.8212 -0.2273,-0.2273 -0.5008,-0.341 -0.8211,-0.341 -0.3204,0 -0.5939,0.1137 -0.8212,0.341 -0.2273,0.2274 -0.3417,0.5009 -0.3417,0.8212z"/>
     <path id="_167998248" class="fil2 str2" d="M153.027 36.6394c0,0.5167 0.1844,0.9577 0.551,1.3255 0.3667,0.3667 0.8078,0.55 1.3245,0.55 0.5166,0 0.9577,-0.1833 1.3244,-0.55 0.3666,-0.3678 0.55,-0.8088 0.55,-1.3255 0,-0.5166 -0.1834,-0.9578 -0.55,-1.3244 -0.3667,-0.3667 -0.8078,-0.55 -1.3244,-0.55 -0.5167,0 -0.9578,0.1833 -1.3245,0.55 -0.3666,0.3666 -0.551,0.8078 -0.551,1.3244z"/>
     <path id="_167999272" class="fil2 str2" d="M173.332 36.6095c0,0.3927 -0.1402,0.728 -0.4189,1.0075 -0.2786,0.2786 -0.6139,0.418 -1.0065,0.418 -0.3927,0 -0.7279,-0.1394 -1.0066,-0.418 -0.2787,-0.2795 -0.418,-0.6148 -0.418,-1.0075 0,-0.3926 0.1393,-0.7279 0.418,-1.0065 0.2787,-0.2787 0.6139,-0.418 1.0066,-0.418 0.3926,0 0.7279,0.1393 1.0065,0.418 0.2787,0.2786 0.4189,0.6139 0.4189,1.0065z"/>
     <path id="_168000296" class="fil2 str2" d="M162.549 36.6095c0,0.4753 -0.1696,0.8811 -0.507,1.2195 -0.3373,0.3373 -0.7431,0.506 -1.2185,0.506 -0.4753,0 -0.8811,-0.1687 -1.2185,-0.506 -0.3373,-0.3384 -0.506,-0.7442 -0.506,-1.2195 0,-0.4754 0.1687,-0.8812 0.506,-1.2185 0.3374,-0.3374 0.7432,-0.506 1.2185,-0.506 0.4754,0 0.8812,0.1686 1.2185,0.506 0.3374,0.3373 0.507,0.7431 0.507,1.2185z"/>
     <path id="_168001320" class="fil2 str2" d="M165.054 36.6095c0,0.4237 0.1512,0.7854 0.4519,1.087 0.3006,0.3006 0.6623,0.451 1.086,0.451 0.4237,0 0.7854,-0.1504 1.0861,-0.451 0.3006,-0.3016 0.451,-0.6633 0.451,-1.087 0,-0.4237 -0.1504,-0.7854 -0.451,-1.086 -0.3007,-0.3007 -0.6624,-0.451 -1.0861,-0.451 -0.4237,0 -0.7854,0.1503 -1.086,0.451 -0.3007,0.3006 -0.4519,0.6623 -0.4519,1.086z"/>
     <path id="_168002720" class="fil2 str2" d="M180.429 36.6397c0,0.2584 0.0922,0.4789 0.2756,0.6628 0.1833,0.1834 0.4038,0.275 0.6622,0.275 0.2583,0 0.4789,-0.0916 0.6622,-0.275 0.1833,-0.1839 0.275,-0.4044 0.275,-0.6628 0,-0.2583 -0.0917,-0.4788 -0.275,-0.6622 -0.1833,-0.1833 -0.4039,-0.275 -0.6622,-0.275 -0.2584,0 -0.4789,0.0917 -0.6622,0.275 -0.1834,0.1834 -0.2756,0.4039 -0.2756,0.6622z"/>
     <path id="_168004120" class="fil2 str2" d="M184.67 36.6098c0,0.2067 0.0737,0.3831 0.2204,0.5302 0.1467,0.1467 0.3231,0.22 0.5298,0.22 0.2067,0 0.3831,-0.0733 0.5298,-0.22 0.1466,-0.1471 0.22,-0.3235 0.22,-0.5302 0,-0.2067 -0.0734,-0.3831 -0.22,-0.5298 -0.1467,-0.1466 -0.3231,-0.22 -0.5298,-0.22 -0.2067,0 -0.3831,0.0734 -0.5298,0.22 -0.1467,0.1467 -0.2204,0.3231 -0.2204,0.5298z"/>
     <path id="_168005520" class="fil2 str2" d="M188.568 36.6098c0,0.155 0.0553,0.2874 0.1653,0.3977 0.11,0.11 0.2424,0.165 0.3974,0.165 0.155,0 0.2873,-0.055 0.3973,-0.165 0.11,-0.1103 0.165,-0.2427 0.165,-0.3977 0,-0.155 -0.055,-0.2873 -0.165,-0.3973 -0.11,-0.11 -0.2423,-0.165 -0.3973,-0.165 -0.155,0 -0.2874,0.055 -0.3974,0.165 -0.11,0.11 -0.1653,0.2423 -0.1653,0.3973z"/>
    </g>
    <g>
     <path id="_168007280" class="fil2 str2" d="M121.277 36.6098c0,0.3203 -0.1144,0.5938 -0.3417,0.8218 -0.2273,0.2273 -0.5008,0.341 -0.8212,0.341 -0.3203,0 -0.5938,-0.1137 -0.8211,-0.341 -0.2273,-0.228 -0.341,-0.5015 -0.341,-0.8218 0,-0.3204 0.1137,-0.5939 0.341,-0.8212 0.2273,-0.2273 0.5008,-0.341 0.8211,-0.341 0.3204,0 0.5939,0.1137 0.8212,0.341 0.2273,0.2273 0.3417,0.5008 0.3417,0.8212z"/>
     <path id="_168008248" class="fil2 str2" d="M143.973 36.6395c0,0.5166 -0.1844,0.9577 -0.551,1.3255 -0.3667,0.3667 -0.8078,0.55 -1.3245,0.55 -0.5166,0 -0.9577,-0.1833 -1.3244,-0.55 -0.3666,-0.3678 -0.55,-0.8089 -0.55,-1.3255 0,-0.5167 0.1834,-0.9578 0.55,-1.3244 0.3667,-0.3667 0.8078,-0.55 1.3244,-0.55 0.5167,0 0.9578,0.1833 1.3245,0.55 0.3666,0.3666 0.551,0.8077 0.551,1.3244z"/>
     <path id="_168009648" class="fil2 str2" d="M123.668 36.6096c0,0.3927 0.1402,0.7279 0.4189,1.0074 0.2786,0.2787 0.6139,0.418 1.0065,0.418 0.3927,0 0.7279,-0.1393 1.0066,-0.418 0.2787,-0.2795 0.418,-0.6147 0.418,-1.0074 0,-0.3926 -0.1393,-0.7279 -0.418,-1.0066 -0.2787,-0.2786 -0.6139,-0.418 -1.0066,-0.418 -0.3926,0 -0.7279,0.1394 -1.0065,0.418 -0.2787,0.2787 -0.4189,0.614 -0.4189,1.0066z"/>
     <path id="_168010616" class="fil2 str2" d="M134.451 36.6095c0,0.4754 0.1696,0.8812 0.507,1.2195 0.3373,0.3374 0.7431,0.506 1.2185,0.506 0.4753,0 0.8811,-0.1686 1.2185,-0.506 0.3373,-0.3383 0.506,-0.7441 0.506,-1.2195 0,-0.4753 -0.1687,-0.8811 -0.506,-1.2185 -0.3374,-0.3373 -0.7432,-0.506 -1.2185,-0.506 -0.4754,0 -0.8812,0.1687 -1.2185,0.506 -0.3374,0.3374 -0.507,0.7432 -0.507,1.2185z"/>
     <path id="_168012016" class="fil2 str2" d="M131.946 36.6096c0,0.4237 -0.1512,0.7854 -0.4519,1.0869 -0.3006,0.3007 -0.6623,0.451 -1.086,0.451 -0.4237,0 -0.7854,-0.1503 -1.0861,-0.451 -0.3006,-0.3015 -0.451,-0.6632 -0.451,-1.0869 0,-0.4237 0.1504,-0.7854 0.451,-1.0861 0.3007,-0.3006 0.6624,-0.451 1.0861,-0.451 0.4237,0 0.7854,0.1504 1.086,0.451 0.3007,0.3007 0.4519,0.6624 0.4519,1.0861z"/>
     <path id="_168012984" class="fil2 str2" d="M116.571 36.6398c0,0.2584 -0.0922,0.4789 -0.2756,0.6628 -0.1833,0.1833 -0.4038,0.275 -0.6622,0.275 -0.2583,0 -0.4789,-0.0917 -0.6622,-0.275 -0.1833,-0.1839 -0.275,-0.4044 -0.275,-0.6628 0,-0.2583 0.0917,-0.4789 0.275,-0.6622 0.1833,-0.1833 0.4039,-0.275 0.6622,-0.275 0.2584,0 0.4789,0.0917 0.6622,0.275 0.1834,0.1833 0.2756,0.4039 0.2756,0.6622z"/>
     <path id="_168013952" class="fil2 str2" d="M112.33 36.6099c0,0.2066 -0.0737,0.3831 -0.2204,0.5302 -0.1467,0.1467 -0.3231,0.22 -0.5298,0.22 -0.2067,0 -0.3831,-0.0733 -0.5298,-0.22 -0.1466,-0.1471 -0.22,-0.3236 -0.22,-0.5302 0,-0.2067 0.0734,-0.3831 0.22,-0.5298 0.1467,-0.1467 0.3231,-0.22 0.5298,-0.22 0.2067,0 0.3831,0.0733 0.5298,0.22 0.1467,0.1467 0.2204,0.3231 0.2204,0.5298z"/>
     <path id="_168015272" class="fil2 str2" d="M108.432 36.6099c0,0.155 -0.0553,0.2874 -0.1653,0.3977 -0.11,0.11 -0.2424,0.165 -0.3974,0.165 -0.155,0 -0.2873,-0.055 -0.3973,-0.165 -0.11,-0.1103 -0.165,-0.2427 -0.165,-0.3977 0,-0.155 0.055,-0.2873 0.165,-0.3973 0.11,-0.11 0.2423,-0.165 0.3973,-0.165 0.155,0 0.2874,0.055 0.3974,0.165 0.11,0.11 0.1653,0.2423 0.1653,0.3973z"/>
    </g>
    <path id="_168007136" class="fil2 str2" d="M146.438 36.6393c0,0.5684 0.2029,1.0536 0.6062,1.4581 0.4033,0.4033 0.8885,0.605 1.4568,0.605 0.5684,0 1.0536,-0.2017 1.4569,-0.605 0.4033,-0.4045 0.605,-0.8897 0.605,-1.4581 0,-0.5683 -0.2017,-1.0535 -0.605,-1.4568 -0.4033,-0.4033 -0.8885,-0.605 -1.4569,-0.605 -0.5683,0 -1.0535,0.2017 -1.4568,0.605 -0.4033,0.4033 -0.6062,0.8885 -0.6062,1.4568z"/>
   </g>
  </g>
 </g>
</svg>
