<svg xmlns="http://www.w3.org/2000/svg" viewBox="0 0 2540.7 1348.42"><defs><style>.cls-1{fill:#ebf2f9;}.cls-2{fill:#ffb93e;}.cls-3{fill:#ffa412;}.cls-4,.cls-6{fill:#82b378;}.cls-5{fill:#a8d29f;}.cls-17,.cls-6{opacity:0.5;}.cls-7{fill:#5f9aa8;}.cls-8{fill:#acc8ea;}.cls-9{fill:#80bdcc;}.cls-10{fill:#d2e4ff;}.cls-11{fill:#ab7041;}.cls-12{fill:#aa413e;}.cls-13{fill:#233862;}.cls-14{fill:#2b478b;}.cls-15{fill:#e49963;}.cls-16{fill:#c65447;}.cls-17,.cls-19{fill:#e2810e;}.cls-18{fill:#699dee;}.cls-20{fill:#d68d5d;}.cls-21{fill:#202f4e;}</style></defs><title>bank-account</title><g id="Vrstva_2" data-name="Vrstva 2"><g id="Layer_1" data-name="Layer 1"><path class="cls-1" d="M2179.09,529.62c-129.57-45.22-153.2-743.44-584.41-463.69C1371.9,210.46,996.24-58.15,685.3,34.63,399.74,119.83,372.21,400.56,399.84,492c55.82,184.78-117.87,212.28-279,291.67C-131.89,908.24,54,1345.9,292.72,1348S1978,1343.82,1978,1343.82s346.85.88,491.09-190.55C2624.26,947.26,2527.21,651.09,2179.09,529.62Z"/><path class="cls-2" d="M2340.75,1293.36v30.51a11.66,11.66,0,0,1-2,6.56,11.9,11.9,0,0,1-5.52,4.4,11.23,11.23,0,0,1-2.15.6,11.92,11.92,0,0,1-2.08.19H1843.15a11.79,11.79,0,0,1-11.74-11.15c0-.2,0-.4,0-.6v-30.51c0-.2,0-.4,0-.6a11.8,11.8,0,0,1,10.35-11.07,10.8,10.8,0,0,1,1.39-.08H2329a11,11,0,0,1,2.08.19,11.23,11.23,0,0,1,2.15.6,11.9,11.9,0,0,1,5.52,4.4A11.66,11.66,0,0,1,2340.75,1293.36Z"/><path class="cls-3" d="M2102.18,1335.62H1841.89c-5.58,0-10.19-5-10.48-11.15,0-.2,0-.4,0-.6v-30.51c0-.2,0-.4,0-.6.26-5.72,4.23-10.4,9.24-11.07a8.52,8.52,0,0,1,1.24-.08h228.32a.24.24,0,0,1,0,.08C2073.89,1297.59,2082.39,1319.52,2102.18,1335.62Z"/><rect class="cls-3" x="2276.11" y="1281.61" width="5.52" height="54.01"/><rect class="cls-3" x="2257.42" y="1281.61" width="5.52" height="54.01"/><rect class="cls-3" x="2235.01" y="1281.61" width="5.52" height="54.01"/><rect class="cls-3" x="2200.65" y="1281.61" width="5.52" height="54.01"/><rect class="cls-3" x="2164.32" y="1281.61" width="5.52" height="54.01"/><rect class="cls-3" x="2108.62" y="1281.61" width="5.52" height="54.01"/><rect class="cls-3" x="2056.47" y="1281.61" width="5.52" height="54.01"/><rect class="cls-3" x="2009.91" y="1281.61" width="5.52" height="54.01"/><rect class="cls-3" x="2293.9" y="1281.61" width="5.52" height="54.01"/><rect class="cls-3" x="2305.66" y="1281.61" width="5.52" height="54.01"/><rect class="cls-3" x="2317.01" y="1281.61" width="5.52" height="54.01"/><path class="cls-3" d="M2331.07,1281.8v53.63a11.89,11.89,0,0,1-2.07.19h-3.45v-54H2329A11,11,0,0,1,2331.07,1281.8Z"/><path class="cls-3" d="M2338.74,1286.8v43.63a11.85,11.85,0,0,1-5.52,4.4V1282.4A11.79,11.79,0,0,1,2338.74,1286.8Z"/><path class="cls-2" d="M2277,1239.44v30.5a11.67,11.67,0,0,1-2,6.56,11.79,11.79,0,0,1-5.52,4.4,10.37,10.37,0,0,1-2.15.6l-.68.11-.55.05-.27,0H1779.37a11.79,11.79,0,0,1-11.74-11.15c0-.2,0-.4,0-.6v-30.5c0-.2,0-.41,0-.61a11.8,11.8,0,0,1,11.74-11.15h485.84l.62,0a13.37,13.37,0,0,1,1.45.17,10.39,10.39,0,0,1,2.15.61,8.51,8.51,0,0,1,1,.45c.21.1.41.21.61.32l.06,0c.21.12.4.24.59.37l.1.07.53.38a10.3,10.3,0,0,1,1.17,1,3.61,3.61,0,0,1,.33.35l.06.06.2.22,0,0a5,5,0,0,1,.34.43,7.36,7.36,0,0,1,.47.63A11.7,11.7,0,0,1,2277,1239.44Z"/><path class="cls-3" d="M2038.39,1281.69H1778.11c-5.59,0-10.2-5-10.48-11.15,0-.2,0-.4,0-.6v-30.5c0-.2,0-.41,0-.61.28-6.18,4.89-11.15,10.48-11.15h228.32c.09.41.19.83.3,1.25,3.79,15.76,12.32,37,31.56,52.68Z"/><rect class="cls-3" x="2212.33" y="1227.68" width="5.52" height="54.01"/><rect class="cls-3" x="2193.63" y="1227.68" width="5.52" height="54.01"/><rect class="cls-3" x="2171.22" y="1227.68" width="5.52" height="54.01"/><rect class="cls-3" x="2136.86" y="1227.68" width="5.52" height="54.01"/><rect class="cls-3" x="2100.53" y="1227.68" width="5.52" height="54.01"/><rect class="cls-3" x="2044.84" y="1227.68" width="5.52" height="54.01"/><rect class="cls-3" x="1992.69" y="1227.68" width="5.52" height="54.01"/><rect class="cls-3" x="1946.12" y="1227.68" width="5.52" height="54.01"/><rect class="cls-3" x="2230.12" y="1227.68" width="5.52" height="54.01"/><rect class="cls-3" x="2241.87" y="1227.68" width="5.52" height="54.01"/><rect class="cls-3" x="2253.22" y="1227.68" width="5.52" height="54.01"/><path class="cls-3" d="M2267.28,1227.87v53.63a10.84,10.84,0,0,1-2.07.19h-3.45v-54h3.45A11.72,11.72,0,0,1,2267.28,1227.87Z"/><path class="cls-3" d="M2275,1232.87v43.63a11.79,11.79,0,0,1-5.52,4.4v-52.42A11.83,11.83,0,0,1,2275,1232.87Z"/><path class="cls-2" d="M2312.68,1186.67v30.51a11.66,11.66,0,0,1-2,6.56,11.85,11.85,0,0,1-5.52,4.4,11,11,0,0,1-2.15.6,11.72,11.72,0,0,1-2.07.19H1815.09a11.61,11.61,0,0,1-5.25-1.25,11.79,11.79,0,0,1-6.46-9.42c0-.16,0-.32,0-.48s0-.4,0-.6v-30.51c0-.2,0-.4,0-.6A11.79,11.79,0,0,1,1813.7,1175a10.59,10.59,0,0,1,1.39-.08h485.84a10.84,10.84,0,0,1,2.07.19,11,11,0,0,1,2.15.6,11.85,11.85,0,0,1,5.52,4.4A11.66,11.66,0,0,1,2312.68,1186.67Z"/><path class="cls-3" d="M2074.11,1228.93H1813.83a9.48,9.48,0,0,1-4.69-1.25,11.86,11.86,0,0,1-5.76-9.42c0-.16,0-.32,0-.48s0-.4,0-.6v-30.51c0-.2,0-.4,0-.6.26-5.72,4.22-10.4,9.24-11.07a8.43,8.43,0,0,1,1.24-.08h228.32a.24.24,0,0,0,0,.08c3.56,15.49,11.73,36.72,30.45,52.68C2073.1,1228.1,2073.6,1228.52,2074.11,1228.93Z"/><rect class="cls-3" x="2248.05" y="1174.92" width="5.52" height="54.01"/><rect class="cls-3" x="2229.35" y="1174.92" width="5.52" height="54.01"/><rect class="cls-3" x="2206.94" y="1174.92" width="5.52" height="54.01"/><rect class="cls-3" x="2172.58" y="1174.92" width="5.52" height="54.01"/><rect class="cls-3" x="2136.25" y="1174.92" width="5.52" height="54.01"/><rect class="cls-3" x="2080.56" y="1174.92" width="5.52" height="54.01"/><rect class="cls-3" x="2028.41" y="1174.92" width="5.52" height="54.01"/><rect class="cls-3" x="1981.84" y="1174.92" width="5.52" height="54.01"/><rect class="cls-3" x="2265.84" y="1174.92" width="5.52" height="54.01"/><rect class="cls-3" x="2277.59" y="1174.92" width="5.52" height="54.01"/><rect class="cls-3" x="2288.94" y="1174.92" width="5.52" height="54.01"/><path class="cls-3" d="M2303,1175.11v53.63a11.72,11.72,0,0,1-2.07.19h-3.45v-54h3.45A10.84,10.84,0,0,1,2303,1175.11Z"/><path class="cls-3" d="M2310.67,1180.11v43.63a11.92,11.92,0,0,1-5.52,4.4v-52.43A11.79,11.79,0,0,1,2310.67,1180.11Z"/><path class="cls-2" d="M2277,1132.75v30.5a11.67,11.67,0,0,1-2,6.56,11.79,11.79,0,0,1-5.52,4.4,11,11,0,0,1-2.15.6l-.68.11-.38,0-.39,0c-.2,0-.41,0-.62,0H1779.37a11.79,11.79,0,0,1-11.74-11.15c0-.2,0-.4,0-.6v-30.5c0-.2,0-.41,0-.61a11.8,11.8,0,0,1,11.74-11.15h485.84a11.72,11.72,0,0,1,2.07.19,11,11,0,0,1,2.15.6,11.92,11.92,0,0,1,5.52,4.4A11.7,11.7,0,0,1,2277,1132.75Z"/><path class="cls-3" d="M2038.39,1175H1778.11c-5.59,0-10.2-5-10.48-11.15,0-.2,0-.4,0-.6v-30.5c0-.2,0-.41,0-.61.28-6.18,4.89-11.15,10.48-11.15h228.32c3.64,15.88,12.11,37.81,31.86,53.93Z"/><rect class="cls-3" x="2212.33" y="1120.99" width="5.52" height="54.01"/><rect class="cls-3" x="2193.63" y="1120.99" width="5.52" height="54.01"/><rect class="cls-3" x="2171.22" y="1120.99" width="5.52" height="54.01"/><rect class="cls-3" x="2136.86" y="1120.99" width="5.52" height="54.01"/><rect class="cls-3" x="2100.53" y="1120.99" width="5.52" height="54.01"/><rect class="cls-3" x="2044.84" y="1120.99" width="5.52" height="54.01"/><rect class="cls-3" x="1992.69" y="1120.99" width="5.52" height="54.01"/><rect class="cls-3" x="1946.12" y="1120.99" width="5.52" height="54.01"/><rect class="cls-3" x="2230.12" y="1120.99" width="5.52" height="54.01"/><rect class="cls-3" x="2241.87" y="1120.99" width="5.52" height="54.01"/><rect class="cls-3" x="2253.22" y="1120.99" width="5.52" height="54.01"/><path class="cls-3" d="M2267.28,1121.18v53.63a10.84,10.84,0,0,1-2.07.19h-3.45v-54h3.45A11.72,11.72,0,0,1,2267.28,1121.18Z"/><path class="cls-3" d="M2275,1126.18v43.63a11.79,11.79,0,0,1-5.52,4.4v-52.43A11.85,11.85,0,0,1,2275,1126.18Z"/><path class="cls-4" d="M425.1,1331l-65.93-5.67s3.81-40.65-7.79-94.87c-8.55-40-25.52-87.49-58.63-131.44C236.28,1024.12,68.56,982.19,68.56,982.19v-9.7l6-.65a24.09,24.09,0,0,0-6-2.86V946a81.09,81.09,0,0,1,19.06,1.87,130,130,0,0,0-19.06-3.42V932.43c243,6.49,322.2,153.25,347,266.82C431.49,1272,425.1,1331,425.1,1331Z"/><path class="cls-5" d="M713.66,1309.71,425.1,1331c-1.49-44.44-13.09-90.41-24.31-125.25a591.12,591.12,0,0,0-22.07-58.58C292.4,958.06,68.56,932.43,68.56,932.43L317,830.69c120,9,204.21,66.67,263.1,139C695.44,1111.48,713.66,1309.71,713.66,1309.71Z"/><path class="cls-6" d="M713.66,1309.71,425.1,1331l-65.93-5.67s3.81-40.65-7.79-94.87a392.9,392.9,0,0,1,49.41-24.71q7.6-3.22,14.8-6.54C599.31,1114.46,582.2,982.37,580.1,969.73,695.44,1111.48,713.66,1309.71,713.66,1309.71Z"/><path class="cls-4" d="M691,1331.93l-257.16-5,.91-5c.13-.75,13.34-76.14-17.49-161.87a322.68,322.68,0,0,0-87.52-130.58c-50.13-45.64-117.12-79.61-199.11-101L118,925.3l200.72-79.88.77,0c2.17,0,53.86-.83,120.31,30.6,38.95,18.42,74.81,44.16,106.58,76.5,39.64,40.35,73,91.15,99.11,151,2.07,4.6,50.91,114.26,48.33,180.1v.08Zm-247.08-13.34,239,4.62,2.33-40c1-26.3-6.86-65.08-22.8-112.13-12.11-35.75-24.68-63.86-24.8-64.14-25.67-58.78-58.36-108.63-97.16-148.2-31-31.61-66-56.78-103.94-74.79-41.2-19.56-77.11-26.37-97.91-28.73a66.42,66.42,0,0,0-32.17,4.29L167.34,914.85a8.33,8.33,0,0,0,.55,15.66c67.65,21.78,124,52.94,167.77,92.89a331.17,331.17,0,0,1,89.76,134.21c16.44,45.89,20.39,88.49,20.81,116.15A307.26,307.26,0,0,1,443.89,1318.59Z"/><path class="cls-4" d="M465,968.75c-42.36,0-65.82,25.34-65.82,67.7s43.86,68,86.23,68,67.18-25.6,67.18-68S507.38,968.75,465,968.75Z"/><path class="cls-2" d="M102.73,1293.15v30.51a11.59,11.59,0,0,0,2,6.56,11.88,11.88,0,0,0,5.51,4.4,11.23,11.23,0,0,0,2.15.6,11,11,0,0,0,2.08.19H600.33a11.68,11.68,0,0,0,5.42-1.33,11.83,11.83,0,0,0,6.28-9.29c0-.18,0-.35,0-.53s0-.4,0-.6v-30.51c0-.2,0-.4,0-.6a11.79,11.79,0,0,0-11.74-11.15H114.49a11,11,0,0,0-2.08.19,11.23,11.23,0,0,0-2.15.6,11.88,11.88,0,0,0-5.51,4.4A11.59,11.59,0,0,0,102.73,1293.15Z"/><path class="cls-3" d="M341.31,1335.41H601.59a9.5,9.5,0,0,0,4.83-1.33,11.87,11.87,0,0,0,5.61-9.29c0-.18,0-.35,0-.53s0-.4,0-.6v-30.51c0-.2,0-.4,0-.6-.29-6.19-4.89-11.15-10.48-11.15H373.27c-3.55,15.46-11.68,36.69-30.37,52.68C342.38,1334.53,341.84,1335,341.31,1335.41Z"/><rect class="cls-3" x="161.85" y="1281.4" width="5.52" height="54.01" transform="translate(329.22 2616.82) rotate(180)"/><rect class="cls-3" x="180.54" y="1281.4" width="5.52" height="54.01" transform="translate(366.6 2616.82) rotate(180)"/><rect class="cls-3" x="202.96" y="1281.4" width="5.52" height="54.01" transform="translate(411.43 2616.82) rotate(180)"/><rect class="cls-3" x="237.31" y="1281.4" width="5.52" height="54.01" transform="translate(480.15 2616.82) rotate(180)"/><rect class="cls-3" x="273.64" y="1281.4" width="5.52" height="54.01" transform="translate(552.81 2616.82) rotate(180)"/><rect class="cls-3" x="329.34" y="1281.4" width="5.52" height="54.01" transform="translate(664.2 2616.82) rotate(180)"/><rect class="cls-3" x="381.49" y="1281.4" width="5.52" height="54.01" transform="translate(768.5 2616.82) rotate(180)"/><rect class="cls-3" x="428.05" y="1281.4" width="5.52" height="54.01" transform="translate(861.63 2616.82) rotate(180)"/><rect class="cls-3" x="144.06" y="1281.4" width="5.52" height="54.01" transform="translate(293.64 2616.82) rotate(180)"/><rect class="cls-3" x="132.3" y="1281.4" width="5.52" height="54.01" transform="translate(270.13 2616.82) rotate(180)"/><rect class="cls-3" x="120.95" y="1281.4" width="5.52" height="54.01" transform="translate(247.43 2616.82) rotate(180)"/><path class="cls-3" d="M112.41,1281.59v53.63a11,11,0,0,0,2.08.19h3.45v-54h-3.45A11.92,11.92,0,0,0,112.41,1281.59Z"/><path class="cls-3" d="M104.75,1286.59v43.63a11.83,11.83,0,0,0,5.51,4.4v-52.43A11.83,11.83,0,0,0,104.75,1286.59Z"/><path class="cls-2" d="M63,1239.14v30.5a11.67,11.67,0,0,0,2,6.57,11.9,11.9,0,0,0,5.52,4.4,11.23,11.23,0,0,0,2.15.6,11.89,11.89,0,0,0,2.07.19H560.62a11.8,11.8,0,0,0,11.75-11.15c0-.2,0-.4,0-.61v-30.5c0-.2,0-.4,0-.6A11.81,11.81,0,0,0,562,1227.47a10.85,10.85,0,0,0-1.4-.08H74.78a11,11,0,0,0-2.07.19,11.23,11.23,0,0,0-2.15.6,11.9,11.9,0,0,0-5.52,4.4A11.66,11.66,0,0,0,63,1239.14Z"/><path class="cls-3" d="M301.6,1281.4H561.89c5.58,0,10.19-5,10.48-11.15,0-.2,0-.4,0-.61v-30.5c0-.2,0-.4,0-.6-.26-5.72-4.23-10.4-9.24-11.07a8.52,8.52,0,0,0-1.24-.08H333.57a.24.24,0,0,0,0,.08C329.89,1243.37,321.39,1265.3,301.6,1281.4Z"/><rect class="cls-3" x="122.15" y="1227.39" width="5.52" height="54.01" transform="translate(249.81 2508.79) rotate(180)"/><rect class="cls-3" x="140.84" y="1227.39" width="5.52" height="54.01" transform="translate(287.19 2508.79) rotate(180)"/><rect class="cls-3" x="163.25" y="1227.39" width="5.52" height="54.01" transform="translate(332.02 2508.79) rotate(180)"/><rect class="cls-3" x="197.61" y="1227.39" width="5.52" height="54.01" transform="translate(400.74 2508.79) rotate(180)"/><rect class="cls-3" x="233.94" y="1227.39" width="5.52" height="54.01" transform="translate(473.4 2508.79) rotate(180)"/><rect class="cls-3" x="289.63" y="1227.39" width="5.52" height="54.01" transform="translate(584.79 2508.79) rotate(180)"/><rect class="cls-3" x="341.78" y="1227.39" width="5.52" height="54.01" transform="translate(689.09 2508.79) rotate(180)"/><rect class="cls-3" x="388.35" y="1227.39" width="5.52" height="54.01" transform="translate(782.22 2508.79) rotate(180)"/><rect class="cls-3" x="104.35" y="1227.39" width="5.52" height="54.01" transform="translate(214.23 2508.79) rotate(180)"/><rect class="cls-3" x="92.6" y="1227.39" width="5.52" height="54.01" transform="translate(190.72 2508.79) rotate(180)"/><rect class="cls-3" x="81.25" y="1227.39" width="5.52" height="54.01" transform="translate(168.02 2508.79) rotate(180)"/><path class="cls-3" d="M72.71,1227.58v53.63a11.72,11.72,0,0,0,2.07.19h3.45v-54H74.78A10.84,10.84,0,0,0,72.71,1227.58Z"/><path class="cls-3" d="M65,1232.58v43.63a11.85,11.85,0,0,0,5.52,4.4v-52.43A11.79,11.79,0,0,0,65,1232.58Z"/><path class="cls-2" d="M126.81,1185.22v30.5a11.59,11.59,0,0,0,2,6.56,11.82,11.82,0,0,0,5.51,4.4,11.33,11.33,0,0,0,2.16.6l.68.11.54,0,.28,0H624.41a11.79,11.79,0,0,0,11.74-11.15c0-.2,0-.4,0-.6v-30.5c0-.2,0-.41,0-.61a11.8,11.8,0,0,0-11.74-11.15H138.57l-.63,0a13.49,13.49,0,0,0-1.44.17,11.33,11.33,0,0,0-2.16.6c-.35.14-.69.29-1,.46l-.6.32s-.05,0-.06,0l-.6.37-.09.07c-.19.12-.36.25-.53.38a9.5,9.5,0,0,0-1.17,1,3.61,3.61,0,0,0-.33.35l-.06.06a2.09,2.09,0,0,0-.2.22l0,0a5,5,0,0,0-.34.43,7.36,7.36,0,0,0-.47.63A11.63,11.63,0,0,0,126.81,1185.22Z"/><path class="cls-3" d="M365.39,1227.47H625.67c5.59,0,10.19-5,10.48-11.15,0-.2,0-.4,0-.6v-30.5c0-.2,0-.41,0-.61-.29-6.18-4.89-11.15-10.48-11.15H397.35c-.09.41-.19.83-.3,1.25-3.79,15.76-12.33,37-31.56,52.68Z"/><rect class="cls-3" x="185.93" y="1173.46" width="5.52" height="54.01" transform="translate(377.38 2400.94) rotate(180)"/><rect class="cls-3" x="204.62" y="1173.46" width="5.52" height="54.01" transform="translate(414.77 2400.94) rotate(180)"/><rect class="cls-3" x="227.04" y="1173.46" width="5.52" height="54.01" transform="translate(459.6 2400.94) rotate(180)"/><rect class="cls-3" x="261.39" y="1173.46" width="5.52" height="54.01" transform="translate(528.31 2400.94) rotate(180)"/><rect class="cls-3" x="297.72" y="1173.46" width="5.52" height="54.01" transform="translate(600.97 2400.94) rotate(180)"/><rect class="cls-3" x="353.42" y="1173.46" width="5.52" height="54.01" transform="translate(712.36 2400.94) rotate(180)"/><rect class="cls-3" x="405.57" y="1173.46" width="5.52" height="54.01" transform="translate(816.66 2400.94) rotate(180)"/><rect class="cls-3" x="452.14" y="1173.46" width="5.52" height="54.01" transform="translate(909.79 2400.94) rotate(180)"/><rect class="cls-3" x="168.14" y="1173.46" width="5.52" height="54.01" transform="translate(341.8 2400.94) rotate(180)"/><rect class="cls-3" x="156.39" y="1173.46" width="5.52" height="54.01" transform="translate(318.29 2400.94) rotate(180)"/><rect class="cls-3" x="145.04" y="1173.46" width="5.52" height="54.01" transform="translate(295.59 2400.94) rotate(180)"/><path class="cls-3" d="M136.5,1173.65v53.63a10.84,10.84,0,0,0,2.07.19H142v-54h-3.45A11.72,11.72,0,0,0,136.5,1173.65Z"/><path class="cls-3" d="M128.83,1178.65v43.63a11.82,11.82,0,0,0,5.51,4.4v-52.43A11.94,11.94,0,0,0,128.83,1178.65Z"/><path class="cls-2" d="M91.09,1132.45V1163a11.68,11.68,0,0,0,2,6.57,11.85,11.85,0,0,0,5.52,4.4,11,11,0,0,0,2.15.6,11.72,11.72,0,0,0,2.07.19H588.69a11.61,11.61,0,0,0,5.25-1.25,11.79,11.79,0,0,0,6.46-9.42l0-.48c0-.2,0-.4,0-.61v-30.5c0-.2,0-.4,0-.6a11.79,11.79,0,0,0-10.35-11.07,10.7,10.7,0,0,0-1.39-.08H102.85a10.84,10.84,0,0,0-2.07.19,11,11,0,0,0-2.15.6,11.85,11.85,0,0,0-5.52,4.4A11.67,11.67,0,0,0,91.09,1132.45Z"/><path class="cls-3" d="M329.67,1174.71H590a9.44,9.44,0,0,0,4.68-1.25,11.87,11.87,0,0,0,5.77-9.42l0-.48c0-.2,0-.4,0-.61v-30.5c0-.2,0-.4,0-.6-.26-5.72-4.22-10.4-9.24-11.07a8.43,8.43,0,0,0-1.24-.08H361.63s0,.06,0,.08c-3.56,15.49-11.73,36.72-30.45,52.68Z"/><rect class="cls-3" x="150.21" y="1120.7" width="5.52" height="54.01" transform="translate(305.95 2295.41) rotate(180)"/><rect class="cls-3" x="168.9" y="1120.7" width="5.52" height="54.01" transform="translate(343.33 2295.41) rotate(180)"/><rect class="cls-3" x="191.32" y="1120.7" width="5.52" height="54.01" transform="translate(388.16 2295.41) rotate(180)"/><rect class="cls-3" x="225.67" y="1120.7" width="5.52" height="54.01" transform="translate(456.87 2295.41) rotate(180)"/><rect class="cls-3" x="262.01" y="1120.7" width="5.52" height="54.01" transform="translate(529.53 2295.41) rotate(180)"/><rect class="cls-3" x="317.7" y="1120.7" width="5.52" height="54.01" transform="translate(640.93 2295.41) rotate(180)"/><rect class="cls-3" x="369.85" y="1120.7" width="5.52" height="54.01" transform="translate(745.22 2295.41) rotate(180)"/><rect class="cls-3" x="416.42" y="1120.7" width="5.52" height="54.01" transform="translate(838.35 2295.41) rotate(180)"/><rect class="cls-3" x="132.42" y="1120.7" width="5.52" height="54.01" transform="translate(270.36 2295.41) rotate(180)"/><rect class="cls-3" x="120.67" y="1120.7" width="5.52" height="54.01" transform="translate(246.85 2295.41) rotate(180)"/><rect class="cls-3" x="109.32" y="1120.7" width="5.52" height="54.01" transform="translate(224.15 2295.41) rotate(180)"/><path class="cls-3" d="M100.78,1120.88v53.64a11.72,11.72,0,0,0,2.07.19h3.45v-54h-3.45A11.72,11.72,0,0,0,100.78,1120.88Z"/><path class="cls-3" d="M93.11,1125.89v43.63a11.92,11.92,0,0,0,5.52,4.4v-52.43A11.79,11.79,0,0,0,93.11,1125.89Z"/><path class="cls-2" d="M126.81,1078.53V1109a11.59,11.59,0,0,0,2,6.56,11.82,11.82,0,0,0,5.51,4.4,11.33,11.33,0,0,0,2.16.6l.68.11.38,0,.38,0c.21,0,.42,0,.63,0H624.41a11.79,11.79,0,0,0,11.74-11.15c0-.2,0-.4,0-.6v-30.5c0-.2,0-.41,0-.61a11.8,11.8,0,0,0-11.74-11.15H138.57a11.72,11.72,0,0,0-2.07.19,11.33,11.33,0,0,0-2.16.6,11.94,11.94,0,0,0-5.51,4.4A11.63,11.63,0,0,0,126.81,1078.53Z"/><path class="cls-3" d="M365.39,1120.78H625.67c5.59,0,10.19-5,10.48-11.15,0-.2,0-.4,0-.6v-30.5c0-.2,0-.41,0-.61-.29-6.18-4.89-11.15-10.48-11.15H397.35c-3.64,15.88-12.11,37.81-31.86,53.93Z"/><rect class="cls-3" x="185.93" y="1066.77" width="5.52" height="54.01" transform="translate(377.38 2187.56) rotate(180)"/><rect class="cls-3" x="204.62" y="1066.77" width="5.52" height="54.01" transform="translate(414.77 2187.56) rotate(180)"/><rect class="cls-3" x="227.04" y="1066.77" width="5.52" height="54.01" transform="translate(459.6 2187.56) rotate(180)"/><rect class="cls-3" x="261.39" y="1066.77" width="5.52" height="54.01" transform="translate(528.31 2187.56) rotate(180)"/><rect class="cls-3" x="297.72" y="1066.77" width="5.52" height="54.01" transform="translate(600.97 2187.56) rotate(180)"/><rect class="cls-3" x="353.42" y="1066.77" width="5.52" height="54.01" transform="translate(712.36 2187.56) rotate(180)"/><rect class="cls-3" x="405.57" y="1066.77" width="5.52" height="54.01" transform="translate(816.66 2187.56) rotate(180)"/><rect class="cls-3" x="452.13" y="1066.77" width="5.52" height="54.01"/><rect class="cls-3" x="168.14" y="1066.77" width="5.52" height="54.01" transform="translate(341.8 2187.56) rotate(180)"/><rect class="cls-3" x="156.39" y="1066.77" width="5.52" height="54.01" transform="translate(318.29 2187.56) rotate(180)"/><rect class="cls-3" x="145.04" y="1066.77" width="5.52" height="54.01" transform="translate(295.59 2187.56) rotate(180)"/><path class="cls-3" d="M136.5,1067v53.63a10.84,10.84,0,0,0,2.07.19H142v-54h-3.45A11.72,11.72,0,0,0,136.5,1067Z"/><path class="cls-3" d="M128.83,1072v43.63a11.88,11.88,0,0,0,5.51,4.4v-52.43A11.88,11.88,0,0,0,128.83,1072Z"/><rect class="cls-7" x="543.67" y="406.09" width="1332.84" height="762.8"/><rect class="cls-8" x="564.52" y="406.09" width="216.97" height="47.9"/><rect class="cls-9" x="587.56" y="453.99" width="170.88" height="47.9"/><rect class="cls-8" x="1638.7" y="406.09" width="216.97" height="47.9"/><rect class="cls-9" x="1661.74" y="453.99" width="170.88" height="47.9"/><rect class="cls-8" x="1280.63" y="406.09" width="216.97" height="47.9"/><rect class="cls-9" x="1303.67" y="453.99" width="170.88" height="47.9"/><rect class="cls-8" x="922.59" y="406.09" width="216.97" height="47.9"/><rect class="cls-9" x="945.63" y="453.99" width="170.88" height="47.9"/><rect class="cls-8" x="564.52" y="1120.99" width="216.97" height="47.9"/><rect class="cls-9" x="587.56" y="1073.09" width="170.88" height="47.9"/><rect class="cls-8" x="1638.7" y="1120.99" width="216.97" height="47.9"/><rect class="cls-9" x="1661.74" y="1073.09" width="170.88" height="47.9"/><rect class="cls-8" x="1280.63" y="1120.99" width="216.97" height="47.9"/><rect class="cls-9" x="1303.67" y="1073.09" width="170.88" height="47.9"/><rect class="cls-8" x="922.59" y="1120.99" width="216.97" height="47.9"/><rect class="cls-9" x="945.63" y="1073.09" width="170.88" height="47.9"/><polygon class="cls-10" points="753.94 1073.09 592.06 1073.09 617.35 501.9 728.65 501.9 753.94 1073.09"/><polygon class="cls-10" points="1112.01 1073.09 950.13 1073.09 975.42 501.9 1086.72 501.9 1112.01 1073.09"/><polygon class="cls-10" points="1474.55 1073.09 1312.67 1073.09 1337.96 501.9 1449.26 501.9 1474.55 1073.09"/><polygon class="cls-10" points="1828.13 1073.09 1666.24 1073.09 1691.54 501.9 1802.83 501.9 1828.13 1073.09"/><rect class="cls-9" x="518.71" y="372.92" width="1382.76" height="33.17"/><rect class="cls-8" x="495.38" y="317.41" width="1429.43" height="55.51"/><rect class="cls-10" x="488.64" y="1168.89" width="1429.43" height="55.51"/><rect class="cls-8" x="439.77" y="1224.4" width="1527.16" height="55.51"/><rect class="cls-9" x="373.88" y="1279.91" width="1658.96" height="55.51"/><polygon class="cls-10" points="568.23 316.96 1210.09 79.2 1851.95 316.96 568.23 316.96"/><polygon class="cls-9" points="780.09 277.73 1210.09 118.44 1640.1 277.73 780.09 277.73"/><path class="cls-7" d="M1125.34,238a17.59,17.59,0,0,1-2.79,10.23,19.13,19.13,0,0,1-7.67,6.38,39.17,39.17,0,0,1-11.61,3.29,107.46,107.46,0,0,1-14.64.94c-4.19,0-7.94-.13-11.27-.38s-6.93-.56-10.81-.94V190.39c3-.37,6.16-.68,9.65-.93s7.55-.38,12.19-.38a81.54,81.54,0,0,1,12.38.89,35,35,0,0,1,10,3,17.59,17.59,0,0,1,6.79,5.63,14.9,14.9,0,0,1,2.5,8.87,14,14,0,0,1-2.44,8,16.91,16.91,0,0,1-6.16,5.59,29,29,0,0,1,5.17,2.2,18,18,0,0,1,4.42,3.38,15.72,15.72,0,0,1,3.08,4.83A17,17,0,0,1,1125.34,238Zm-38.69-22h3.25a15.49,15.49,0,0,0,7.79-1.64q2.79-1.65,2.79-5.68a5.32,5.32,0,0,0-1-3.29,7,7,0,0,0-2.5-2.06,11.45,11.45,0,0,0-3.37-1,25.11,25.11,0,0,0-3.6-.28h-1.68a13.36,13.36,0,0,0-1.69.1Zm0,13.33v15.76c.54.07,1.22.11,2,.15s1.87,0,3.19,0a27.32,27.32,0,0,0,4.47-.37,15.1,15.1,0,0,0,4.13-1.27,7.58,7.58,0,0,0,3-2.44,6.51,6.51,0,0,0,1.1-3.9q0-4.5-3.66-6.24a22.27,22.27,0,0,0-9.46-1.73Z"/><path class="cls-7" d="M1149.62,257.5c-1.78.25-3.41.44-4.88.57s-2.9.18-4.3.18-3-.07-4.82-.23-3.85-.39-6.1-.7l.41-6.75,25.61-60.27c2-.19,3.9-.34,5.64-.47s3.5-.19,5.29-.19c1.47,0,3.07.07,4.82.19s3.73.28,6,.47l26.08,60.37-.4,6.74a93.86,93.86,0,0,1-11.62.84q-2.32,0-4.65-.18c-1.55-.13-3.21-.32-5-.57l-4.42-13a63,63,0,0,1-6.21,1.12,45.43,45.43,0,0,1-11.33,0q-2.79-.33-5.81-1ZM1165.88,208l-7.78,24.12q2,.47,3.72.75a22.25,22.25,0,0,0,3.6.28,33.31,33.31,0,0,0,3.89-.23,40,40,0,0,0,4-.71Z"/><path class="cls-7" d="M1210.5,190.39c1.7-.24,3.25-.43,4.65-.56s2.74-.19,4.06-.19a41.36,41.36,0,0,1,4.36.24c1.51.16,2.8.33,3.89.51l27,36.8v-36.8q3-.36,5.47-.56c1.62-.12,3.09-.19,4.41-.19s2.71.07,4.18.19,3,.32,4.65.56l-.12,67a30.53,30.53,0,0,1-3.37.56,41.77,41.77,0,0,1-10,0c-1.55-.22-2.67-.39-3.37-.52L1229.2,220.8v36.61a57.72,57.72,0,0,1-9.29.84,59.82,59.82,0,0,1-9.41-.84Z"/><path class="cls-7" d="M1287.06,190.39q3.14-.36,5.69-.56c1.71-.12,3.22-.19,4.53-.19s3,.07,4.71.19,3.62.32,5.63.56v67a78.12,78.12,0,0,1-10.22.84,76.78,76.78,0,0,1-10.34-.84Zm44.85,32.39L1354,250.67l-.41,6.74a48.76,48.76,0,0,1-5.28.61c-2.21.16-4.21.23-6,.23-2.24,0-4.41-.07-6.5-.23s-3.88-.36-5.35-.61l-21.26-33.79.41-6.74,19.23-26.49q3.48-.46,6-.61c1.7-.09,3.44-.14,5.23-.14.85,0,1.81,0,2.9.05s2.15.09,3.19.19,5-6.32,5.93-6.23a58.81,58.81,0,0,1-.41,6.74Z"/><path class="cls-10" d="M1125.75,231.24a17.59,17.59,0,0,1-2.79,10.23,19.19,19.19,0,0,1-7.67,6.38,39.24,39.24,0,0,1-11.62,3.28,105.68,105.68,0,0,1-14.64.94q-6.27,0-11.27-.37c-3.33-.25-6.93-.57-10.8-.94V183.65c2.94-.38,6.16-.69,9.64-.94s7.55-.37,12.2-.37a80,80,0,0,1,12.37.89,34.51,34.51,0,0,1,10,3,17.8,17.8,0,0,1,6.8,5.63,15,15,0,0,1,2.5,8.87,14.1,14.1,0,0,1-2.44,8,16.87,16.87,0,0,1-6.16,5.58,28.93,28.93,0,0,1,5.17,2.21,17.47,17.47,0,0,1,4.42,3.38,15.47,15.47,0,0,1,3.07,4.83A16.79,16.79,0,0,1,1125.75,231.24Zm-38.69-22h3.25c3.33,0,5.93-.54,7.78-1.64s2.79-3,2.79-5.68a5.34,5.34,0,0,0-1-3.28,7,7,0,0,0-2.5-2.07,11.44,11.44,0,0,0-3.37-1,23.75,23.75,0,0,0-3.6-.28h-1.69a13.27,13.27,0,0,0-1.68.09Zm0,13.33v15.77c.54.06,1.22.11,2,.14s1.88.05,3.2.05a27.35,27.35,0,0,0,4.47-.38,15,15,0,0,0,4.12-1.27,7.53,7.53,0,0,0,3-2.44,6.57,6.57,0,0,0,1.1-3.89q0-4.5-3.66-6.24a22.16,22.16,0,0,0-9.47-1.74Z"/><path class="cls-10" d="M1150,250.76c-1.79.25-3.41.44-4.88.56s-2.91.19-4.3.19-3-.08-4.82-.23-3.86-.39-6.1-.71l26-67q3-.28,5.64-.47c1.74-.13,3.5-.19,5.28-.19,1.47,0,3.08.06,4.82.19s3.74.28,6,.47l25.67,67.11a93.73,93.73,0,0,1-11.62.84c-1.55,0-3.09-.06-4.64-.19s-3.22-.31-5-.56l-4.41-13a62.83,62.83,0,0,1-6.22,1.13,46.74,46.74,0,0,1-11.33,0c-1.86-.22-3.79-.55-5.81-1Zm16.26-49.56-7.78,24.12q2,.48,3.72.75a22.24,22.24,0,0,0,3.6.29,31.37,31.37,0,0,0,3.89-.24,40.32,40.32,0,0,0,4-.7Z"/><path class="cls-10" d="M1210.9,183.65c1.71-.25,3.26-.44,4.65-.56s2.75-.19,4.07-.19,2.84.08,4.35.23,2.81.33,3.9.52l27,36.79V183.65q3-.37,5.46-.56c1.63-.13,3.1-.19,4.42-.19s2.71.06,4.18.19,3,.31,4.65.56l-.12,67c-.78.18-1.9.37-3.37.56a41.12,41.12,0,0,1-10,0c-1.55-.22-2.67-.39-3.37-.51l-27.07-36.61v36.61a57.83,57.83,0,0,1-9.3.84,60,60,0,0,1-9.41-.84Z"/><path class="cls-10" d="M1287.47,183.65q3.13-.37,5.69-.56c1.7-.13,3.21-.19,4.53-.19s3,.06,4.71.19,3.62.31,5.63.56v67a78.25,78.25,0,0,1-10.22.84,76.66,76.66,0,0,1-10.34-.84ZM1332.31,216,1354,250.67a48.68,48.68,0,0,1-5.29.61q-3.32.22-6,.23-3.37,0-6.51-.23c-2.09-.16-3.87-.36-5.34-.61l-21.26-33.79,19.63-33.23c2.33-.31,4.34-.52,6-.61s3.45-.14,5.23-.14c.85,0,1.82,0,2.91,0s2.14.09,3.19.18l3,.28,2.5.24Z"/><path class="cls-2" d="M957.81,1293.5V1324a11.59,11.59,0,0,0,2,6.56,11.82,11.82,0,0,0,5.51,4.4,11.15,11.15,0,0,0,2.16.61,11.72,11.72,0,0,0,2.07.18h485.84a11.6,11.6,0,0,0,5.25-1.24,11.84,11.84,0,0,0,6.46-9.43q0-.22,0-.48c0-.2,0-.4,0-.6v-30.5c0-.2,0-.41,0-.61a11.79,11.79,0,0,0-10.35-11.06,10.7,10.7,0,0,0-1.39-.09H969.57a11.72,11.72,0,0,0-2.07.19,10.48,10.48,0,0,0-2.16.61,11.82,11.82,0,0,0-5.51,4.4A11.57,11.57,0,0,0,957.81,1293.5Z"/><path class="cls-3" d="M1196.39,1335.75h260.28a9.43,9.43,0,0,0,4.68-1.24,11.9,11.9,0,0,0,5.77-9.43q0-.22,0-.48c0-.2,0-.4,0-.6v-30.5c0-.2,0-.41,0-.61-.26-5.71-4.22-10.39-9.24-11.06a8.42,8.42,0,0,0-1.24-.09H1228.35s0,.06,0,.09c-3.56,15.48-11.73,36.71-30.45,52.68C1197.39,1334.93,1196.89,1335.35,1196.39,1335.75Z"/><rect class="cls-3" x="1016.93" y="1281.74" width="5.52" height="54.01" transform="translate(2039.38 2617.5) rotate(180)"/><rect class="cls-3" x="1035.62" y="1281.74" width="5.52" height="54.01" transform="translate(2076.77 2617.5) rotate(180)"/><rect class="cls-3" x="1058.04" y="1281.74" width="5.52" height="54.01" transform="translate(2121.6 2617.5) rotate(180)"/><rect class="cls-3" x="1092.39" y="1281.74" width="5.52" height="54.01" transform="translate(2190.31 2617.5) rotate(180)"/><rect class="cls-3" x="1128.72" y="1281.74" width="5.52" height="54.01" transform="translate(2262.97 2617.5) rotate(180)"/><rect class="cls-3" x="1184.42" y="1281.74" width="5.52" height="54.01" transform="translate(2374.36 2617.5) rotate(180)"/><rect class="cls-3" x="1236.57" y="1281.74" width="5.52" height="54.01" transform="translate(2478.66 2617.5) rotate(180)"/><rect class="cls-3" x="1283.14" y="1281.74" width="5.52" height="54.01" transform="translate(2571.79 2617.5) rotate(180)"/><rect class="cls-3" x="999.14" y="1281.74" width="5.52" height="54.01" transform="translate(2003.8 2617.5) rotate(180)"/><rect class="cls-3" x="987.39" y="1281.74" width="5.52" height="54.01" transform="translate(1980.29 2617.5) rotate(180)"/><rect class="cls-3" x="976.04" y="1281.74" width="5.52" height="54.01" transform="translate(1957.59 2617.5) rotate(180)"/><path class="cls-3" d="M967.5,1281.93v53.63a10.84,10.84,0,0,0,2.07.19H973v-54h-3.45A11.72,11.72,0,0,0,967.5,1281.93Z"/><path class="cls-3" d="M959.83,1286.93v43.63a11.82,11.82,0,0,0,5.51,4.4v-52.43A11.94,11.94,0,0,0,959.83,1286.93Z"/><path class="cls-2" d="M922.09,1239.57v30.5a11.63,11.63,0,0,0,2,6.57,11.94,11.94,0,0,0,5.51,4.4,11.33,11.33,0,0,0,2.16.6c.22,0,.45.08.68.1l.38,0,.39,0,.62,0h485.84a11.8,11.8,0,0,0,11.74-11.15c0-.2,0-.41,0-.61v-30.5c0-.2,0-.4,0-.6a11.79,11.79,0,0,0-11.74-11.15H933.85a11.72,11.72,0,0,0-2.07.18,12.13,12.13,0,0,0-2.16.61,11.82,11.82,0,0,0-5.51,4.4A11.59,11.59,0,0,0,922.09,1239.57Z"/><path class="cls-3" d="M1160.67,1281.83H1421c5.59,0,10.19-5,10.48-11.15,0-.2,0-.41,0-.61v-30.5c0-.2,0-.4,0-.6-.29-6.19-4.89-11.15-10.48-11.15H1192.63c-3.64,15.87-12.11,37.81-31.86,53.92Z"/><rect class="cls-3" x="981.21" y="1227.82" width="5.52" height="54.01" transform="translate(1967.94 2509.65) rotate(180)"/><rect class="cls-3" x="999.9" y="1227.82" width="5.52" height="54.01" transform="translate(2005.33 2509.65) rotate(180)"/><rect class="cls-3" x="1022.32" y="1227.82" width="5.52" height="54.01" transform="translate(2050.16 2509.65) rotate(180)"/><rect class="cls-3" x="1056.67" y="1227.82" width="5.52" height="54.01" transform="translate(2118.87 2509.65) rotate(180)"/><rect class="cls-3" x="1093" y="1227.82" width="5.52" height="54.01" transform="translate(2191.53 2509.65) rotate(180)"/><rect class="cls-3" x="1148.7" y="1227.82" width="5.52" height="54.01" transform="translate(2302.92 2509.65) rotate(180)"/><rect class="cls-3" x="1200.85" y="1227.82" width="5.52" height="54.01" transform="translate(2407.22 2509.65) rotate(180)"/><rect class="cls-3" x="1247.41" y="1227.82" width="5.52" height="54.01"/><rect class="cls-3" x="963.42" y="1227.82" width="5.52" height="54.01" transform="translate(1932.36 2509.65) rotate(180)"/><rect class="cls-3" x="951.67" y="1227.82" width="5.52" height="54.01" transform="translate(1908.85 2509.65) rotate(180)"/><rect class="cls-3" x="940.32" y="1227.82" width="5.52" height="54.01" transform="translate(1886.15 2509.65) rotate(180)"/><path class="cls-3" d="M931.78,1228v53.64a11.72,11.72,0,0,0,2.07.19h3.45v-54h-3.45A11.72,11.72,0,0,0,931.78,1228Z"/><path class="cls-3" d="M924.11,1233v43.62a11.82,11.82,0,0,0,5.51,4.4v-52.42A11.82,11.82,0,0,0,924.11,1233Z"/><g id="man"><path class="cls-11" d="M1592.78,694.09s24-6.47,35.14-18,29.4-8.07,35.85-5.29,9.9,14.35,2.08,14c-11.82-.52-16.57,15.63-35.22,18.53s-38.82,14-38.82,14Z"/><path class="cls-12" d="M1449.56,550.66s27.59,161.43,72.88,177.57c25.39,9,76.15-14.4,104.37-29.06l-9-15.33s-54,7.41-60.73,3.25c-11.67-7.25-2-143.74-32.58-168.73S1466.61,506.53,1449.56,550.66Z"/><path class="cls-13" d="M1507.75,1335.41h97.39c-.35-2.62-2.52-11.34-15.63-13.28-15.47-2.29-42.75-11.3-47.75-32.52s-37.81,7.31-37.81,7.31S1500.53,1330.93,1507.75,1335.41Z"/><path class="cls-14" d="M1338.67,919.94c16.24,33.13,54.74,79.28,68.94,115,3.36,8.46,5.36,16.33,5.39,23.31.33,80.25,87.44,238.49,87.44,238.49,8.31,5.37,43.76-5.39,43.76-5.39s-4.1-35.16-24.46-156.66c-11.21-67-30.14-166.81-44.85-242.84-3.79-19.58-7.31-37.58-10.33-53C1458,805.5,1453.74,784,1453.74,784l-33.78.56-91.23,1.51S1290.87,822.36,1338.67,919.94Z"/><path class="cls-13" d="M1338.67,919.94c16.24,33.13,54.74,79.28,68.94,115,20.13-42.58,50.66-107.32,67.28-143.09-3.79-19.58-7.31-37.58-10.33-53-4.79-23.05-6.22-33.36-10.82-54.85l-125,2.07S1290.87,822.36,1338.67,919.94Z"/><path class="cls-13" d="M1150.91,1285c3.8,11.11,19.52,18,22.17,31.63,1.85,9.53,6.61,15.9,11.87,18.76h42.8c.7-1.59,3.67-9.87-8.46-12-13.46-2.36-19.15-18.31-18.93-33.34,0-.36,0-.73,0-1.1.07-14.89-2.71-33.84-2.71-33.84l-28.6-5.5-4.78,6.68-.75,1.06S1147.11,1273.9,1150.91,1285Z"/><path class="cls-14" d="M1354.66,1117.74c-17.14,31.13-143.6,175.66-143.6,175.66s-39.86-13.46-47-37.67c0,0,74.8-122.9,108.81-175.28,9.73-15,15.13-243.9,49.8-285.62,43.45-52.3,122.12,46.93,122.12,46.93s-24.62,80-32.27,105.27C1395.6,1003,1366.47,1096.28,1354.66,1117.74Z"/><path class="cls-15" d="M1598.79,695.52s24.06-6.47,35.15-18,29.4-8.07,35.85-5.28,9.9,14.34,2.08,14c-11.82-.52-16.58,15.63-35.22,18.53s-38.83,14-38.83,14Z"/><path class="cls-15" d="M1522.78,508.5c12.55-20.83,17.86-34,17.86-34l-29.47-51.69c-17.17,48.42-56.82,59.37-56.82,59.37S1500.7,533,1538,535.6A85.55,85.55,0,0,0,1522.78,508.5Z"/><path class="cls-15" d="M1551.11,477.7S1492.67,465.26,1501,429s6.36-62.31,44-55.91,41.72,21.9,41.89,34.69S1566.52,480,1551.11,477.7Z"/><path class="cls-13" d="M1500.4,431.49s19.13-45.44,72-33.17c36.22,8.4,26.73-28.35,24.59-34.42,0,0-28.13-5.29-57.23-9.93C1478.7,344.22,1497.14,422.33,1500.4,431.49Z"/><path class="cls-16" d="M1549.42,589.4c-1.15,18.14-6.62,45.62-14.05,76.11-2.89,11.81-6.06,24.07-9.39,36.42-5.41,20-11,40.18-16.85,59.15l-.22.67c-.42,1.93-1.08,4-1.67,5.85-5,16.75-9.87,32.26-14.08,45.42-8.06,25.18-8.11,39.2-14.55,42-12.92,5.72-63.82-.42-94.31-13.64-25.77-11-65-44-64.83-60.7.23-19.3,26.14-77.42,43.31-145.27C1384,552.57,1431,486.38,1470.13,472.73c2.93-1,6.06,5.2,17.42,16.11,10.49,10.06,23.89,16.34,36.4,17.68l7.28,12.45C1541.33,536.79,1551.29,559.81,1549.42,589.4Z"/><path class="cls-12" d="M1526,701.93c-2.89,11.81,3.33-12.35,0,0-5.41,20-11,40.18-16.85,59.15l-.22.67c-.42,1.93-1.08,4-1.67,5.85-5,16.75-9.87,32.26-14.08,45.42-81.5-103.52-35.28-227.5-35.28-227.5Z"/><path class="cls-16" d="M1411.83,550.66s51,187.75,97.67,199.25c23,5.68,86.27-23.62,114.49-38.28,0,0,7.09-5.76-8.58-26.19,0,0-83.54,15.69-90.24,11.53-11.67-7.25,11.85-134-18.72-159S1428.88,506.53,1411.83,550.66Z"/><path class="cls-13" d="M1532.68,408.88s6.57-10.88,24.09-12.64c0,0-51.51,1.09-53.66,16.92s-2.71,18.33-2.71,18.33S1527.62,432.61,1532.68,408.88Z"/></g><path class="cls-4" d="M2157.31,1047.37l65.93-5.68s-3.81-40.64,7.79-94.86c8.56-40.05,25.53-87.5,58.64-131.44,56.46-74.94,224.18-116.87,224.18-116.87v-9.7l-6-.65a23.91,23.91,0,0,1,6-2.87V662.37a80.61,80.61,0,0,0-19.06,1.87,130,130,0,0,1,19.06-3.43V648.75c-243,6.5-322.19,153.26-347,266.83C2150.93,988.27,2157.31,1047.37,2157.31,1047.37Z"/><path class="cls-5" d="M1868.76,1026l288.55,21.33c1.5-44.45,13.1-90.41,24.31-125.26a592.36,592.36,0,0,1,22.07-58.58c86.33-189.14,310.16-214.78,310.16-214.78L2265.42,547c-120,9-204.22,66.67-263.11,139C1887,827.8,1868.76,1026,1868.76,1026Z"/><path class="cls-6" d="M1868.76,1026l288.55,21.33,65.93-5.68s-3.81-40.64,7.79-94.86a390.81,390.81,0,0,0-49.41-24.72q-7.6-3.21-14.79-6.53c-183.73-84.8-166.61-216.89-164.52-229.52C1887,827.8,1868.76,1026,1868.76,1026Z"/><path class="cls-4" d="M1891.45,1048.26l257.15-5-.9-5c-.14-.75-13.35-76.15,17.49-161.87,18.06-50.22,47.51-94.16,87.52-130.59,50.13-45.63,117.12-79.6,199.11-101l12.63-3.29-200.71-79.88H2263c-2.17-.05-53.87-.83-120.32,30.59-38.94,18.43-74.8,44.16-106.58,76.51-39.64,40.35-73,91.14-99.11,151-2.06,4.59-50.91,114.25-48.32,180.1v.08Zm247.07-13.34-239,4.62-2.33-40c-1-26.3,6.86-65.07,22.8-112.13,12.11-35.75,24.67-63.85,24.8-64.13,25.67-58.79,58.35-108.64,97.16-148.2,31-31.61,66-56.78,103.94-74.8,41.19-19.55,77.11-26.36,97.9-28.73a66.7,66.7,0,0,1,32.18,4.29l139.1,55.36a8.32,8.32,0,0,1-.54,15.65c-67.65,21.79-124,52.95-167.78,92.89-41.05,37.44-71.25,82.59-89.75,134.22a365.42,365.42,0,0,0-20.81,116.15A309.3,309.3,0,0,0,2138.52,1034.92Z"/><path class="cls-2" d="M1840.11,1047.44l1.68,19.34a7.38,7.38,0,0,0,1.63,4.06,7.59,7.59,0,0,0,3.74,2.48,6.65,6.65,0,0,0,1.4.26,6.56,6.56,0,0,0,1.33,0l2.19-.19,1.91-.17,3.5-.3,3.7-.32,3.5-.3,4-.34,3.51-.31,7.78-.67,3.5-.31,8.36-.72,3.5-.31,10.72-.93,3.5-.3,18.29-1.59,3.5-.3,19.54-1.7,3.5-.3,31.84-2.76,3.5-.31,4.08-.35,25.5-2.21,3.5-.3,26-2.26,3.51-.31,19.3-1.67,33.29-2.89,53.2-4.61a7.53,7.53,0,0,0,6.77-6.63c0-.15,0-.31,0-.46a6.86,6.86,0,0,0,0-1l-1.67-19.35c0-.12,0-.24,0-.36a7.53,7.53,0,0,0-5.32-6.18,7.19,7.19,0,0,0-2.75-.27l-79.86,6.93-.28,0-3.5.31-2.82.24-22.82,2-.4,0-3.5.31-22.13,1.92-2.76.23h0l-.73.06-4,.34-1.26.11-2.24.2-22.12,1.92-3.51.3-6.2.54-3.5.3-19.55,1.7-2.58.23-.92.07-2.58.23-15.71,1.36-3.5.3-.33,0-3.5.31-6.89.59-3.5.3-8.35.73-3.51.3-7.78.68-2.49.21-1,.09-2.49.22-1.47.12-3.5.31-3.38.29-.31,0-3.19.28-.31,0-1.92.17-3.5.3-1.37.12h0l-.66.06-3.51.3-4,.35-3.5.3-7.2.63-1.91.16-2.2.19a7.85,7.85,0,0,0-1.3.23,7.6,7.6,0,0,0-4.59,3.61A7.38,7.38,0,0,0,1840.11,1047.44Z"/><path class="cls-3" d="M1993.76,1061.11l25.5-2.21,3.5-.3,26-2.26,3.51-.31,19.3-1.67,33.29-2.89,53.2-4.61.78-.07a6.93,6.93,0,0,0,6-6.56c0-.15,0-.31,0-.46a6.86,6.86,0,0,0,0-1l-1.67-19.35c0-.12,0-.24,0-.36a7.52,7.52,0,0,0-4.83-6.23,6.18,6.18,0,0,0-2.43-.29l-.81.07-79.86,6.93-.28,0-3.5.31-2.82.24-19.31,1.68-3.51.3-.4,0-3.5.31-22.13,1.92-2.76.24h0l-.73.06-4,.34-1.26.11c0,.17,0,.35-.07.52h0C2009.49,1035.85,2005.25,1050,1993.76,1061.11Z"/><rect class="cls-3" x="1878.44" y="1036.51" width="3.52" height="34.39" transform="translate(3844.42 1940.98) rotate(175.04)"/><rect class="cls-3" x="1890.29" y="1035.48" width="3.52" height="34.39" transform="translate(3868.01 1937.88) rotate(175.04)"/><rect class="cls-3" x="1904.51" y="1034.25" width="3.52" height="34.39" transform="translate(3896.26 1934.25) rotate(175.04)"/><rect class="cls-3" x="1926.31" y="1032.36" width="3.52" height="34.39" transform="matrix(-1, 0.09, -0.09, -1, 3939.6, 1928.6)"/><rect class="cls-3" x="1949.35" y="1030.36" width="3.52" height="34.39" transform="translate(3985.43 1922.61) rotate(175.04)"/><rect class="cls-3" x="1984.68" y="1027.3" width="3.52" height="34.39" transform="translate(4055.74 1913.34) rotate(175.04)"/><rect class="cls-3" x="2017.76" y="1024.43" width="3.52" height="34.39" transform="translate(4121.5 1904.81) rotate(175.04)"/><rect class="cls-3" x="2047.3" y="1021.86" width="3.52" height="34.39" transform="matrix(-1, 0.09, -0.09, -1, 4180.22, 1897.19)"/><rect class="cls-3" x="1867.15" y="1037.49" width="3.52" height="34.39" transform="translate(3821.98 1943.89) rotate(175.04)"/><rect class="cls-3" x="1859.7" y="1038.14" width="3.52" height="34.39" transform="translate(3807.15 1945.85) rotate(175.04)"/><rect class="cls-3" x="1852.5" y="1038.76" width="3.52" height="34.39" transform="translate(3792.86 1947.66) rotate(175.04)"/><path class="cls-3" d="M1845.61,1039.57l3,34a7.39,7.39,0,0,0,1.33,0l2.19-.19-3-34.26-2.19.19A7.09,7.09,0,0,0,1845.61,1039.57Z"/><path class="cls-3" d="M1841,1043.16l2.4,27.68a7.57,7.57,0,0,0,3.74,2.48l-2.88-33.25A7.54,7.54,0,0,0,1841,1043.16Z"/><path class="cls-2" d="M1862.81,1011.46l1.68,19.34a7.41,7.41,0,0,0,1.63,4.06l.37.42a7.76,7.76,0,0,0,1.79,1.39,7.2,7.2,0,0,0,1.56.67h0a8.23,8.23,0,0,0,1.4.26,7.39,7.39,0,0,0,1.33,0l2.19-.19,1.91-.17.32,0,3.18-.28.32,0,3.38-.3,3.5-.3,1.47-.13,2.48-.21,1-.09,2.49-.22,7.78-.68.45,0,3.05-.27.45,0,7.91-.68,3.5-.31,6.88-.59,3.5-.31.34,0,3.5-.3,15.71-1.36,2.58-.23.92-.08,2.58-.22,19.54-1.7,3.51-.3,6.2-.54,3.5-.3,22.13-1.92,2.11-.18h0l1.38-.13,3.95-.34h.13l3.37-.29,22.13-1.92,3.5-.3.4,0,3.51-.3,19.31-1.68,2.82-.24,3.5-.31,1-.08,81.85-7.1.49,0,22.46-1.94a7.51,7.51,0,0,0,6.77-6.63c0-.15,0-.3,0-.46a8.56,8.56,0,0,0,0-1l-1.68-19.35c0-.12,0-.24,0-.36s0-.24-.05-.35a7.52,7.52,0,0,0-8-6.1l-5.25.45h0l-.51,0-24.95,2.16L2080.64,985l-8.62.76-3.5.3-2.81.24-2.12.18-3.5.31-17.6,1.53-3.51.3-4.91.43h0l-.29,0-3.21.28-24.9,2.16-4.68.4-3.51.31L1965.65,995l-3.5.3L1942.6,997l-3.5.3-18.29,1.59-3.51.3-2.28.2-3.5.31-4.92.42-3.5.31-8.37.72-2.85.25-.65.05-2.86.25-3.95.35-1,.08-3.5.3-4,.35-3.5.3-.68.06-2.2.19a5.32,5.32,0,0,0-.8.12l-.49.11a6.56,6.56,0,0,0-1.3.49h0a7.51,7.51,0,0,0-4.17,7.37Z"/><path class="cls-3" d="M2016.46,1025.13l3.37-.29,22.13-1.92,3.5-.3.4,0,3.51-.3,19.31-1.68,2.82-.24,3.5-.31,1-.08,81.85-7.1.49,0,22.46-1.94.78-.07a6.92,6.92,0,0,0,6-6.56c0-.15,0-.3,0-.46a8.56,8.56,0,0,0,0-1l-1.68-19.35c0-.12,0-.24,0-.36s0-.24-.05-.35c-.65-3.74-3.77-6.47-7.21-6.17l-.8.07-5.25.45h0l-.51,0-24.95,2.16-66.44,5.77-8.63.75-3.5.3-2.81.24-2.12.18-3.5.31-17.6,1.53-3.51.3-4.91.43h0l-.29,0c0,.17,0,.33-.07.5h0c-1.48,10.07-5.61,23.91-16.68,34.95h0C2016.84,1024.77,2016.65,1025,2016.46,1025.13Z"/><rect class="cls-3" x="1901.14" y="1000.53" width="3.52" height="34.39" transform="translate(3886.68 1867.08) rotate(175.04)"/><rect class="cls-3" x="1913" y="999.5" width="3.52" height="34.39" transform="translate(3910.21 1864.11) rotate(175.04)"/><rect class="cls-3" x="1927.21" y="998.27" width="3.52" height="34.39" transform="translate(3938.51 1860.37) rotate(175.04)"/><rect class="cls-3" x="1949.01" y="996.38" width="3.52" height="34.39" transform="matrix(-1, 0.09, -0.09, -1, 3981.85, 1854.71)"/><rect class="cls-3" x="1972.05" y="994.38" width="3.52" height="34.39" transform="translate(4027.68 1848.73) rotate(175.04)"/><rect class="cls-3" x="2007.38" y="991.32" width="3.52" height="34.39" transform="translate(4097.95 1839.54) rotate(175.04)"/><rect class="cls-3" x="2040.46" y="988.45" width="3.52" height="34.39" transform="translate(4163.71 1831.01) rotate(175.04)"/><rect class="cls-3" x="2070" y="985.88" width="3.52" height="34.39" transform="translate(4222.45 1823.36) rotate(175.04)"/><rect class="cls-3" x="1889.85" y="1001.51" width="3.52" height="34.39" transform="translate(3864.21 1870.06) rotate(175.04)"/><rect class="cls-3" x="1882.4" y="1002.16" width="3.52" height="34.39" transform="translate(3849.39 1871.99) rotate(175.04)"/><rect class="cls-3" x="1875.2" y="1002.78" width="3.52" height="34.39" transform="translate(3835.04 1873.92) rotate(175.04)"/><path class="cls-3" d="M1868.31,1003.59l3,34a7.39,7.39,0,0,0,1.33,0l2.19-.19-3-34.26-2.19.19A7,7,0,0,0,1868.31,1003.59Z"/><path class="cls-3" d="M1863.72,1007.18l2.4,27.68a7.57,7.57,0,0,0,3.74,2.48l-2.88-33.25A7.49,7.49,0,0,0,1863.72,1007.18Z"/><path class="cls-2" d="M1851.46,978.42l1.67,19.34a7.51,7.51,0,0,0,5.38,6.55,8,8,0,0,0,1.4.26,7.38,7.38,0,0,0,1.33,0l2.18-.19,1.92-.17,1.66-.14h0l1.33-.11.49-.05,3-.26.69-.06,1.22-.11,2.28-.19,1.22-.11,2.73-.24,1-.08,2.53-.22,1-.08,4-.35,2.87-.25.64-.05,2.86-.25,4.92-.43,3.44-.29h.06l3.44-.3,4.91-.42,3.51-.31,2.29-.2,3.51-.3,4.92-.43,3.5-.3,9.87-.86,3.5-.3,4.92-.43,3.5-.3,11.12-1,3.5-.3,4.92-.42,3.51-.31,23.4-2,3.51-.31,4.08-.35.83-.07,3.51-.3,21.15-1.84,3.1-.27.41,0,4.91-.43,3.5-.3,17.62-1.53,3.5-.31,2.11-.18,2.81-.24h0l3.5-.3,9.35-.81,88-7.63a7.44,7.44,0,0,0,2.62-.72,7.53,7.53,0,0,0,4.21-6.37,6.86,6.86,0,0,0,0-1l-1.68-19.35q0-.36-.09-.72a7.55,7.55,0,0,0-5.35-5.84,7.27,7.27,0,0,0-2.29-.27h0l-.31,0-103.68,9-2.1.19-3.5.3-26,2.26-3.5.3-5.22.45-24.35,2.12-3.51.3-31.83,2.76-3.5.31-19.54,1.69-3.5.31-18.29,1.58-3.51.31-10.71.93-3.5.3-8.36.73-3.5.3-7.79.68-3.5.3-4,.34-3.5.31-3.7.32-3.51.3-1.91.17-2.19.19a7.08,7.08,0,0,0-1.3.23,6.86,6.86,0,0,0-1.33.5,7.53,7.53,0,0,0-4.17,7.37Z"/><path class="cls-3" d="M2005.11,992.09l.83-.07,3.51-.3,21.15-1.84,3.1-.27.41,0,4.91-.43,3.5-.3,17.62-1.53,3.5-.3,2.11-.19,2.81-.24,3.5-.3,9.36-.81,88.8-7.7a6,6,0,0,0,2.33-.7h0a7.42,7.42,0,0,0,3.7-6.32,6.86,6.86,0,0,0,0-1l-1.68-19.35q0-.36-.09-.72a7.44,7.44,0,0,0-4.85-5.89,6,6,0,0,0-2.35-.26l-.44,0h0l-104,9-2.1.19-3.5.3-26,2.26-3.5.3-5.22.45c-1.4,10.12-5.48,24.26-16.75,35.48Z"/><rect class="cls-3" x="1889.79" y="967.49" width="3.52" height="34.39" transform="translate(3861.11 1802.22) rotate(175.04)"/><rect class="cls-3" x="1901.64" y="966.46" width="3.52" height="34.39" transform="translate(3884.7 1799.13) rotate(175.04)"/><rect class="cls-3" x="1915.86" y="965.23" width="3.52" height="34.39" transform="translate(3912.97 1795.44) rotate(175.04)"/><rect class="cls-3" x="1937.65" y="963.34" width="3.52" height="34.39" transform="translate(3956.29 1789.84) rotate(175.04)"/><rect class="cls-3" x="1960.7" y="961.34" width="3.52" height="34.39" transform="matrix(-1, 0.09, -0.09, -1, 4002.12, 1783.85)"/><rect class="cls-3" x="1996.03" y="958.28" width="3.52" height="34.39" transform="translate(4072.43 1774.58) rotate(175.04)"/><rect class="cls-3" x="2029.11" y="955.41" width="3.52" height="34.39" transform="translate(4138.19 1766.05) rotate(175.04)"/><rect class="cls-3" x="2058.65" y="952.85" width="3.52" height="34.39" transform="translate(4196.94 1758.37) rotate(175.04)"/><rect class="cls-3" x="1878.5" y="968.47" width="3.52" height="34.39" transform="translate(3838.65 1805.19) rotate(175.04)"/><rect class="cls-3" x="1871.05" y="969.12" width="3.52" height="34.39" transform="translate(3823.82 1807.12) rotate(175.04)"/><rect class="cls-3" x="1863.85" y="969.74" width="3.52" height="34.39" transform="translate(3809.55 1808.9) rotate(175.04)"/><path class="cls-3" d="M1857,970.55l3,34a7.39,7.39,0,0,0,1.33,0l2.18-.19-3-34.26-2.19.19A6.94,6.94,0,0,0,1857,970.55Z"/><path class="cls-3" d="M1852.37,974.14l2.4,27.68a7.46,7.46,0,0,0,3.74,2.48l-2.88-33.25A7.6,7.6,0,0,0,1852.37,974.14Z"/><path class="cls-17" d="M2070.06,994c0,.12,0,.24,0,.36l1.76,19.34a8.18,8.18,0,0,0,.15,1,7.72,7.72,0,0,0,2.93,4.62,2.61,2.61,0,0,0,.3.2,7.15,7.15,0,0,0,.76.44,6.15,6.15,0,0,0,3.18.58l.78-.07,22.45-2a7.52,7.52,0,0,0-3.65,7c0,.12,0,.24,0,.37l1.76,19.34a7.86,7.86,0,0,0,.15,1,7.45,7.45,0,0,0,4.21,5.35l53.2-4.61.78-.07a6.93,6.93,0,0,0,6-6.56c0-.15,0-.31,0-.46a6.86,6.86,0,0,0,0-1l-1.67-19.35c0-.12,0-.24,0-.36a7.52,7.52,0,0,0-4.83-6.23l22.46-1.94.78-.07a6.92,6.92,0,0,0,6-6.56c0-.15,0-.3,0-.46a8.56,8.56,0,0,0,0-1l-1.68-19.35c0-.12,0-.24,0-.36s0-.24-.05-.35c-.65-3.74-3.77-6.47-7.21-6.17l-.8.07-5.25.45a7.42,7.42,0,0,0,3.7-6.32,6.86,6.86,0,0,0,0-1l-1.68-19.35q0-.36-.09-.72a7.44,7.44,0,0,0-4.85-5.89l-.5.05-86.88,7.88-.32,0h0l-.44,0c-3.44.31-6,3.53-6,7.32a5.85,5.85,0,0,0,0,.73l1.75,19.35a6.38,6.38,0,0,0,.15,1,7.63,7.63,0,0,0,3.28,4.86h0a4.05,4.05,0,0,0,.76.42h0c.23.1.45.19.69.27l-5.24.48-.8.07a6.17,6.17,0,0,0-3.84,1.86A7.77,7.77,0,0,0,2070.06,994Z"/><path class="cls-4" d="M2117.4,685.08c42.37,0,65.83,25.34,65.83,67.7s-43.87,68-86.23,68-67.18-25.6-67.18-68S2075,685.08,2117.4,685.08Z"/><circle class="cls-14" cx="1774.05" cy="1284.65" r="51.11" transform="translate(221.82 2830.01) rotate(-80.78)"/><path class="cls-16" d="M1750.54,1284.65a23.51,23.51,0,1,1,23.51,23.51A23.51,23.51,0,0,1,1750.54,1284.65Z"/><circle class="cls-14" cx="2181.62" cy="1284.65" r="51.11" transform="translate(564.11 3232.32) rotate(-80.78)"/><circle class="cls-16" cx="2181.62" cy="1284.65" r="23.51" transform="translate(-325.55 932.66) rotate(-22.5)"/><path class="cls-18" d="M1672.26,689.54a7.68,7.68,0,0,1,10.84-.4l65.41,60.7a7.61,7.61,0,0,1,2.09,3.3l8.31,26.11,549,26a7.66,7.66,0,0,1,7.29,8l-11.24,231a7.67,7.67,0,0,1-7.1,7.27l-450.76,32.71-.56,0a7.66,7.66,0,0,1-7.3-5.34L1746,789.15l-.12-.35-9.25-29.09-63.94-59.34A7.66,7.66,0,0,1,1672.26,689.54ZM1825.67,989l50.42-1.93L1855,902l-57.17-.49Zm64-2.45,56.74-2.18-19.18-81.77-58.5-.5Zm74.55,73.78-14.72-62.78-56.57,2.17,16,64.62Zm65.54-4.75-11.27-60.67L1963,997.05l14.61,62.32Zm72.24-5.24-8.82-58.29-61.27,2.35,11.19,60.21Zm60.26-4.38L2158,989.58l-51.47,2,8.75,57.83Zm73.1-5.3-3.5-53.92-60.56,2.32,4.21,55.94Zm60-134.94-55.46-.47,4.4,67.71,47.88-1.83Zm-68.78-.59-61.63-.52,5.37,71.19,60.7-2.33ZM2158,813.52l5.86,77.8,61.78.53-4.9-75.36Zm-79-3.75,12.24,80.94,59.3.5-5.91-78.32Zm-82.17-3.89L2012.5,890l65.32.55-12.33-81.46Zm-79.57-3.78,20.47,87.31,61.2.52-15.74-84.7Zm162.54,101.8-64.86-.55,14.47,77.85,61.72-2.36Zm24.69,74.43,52.47-2-5.42-71.81-58.28-.5Zm-103.09-75.09-60.54-.52,19,81.15,56.1-2.15Zm-77.34-14-20.6-87.84-60.44-2.87,22.36,90.22Zm310-72.16L2239,892l57,.48,3.52-72.21Zm57.35,167.33-46.37,1.78,3.47,53.47,40.36-2.93Zm-440.5,84.1,44.49-3.23-16.13-65.08-49.5,1.9Zm-57.41-180.37,58.11.49-22.49-90.75-65.33-3.1Z"/><path class="cls-16" d="M1700.09,724.57a9.2,9.2,0,0,0,6.09-16.1L1672.72,679a9.2,9.2,0,0,0-12.17,13.8L1694,722.26A9.14,9.14,0,0,0,1700.09,724.57Z"/><path class="cls-16" d="M2296.28,1053.13a9.19,9.19,0,0,0,9.18-8.75l11.24-231a9.2,9.2,0,1,0-18.37-.89l-11.24,231a9.19,9.19,0,0,0,8.74,9.63Z"/><path class="cls-18" d="M1772.51,1281.1l10.28-61.89a7.65,7.65,0,0,1-7.29-7.65v-83.81a7.68,7.68,0,0,1,2.8-5.93l62.35-51.11a7.67,7.67,0,1,1,9.72,11.86l-59.54,48.81V1204l439.76,7.94,13.64-38.4a7.67,7.67,0,0,1,14.45,5.13l-13,36.59,58.49,22.85a7.67,7.67,0,0,1-2.79,14.81,7.83,7.83,0,0,1-2.79-.52l-64.13-25.06-8.13-.15L2184,1288c-2.13,3.06-6.11,1-5.93-3.08l2.52-58.52-351.47-6.35-52,63.63C1775.3,1285.91,1772,1284.07,1772.51,1281.1Z"/><path class="cls-4" d="M460.36,1116.44l-65.93-5.67s3.81-40.65-7.79-94.86c-8.55-40-25.52-87.5-58.63-131.45C271.54,809.52,103.82,767.6,103.82,767.6v-9.7l6-.66a24.09,24.09,0,0,0-6-2.86V731.45a81,81,0,0,1,19.06,1.86,130,130,0,0,0-19.06-3.42V717.83c243,6.5,322.2,153.25,347,266.83C466.75,1057.35,460.36,1116.44,460.36,1116.44Z"/><path class="cls-5" d="M748.92,1095.11l-288.56,21.33c-1.49-44.44-13.09-90.4-24.31-125.25A592.36,592.36,0,0,0,414,932.61C327.66,743.47,103.82,717.83,103.82,717.83L352.26,616.09c120,9,204.21,66.67,263.1,139C730.71,896.88,748.92,1095.11,748.92,1095.11Z"/><path class="cls-6" d="M748.92,1095.11l-288.56,21.33-65.93-5.67s3.81-40.65-7.79-94.86a392.17,392.17,0,0,1,49.41-24.72q7.6-3.21,14.8-6.53c183.72-84.8,166.61-216.89,164.51-229.52C730.71,896.88,748.92,1095.11,748.92,1095.11Z"/><path class="cls-4" d="M726.23,1117.33l-257.16-5,.91-4.95c.14-.75,13.34-76.15-17.49-161.87C434.43,895.31,405,851.38,365,815c-50.13-45.64-117.12-79.6-199.11-101l-12.64-3.29,200.72-79.88.77,0c2.17,0,53.86-.83,120.31,30.6,39,18.42,74.81,44.16,106.58,76.5,39.64,40.36,73,91.15,99.11,151,2.07,4.6,50.91,114.26,48.33,180.11v.08ZM479.15,1104l239,4.63,2.33-40c1-26.3-6.86-65.07-22.8-112.13-12.11-35.75-24.68-63.85-24.8-64.13-25.67-58.79-58.36-108.64-97.16-148.21-31-31.61-66-56.77-103.94-74.79-41.2-19.55-77.11-26.36-97.91-28.73a66.66,66.66,0,0,0-32.17,4.29L202.6,700.26a8.32,8.32,0,0,0,.55,15.65c67.65,21.78,124,53,167.77,92.89A331.17,331.17,0,0,1,460.68,943c16.44,45.89,20.39,88.5,20.81,116.16A307.09,307.09,0,0,1,479.15,1104Z"/><path class="cls-4" d="M500.27,754.16c-42.36,0-65.82,25.33-65.82,67.7s43.86,68,86.23,68,67.18-25.6,67.18-68S542.64,754.16,500.27,754.16Z"/><circle class="cls-19" cx="612.44" cy="1061.77" r="274.96"/><circle class="cls-2" cx="588.45" cy="1061.77" r="274.96"/><path class="cls-3" d="M588.45,1315.54A249.79,249.79,0,1,1,686,1295.85,248.88,248.88,0,0,1,588.45,1315.54Zm0-486.09a235.56,235.56,0,1,0,166.58,69A234.07,234.07,0,0,0,588.45,829.45Z"/><path class="cls-3" d="M622.94,1137.73a41.46,41.46,0,0,0-.59-14.55,30.28,30.28,0,0,0-6.15-12.07,57.12,57.12,0,0,0-12.3-10.86,152.44,152.44,0,0,0-19.06-10.67,395.15,395.15,0,0,1-35.2-19.34,125.26,125.26,0,0,1-26.32-21.42,73.51,73.51,0,0,1-15.54-26.11q-4.92-14.48-2.68-33.39a75.42,75.42,0,0,1,9.37-29.22,69.62,69.62,0,0,1,19.41-21.56,86.8,86.8,0,0,1,27.79-13.24,116,116,0,0,1,34.71-4l4.9-41.29L634.51,884l-5,41.87a103.92,103.92,0,0,1,31.28,13.3,78.62,78.62,0,0,1,35,50.24q3.66,16.18,1.37,35.48l-60-7.13q2.75-23.15-6.17-35.85t-26.16-14.75a45.06,45.06,0,0,0-16.41.7,30.4,30.4,0,0,0-12,5.82,28.34,28.34,0,0,0-7.71,9.94,41.82,41.82,0,0,0-3.66,13.07,38.6,38.6,0,0,0,.54,13.17,28.47,28.47,0,0,0,5.9,11.57,57.33,57.33,0,0,0,12.4,10.86,194.92,194.92,0,0,0,19.82,11.45q19.25,9.91,34.83,19.78a126.71,126.71,0,0,1,26.19,21.6,74.56,74.56,0,0,1,15.53,26.21q4.92,14.48,2.69,33.19a75.71,75.71,0,0,1-9.53,29.78A69,69,0,0,1,654,1195.62a84.16,84.16,0,0,1-28,12.73,125.2,125.2,0,0,1-34.88,3.68l-4.55,38.4-33-3.92,4.53-38.2a140.29,140.29,0,0,1-32.44-11.48,89,89,0,0,1-26.59-20.08,79.65,79.65,0,0,1-16.67-29.86q-5.52-17.49-2.77-40.64l60,7.12q-1.63,13.71,1.13,23.32a38.55,38.55,0,0,0,8.54,15.89,37.4,37.4,0,0,0,13.72,9.45,64.47,64.47,0,0,0,16.46,4.21,53.65,53.65,0,0,0,17.44-.48,35.69,35.69,0,0,0,13.18-5.48,28.44,28.44,0,0,0,8.73-9.63A34.84,34.84,0,0,0,622.94,1137.73Z"/><path class="cls-20" d="M1505.89,452.72s3.58,29.83,24.51,42.53l10.24-20.55S1514.19,465.51,1505.89,452.72Z"/><path class="cls-21" d="M2397.72,1339.34H39.16a3.6,3.6,0,0,1-3.58-3.59h0a3.59,3.59,0,0,1,3.58-3.58H2397.72a3.59,3.59,0,0,1,3.58,3.58h0A3.6,3.6,0,0,1,2397.72,1339.34Z"/></g></g></svg>