<svg xmlns="http://www.w3.org/2000/svg" viewBox="0 0 1635 1110"><defs><style>.cls-1{isolation:isolate;}.cls-2{fill:#eefbfb;}.cls-3{fill:#937051;}.cls-4{fill:#af8b7f;}.cls-5{fill:#eccfb2;}.cls-6{fill:#504e51;}.cls-7{fill:#3a6594;}.cls-8{fill:#aeccdc;}.cls-9{fill:#d6b492;}.cls-10{fill:#f1cc76;}.cls-11{fill:#c1e8d0;}.cls-12{fill:#a3d3b4;}.cls-13{fill:#ecc192;}.cls-14{fill:#dceffa;}.cls-15,.cls-19{fill:#fff;}.cls-16{fill:#daa98a;}.cls-17{fill:#293a53;}.cls-18{fill:#334c60;}.cls-19,.cls-20,.cls-44{opacity:0.87;}.cls-20{fill:#c7c7c7;}.cls-21{fill:#3372bc;}.cls-22{opacity:0.3;mix-blend-mode:multiply;}.cls-23{fill:#808fa5;}.cls-24{fill:#e0c173;}.cls-25{fill:#c5a45d;}.cls-26{fill:#c4c2c2;}.cls-27{fill:#f5f5f5;stroke:#f5f5f5;stroke-miterlimit:10;}.cls-28{fill:#c72b2c;}.cls-29{fill:#f3cc30;}.cls-30{fill:#d66d2e;}.cls-31{fill:#60acbe;}.cls-32{fill:#58595a;}.cls-33{fill:#ebecec;}.cls-34{fill:#c5c6c7;}.cls-35{fill:#9b9c9d;}.cls-36{fill:#aeb4bb;}.cls-37{fill:#363636;}.cls-38{fill:#4e4e4e;}.cls-39{fill:#a53e39;}.cls-40{fill:#bb615e;}.cls-41{fill:#3990a5;}.cls-42{fill:#2c828f;}.cls-43{fill:#5eacbb;}.cls-44{fill:#949494;}.cls-45{fill:#213238;}</style></defs><title>credit-card_1</title><g class="cls-1"><g id="Vrstva_2" data-name="Vrstva 2"><g id="background"><path class="cls-2" d="M139.52,1110H1563.19c118-98.88,57.28-396.41-41.29-456.72-106.09-64.92,62.38-289.46-101.06-362.34-106.71-47.58-251.33,5.58-322-96.87-83-120.36-220.88-266.86-477.68-153-198.05,87.81-90.48,257.08-414.57,308C40,375.3,72.17,599.51,87.71,645.84c13.53,40.36,103.07,104.37-21.37,192.51C-116.13,967.61,135.22,1107.62,139.52,1110Z"/></g><g id="object"><path class="cls-3" d="M1296.83,599.17l2.53,12.16L1311,630.16,1299.23,821.7l63.11-14.14-.07-183.13,3.21-9.58L1380.7,582l4.74-12.76-9-25.78c-20.6,4.23-61.5,12.61-75.06,15.32Z"/><path class="cls-4" d="M1280,549.44l0,0S1279.93,549.51,1280,549.44Z"/><path class="cls-5" d="M875,829.56l-24.64-217L877,544c-3.73-13.58-6.67-27.38-11-40.81-1.5-4.73-1.9-6.07-6.31-7.48-2.76-.88-5.51-1.78-8.27-2.67L808,479c-.54-.17-9-3.22-9.13-3-3.73,6.59-8.28,13.11-11.37,19.94-3.2,7.07-6,14.34-8.95,21.52-1.6,4-2.62,6.17-2.07,10.13.58,4.14,9,46.27,10.51,55l17.63,24.17-9.43,216.82Z"/><path class="cls-6" d="M801.11,610.19s29.56,13.78,52.39,4.49l1,8.69s-23.71,16-55.46,1Z"/><polygon class="cls-7" points="883.49 720.05 787.31 712.67 762.74 1108 913.2 1108 883.49 720.05"/><polygon class="cls-8" points="769.33 1006.15 905.58 1007.98 904.35 992.56 770.12 992.56 769.33 1006.15"/><polygon class="cls-8" points="771.84 963.15 902.16 965.14 901.14 952.29 772.51 951.57 771.84 963.15"/><polygon class="cls-8" points="774.95 924.26 900.05 927.9 899.03 915.08 775.71 911.28 774.95 924.26"/><polygon class="cls-8" points="777.3 884.16 896.87 887.96 895.59 871.94 778.07 870.89 777.3 884.16"/><polygon class="cls-8" points="779.7 843.07 893.29 843.07 891.66 822.62 780.89 822.62 779.7 843.07"/><polygon class="cls-8" points="782.6 793.34 889.53 795.79 887.99 776.56 783.58 776.56 782.6 793.34"/><polygon class="cls-8" points="785.36 746.09 885.68 747.49 884.38 731.18 786.45 727.46 785.36 746.09"/><path class="cls-9" d="M596.12,638.85a7.26,7.26,0,0,0-3.87-5.28,30.66,30.66,0,0,0-8.75-2.77c-4.6-.29-6.66,3.62-11,5.13-4,1.39-3.82-1.06-7-3.09-5.73-3.64-11.4-2-15.27,3.52,0,0-11.52-8.91-20.41,3.7,0,0-9.08-7-15.82,5.19-3,5.45-.07,19.2.71,25.15a226,226,0,0,0,10.37,44.37c1,2.82,6.14,9.38,6,12.14l-2.13,42.65c-.34,7-2.13,15.39-1.11,22.29.51,3.45-.47,2.71,3.51,4.88,7.24,3.93,16.51,5.51,24.65,5.82a64.58,64.58,0,0,0,21.14-2.65c3.64-1.1,7.64-3,8.58-6.7a14.43,14.43,0,0,0-.23-5.62c-2.57-17.27-7.52-33.88-11.25-51.21l20.2-29.69v-.07l1-34.43q.32-11.32.64-22.66C596.12,646.22,596.83,642.19,596.12,638.85Z"/><polygon class="cls-10" points="620.33 971.33 584.68 764.78 593.45 764.22 593.45 749.99 508.07 749.99 513.12 769.41 520.18 768.96 491.6 982.56 502.33 1106.3 650.89 1106.3 620.33 971.33"/><polygon class="cls-11" points="1395.7 1108 1264.7 1106.3 1294.44 673.98 1368.78 677.86 1395.7 1108"/><path class="cls-11" d="M1264.67,1106.3l-.87-140.2V870.35l5.38-57.22s18.54-43.2,19.74-44.37,70.56-10.51,70.56-10.51l19.74,7,24.52,71.23,7.77,70.06,2.55,58.83,3.12,56.24-5.38,84.68Z"/><polygon class="cls-12" points="1298.61 760.8 1302.85 760.8 1306.25 683.55 1300.3 683.55 1298.61 760.8"/><polygon class="cls-12" points="1311.34 760.8 1315.58 760.8 1319.83 683.55 1313.89 685.25 1311.34 760.8"/><polygon class="cls-12" points="1330.02 683.55 1326.62 760.8 1329.86 762.71 1335.96 683.55 1330.02 683.55"/><polygon class="cls-12" points="1335.96 761.99 1338.5 760.8 1347.84 686.1 1344.45 686.1 1335.96 761.99"/><polygon class="cls-12" points="1352.09 758.25 1355.48 758.25 1358.88 686.1 1354.97 686.1 1352.09 758.25"/><rect class="cls-12" x="1363.97" y="686.1" width="3.4" height="69.61"/><polygon class="cls-13" points="1146.3 778.9 1143.78 760.96 1104.68 751.15 1102.58 764.13 1119.12 776.63 1102.51 779.48 1056.67 770.99 1056.67 790.51 1069.7 828 1047.33 1088.47 1124.58 1088.47 1119.51 829.1 1148.46 794.34 1146.3 778.9"/><polygon class="cls-14" points="1145.04 1108 1136.01 889.56 1043.29 877.38 1004.49 1108 1145.04 1108"/><circle class="cls-15" cx="1024.57" cy="1085.41" r="5.39"/><circle class="cls-15" cx="1053.67" cy="1057.9" r="5.39"/><path class="cls-15" d="M1098.42,1030a5.39,5.39,0,1,0-5.38,5.39A5.38,5.38,0,0,0,1098.42,1030Z"/><path class="cls-15" d="M1048.4,1016.08a5.39,5.39,0,1,0-5.39,5.38A5.39,5.39,0,0,0,1048.4,1016.08Z"/><circle class="cls-15" cx="1082.37" cy="982.45" r="5.39"/><circle class="cls-15" cx="1121.39" cy="1092.22" r="5.39"/><circle class="cls-15" cx="1087.64" cy="1077.97" r="5.39"/><circle class="cls-15" cx="1126.98" cy="1050.93" r="5.39"/><circle class="cls-15" cx="1127.83" cy="997.6" r="5.39"/><path class="cls-15" d="M1051.21,957.41a5.39,5.39,0,1,0-5.39,5.39A5.39,5.39,0,0,0,1051.21,957.41Z"/><circle class="cls-15" cx="1111.42" cy="946.75" r="5.39"/><circle class="cls-15" cx="1075.34" cy="922.15" r="5.39"/><path class="cls-15" d="M1119.27,912.31a5.39,5.39,0,1,0-5.38,5.39A5.38,5.38,0,0,0,1119.27,912.31Z"/><path class="cls-15" d="M1042.44,880.71l-11-13.87h-18l7.38-18,15.58-8.2s9,0,10.66,4.1,12.81,10.55,12.81,10.55l15.08,10,13.94-4.92,9-2.46,9.84,8.2,10.7,5.43,8.16-7.07,9.84-4.1,13.12,3.28,9.85,12.3-1.64,9.84-12.31,13.94-9.28-8-20.24-.22L1092.14,889l-17.91-8.27-16.53.07Z"/><circle class="cls-15" cx="1056.39" cy="892.89" r="5.39"/><polygon class="cls-13" points="1146.3 734.76 1143.78 716.82 1104.68 707.01 1102.58 719.98 1119.12 732.49 1148.46 750.19 1146.3 734.76"/><path class="cls-16" d="M352.93,555.36l-7.64-43.29L330,480.66l-27.17-5.94-15.28,17.83s-8.49,12.73-8.49,14.43v48.38l2.55,26.32h38.2s25.47-11.88,26.32-11.88S352.93,555.36,352.93,555.36Z"/><path class="cls-16" d="M323.25,864.64c.21-19.13-.56-261.38,3.8-268.13,6-9.24,26.67-26.54,27.5-27.81l-1.72-16.94-57.48,21.93s-20.75-28.76-20.58-28.05l-.28-.15,31.87-11-9.76-13.26-43.37,6.19L247.84,545l2.86,24.34,13.08,25.05c2.44,4.66,6.05,9,7.37,14.1,2,7.77-38.86,225.68-44.08,265.56Z"/><polygon class="cls-17" points="348.68 1108 200.13 1108 194.94 966.81 247.64 676.36 338.5 708.18 330.05 966.99 348.68 1108"/><path class="cls-18" d="M1009.39,593,851.64,656.13c-3.4,1.36-7.5-.88-9.15-5L716.92,337.49c-1.65-4.12-.23-8.57,3.17-9.93L877.84,264.4c3.4-1.36,7.5.88,9.15,5L1012.56,583C1014.21,587.16,1012.79,591.61,1009.39,593Z"/><rect class="cls-19" x="779.99" y="302.65" width="163.9" height="302.26" transform="translate(-106.91 352.88) rotate(-21.82)"/><rect class="cls-15" x="904.61" y="608.1" width="34.46" height="5.5" transform="translate(-161 386.39) rotate(-21.82)"/><rect class="cls-19" x="821.42" y="500.23" width="128.5" height="24.09" transform="translate(-126.95 365.89) rotate(-21.82)"/><rect class="cls-19" x="809.93" y="471.28" width="128.5" height="24.09" transform="translate(-117.02 359.55) rotate(-21.82)"/><rect class="cls-20" x="752.48" y="330.5" width="128.5" height="16" transform="translate(-67.3 327.82) rotate(-21.82)"/><rect class="cls-19" x="835.94" y="544.51" width="48.17" height="24.09" transform="matrix(0.93, -0.37, 0.37, 0.93, -145.25, 359.53)"/><rect class="cls-19" x="899.54" y="519.28" width="48.17" height="24.09" transform="translate(-131.32 381.36) rotate(-21.82)"/><polygon class="cls-5" points="786.72 582.53 762.95 559.61 760.4 506.13 803.7 475.57 813.03 495.94 787.57 529.9 804.54 558.76 786.72 582.53"/><path class="cls-21" d="M425.82,533.92,212.64,556.47a8.13,8.13,0,0,1-8.89-7.24L189.64,415.79a8.13,8.13,0,0,1,7.18-8.93L410,384.32a8.12,8.12,0,0,1,8.88,7.23L433,525A8.12,8.12,0,0,1,425.82,533.92Z"/><g class="cls-22"><path class="cls-23" d="M213.44,553.72l209.48-22.15a8.13,8.13,0,0,0,7.18-8.94l-8-75.87C372.18,514.11,263.24,543.35,213.44,553.72Z"/></g><rect class="cls-24" x="207.3" y="455.81" width="40.32" height="30.2" rx="3.39" transform="translate(-48.26 26.53) rotate(-6.04)"/><path class="cls-25" d="M248.53,478.42l-1.3-12.27c-8.78,10.41-26.18,16.88-36.93,20.06a5.36,5.36,0,0,0,4,1.28l29.39-3.11A5.42,5.42,0,0,0,248.53,478.42Z"/><rect class="cls-26" x="210.73" y="495.72" width="46.62" height="14.91" transform="translate(-51.61 27.4) rotate(-6.04)"/><rect class="cls-26" x="262.44" y="490.25" width="46.62" height="14.91" transform="translate(-50.75 32.81) rotate(-6.04)"/><rect class="cls-26" x="314.15" y="484.78" width="46.62" height="14.91" transform="translate(-49.89 38.21) rotate(-6.04)"/><rect class="cls-26" x="365.86" y="479.31" width="46.62" height="14.91" transform="translate(-49.03 43.62) rotate(-6.04)"/><path class="cls-27" d="M219.42,441a8.21,8.21,0,0,1-5.65,3.12,8.35,8.35,0,0,1-1.75-16.6,8.23,8.23,0,0,1,6.15,1.86l-1,1.12a6.83,6.83,0,1,0,1,9.62Z"/><path class="cls-27" d="M222.23,443l-1.71-16.17,4.82-.51a4.52,4.52,0,0,1,2.3,8.63l4.47,7-1.69.18-4.32-6.81-3.13.33.76,7.18Zm.58-8.85,3.33-.35a3,3,0,0,0-.64-6l-3.32.35Z"/><path class="cls-27" d="M234.05,426.9l.48,4.53,5.78-.61.16,1.51-5.78.61.75,7.12,6.62-.7.16,1.51-8.18.86-1.71-16.17,8.18-.87.16,1.51Z"/><path class="cls-27" d="M245,440.57l-1.71-16.17,3.6-.38c5-.53,8.61,2.1,9.14,7.17s-2.46,8.48-7.43,9Zm1.34-1.66,2.1-.23c4.14-.43,6.54-3.09,6.09-7.34s-3.34-6.25-7.48-5.81l-2.1.22Z"/><path class="cls-27" d="M261,438.89l-1.5.16-1.71-16.18,1.5-.16Z"/><path class="cls-27" d="M271,423l-4.19.45,1.55,14.66-1.5.16-1.55-14.67-4.22.45-.16-1.51,9.92-1Z"/><path class="cls-27" d="M293.8,433.1a8.24,8.24,0,0,1-5.65,3.13,8.35,8.35,0,1,1,4.4-14.75l-1,1.13a6.83,6.83,0,1,0,1,9.62Z"/><path class="cls-27" d="M301.54,418.24l9.4,15.36-1.65.18-3-4.82-7.69.82-1.86,5.32-1.67.18,6-17Zm-2.33,9.95,6.24-.66-3.8-6.23Z"/><path class="cls-27" d="M312.87,433.4l-1.71-16.18,4.82-.51a4.53,4.53,0,0,1,2.29,8.64l4.47,7-1.69.18-4.32-6.8-3.12.33.76,7.18Zm.58-8.85,3.32-.35a3,3,0,0,0-.63-6l-3.33.35Z"/><path class="cls-27" d="M324.67,432.15,323,416l3.6-.38c5-.53,8.6,2.09,9.14,7.16s-2.46,8.48-7.43,9Zm1.34-1.67,2.1-.22c4.13-.44,6.54-3.09,6.09-7.34s-3.35-6.25-7.48-5.82l-2.1.23Z"/><path class="cls-28" d="M362.05,421.56a14,14,0,0,1,4.74-12,13.69,13.69,0,0,0-8.08-1.63,13.94,13.94,0,1,0,10.5,24.43A13.93,13.93,0,0,1,362.05,421.56Z"/><path class="cls-29" d="M377.69,419.9a14,14,0,0,1,4.74-12,13.71,13.71,0,0,0-15.64,1.65,14,14,0,0,1,2.42,22.8,13.76,13.76,0,0,0,15.64-1.65A14,14,0,0,1,377.69,419.9Z"/><path class="cls-30" d="M374,420.3a13.93,13.93,0,0,0-7.16-10.77,14,14,0,0,0,2.42,22.8A14,14,0,0,0,374,420.3Z"/><path class="cls-31" d="M390,404.59a13.7,13.7,0,0,0-7.56,3.29,14,14,0,0,1,2.42,22.8,13.69,13.69,0,0,0,8.08,1.63A13.94,13.94,0,0,0,390,404.59Z"/><path class="cls-32" d="M389.59,418.65a13.93,13.93,0,0,0-7.16-10.77,14,14,0,0,0,2.42,22.8A14,14,0,0,0,389.59,418.65Z"/><rect class="cls-33" x="316.14" y="507.46" width="98.62" height="4.52" transform="translate(-51.57 41.25) rotate(-6.04)"/><rect class="cls-34" x="340.41" y="515.89" width="75.31" height="4.52" transform="translate(-52.39 42.63) rotate(-6.04)"/><path class="cls-33" d="M246.55,459.71l-.11-1.08-19.52,2.06-.51-4.85-1.07.11.51,4.85-19.51,2.07.11,1.08L226,461.88l.48,4.63-19.51,2.06.11,1.08,19.52-2.07v0l.57-.1c.2,0,4.76-.81,5.55,2.71a2.79,2.79,0,0,1-.46,2c-.73,1.05-2.18,1.71-4.33,2l-20.14,2.13.11,1.08,19.61-2.07.5,4.71-19.61,2.07.12,1.08,19.61-2.07.51,4.85,1.07-.11-.51-4.86L248.59,479l-.12-1.08-19.42,2.05-.5-4.72c2.19-.34,3.72-1.13,4.57-2.35a3.89,3.89,0,0,0,.68-2.34l13.74-1.45-.11-1.08-13.85,1.46c-1-2.81-4.07-3.27-6.06-3.07l-.48-4.61Z"/><path class="cls-34" d="M414.72,506.78l-.47-4.49-71.52,7.56q-5.82,3-11.71,5.78Z"/><path class="cls-35" d="M411.56,476.9l-21,2.22a249.59,249.59,0,0,1-23.88,17.05l0,.46,46.36-4.9Z"/><path class="cls-36" d="M192.46,416.86l2.46,23.19c-.44-9.91,2-31.84,31.45-34.95l-26.73,2.82A8.13,8.13,0,0,0,192.46,416.86Z"/><path class="cls-16" d="M274.77,545.64l-.28-.15,31.87-11-9.76-13.26-43.37,6.19L247.84,545l2.86,24.34,13.08,25.05c2.44,4.66,6.05,9,7.37,14.1l13-49.68S274.6,544.93,274.77,545.64Z"/><path class="cls-37" d="M672.3,687.2,450.16,647.09a8.57,8.57,0,0,1-6.85-9.94l25.11-139a8.56,8.56,0,0,1,9.89-6.92l222.14,40.12a8.55,8.55,0,0,1,6.84,9.93l-25.1,139A8.56,8.56,0,0,1,672.3,687.2Z"/><g class="cls-22"><path class="cls-37" d="M451.78,644.54,670.06,684a8.57,8.57,0,0,0,9.9-6.91L694.23,598C623.93,651.35,505.18,648.76,451.78,644.54Z"/></g><rect class="cls-24" x="469.16" y="549.08" width="42.46" height="31.8" rx="3.39" transform="translate(108.2 -78.15) rotate(10.24)"/><path class="cls-25" d="M509.47,578.79,511.78,566c-11.95,7.93-31.45,9.33-43.25,9.38a5.64,5.64,0,0,0,3.72,2.49l30.62,5.53A5.72,5.72,0,0,0,509.47,578.79Z"/><rect class="cls-26" x="462.97" y="591.68" width="49.09" height="15.7" transform="translate(114.3 -77.09) rotate(10.24)"/><rect class="cls-26" x="516.85" y="601.41" width="49.09" height="15.7" transform="translate(116.89 -86.51) rotate(10.24)"/><rect class="cls-26" x="570.74" y="611.14" width="49.09" height="15.7" transform="translate(119.47 -95.93) rotate(10.24)"/><rect class="cls-26" x="624.62" y="620.87" width="49.09" height="15.7" transform="translate(122.06 -105.35) rotate(10.24)"/><path class="cls-27" d="M491.1,532.34a8.64,8.64,0,0,1-6.64,1.49,8.79,8.79,0,1,1,8.8-13.61l-1.31.86a7.19,7.19,0,1,0-1.81,10Z"/><path class="cls-27" d="M493.34,535.21l3.05-16.86,5,.91a4.76,4.76,0,0,1-.22,9.4l2.44,8.4-1.76-.31-2.35-8.16-3.26-.59-1.35,7.49Zm3.2-8.78,3.46.63a3.17,3.17,0,0,0,1.13-6.23l-3.46-.62Z"/><path class="cls-27" d="M510,522.44l-.85,4.72,6,1.09-.29,1.57-6-1.09-1.34,7.42,6.89,1.24-.28,1.58-8.53-1.54,3.05-16.86,8.52,1.54-.28,1.58Z"/><path class="cls-27" d="M517.07,539.49l3-16.85,3.75.67c5.18.94,8.08,4.66,7.13,10s-5,7.84-10.17,6.91Zm1.85-1.29,2.19.39c4.3.78,7.52-1.19,8.32-5.62s-1.54-7.31-5.85-8.08l-2.19-.4Z"/><path class="cls-27" d="M533.7,542.49l-1.56-.28,3-16.85,1.56.28Z"/><path class="cls-27" d="M548.58,529.4l-4.37-.79-2.76,15.28-1.57-.28,2.76-15.28-4.39-.8.28-1.57,10.33,1.87Z"/><path class="cls-27" d="M568.59,546.33a8.66,8.66,0,0,1-6.63,1.5,8.79,8.79,0,0,1,3.13-17.3,8.64,8.64,0,0,1,5.67,3.69l-1.31.85a7.19,7.19,0,1,0-7.2,11.19,7.24,7.24,0,0,0,5.39-1.16Z"/><path class="cls-27" d="M580.81,533.6l5,18.3-1.72-.31-1.57-5.74-8-1.45L571,549.23l-1.74-.31,11.08-15.4ZM575.52,543l6.49,1.17-2-7.42Z"/><path class="cls-27" d="M587.78,552.26l3.05-16.85,5,.9a4.77,4.77,0,0,1-.22,9.41l2.44,8.4-1.76-.32L594,545.65l-3.26-.59-1.35,7.48Zm3.2-8.77,3.46.62a3.16,3.16,0,0,0,1.13-6.22l-3.46-.63Z"/><path class="cls-27" d="M600.08,554.48l3-16.85,3.75.67c5.18.94,8.08,4.66,7.12,10s-5,7.84-10.17,6.91Zm1.85-1.29,2.19.39c4.31.78,7.52-1.19,8.32-5.62s-1.54-7.31-5.85-8.08l-2.19-.4Z"/><path class="cls-28" d="M641,554.8A14.71,14.71,0,0,1,649.34,544a14.67,14.67,0,1,0-4.29,23.76A14.68,14.68,0,0,1,641,554.8Z"/><path class="cls-29" d="M657.29,557.75A14.67,14.67,0,0,1,665.64,547a14.46,14.46,0,0,0-16.3-3,14.72,14.72,0,0,1-4.29,23.76,14.46,14.46,0,0,0,16.3,3A14.68,14.68,0,0,1,657.29,557.75Z"/><ellipse class="cls-30" cx="647.19" cy="555.92" rx="12.07" ry="6.3" transform="translate(-14.89 1094.03) rotate(-79.76)"/><path class="cls-31" d="M674.25,545.9a14.36,14.36,0,0,0-8.61,1.09,14.72,14.72,0,0,1-4.29,23.76,14.42,14.42,0,0,0,7.68,4,14.67,14.67,0,0,0,5.22-28.88Z"/><ellipse class="cls-32" cx="663.49" cy="558.87" rx="12.07" ry="6.3" transform="translate(-4.39 1112.48) rotate(-79.76)"/><rect class="cls-33" x="566.5" y="642.54" width="103.84" height="4.76" transform="translate(124.45 -99.63) rotate(10.24)"/><rect class="cls-34" x="589.03" y="654.79" width="79.3" height="4.76" transform="translate(126.79 -101.26) rotate(10.24)"/><path class="cls-33" d="M513,559.29l.2-1.13-20.33-3.67.91-5.06-1.12-.2-.91,5.06-20.33-3.67-.21,1.12,20.34,3.67-.87,4.82-20.34-3.67-.2,1.12,20.34,3.67v0l.6.06c.21,0,5.05.58,4.81,4.37a2.94,2.94,0,0,1-1.05,1.9c-1.05.85-2.72,1.09-5,.71l-21-3.79-.2,1.12,20.43,3.69-.88,4.91-20.44-3.69-.2,1.12L488,575.49l-.91,5.06,1.12.2.91-5.06,20.24,3.66.2-1.13-20.24-3.65.89-4.92c2.31.3,4.09,0,5.31-1a4.13,4.13,0,0,0,1.38-2.17L511.23,569l.2-1.12L497,565.31c-.15-3.13-3.16-4.51-5.22-4.9l.86-4.8Z"/><path class="cls-34" d="M669.09,656.49l.84-4.68-74.51-13.46c-4.51.88-9,1.67-13.55,2.39Z"/><path class="cls-35" d="M674.71,625.35l-21.84-3.94A263.14,263.14,0,0,1,623.7,631.6l-.09.48,48.31,8.72Z"/><path class="cls-38" d="M471,500l-4.37,24.17c2.49-10.15,11.43-31.6,42.12-26.06l-27.86-5A8.56,8.56,0,0,0,471,500Z"/><polygon class="cls-9" points="594.02 706.47 611 684.4 596.56 649.59 580.43 641.95 571.1 657.23 582.13 668.27 573.64 694.58 594.02 706.47"/><path class="cls-39" d="M1208.94,768.35,995.22,790.3a8.16,8.16,0,0,1-8.89-7.28L972.59,649.24a8.14,8.14,0,0,1,7.22-8.93l213.72-21.95a8.15,8.15,0,0,1,8.89,7.28l13.74,133.77A8.17,8.17,0,0,1,1208.94,768.35Z"/><g class="cls-22"><path class="cls-39" d="M996,787.54,1206,766a8.15,8.15,0,0,0,7.22-8.94L1205.45,681C1155.24,748.33,1046,777.3,996,787.54Z"/></g><rect class="cls-24" x="990.12" y="689.46" width="40.41" height="30.27" rx="3.39" transform="translate(-66.7 106.9) rotate(-5.86)"/><path class="cls-25" d="M1031.42,712.18l-1.26-12.3c-8.83,10.4-26.3,16.84-37.07,20a5.4,5.4,0,0,0,4,1.29l29.47-3A5.42,5.42,0,0,0,1031.42,712.18Z"/><rect class="cls-26" x="993.46" y="729.47" width="46.72" height="14.94" transform="translate(-69.97 107.74) rotate(-5.86)"/><rect class="cls-26" x="1045.3" y="724.15" width="46.72" height="14.94" transform="translate(-69.15 113) rotate(-5.86)"/><rect class="cls-26" x="1097.14" y="718.83" width="46.72" height="14.94" transform="translate(-68.34 118.27) rotate(-5.86)"/><rect class="cls-26" x="1148.99" y="713.5" width="46.72" height="14.94" transform="translate(-67.52 123.54) rotate(-5.86)"/><path class="cls-27" d="M1002.36,674.56a8.27,8.27,0,0,1-5.67,3.12A8.37,8.37,0,0,1,995,661a8.25,8.25,0,0,1,6.16,1.88l-1,1.13a6.84,6.84,0,1,0,1,9.64Z"/><path class="cls-27" d="M1005.17,676.59l-1.66-16.22,4.83-.49a4.53,4.53,0,0,1,2.28,8.65l4.46,7-1.7.18-4.31-6.84-3.13.32.74,7.2Zm.61-8.87,3.33-.34a3,3,0,0,0-.61-6l-3.33.34Z"/><path class="cls-27" d="M1017.07,660.51l.46,4.54,5.8-.6.16,1.52-5.8.59.73,7.14,6.64-.68.15,1.51-8.2.84-1.67-16.21,8.21-.85.15,1.52Z"/><path class="cls-27" d="M1028,674.24,1026.34,658l3.61-.37c5-.51,8.61,2.13,9.14,7.21s-2.5,8.49-7.48,9Zm1.35-1.66,2.11-.22c4.14-.43,6.56-3.08,6.12-7.34s-3.33-6.28-7.48-5.85l-2.1.22Z"/><path class="cls-27" d="M1044,672.6l-1.5.15-1.67-16.21,1.51-.16Z"/><path class="cls-27" d="M1054.15,656.7l-4.21.43,1.51,14.7-1.5.16-1.51-14.7-4.23.43-.16-1.51,10-1Z"/><path class="cls-27" d="M1076.93,666.9a8.27,8.27,0,0,1-5.67,3.12,8.37,8.37,0,1,1,4.45-14.77l-1,1.13a6.85,6.85,0,1,0,1,9.64Z"/><path class="cls-27" d="M1084.73,652l9.38,15.42-1.66.17-3-4.83-7.71.79-1.88,5.33-1.68.17,6.07-17Zm-2.36,10,6.25-.65-3.79-6.25Z"/><path class="cls-27" d="M1096,667.26,1094.37,651l4.83-.5a4.53,4.53,0,0,1,2.28,8.66l4.46,7-1.7.17-4.3-6.83-3.14.32.74,7.2Zm.61-8.87,3.32-.34a3,3,0,0,0-.61-6l-3.33.34Z"/><path class="cls-27" d="M1107.87,666l-1.67-16.21,3.61-.38c5-.51,8.62,2.13,9.14,7.22s-2.49,8.49-7.47,9Zm1.35-1.67,2.1-.21c4.15-.43,6.57-3.08,6.13-7.34s-3.34-6.28-7.48-5.85l-2.11.21Z"/><path class="cls-28" d="M1145.37,655.54a14,14,0,0,1,4.79-12,13.68,13.68,0,0,0-8.09-1.66,14,14,0,1,0,10.44,24.51A14,14,0,0,1,1145.37,655.54Z"/><path class="cls-29" d="M1161.05,653.93a14,14,0,0,1,4.79-12,13.77,13.77,0,0,0-15.68,1.61,14,14,0,0,1,2.35,22.85,13.77,13.77,0,0,0,15.68-1.61A14,14,0,0,1,1161.05,653.93Z"/><ellipse class="cls-30" cx="1151.33" cy="654.93" rx="5.99" ry="11.49" transform="translate(-60.89 121.05) rotate(-5.86)"/><path class="cls-31" d="M1173.42,638.62a13.74,13.74,0,0,0-7.58,3.27,14,14,0,0,1,2.35,22.85,13.65,13.65,0,0,0,8.09,1.66,14,14,0,0,0-2.86-27.78Z"/><ellipse class="cls-32" cx="1167.01" cy="653.32" rx="5.99" ry="11.49" transform="translate(-60.64 122.65) rotate(-5.86)"/><rect class="cls-33" x="1099.09" y="741.64" width="98.84" height="4.53" transform="translate(-69.99 121.23) rotate(-5.86)"/><rect class="cls-34" x="1123.38" y="750.13" width="75.47" height="4.53" transform="translate(-70.79 122.56) rotate(-5.86)"/><path class="cls-33" d="M1029.49,693.42l-.11-1.08-19.56,2-.5-4.86-1.07.11.5,4.86-19.57,2,.11,1.08,19.57-2,.47,4.64-19.56,2,.11,1.08,19.56-2v0l.57-.1c.2,0,4.77-.8,5.55,2.73a2.78,2.78,0,0,1-.46,2c-.74,1-2.2,1.71-4.35,2L990.57,710l.11,1.08,19.66-2,.48,4.72-19.66,2,.12,1.08,19.65-2,.5,4.87,1.08-.11-.5-4.87,19.47-2-.11-1.08-19.47,2-.49-4.73c2.19-.34,3.73-1.12,4.58-2.35a3.84,3.84,0,0,0,.69-2.34l13.78-1.41-.11-1.08-13.88,1.42c-1-2.82-4.08-3.29-6.06-3.1l-.48-4.62Z"/><path class="cls-34" d="M1197.9,741.11l-.46-4.51-71.7,7.37c-3.89,2-7.82,3.91-11.76,5.76Z"/><path class="cls-35" d="M1194.82,711.15l-21,2.16a249.66,249.66,0,0,1-24,17l0,.46,46.48-4.77Z"/><path class="cls-40" d="M975.42,650.32l2.38,23.25c-.4-9.94,2.11-31.91,31.64-34.94l-26.8,2.75A8.15,8.15,0,0,0,975.42,650.32Z"/><polygon class="cls-13" points="1147.9 790.34 1143.29 752.39 1105.9 734.48 1095.72 745.52 1099.96 754.86 1125.43 768.44 1107.6 790.51 1147.9 790.34"/><path class="cls-41" d="M1442.51,541.36l-205,36.85a7.91,7.91,0,0,1-9.13-6.39L1205.3,443.49a7.9,7.9,0,0,1,6.33-9.17l205-36.85a7.9,7.9,0,0,1,9.13,6.39l23.06,128.33A7.91,7.91,0,0,1,1442.51,541.36Z"/><path class="cls-42" d="M1238.07,575.49l201.47-36.21a7.91,7.91,0,0,0,6.33-9.17l-13.12-73C1389.14,525.93,1285.61,561.93,1238.07,575.49Z"/><rect class="cls-24" x="1226.24" y="479.57" width="39.19" height="29.35" rx="3.39" transform="translate(-67.79 228.19) rotate(-10.19)"/><path class="cls-25" d="M1266.78,500l-2.12-11.81c-7.78,10.71-24.19,18.21-34.38,22a5.18,5.18,0,0,0,4,1l28.27-5.08A5.27,5.27,0,0,0,1266.78,500Z"/><rect class="cls-26" x="1231.82" y="517.8" width="45.3" height="14.49" transform="translate(-73.1 230.2) rotate(-10.19)"/><rect class="cls-26" x="1281.56" y="508.86" width="45.3" height="14.49" transform="translate(-70.73 238.86) rotate(-10.19)"/><rect class="cls-26" x="1331.29" y="499.92" width="45.3" height="14.49" transform="translate(-68.37 247.52) rotate(-10.19)"/><rect class="cls-26" x="1381.02" y="490.99" width="45.3" height="14.49" transform="translate(-66 256.17) rotate(-10.19)"/><path class="cls-27" d="M1235.93,465.79a8,8,0,0,1-5.25,3.43,8.12,8.12,0,1,1,3.22-14.61l-.85,1.16a6.64,6.64,0,1,0,1.66,9.25Z"/><path class="cls-27" d="M1238.8,467.54,1236,452l4.64-.84a4.4,4.4,0,0,1,2.83,8.21l4.83,6.47-1.63.3-4.66-6.29-3,.54,1.24,6.9Zm-.06-8.62,3.19-.57a2.92,2.92,0,0,0-1-5.75l-3.19.58Z"/><path class="cls-27" d="M1249.12,451.13l.78,4.35,5.57-1,.26,1.45-5.57,1,1.23,6.85,6.37-1.14.26,1.45-7.87,1.41-2.8-15.55,7.88-1.42.26,1.45Z"/><path class="cls-27" d="M1260.7,463.61l-2.8-15.56,3.46-.62c4.78-.86,8.49,1.43,9.37,6.3s-1.79,8.39-6.57,9.25Zm1.18-1.72,2-.36c4-.71,6.12-3.45,5.39-7.54s-3.69-5.83-7.66-5.11l-2,.36Z"/><path class="cls-27" d="M1276.05,460.85l-1.44.26-2.8-15.56,1.44-.26Z"/><path class="cls-27" d="M1284.7,444.73l-4,.73,2.54,14.1-1.45.26-2.53-14.1-4.06.73-.26-1.46,9.54-1.71Z"/><path class="cls-27" d="M1307.46,452.93a8,8,0,0,1-5.25,3.43,8.11,8.11,0,0,1-2.87-16,8,8,0,0,1,6.09,1.36l-.85,1.16a6.64,6.64,0,1,0,1.66,9.26Z"/><path class="cls-27" d="M1313.92,438l10.19,14.23-1.58.28-3.21-4.45-7.39,1.33-1.44,5.29-1.6.28,4.62-16.89Zm-1.55,9.81,6-1.08-4.12-5.77Z"/><path class="cls-27" d="M1326,451.87l-2.8-15.55,4.64-.84a4.4,4.4,0,0,1,2.83,8.21l4.82,6.48-1.62.29-4.66-6.29-3,.54,1.24,6.91Zm-.06-8.61,3.19-.58a2.92,2.92,0,0,0-1-5.74l-3.2.57Z"/><path class="cls-27" d="M1337.32,449.83l-2.8-15.55,3.46-.62c4.78-.86,8.49,1.42,9.37,6.3s-1.79,8.39-6.57,9.25Zm1.18-1.71,2-.36c4-.71,6.12-3.46,5.39-7.54s-3.69-5.83-7.67-5.11l-2,.36Z"/><path class="cls-28" d="M1372.81,436.94a13.53,13.53,0,0,1,3.74-12,13.28,13.28,0,0,0-7.94-1,13.54,13.54,0,0,0,4.79,26.66,13.25,13.25,0,0,0,7.1-3.72A13.52,13.52,0,0,1,1372.81,436.94Z"/><path class="cls-29" d="M1387.85,434.23a13.55,13.55,0,0,1,3.75-12,13.37,13.37,0,0,0-15,2.71,13.58,13.58,0,0,1,4,21.92,13.33,13.33,0,0,0,15-2.7A13.56,13.56,0,0,1,1387.85,434.23Z"/><path class="cls-30" d="M1384.24,434.88a13.5,13.5,0,0,0-7.69-9.93,13.58,13.58,0,0,0,4,21.92A13.53,13.53,0,0,0,1384.24,434.88Z"/><path class="cls-31" d="M1398.69,418.52a13.4,13.4,0,0,0-7.09,3.72,13.58,13.58,0,0,1,3.94,21.93,13.28,13.28,0,0,0,7.94,1,13.54,13.54,0,0,0-4.79-26.66Z"/><path class="cls-32" d="M1399.29,432.18a13.58,13.58,0,0,0-7.69-9.94,13.58,13.58,0,0,0,3.94,21.93A13.57,13.57,0,0,0,1399.29,432.18Z"/><rect class="cls-33" x="1334.39" y="519.95" width="95.83" height="4.39" transform="matrix(0.98, -0.18, 0.18, 0.98, -70.57, 252.77)"/><rect class="cls-34" x="1358.53" y="527.23" width="73.18" height="4.39" transform="translate(-71.65 255.15) rotate(-10.19)"/><path class="cls-33" d="M1263.54,482l-.18-1-18.77,3.38-.84-4.67-1,.18.84,4.67-18.77,3.37.19,1,18.77-3.37.8,4.45-18.77,3.37.18,1,18.77-3.38v0l.54-.14c.19,0,4.56-1.12,5.57,2.23a2.69,2.69,0,0,1-.3,2c-.63,1.08-2,1.82-4.06,2.21l-19.37,3.49.18,1,18.86-3.39.82,4.53-18.86,3.39.19,1,18.85-3.39.84,4.67,1-.19-.84-4.67,18.68-3.35-.18-1L1248,502.88l-.82-4.55c2.1-.48,3.53-1.35,4.26-2.6a3.72,3.72,0,0,0,.49-2.31l13.22-2.38-.18-1-13.32,2.39c-1.13-2.66-4.18-2.88-6.09-2.56l-.79-4.43Z"/><path class="cls-34" d="M1429.85,515.83l-.78-4.32-68.77,12.36c-3.62,2.21-7.28,4.35-11,6.43Z"/><path class="cls-35" d="M1424.69,487.09l-20.16,3.63a243,243,0,0,1-22,18.2l.08.45,44.59-8Z"/><path class="cls-43" d="M1208.11,444.32l4,22.31c-1.12-9.58-.3-31,28-36.1l-25.71,4.62A7.9,7.9,0,0,0,1208.11,444.32Z"/><polygon class="cls-3" points="1385.19 568.95 1370.83 527.93 1341.05 518.86 1335.96 535.84 1353.79 543.48 1351.24 574.89 1341.05 589.32 1385.19 568.95"/><polygon class="cls-8" points="767.53 1030.87 907.3 1030.87 908.57 1047.47 766.5 1047.47 767.53 1030.87"/><polygon class="cls-8" points="765.06 1070.69 910.66 1070.65 911.95 1091.64 763.76 1091.64 765.06 1070.69"/><rect class="cls-44" x="786.04" y="394.97" width="2.51" height="67.3" transform="translate(-103.19 325.77) rotate(-21.98)"/><rect class="cls-44" x="795.58" y="390.94" width="3.44" height="67.3" transform="translate(-100.96 329.22) rotate(-21.98)"/><rect class="cls-44" x="801.84" y="387.77" width="6.6" height="67.3" transform="translate(-99.2 331.93) rotate(-21.98)"/><rect class="cls-44" x="814.71" y="383.22" width="3.44" height="67.3" transform="translate(-96.68 335.82) rotate(-21.98)"/><rect class="cls-44" x="819.66" y="380.89" width="5.1" height="67.3" transform="translate(-95.39 337.83) rotate(-21.98)"/><rect class="cls-44" x="831.29" y="376.13" width="5.4" height="67.3" transform="translate(-92.75 341.88) rotate(-21.98)"/><rect class="cls-44" x="838.69" y="373.74" width="2.46" height="67.3" transform="translate(-91.43 343.93) rotate(-21.98)"/><rect class="cls-44" x="844.47" y="371.41" width="2.46" height="67.3" transform="translate(-90.13 345.93) rotate(-21.98)"/><rect class="cls-44" x="849.03" y="369.57" width="2.46" height="67.3" transform="translate(-89.11 347.49) rotate(-21.98)"/><rect class="cls-44" x="857.8" y="365.13" width="6.89" height="67.3" transform="translate(-86.66 351.28) rotate(-21.98)"/><rect class="cls-44" x="869.92" y="361" width="3.15" height="67.3" transform="translate(-84.36 354.81) rotate(-21.98)"/><rect class="cls-44" x="875" y="358.29" width="6.39" height="67.3" transform="translate(-82.86 357.12) rotate(-21.98)"/><rect class="cls-44" x="886.82" y="354.32" width="2.46" height="67.3" transform="translate(-80.66 360.49) rotate(-21.97)"/><rect class="cls-44" x="895.28" y="350.32" width="5.36" height="67.3" transform="translate(-78.44 363.94) rotate(-21.98)"/><rect class="cls-45" x="84.79" y="1102.67" width="1550.21" height="7.21" rx="3.6"/></g></g></g></svg>