<svg xmlns="http://www.w3.org/2000/svg" viewBox="0 0 2080.7 1841.12"><defs><style>.cls-1{isolation:isolate;}.cls-2{fill:#eafcfc;}.cls-3{fill:#f48c7f;}.cls-4{fill:#b75742;}.cls-5{fill:#b5cff7;}.cls-6{fill:#f7a491;}.cls-7{fill:#3c8f7c;}.cls-8{fill:#50bfa5;}.cls-9{fill:#f47458;}.cls-10{fill:#f7cc7f;}.cls-11{fill:#fff;}.cls-12{fill:#adaeb5;}.cls-13{fill:#544c60;}.cls-14{fill:#eab054;opacity:0.3;}.cls-15{fill:#13375b;}.cls-16{fill:#355389;}.cls-17{fill:#86b1f2;}.cls-18{fill:#0e2e35;}.cls-19{fill:#c9a87f;}.cls-20{fill:#e3be91;}.cls-21{fill:#96d9c9;}.cls-22{fill:#f28383;}.cls-23{fill:#f7d6af;}.cls-24{fill:#855840;}.cls-25{fill:#a36d4f;}.cls-26{fill:#4f4f4f;mix-blend-mode:screen;}.cls-27{fill:#fbe7c3;}</style></defs><title>money-source</title><g class="cls-1"><g id="Vrstva_2" data-name="Vrstva 2"><g id="Layer_1" data-name="Layer 1"><path class="cls-2" d="M107.82,1836.8c-132-219.17,182.43-340,34.81-557.51-220-324.19-198-684.45,154.1-794.34C481,427.45,396.29-38,1177.59,144.5c630.18,147.21,337.52,340.92,438.23,446.9,169.71,178.6,247.21,565.22,24.56,719.89-275.32,191.26,151.44,375.56-20.56,525.51Z"/><path class="cls-3" d="M744.27,1314.55c1.45-2.2-2.11-6-4.78-8.82-3-3.14-21-11.13-24.07-12.1s-29.49,2.5-39.62,5.72-16.77,1.8-16.77,1.8c-2.65-.57-6.62-1.33-9.71-2l-3.72,23.52c23.71-.09,45.66,1.89,47.91,1.86,7.13-.12,20.25-7.46,23.29-8.52s9.16-.15,13.26,1.82,16.07,6.68,18.09,5.63S744.27,1314.55,744.27,1314.55Z"/><path class="cls-3" d="M681.63,1297.83l-133.32-33.45A1110.38,1110.38,0,0,0,476,1148.19c-14.05,13.9-21.86,35.27-36,49l74.59,101.49c3.78,4.18,169.53,22.41,169.53,22.41Z"/><path class="cls-4" d="M485.84,1253.34s-38.35-51.23-52.35-75.47,9.54-8.46,33.58-14.83c9.1-2.42,1.56-52.13,18.77-34.79,28.24,28.45,56.55,90.09,56.55,90.09Z"/><path class="cls-5" d="M599.63,478.31h418.18a37,37,0,0,1,36.92,37.05V759.82a37,37,0,0,1-36.92,37H725.21c-18.82,26.34-52.92,73.51-55.93,73.51-2.82,0,2.61-44.55,6.43-73.51H599.63a37,37,0,0,1-36.92-37V515.36A37,37,0,0,1,599.63,478.31Z"/><path class="cls-6" d="M537.56,1777.65s-2,33.67-2,33.74c-.75,4.28-3.69,14.84-3.69,18.72,0,14.6,69.32-12.39,53.78-18.86-1.4-.59-8.77-5-9.23-10-.71-7.66-2.52-23.15-2.52-23.15Z"/><path class="cls-4" d="M582.7,1808.37s-16.28,4.47-24.61,5.58-19.33-8.28-25.22-5.74c-6.49,2.79-6.24,28-6.24,28s87.28,7.16,111.83-.25C648.18,1833,616,1818.77,582.7,1808.37Z"/><path class="cls-6" d="M655.25,1777.65s-2,33.67-2,33.74c-.74,4.28-3.69,14.84-3.69,18.72,0,14.6,69.33-12.39,53.79-18.86-1.41-.59-11.9-2.44-12.37-7.41-.71-7.66-2-31.33-2-31.33Z"/><path class="cls-4" d="M700.38,1808.37s-16.27,4.47-24.61,5.58-19.32-8.28-25.22-5.74c-6.49,2.79-6.23,28-6.23,28s87.28,7.16,111.82-.25C765.86,1833,733.66,1818.77,700.38,1808.37Z"/><path class="cls-7" d="M431.93,1416.46l165.71.72s74.86-2,86.69,23.92,9,354.63,9,354.63-40,6-42,3.75l-45-196.82a138.82,138.82,0,0,1-4.83-51.41l4.3-45.78-68.38,3.5s-77.52-1.23-103.07-26.94S431.93,1416.46,431.93,1416.46Z"/><path class="cls-8" d="M319.6,1398.19l178.18,10.93s76.68,6.23,88.51,32.11-7.55,357.46-7.55,357.46-44.48,2.74-44.39.79c.11-2.32-18.26-151.88-28.44-199.24a166.37,166.37,0,0,1-3.37-45.78l6.44-53.08s-165.51-.94-173.72-9.2C309.7,1466.47,319.6,1398.19,319.6,1398.19Z"/><path class="cls-9" d="M481.7,1124.85c-24.8-7.52-71.27-11.45-71.27-11.45s-29.13-4.74-38.59-2.69c-13.93,3-40.09,4.4-42.52,64.87-1.74,43.27-6.67,150.32-11.61,222.61L495.06,1409C487,1297.73,505.18,1132,481.7,1124.85Z"/><path class="cls-6" d="M434.68,1061.73,406.82,1113s21,37.4,40.83,38.4c16.66.84,14-23.78,14-23.78s2.62-31.84,10.61-46.1S434.68,1061.73,434.68,1061.73Z"/><path class="cls-9" d="M437.22,1082.24a104.77,104.77,0,0,0,28,21c1.64-8,3.94-16.24,7.06-21.82,3.69-6.58-4-11.28-13.44-14.45-12.58-3.35-24.18-5.29-24.18-5.29l-5.36,9.84C430.68,1075,435.14,1080,437.22,1082.24Z"/><path class="cls-6" d="M449,975.44c-1.15-.82-28.63,63.22-16.71,86.26s43.4,38.25,59.3,27.14c17.58-12.29,36.82-84,15.61-110.17S449,975.44,449,975.44Z"/><path class="cls-10" d="M507,940.28c-21.6-1.52-38.32,7.29-44.66,11.26-9.59-1.48-23.64.14-42.66,18.08-23.4,22.07-19.75,54.74-5.11,74.35s9.74,36.19,9.74,36.19l5.34-7.8a49.9,49.9,0,0,0,8-19.64,41.1,41.1,0,0,0,.37-13c-1.8-10.88,14.1-13.35,20.28-20.26,4.77-5.32,8.84-19.39,16.48-28.25l7.9-6.19s16.1-6.61,28.24-.1S534.74,942.23,507,940.28Z"/><path class="cls-6" d="M454.15,1031c-2.12,8.15-7.66,13.77-12.37,12.55s-6.81-8.83-4.68-17,7.66-13.78,12.37-12.55S456.27,1022.88,454.15,1031Z"/><path class="cls-11" d="M476.56,1057.47l26,5.81s-2.81,9.74-14.32,7.52C474.21,1068.09,476.56,1057.47,476.56,1057.47Z"/><path class="cls-12" d="M843.28,720.3c0,12.79-16.73,23.15-37.37,23.15s-37.38-10.36-37.38-23.15,16.74-23.14,37.38-23.14S843.28,707.52,843.28,720.3Z"/><path class="cls-10" d="M805.91,228.5A168.5,168.5,0,0,0,695.54,524.33c.12.13,26.32,28.45,30.64,58.1l.79,18.15a25.42,25.42,0,0,0,6.6,16c.35.39.72.76,1.1,1.13H877.15c.37-.37.74-.74,1.1-1.13a25.47,25.47,0,0,0,6.6-16l.78-18.15c4.32-29.65,30.52-58,30.65-58.1A168.51,168.51,0,0,0,805.91,228.5Z"/><path class="cls-13" d="M734.31,617.75h143.2a0,0,0,0,1,0,0v40.32a64.82,64.82,0,0,1-64.82,64.82H799.13a64.82,64.82,0,0,1-64.82-64.82V617.75A0,0,0,0,1,734.31,617.75Z"/><path class="cls-14" d="M848.15,525.83A168.61,168.61,0,0,1,713,256.41a168.51,168.51,0,0,0-17.47,267.92c.12.13,26.32,28.45,30.64,58.1l.79,18.15a25.42,25.42,0,0,0,6.6,16c.35.39.72.76,1.1,1.13H877.15c.37-.37.74-.74,1.1-1.13a25.47,25.47,0,0,0,6.6-16l.78-18.15c4.32-29.65,30.52-58,30.65-58.1a170.21,170.21,0,0,0,24.35-26.12A167.75,167.75,0,0,1,848.15,525.83Z"/><polygon class="cls-11" points="804.72 478.72 771.24 332.69 741.86 417.63 733.24 414.65 773.02 299.65 807.18 448.66 842.17 363.24 874.58 417.96 866.74 422.6 843.67 383.65 804.72 478.72"/><path class="cls-13" d="M762.52,639.7l-.8.08a7.7,7.7,0,0,1-8.46-6.86L729.85,406.81a7.71,7.71,0,0,1,6.87-8.46l.8-.08a7.7,7.7,0,0,1,8.45,6.87l23.42,226.11A7.7,7.7,0,0,1,762.52,639.7Z"/><path class="cls-13" d="M849.79,639.74h0a8.1,8.1,0,0,0,8.89-7.22L882,407.21a8.11,8.11,0,0,0-7.23-8.9h0a8.11,8.11,0,0,0-8.9,7.23L842.56,630.85A8.1,8.1,0,0,0,849.79,639.74Z"/><path class="cls-12" d="M735.45,617.75h141a7.18,7.18,0,0,1,7.18,7.18v1.5a7.17,7.17,0,0,1-7.17,7.17h-141a7.18,7.18,0,0,1-7.18-7.18v-1.5A7.18,7.18,0,0,1,735.45,617.75Z"/><rect class="cls-12" x="728.28" y="649.53" width="155.35" height="15.85" rx="7.18"/><rect class="cls-12" x="736.53" y="685.09" width="138.85" height="15.85" rx="7.18"/><path class="cls-6" d="M613.4,1300.41l-137-36.24s-41.93-47.4-81.35-102c-14.08,11.64-20.07,42.39-34.23,53.9l90.45,90c3.14,4.16,155.18,14.93,155.18,14.93Z"/><path class="cls-4" d="M392.11,1262.32s-46.57-59.19-57.94-82.42.78-60,23.35-64.38,87.94,101.81,87.94,101.81Z"/><path class="cls-6" d="M698.32,1319c1.46-2-1.61-5.63-3.92-8.4-2.56-3.06-18.76-11.43-21.54-12.49s-27.34.69-36.87,3.1-15.57.74-15.57.74c-2.41-.67-6-1.59-8.84-2.38l-7.34,21.32c21.88,1.23,44.63,4.43,46.71,4.52,6.58.29,19.09-5.76,21.95-6.58s8.46.37,12.14,2.42,14.45,7,16.37,6.18S698.32,1319,698.32,1319Z"/><rect class="cls-15" x="383.45" y="1550.77" width="17.46" height="255.35"/><path class="cls-15" d="M303.94,1817.5H477.43A14.47,14.47,0,0,1,491.9,1832h0a2.53,2.53,0,0,1-2.53,2.53H292a2.53,2.53,0,0,1-2.53-2.53h0A14.47,14.47,0,0,1,303.94,1817.5Z"/><path class="cls-15" d="M382.09,1806.12h21.25a11.38,11.38,0,0,1,11.39,11.38h0a11.39,11.39,0,0,1-11.39,11.39H382.09a11.39,11.39,0,0,1-11.39-11.39h0A11.38,11.38,0,0,1,382.09,1806.12Z"/><path class="cls-16" d="M504.58,1521.38l-11.93-49.7a80.62,80.62,0,0,0-74.84-61.48l-151.2-6.11-4.67-15.39L418.42,1395a95.88,95.88,0,0,1,89,73.12l12.68,52.8C515.81,1521.12,510.57,1521.27,504.58,1521.38Z"/><path class="cls-10" d="M301.78,1494.91s207.73,3.55,229.38,0,31,23.6,24.57,37.82-24.24,19.71-50.42,21-244,7.43-250.18,1.61c-5-4.75-71.06-230.54-95.09-313.11a31.14,31.14,0,0,1,21.16-38.59h0a31.18,31.18,0,0,1,38.61,20.87Z"/><path class="cls-17" d="M957.88,1182.92H784.58a11.3,11.3,0,0,0-10.45,7l-53.36,130.14H625.23a4.84,4.84,0,0,0-4.84,4.84h0a4.84,4.84,0,0,0,4.84,4.83H897.14a19,19,0,0,0,17.32-11.21l53.73-119.68A11.31,11.31,0,0,0,957.88,1182.92Z"/><path class="cls-11" d="M864.58,1258.7c-1.18,5.85-6.27,9.76-11.39,8.73s-8.32-6.59-7.15-12.43,6.27-9.76,11.39-8.74S865.75,1252.86,864.58,1258.7Z"/><rect class="cls-15" x="592.14" y="1329.74" width="686.66" height="29.05" rx="4.25" transform="translate(1870.94 2688.54) rotate(180)"/><polygon class="cls-15" points="1214.35 1836.81 1235.03 1836.81 1190.47 1358.8 1169.8 1358.8 1214.35 1836.81"/><polygon class="cls-15" points="1038.64 1836.81 1017.97 1836.81 1062.52 1358.8 1083.2 1358.8 1038.64 1836.81"/><polygon class="cls-15" points="820.66 1836.81 841.34 1836.81 796.78 1358.8 776.11 1358.8 820.66 1836.81"/><polygon class="cls-15" points="644.96 1836.81 624.28 1836.81 668.83 1358.8 689.51 1358.8 644.96 1836.81"/><rect class="cls-18" x="32.75" y="1832.1" width="1666.77" height="9.01" rx="3.6"/><path class="cls-9" d="M1697.37,343c5.76,5.14,12.5,10.23,17,7.22s1.39-15-.87-17.5S1697.37,343,1697.37,343Z"/><path class="cls-9" d="M1724.2,333.49c6.28,6.61,13.46,12.72,19.63,8.21,4.69-3.43.63-19.46-2-18.55S1724.2,333.49,1724.2,333.49Z"/><path class="cls-19" d="M1625.33,330.61c4.8,4.72,48.54,34.63,55.89,31.29,7.9-3.58,6.78-19-3.38-31.73,27.71,21.84,31.87,22.23,36.73,16.89,4.19-4.61-.78-19.83-4.42-23.83,18.17,13.82,25.93,21.7,32.09,17.82s5.93-23.86-8.36-39.78C1719.94,285.75,1616.14,321.58,1625.33,330.61Z"/><path class="cls-20" d="M1823.53,257.79c-18.21,13.13-20.52,33.95-77.69,57.25s-104.19-9.12-137.57-.7c-32.45,8.17-3.61,57.58-39.34,68.29-13.87,4.16-15.15-5.57-14.86-16.62s-2.46-52.17,0-68.76,47.94-81.35,71.26-109.59c29.6-35.86,135.17-.27,172.89-14.13,31.13-11.43,67.57-32.48,67.57-32.48s18.51,61.69,36.74,78.92C1877.86,226.13,1846.71,241.08,1823.53,257.79Z"/><path class="cls-19" d="M1646.34,250.88c-14.48,32.92-44.92,53.86-51.24,59.38h.16c-2.58,1.21-4.86,1.54-7.14,3-21.52,13.78-11.7,35.7,1.42,38.75,1.68-16.47,3.29-32.21,18.73-37.67a34.3,34.3,0,0,1,5.25-1.4,46.76,46.76,0,0,1,9.08-1.15c8-3.23,9.52-5.59,7.24-6.87a293.89,293.89,0,0,0,33.29-8.08c28.19-9,45.28-43.35,45.57-51.63C1708.87,240.37,1687.8,259.17,1646.34,250.88Z"/><path class="cls-7" d="M1604.67,130.15a1017.56,1017.56,0,0,0,126.27,376.57L1581.5,594.17a1176.75,1176.75,0,0,1-146-435.39Z"/><path class="cls-21" d="M1698.43,515.36l-93.69,53.85c-6.86-12.2-21.4-17.21-32.8-11a1168.25,1168.25,0,0,1-122.41-365.06c12.62-2.55,21-15.91,19.07-29.92l105.47-18.71a21.9,21.9,0,0,0,26.3,18.64,1026,1026,0,0,0,107.5,320.57A23.2,23.2,0,0,0,1698.43,515.36Z"/><path class="cls-8" d="M1545.11,287.9c31.38-9,63.27,8.89,73.25,39.35s-4.88,65-35,77.86-65.34-3.89-76.5-38.18S1513.79,296.92,1545.11,287.9Z"/><path class="cls-7" d="M1609.64,333.73l-9.92,3.86a55.86,55.86,0,0,1,2.42,13.57,6.67,6.67,0,0,1-5.68,7l-.41.05a6.41,6.41,0,0,1-7.17-6.25,41.41,41.41,0,0,0-2.27-12.41c-2.18-6.12-5.93-9.47-10.12-7.89-4,1.5-5.32,5.93-5.06,15,.41,13.11-1.73,23.17-11.79,27.32-9.11,3.76-18.92-.17-25.45-11.38l-9.91,3.89q-2-5.57-3.94-11.15l9.21-3.52a53.54,53.54,0,0,1-2.15-10.86,6.64,6.64,0,0,1,5.83-7.35h0a6.74,6.74,0,0,1,7,6.54,37.75,37.75,0,0,0,2.09,10.33c2.56,7.28,6.34,8.46,9.25,7.31,3.45-1.35,4.21-6.09,4.3-16.76-.14-14.84,4-22.23,13.46-25.64s19.58.61,25.92,12.06l10.69-4Q1607.79,328.56,1609.64,333.73Z"/><path class="cls-8" d="M1592.83,420.63q17.64,43.15,38.93,84.73L1617,513.18q-21.57-42.1-39.47-85.92Z"/><path class="cls-8" d="M1525.14,179.3q7.48,46.47,18.84,91.93l-16,4.54q-11.49-46.06-19.1-93.22Z"/><path class="cls-7" d="M1376.37,249.12c105.88,66.93,225.46,111.31,352.44,130.8q-20.49,82.15-41,164.32C1541,521.7,1402.76,470.38,1280.33,393Z"/><path class="cls-21" d="M1712.57,409.45q-13.18,51.23-26.38,102.43c-13.32-2.16-26.85,5.74-30.31,18-121.78-22.63-237.11-65.44-341.67-126.8,6.86-11,3.19-25.26-8-32.2l59.27-90.23c10.3,6.39,24.36,2.43,31.22-8.55,91.81,53.89,193.09,91.47,300,111.35C1693.26,395.67,1700.31,407.46,1712.57,409.45Z"/><path class="cls-8" d="M1446.75,388.17c15.18-28.92,49.74-42.09,78.09-31.33s42.51,42.58,30.87,72.85-47.64,46.63-79.51,34.46S1431.58,417,1446.75,388.17Z"/><path class="cls-7" d="M1523.41,367.26q-2.06,4.86-4.09,9.74a48.69,48.69,0,0,1,11.24,6.31,6.05,6.05,0,0,1,1,8.42l-.24.34a6.62,6.62,0,0,1-9.33,1.63,35.91,35.91,0,0,0-10.32-5.73c-5.82-2-10.75-1.23-12.52,2.86-1.68,3.88.53,7.54,7.12,12.78,9.53,7.55,15.16,15.17,11.18,25.19-3.61,9.08-13.13,14.08-25.52,12.26q-2,4.88-4.06,9.75-5.31-1.83-10.58-3.73,1.92-4.5,3.85-9a45.6,45.6,0,0,1-9.14-4.89,6,6,0,0,1-1.18-8.77h0a6.93,6.93,0,0,1,9.45-1.37,32.43,32.43,0,0,0,8.73,4.62c6.89,2.44,10.32.32,11.52-2.56,1.41-3.39-1.41-6.79-8.88-13.25-10.57-8.77-12.94-16.3-8.84-25.43s13.88-14.31,26.32-12.2q2.25-5.21,4.49-10.43Q1518.5,365.56,1523.41,367.26Z"/><path class="cls-8" d="M1573.17,431.87q42.58,12.63,86.53,21.55-2.31,7.88-4.64,15.76-44.54-9-87.74-21.86Z"/><path class="cls-8" d="M1356.4,338.13q37.93,22.2,77.8,40.91l-7.8,14.72q-40.39-19-78.89-41.49Q1352,345.21,1356.4,338.13Z"/><path class="cls-7" d="M1578.37,141.4a932.54,932.54,0,0,0,199.3,324L1646.46,576.29A1078.14,1078.14,0,0,1,1416,201.64Z"/><path class="cls-21" d="M1747.09,479.92l-82.46,68.59c-9.21-9.94-24.63-11.69-34.73-3.68A1070.08,1070.08,0,0,1,1436.69,230.7c12-4.89,17.72-18.94,13.07-31.54l101-38.37c4.28,11.6,17.75,16.93,29.77,12a939.81,939.81,0,0,0,169.66,275.86C1740.15,456.69,1738.61,470.77,1747.09,479.92Z"/><path class="cls-8" d="M1550.2,299.54c29.39-14.63,64.57-4.36,80.46,21.9s7.91,61.26-19.49,79.17-65.64,9.41-83.46-20.17S1520.87,314.14,1550.2,299.54Z"/><path class="cls-7" d="M1623.27,329.18l-9.1,5.55a50.33,50.33,0,0,1,5.08,12.11,6.37,6.37,0,0,1-4.28,7.58l-.4.13a6.43,6.43,0,0,1-8.34-4.36,36.82,36.82,0,0,0-4.7-11.06c-3.36-5.24-7.74-7.6-11.59-5.3-3.66,2.18-4.12,6.56-2.08,14.93,3,12.08,2.84,21.83-6.34,27.68-8.31,5.31-18.82,3.62-27.5-5.48l-9.08,5.59q-3.07-4.77-6.1-9.57l8.46-5.09a47.39,47.39,0,0,1-4.27-9.64,6.33,6.33,0,0,1,4.35-8h0a6.74,6.74,0,0,1,8.27,4.66,34,34,0,0,0,4.11,9.17c4,6.23,8,6.58,10.62,4.93,3.16-1.94,3-6.49,1-16.4-3-13.73-.39-21.41,8.35-26.45s19.55-3.34,28.09,6l9.82-5.88Q1620.42,324.76,1623.27,329.18Z"/><path class="cls-8" d="M1623.64,413.11q26,36.51,55.28,70.81l-13.14,10.2q-29.7-34.74-56.06-71.81Z"/><path class="cls-8" d="M1509.05,202.81q16.56,41.59,36.75,81.5l-15,7.4q-20.44-40.42-37.26-82.64Z"/><path class="cls-20" d="M1807.42,272.94c-20.53,25.14-54.36,42.66-100.69,49.7-43.91,6.67-66.65,13.19-99.37,23.46-23.42,7.36-39.35-10.64-15.71-27.4,20.88-14.8,78.93-32.91,95-68.51,13.47-29.74,61.42-61.3,91.13-44.67C1806.21,221.4,1830.8,244.32,1807.42,272.94Z"/><path class="cls-9" d="M1577.5,341.72c-3.21-5.06-1.44-12.77,11.28-18.6,5.84-2.67,14.08-3.63,17.49,3.88,2.87,6.34-.72,12.29-7.27,16S1580.84,347,1577.5,341.72Z"/><path class="cls-4" d="M1896,254.67c-10.41,5.14-76.68-98-62.49-106.44C1973.3,65.4,2080.7,0,2080.7,0V163.75S2010.05,198.36,1896,254.67Z"/><path class="cls-22" d="M1678.09,1423.77c-4.3,5-9.07,10.13-13.43,9.79s-1.22-16.19-.77-17.27S1678.09,1423.77,1678.09,1423.77Z"/><path class="cls-22" d="M1651.79,1410.42c-4,6.44-8.75,9.94-13.86,8.38s2.71-16.87,3.94-17.21S1651.79,1410.42,1651.79,1410.42Z"/><path class="cls-19" d="M1600.56,1345.63c-.15,6.17,7.22,54.23,14,57.06,7.35,3,17-7.38,19.15-22.14,2.53,33.77,3,36.48,9.61,35.64,10.08-1.29,14.89-13.39,15.29-18.33,2.12,20.82,4.24,32.81,8.17,32.66,9.63-.35,25.78-11.89,21.41-30.53S1600.86,1333.81,1600.56,1345.63Z"/><path class="cls-20" d="M1773.57,1432.83c-20.12-4.41-35.61,7.52-87-16.19s-59.18-75.55-85.74-92.65c-25.81-16.62-40.85,33.67-70.42,16.43-11.48-6.69-5.76-13.64,1.83-20.37s33.42-34.34,46.1-43.06,84.57-18.85,118.11-20.92c42.58-2.63,84.88,90.43,117.8,107,27.17,13.7,196.87,73.76,196.87,73.76s-.75,132.15-53.79,106.26C1937.66,1530.43,1788.06,1436,1773.57,1432.83Z"/><path class="cls-19" d="M1663.89,1306.1c-31.14,10.92-61,7.29-68.63,6.52l.11.09c-2.43-1-4.08-2.28-6.49-2.9-22.72-5.78-31.26,14.53-25.08,25.24,12.09-9.19,23.64-18,37-11.06a33.82,33.82,0,0,1,4.23,2.65,43,43,0,0,1,6.46,5.36c7.17,3.34,9.71,2.88,9.14.55a267.78,267.78,0,0,0,26.27,17.25c23.7,13.26,57.43,3.19,63.16-1.81C1713.39,1345.07,1684.31,1339.09,1663.89,1306.1Z"/><path class="cls-7" d="M1527.84,1518.72c-3.35-114.88-30.87-228.63-81.13-335.25l146-53c58.11,123.28,89.94,254.79,93.81,387.63Z"/><path class="cls-21" d="M1477.51,1180.69l91.47-32.43c5.18,11.25,18.12,17.49,29.22,13.85,45.2,104.27,71.75,214,78.65,325-11.88.41-20.86,10.52-20.4,22.6l-99,1.15c-.42-11.11-10.64-19.78-22.51-19.37-6.06-97.49-29.38-193.83-69.07-285.4C1476.92,1202.45,1482.28,1191,1477.51,1180.69Z"/><path class="cls-8" d="M1597.58,1393.89c-29.8,3.27-57.53-16.28-63.87-43.37s10.6-54.18,39.61-60.83,59.9,12.35,67,42.83S1627.32,1390.63,1597.58,1393.89Z"/><path class="cls-7" d="M1542.36,1346.27l9.52-1.88a44.6,44.6,0,0,1-1-11.79,5.56,5.56,0,0,1,5.9-5.08h.38a6.08,6.08,0,0,1,6,6.27,32.72,32.72,0,0,0,.93,10.78c1.43,5.47,4.57,8.81,8.59,8.07,3.81-.71,5.47-4.27,6.08-12,.85-11.12,3.77-19.32,13.43-21.42,8.76-1.91,17.44,2.77,22.41,13.13l9.51-1.91q1.32,5,2.58,10l-8.82,1.69a42.39,42.39,0,0,1,1,9.47,5.52,5.52,0,0,1-6.07,5.38h0a6.34,6.34,0,0,1-5.88-6.49,30.57,30.57,0,0,0-1-9c-1.68-6.49-5.06-8-7.85-7.45-3.31.67-4.45,4.56-5.53,13.55-1.27,12.54-5.78,18.2-14.83,19.76s-18-3.22-22.77-13.77l-10.24,1.92C1544,1352.42,1543.18,1349.34,1542.36,1346.27Z"/><path class="cls-8" d="M1566,1275.28q-12.21-38.87-28-76.9l14.37-4.54q15.94,38.52,28.34,78Z"/><path class="cls-8" d="M1605.81,1488.29q-2.55-40.24-8.75-80.18l15.2-1.61q6.27,40.45,8.87,81.31Z"/><path class="cls-7" d="M1342.32,1420.23a855.61,855.61,0,0,0,144.41-317.77l151.63,43a989.28,989.28,0,0,1-167,367.41Z"/><path class="cls-21" d="M1513.44,1118.3l94.46,27.59c-2.84,12.11,3.73,24.74,15,28.32a981.71,981.71,0,0,1-140,308c-9.88-6.65-23.5-3.78-30.7,6.23l-81-57.23c6.63-9.21,3.78-22.19-6.1-28.83a862.08,862.08,0,0,0,122.94-270.52C1499.32,1135.49,1510.82,1129.45,1513.44,1118.3Z"/><path class="cls-8" d="M1477.1,1360.59c-26.2-14.86-36.42-46.89-24.58-72.45s42.56-37.42,70.24-25.75,40.81,45.13,27.43,73.85S1503.25,1375.43,1477.1,1360.59Z"/><path class="cls-7" d="M1462.2,1289.8l8.89,4.07a46.38,46.38,0,0,1,6.61-10.06,5.82,5.82,0,0,1,8-.63l.3.23a5.9,5.9,0,0,1,1,8.59,34.07,34.07,0,0,0-6,9.24c-2.26,5.24-1.81,9.78,1.91,11.54,3.54,1.67,7.11-.23,12.43-6.08,7.67-8.45,15.16-13.34,24.32-9.36,8.29,3.6,12.39,12.47,9.93,23.74l8.9,4q-2.06,4.79-4.15,9.55l-8.22-3.83a43.48,43.48,0,0,1-5.14,8.2,5.81,5.81,0,0,1-8.3.77h0a6.17,6.17,0,0,1-.7-8.68,31.23,31.23,0,0,0,4.87-7.83c2.71-6.21.93-9.42-1.69-10.61-3.1-1.41-6.46,1.06-13,7.67-8.89,9.36-16.09,11.27-24.4,7.21s-12.57-13.17-9.83-24.47l-9.5-4.46C1459.65,1295.7,1460.94,1292.76,1462.2,1289.8Z"/><path class="cls-8" d="M1525.88,1246.5q14.46-38.49,25.55-78.38l14.49,4.78q-11.22,40.41-25.9,79.47Z"/><path class="cls-8" d="M1424.59,1441.49q23.16-33.91,43.17-69.74l13.33,7.63q-20.28,36.28-43.78,70.72Z"/><path class="cls-20" d="M1753.32,1431.53c-24.4,1.11-70.09-7.35-94.66-33.67-27.8-29.8-57.09-40-83.43-57.25-11.25-7.35-13.89-15-9.49-22.62,2.51-4.38,9-6.12,21-2.4,22.41,7,71.46,29.19,102.59,18.19,28.25-10,83.2,5.34,90.67,35.67C1787.1,1398.43,1787.19,1430,1753.32,1431.53Z"/><path class="cls-23" d="M1584.56,1331.24c-6.35,10.56-18.45,2.45-19.35-5.22a9.45,9.45,0,0,1,9.23-11C1580.65,1315,1592.88,1317.4,1584.56,1331.24Z"/><path class="cls-9" d="M1799.62,1488.29s18.64-77.37,55.35-131.92c11.27,4.87,225.73,100.06,225.73,100.06v179.33Z"/><path class="cls-24" d="M1622,866.51c.54,6,13,51.53,19.93,53.5,7.43,2.12,15.59-9,16-23.51,6.21,32.3,7,34.86,13.25,33.32,9.58-2.38,12.88-14.59,12.71-19.4,4.38,19.86,7.75,31.19,11.53,30.61,9.26-1.42,23.55-14.35,17.26-31.85S1621,855.08,1622,866.51Z"/><path class="cls-25" d="M1798.67,931.33c-19.91-2-33.52,11.24-85.81-5.9s-65.55-66.28-93.08-79.82c-26.77-13.16-35.66,37-66.12,23.72-11.82-5.17-7.08-12.52-.51-19.85s28.42-36.88,39.68-46.71,79.49-27.63,111.63-33.38c40.8-7.29,92,77.78,125.63,90.12,27.74,10.18,58.45,15.31,58.45,15.31s-28.12,56.72-25.67,78.94C1842.52,943.7,1813,932.78,1798.67,931.33Z"/><path class="cls-24" d="M1678.67,821.3c-28.82,14-58,13.85-65.49,14l.12.08c-2.45-.66-4.19-1.75-6.59-2.07-22.57-3-28.54,17.51-21.38,27.15,10.64-10.22,20.81-20,34.45-14.8a32.94,32.94,0,0,1,4.38,2.08,41.78,41.78,0,0,1,6.83,4.46c7.29,2.41,9.69,1.69,8.88-.49a262.42,262.42,0,0,0,27.28,13.7c24.35,10.15,55.77-3.34,60.74-8.8C1730.8,853.37,1702.07,850.85,1678.67,821.3Z"/><path class="cls-7" d="M1645.05,933.24a907.26,907.26,0,0,0-350.92-46.52L1282.7,732.83a1048.68,1048.68,0,0,1,405.74,53.79Z"/><path class="cls-21" d="M1300,857.31q-3.18-48-6.38-96.09c12.46-.72,22.17-10.39,21.68-21.94a1041.19,1041.19,0,0,1,340.19,45.1c-2.9,11.1,4.51,23,16.48,27q-13.18,45.89-26.36,91.76a19.52,19.52,0,0,0-25.23,13.75,914.25,914.25,0,0,0-298.73-39.61A20.69,20.69,0,0,0,1300,857.31Z"/><path class="cls-8" d="M1542.12,823.74c-5.07,28.67-31.91,47.17-60.21,43.21s-50.13-29.39-48.59-58.55,28.72-50.77,60.55-46.27S1547.18,795.14,1542.12,823.74Z"/><path class="cls-7" d="M1480.15,857.43c.27-3.15.53-6.3.8-9.45a50.08,50.08,0,0,1-11.82-3.38,6,6,0,0,1-3.34-7.28l.12-.34a5.71,5.71,0,0,1,7.81-3.3,36.61,36.61,0,0,0,10.82,3.05c5.76.66,9.91-1,10.29-5,.36-3.77-2.67-6.58-10-9.93-10.66-4.82-17.87-10.47-17.25-20.15.56-8.76,7.55-15.08,19.08-15.91q.39-4.72.77-9.46c3.49.39,7,.8,10.48,1.22-.27,2.92-.53,5.84-.8,8.76a46.83,46.83,0,0,1,9.54,2.53,5.92,5.92,0,0,1,3.59,7.55h0a6,6,0,0,1-8,3.08,33.22,33.22,0,0,0-9.09-2.38c-6.83-.81-9.26,1.76-9.48,4.54-.27,3.29,3.23,5.75,11.74,10,11.93,5.7,16.23,11.91,15.24,20.82s-8.16,15.44-19.81,16l-1,10.14C1486.62,858.17,1483.38,857.79,1480.15,857.43Z"/><path class="cls-8" d="M1417.18,809.92q-41.48-2.8-83.08-2-.24-7.46-.47-14.9,42.16-.76,84.25,2.08Q1417.52,802.48,1417.18,809.92Z"/><path class="cls-8" d="M1636.88,850.32q-40.12-12.21-81-21l2.64-14.6q41.37,8.85,82.11,21.25Z"/><path class="cls-7" d="M1646.36,907.79a831.21,831.21,0,0,0-337.49,32.52q-18.66-74.23-37.31-148.48a960.91,960.91,0,0,1,390.21-37.61Q1654.06,831,1646.36,907.79Z"/><path class="cls-21" d="M1309.25,910.15l-22.59-92.88c11.58-3.48,19-15.13,16.57-26.36a953.59,953.59,0,0,1,327.17-31.53c-.8,11.54,8.22,21.61,20.13,22.82q-4.44,48-8.9,95.92c-11-1.11-20.5,7.58-21.3,19.11A837.77,837.77,0,0,0,1333,924.92C1330.57,913.7,1319.9,907,1309.25,910.15Z"/><path class="cls-8" d="M1530.81,823.26c.2,29.25-21.82,53.39-49.06,55.81s-52.14-17.67-55.74-46.63,18.2-56.23,48.86-58.9S1530.62,794.05,1530.81,823.26Z"/><path class="cls-7" d="M1478.45,870.12c-.29-3.15-.59-6.3-.88-9.45a44.9,44.9,0,0,1-11.68-.69,5.67,5.67,0,0,1-4.4-6.39c0-.13,0-.25,0-.37a5.74,5.74,0,0,1,6.77-5,32.9,32.9,0,0,0,10.69.58c5.52-.64,9.12-3.22,8.79-7.21-.31-3.78-3.64-5.87-11.14-7.51-10.84-2.35-18.59-6.29-19.67-15.93-1-8.72,4.48-16.48,15.16-19.87q-.45-4.72-.91-9.45,5-.58,10-1.13c.25,2.92.51,5.84.76,8.76a42.93,42.93,0,0,1,9.39.36,5.64,5.64,0,0,1,4.68,6.61h0a6,6,0,0,1-7,4.8,30,30,0,0,0-9-.3c-6.55.73-8.38,3.78-8.11,6.57.32,3.29,4,4.92,12.74,7.2,12.19,2.94,17.3,8.08,17.91,17s-5,17-15.83,20.14c.28,3.39.57,6.77.85,10.16Q1483.1,869.57,1478.45,870.12Z"/><path class="cls-8" d="M1411.12,837.52q-39.42,6.5-78.35,16.5-1.51-7.26-3-14.52,39.45-10.14,79.45-16.73Q1410.17,830.15,1411.12,837.52Z"/><path class="cls-8" d="M1624.37,828.23q-39.8-3-79.64-2.53,0-7.46,0-14.91,40.36-.52,80.75,2.56Q1624.9,820.79,1624.37,828.23Z"/><path class="cls-25" d="M1779,932.34c-24.83,9.53-77.2,3.7-105.31-24.17s-48.69-28.29-77.37-38.86c-10.66-3.92-13.92-12.09-11.25-22.52,2.44-9.5,8.21-13.37,21.7-12.35,22.74,1.72,63.2,24.3,94.69,9.41,26.31-12.44,85.71-2.83,96.31,25.61C1807.89,896.62,1809.74,920.54,1779,932.34Z"/><path class="cls-26" d="M1587,848.75c2.39-12.52,7.44-11.16,14.23-9.49,6.57,1.62,11,6,8.57,14.36-2,7.06-6.12,10.09-13.95,8.63S1585,859.27,1587,848.75Z"/><path class="cls-27" d="M1858.63,980.44c-4.72-4.28-17.44-10.91-29.12-14.37-5.38-18.13,28.12-103.41,41.12-113.31,12,4.66,25.5,11.58,25.5,11.58Z"/><path class="cls-17" d="M1841.27,983.94c3.36-30.18,29.36-116.46,47.88-131.18C2030.34,900,2080.7,915,2080.7,915v159S1932,1019.94,1841.27,983.94Z"/></g></g></g></svg>