<svg xmlns="http://www.w3.org/2000/svg" viewBox="0 0 2189.14 1767.02"><defs><style>.cls-1{isolation:isolate;}.cls-2{fill:#eafcfc;}.cls-3{fill:#f48c7f;}.cls-4{fill:#f7a491;}.cls-5{fill:#13375b;}.cls-6{fill:#466eb6;}.cls-7,.cls-8{fill:#f47458;}.cls-23,.cls-8{opacity:0.5;}.cls-23,.cls-25,.cls-28,.cls-8{mix-blend-mode:multiply;}.cls-9{fill:#fae0b2;}.cls-10{fill:#f79c8d;}.cls-11{fill:#fff;}.cls-12{fill:#c5ddf9;}.cls-13{fill:#50bfa5;}.cls-14{fill:#0e2e35;}.cls-15{fill:#183658;}.cls-16{fill:#1a1a1a;}.cls-17{fill:#9e9da2;}.cls-18{fill:#d8d9dd;}.cls-19,.cls-25{fill:#f7cc7f;}.cls-20{fill:#cf283c;}.cls-21{fill:#f3fcff;}.cls-22{fill:#eab054;}.cls-23{fill:#feb546;}.cls-24{fill:#86b1f2;}.cls-26{fill:#b75742;}.cls-27{fill:#2e7566;}.cls-28{fill:#d4d0d0;}</style></defs><title>needs-wants</title><g class="cls-1"><g id="Vrstva_2" data-name="Vrstva 2"><g id="Layer_1" data-name="Layer 1"><path class="cls-2" d="M187.6,1758.55H2101.92c158.67-156.65,77-628-55.51-723.57-142.66-102.86,83.87-458.58-135.89-574-143.49-75.38-338,8.83-432.95-153.46C1366,116.78,1180.57-115.32,835.28,65,569,204.14,713.61,472.32,277.83,553.06,53.74,594.58,97,949.79,117.94,1023.2c18.19,63.93,138.59,165.34-28.73,305C-156.15,1533,181.82,1754.78,187.6,1758.55Z"/><path class="cls-3" d="M927.18,1374.64s-32,1.16-35.39,2.69-45.5,41.28-45.5,41.28-25.19,42.06-21.17,45.5,18.19-13.52,19.28-17,30-36.12,33.76-38.36,32.31-9.8,33.28-11,20.19-10.88,20.68-12.42S927.18,1374.64,927.18,1374.64Z"/><path class="cls-3" d="M875.35,1394.62c.52-1.4,11.85-17.34,17.93-17.62s8.51,4.32,8.26,5.09-4.91,5.77-8.18,8.67S875.35,1394.62,875.35,1394.62Z"/><path class="cls-3" d="M847.44,1436.39c-1.13,3.31-20.14,42.82-19,44.22s11.08,1.1,13.82-1.94l2.74-3.05a11.36,11.36,0,0,0,8.82-4.75c3.27-4.8,9.27-16.94,12.22-19.42s11-19.55,12.72-19.93S907,1415,907,1415l13.75,8.72s-7.51,10.79-11.66,16.31-12.28,16.27-10.47,24.69,8.28,9.69,8.35,9.68,6.5-14.91,8.47-17.18,16.4-18.67,20.59-20.8,19.52-7,25-13.77,25.27-33.09,25.27-33.09l-44-11.23s-59.81,18.15-60.9,18.79S847.44,1436.39,847.44,1436.39Z"/><path class="cls-4" d="M831.28,1411.9s15.9-6.79,18.36-8.24,18.34-11.15,19.78-11.61,30.83-7.38,30.83-7.38,19.18-10.11,21.88-11.14,24.68-8.83,29.2-10,22.56-11.6,25.4-12.67,28.4-7.93,28.4-7.93,28.45,24.45,28.87,35c0,0-47,10.72-49,12.07l-.07,0a64.65,64.65,0,0,1-41.31,11.06,61.85,61.85,0,0,0-12.76.05c-8.17,1.29-45.09,5.36-52,5.46s-37.55,11.12-41,11.4S825.7,1415.24,831.28,1411.9Z"/><path class="cls-5" d="M1287.94,703.51c-30.08-98.31-98.38-127.2-135.78-130.69-67.45-6.28-101,12.12-152.71,67.44-67.56,72.25-74,53.61-167.36,82.28C613,789.8,647,1078.59,770.6,1175.48c196.07,153.72,333.49,28.78,426.84-120.44C1298,894.3,1300.23,743.68,1287.94,703.51Z"/><path class="cls-6" d="M1017.07,1379.93s-50.47,85.52-70.19,162.3c-13.62,53.06-20.49,213-20.49,213H1356.3s-48-319.84-138.11-360.78S1017.07,1379.93,1017.07,1379.93Z"/><path class="cls-7" d="M1269.59,938.62c-62.42-5.86-231.49,9.45-308.18,21.84-10.95,1.77,53.16,382.21,35.63,449.08l-35.7,73.1s215,46.18,323.05-12.23L1224,1378.25C1234.75,1329,1317.47,943.12,1269.59,938.62Z"/><path class="cls-4" d="M1065.94,839.89s-9.32,227,44.61,231.7,55.21-133.7,55.9-150.69l3.75-92.48Z"/><path class="cls-8" d="M1065.37,888.17c34.43,40.28,84.36,34,102.09,7.72l2.74-67.47-104.26,11.47S1065.12,859.9,1065.37,888.17Z"/><path class="cls-3" d="M893,1057.15c-1.15,94.68,10.52,238.75,71,320.39,15.8,21.33,43.1-55.3,43.1-55.3s-20.47-365.72-45.75-361.76C938.14,964.11,893.94,979.23,893,1057.15Z"/><path class="cls-9" d="M1003.94,1251.63c-8.55-112.19-25.14-293.89-42.63-291.15-23.17,3.63-75.91,18.75-76.86,96.67-.76,62.57,4.15,150,25,223.41,18.86-10.82,46.81-24.12,69-25.63A201.3,201.3,0,0,0,1003.94,1251.63Z"/><path class="cls-4" d="M1046.19,645.7s-14.21,32-14.21,98.54,16,104.75,47,127,66.9,12.3,84.34,0c31.48-22.23,62.14-104.76,53.26-163.35S1181.12,533.84,1046.19,645.7Z"/><path class="cls-4" d="M1262.57,938.17s3.14,10-1.56,93.6c-5.48,97.49-34.26,312.27-34.26,312.27s-136.25-7.93-228.12-3.59l-44.37,22.81,26.85,29.18s266.13,48.66,292.77,40S1398.53,970.06,1262.57,938.17Z"/><path class="cls-3" d="M991.68,960.3s-20.95-24.26-22.1-27.77-.69-61.43-.69-61.43,13.7-47.07,19-46.47,2.46,22.54.63,25.73-6.1,46.54-5.17,50.84,14.8,30.35,14.55,31.89,5.76,22.21,5,23.61S991.68,960.3,991.68,960.3Z"/><path class="cls-3" d="M971.07,908.72c-.68,1.33-4.66,20.48-.73,25.13s9,3.29,9.35,2.59.9-7.52.8-11.89S971.07,908.72,971.07,908.72Z"/><path class="cls-3" d="M982.7,859.85c1.66-3.09,17.69-43.89,19.48-44s8.35,7.37,8,11.45l-.36,4.08a11.34,11.34,0,0,1,2.5,9.7c-1.29,5.66-6.11,18.31-5.92,22.16s-6.87,21.34-6,22.89,7.1,31.89,7.1,31.89l15.74,4.15s2.8-12.85,4-19.64,3.57-20.07,11-24.47,12.74-.52,12.78-.46-6.51,14.9-6.83,17.89-2.54,24.72-1.24,29.24,8.1,19.11,6.94,27.72-7.07,41-7.07,41l-38.15-24.61s-27.38-56.19-27.65-57.42S982.7,859.85,982.7,859.85Z"/><path class="cls-10" d="M1044.17,986.17c-2.88-14.39-11.18-21.87-21.94-31.85a63.06,63.06,0,0,1-8.65-9.38c-4.61-6.87-26.73-36.7-31.35-41.82S964.84,868,962.69,865.29s-10.28-7-8.94-.63c0,0,5.84,16.28,6.45,19.06s4.31,21,4.94,22.4,15.57,27.62,15.57,27.62,5.64,20.94,6.71,23.62,10.32,24.1,12.57,28.17,4.75,18.32,5.9,21.13c0,0-31.43,97.37-38.66,114.46s-38.56,135.69-45,167.26c-4.32,21.1,14,91.65,34.24,100.4,19.73,8.53,43.15,11.39,62.36-100.4C1023.68,1260.1,1045.15,991.12,1044.17,986.17Z"/><path class="cls-9" d="M1262.4,938.07s-4,.91-5,93.7c-.54,49.91-8.39,130.4-16.22,197.16,30.14-1.79,72.69-.08,101.94,4.09C1365.52,1093.67,1353.08,941.09,1262.4,938.07Z"/><path class="cls-4" d="M1010.63,770c5.49,12.51,16.8,19.64,25.26,15.93s10.85-16.87,5.36-29.38-16.81-19.64-25.27-15.93S1005.13,757.49,1010.63,770Z"/><path class="cls-4" d="M1232.25,775.23c-5.5,12.51-16.81,19.64-25.27,15.93s-10.85-16.87-5.36-29.38,16.81-19.64,25.27-15.92S1237.74,762.72,1232.25,775.23Z"/><path class="cls-11" d="M1158.87,821.2l-65.81-9.29s-2,25.21,26.81,30.13C1155,848,1158.87,821.2,1158.87,821.2Z"/><path class="cls-5" d="M1032,744.24s138.52-69.41,166.69-112S1150.11,596,1150.11,596l-57.08-.33-59,28.14-31.11,88.72Z"/><ellipse class="cls-12" cx="1703.97" cy="502.22" rx="331.15" ry="268.95"/><path class="cls-13" d="M1402.63,613.89c52.22,92.8,167.5,157.28,301.33,157.28s249.12-64.48,301.34-157.28Z"/><path class="cls-12" d="M1352.8,610.8a24.32,24.32,0,1,1-24.32-24.31A24.32,24.32,0,0,1,1352.8,610.8Z"/><ellipse class="cls-12" cx="586.68" cy="402.76" rx="331.48" ry="269.21"/><path class="cls-13" d="M320,562.6C380.32,628.94,477.31,672,586.68,672c110.78,0,208.86-44.14,269.05-112C764.67,548.82,532.48,542.77,320,562.6Z"/><path class="cls-12" d="M974.57,564.67a24.32,24.32,0,1,1-24.32-24.32A24.31,24.31,0,0,1,974.57,564.67Z"/><rect class="cls-14" x="134.31" y="1755.22" width="1983.28" height="11.8"/><path class="cls-11" d="M1669.81,1535.94l23.18-3.18s-1.75-8.73-12-7.63C1668.53,1526.48,1669.81,1535.94,1669.81,1535.94Z"/><path class="cls-15" d="M1449.31,555.33s117.1,19.43,118.51,18.59,16.57-66.28,16.57-66.28-96.84-17.41-98.41-17.41-22.63,16.85-22.91,18S1449.31,555.33,1449.31,555.33Z"/><path class="cls-15" d="M1806.52,572c2.8.28,144.62-2.76,144.62-2.76l-10.67-32.62s-19.66-29.73-30-29.19-72.18-9.48-82.85-2.08-20.21,1.5-25.27,19.19-9,19.67-5.06,30.34A64,64,0,0,0,1806.52,572Z"/><ellipse class="cls-16" cx="1508.44" cy="566.97" rx="48.28" ry="48.27" transform="translate(937.96 2074.09) rotate(-89.87)"/><ellipse class="cls-17" cx="1508.44" cy="566.97" rx="33.58" ry="33.6" transform="matrix(1, 0, 0, 1, -0.63, 1.67)"/><ellipse class="cls-18" cx="1508.44" cy="566.97" rx="22.46" ry="22.47"/><ellipse class="cls-16" cx="1880.07" cy="566.97" rx="48.28" ry="48.27" transform="matrix(0, -1, 1, 0, 1308.72, 2445.72)"/><ellipse class="cls-17" cx="1880.07" cy="566.97" rx="33.58" ry="33.6" transform="translate(-0.63 2.1) rotate(-0.06)"/><path class="cls-18" d="M1857.61,567a22.46,22.46,0,1,0,22.46-22.46A22.47,22.47,0,0,0,1857.61,567Z"/><path class="cls-19" d="M1990.89,521c-4.08-26.91-17.27-32.56-56.29-40.37C1891.54,472,1836.87,444,1836.87,444S1743.64,398.28,1720.8,393s-79-3.75-126.19-3.37-74.88,13.48-98.85,32.2-65.52,32.95-65.52,32.95l-7.55,1.35a16.28,16.28,0,0,0-13.42,16V539a16.65,16.65,0,0,0,12.4,16.1l27.29,7.21h0a3.9,3.9,0,0,0,4.53-3.44c3-27.32,26.61-48.08,54.77-48a54.56,54.56,0,0,1,53.56,64.54,5.43,5.43,0,0,0,5.34,6.41h251.12a8.08,8.08,0,0,0,8-9.12,55.76,55.76,0,0,1-.49-7.12,54.55,54.55,0,1,1,109.1-.16,56,56,0,0,1-.32,6,9.36,9.36,0,0,0,9.28,10.43H1980a11.88,11.88,0,0,0,11.88-11.89v-35A92,92,0,0,0,1990.89,521Z"/><path class="cls-20" d="M1410.86,480.09h29.74a3.57,3.57,0,0,1,3.29,5l-3.34,8a20.44,20.44,0,0,1-18.86,12.54h-10.83a3.82,3.82,0,0,1-3.83-3.83V483.93A3.83,3.83,0,0,1,1410.86,480.09Z"/><path class="cls-21" d="M1943.58,492.45c16.38,2.51,35.25,18,35.25,18a7.32,7.32,0,0,1-5.83,12.29l-31.93-2a15.74,15.74,0,0,1-14.14-11.34h0C1923.82,498.68,1926.47,489.83,1943.58,492.45Z"/><path class="cls-22" d="M1409.44,541.45a2.87,2.87,0,0,0-2.74,3.91,18.66,18.66,0,0,0,12.58,11.17l30.57,8.07a4.37,4.37,0,0,0,5.08-3.85,58.86,58.86,0,0,1,3.61-14.82,2.45,2.45,0,0,0-2.24-3.33Z"/><path class="cls-22" d="M1935.18,554a3.77,3.77,0,0,0-3.82,4.28,61.41,61.41,0,0,1,.14,14.46,10.4,10.4,0,0,0,10.31,11.57h40.07a13.2,13.2,0,0,0,13.19-13.19V560.79a5.42,5.42,0,0,0-5.29-5.42Z"/><path class="cls-23" d="M1836.94,459.42c-.53-.29-53.62-29.41-88.82-45.72-34.85-16.14-73.76-14.43-75.43-14.34-4.47-.11-97.55-2.13-126.17,6.79-28.83,9-66.37,49.92-68,51.66l-.43.48,10.09,47.37,1.08-.06c29.37-1.66,51.84,6.16,65,22.6a53,53,0,0,1,11.18,25.68l.1,1.13,105.86,2.72h0l1.22,0,1.31,0h0l147.5,2.88,0-1.27c.74-47.93,15.9-98,16-98.49l.3-1Zm-269.08,93.12a55.79,55.79,0,0,0-11.5-25.82c-9.45-11.86-28.57-25.54-66.12-23.7l-9.37-44c4.35-4.67,39.86-42.19,66.4-50.46s112.8-6.93,124.17-6.71V555.2ZM1819,558.08l-145-2.82V401.84c6.82-.2,41.65-.4,73.09,14.16,32.61,15.1,80.64,41.25,87.77,45.15C1832.71,468.37,1819.9,513.91,1819,558.08Z"/><path class="cls-23" d="M1406.7,545.36a18.66,18.66,0,0,0,12.58,11.17l30.57,8.07a4.37,4.37,0,0,0,5.08-3.85q.33-3,1-5.89Z"/><path class="cls-23" d="M1931.79,569c-.06,1.28-.15,2.54-.29,3.8a10.4,10.4,0,0,0,10.31,11.57h40.07a13.2,13.2,0,0,0,13.19-13.19V569Z"/><path class="cls-22" d="M1828.19,569a55.12,55.12,0,0,1,.57-8.06,5.31,5.31,0,0,0-5.09-6.11l-261.2-6.37a4.21,4.21,0,0,0-4.13,5.39,54.82,54.82,0,0,1,2.08,15,55.82,55.82,0,0,1-.92,10.08,5.53,5.53,0,0,0,5.42,6.58h255.6a8.27,8.27,0,0,0,8.15-9.41A55.64,55.64,0,0,1,1828.19,569Z"/><path class="cls-23" d="M1828.19,569v-.13H1560.42a55.82,55.82,0,0,1-.92,10.08,5.53,5.53,0,0,0,5.42,6.58h255.6a8.27,8.27,0,0,0,8.15-9.41A55.64,55.64,0,0,1,1828.19,569Z"/><rect class="cls-22" x="1503.23" y="472.71" width="35.38" height="5.71" rx="1.4"/><rect class="cls-22" x="1682.89" y="475.57" width="35.38" height="5.71" rx="1.4"/><path class="cls-15" d="M1509.46,463.9l144.35,1.36s8.83-.23,10-8.55,1.1-43.92,1.1-43.92-1-7.15-7.9-7.24c-4.16-.06-39-2.55-73,1.58a124.18,124.18,0,0,0-72.68,35.42l-10.24,10.25S1494.26,463.76,1509.46,463.9Z"/><path class="cls-15" d="M1681,417.31v37.33a8.93,8.93,0,0,0,8.43,9l113.43,4.56a7.67,7.67,0,0,0,6.65-3.28c2-3,2.27-7.93-7.9-14.55C1784,438.89,1739,414,1722.34,411.59c-10.59-1.54-24.44-2.2-33.11-2.48A8.08,8.08,0,0,0,1681,417.31Z"/><rect class="cls-9" x="373.48" y="396.49" width="425.38" height="142.97"/><polygon class="cls-19" points="539.81 539.47 372.21 539.47 372.21 396.67 456.64 242.34 539.81 396.49 539.81 539.47"/><rect class="cls-19" x="680.78" y="531.63" width="33.36" height="11.95"/><rect class="cls-11" x="559.71" y="422.08" width="40.25" height="80.14"/><rect class="cls-24" x="544.33" y="445.17" width="72.96" height="33.96" transform="translate(1042.96 -118.66) rotate(90)"/><rect class="cls-11" x="597.73" y="422.08" width="40.25" height="80.14"/><rect class="cls-24" x="580.4" y="445.17" width="72.96" height="33.96" transform="translate(1079.03 -154.73) rotate(90)"/><rect class="cls-11" x="416.88" y="422.08" width="40.25" height="80.14"/><rect class="cls-24" x="401.49" y="445.17" width="72.96" height="33.96" transform="translate(900.12 24.18) rotate(90)"/><rect class="cls-11" x="454.9" y="422.08" width="40.25" height="80.14"/><rect class="cls-24" x="437.57" y="445.17" width="72.96" height="33.96" transform="translate(936.2 -11.9) rotate(90)"/><path class="cls-11" d="M456.76,379.44h-27V352.65a27,27,0,0,1,27-27h0Z"/><path class="cls-24" d="M432.49,377V350.84A22.81,22.81,0,0,1,455.3,328h0v49Z"/><path class="cls-11" d="M482.29,379.44h-27V325.62h0a27,27,0,0,1,27,27Z"/><path class="cls-24" d="M456.72,377V328h0a22.81,22.81,0,0,1,22.81,22.81V377Z"/><rect class="cls-11" x="702.32" y="422.08" width="40.25" height="80.14"/><rect class="cls-24" x="686.93" y="445.17" width="72.96" height="33.96" transform="translate(1185.56 -261.27) rotate(90)"/><rect class="cls-11" x="740.34" y="422.08" width="40.25" height="80.14"/><rect class="cls-24" x="723.01" y="445.17" width="72.96" height="33.96" transform="translate(1221.64 -297.34) rotate(90)"/><rect class="cls-19" x="546.47" y="506.25" width="33.36" height="11.95"/><rect class="cls-19" x="566.6" y="523.66" width="33.36" height="11.95"/><rect class="cls-25" x="372.21" y="483.07" width="16.68" height="11.95"/><rect class="cls-25" x="372.18" y="502.22" width="27.79" height="11.95"/><rect class="cls-25" x="372.18" y="463.91" width="27.79" height="11.95"/><rect class="cls-25" x="391.98" y="388.53" width="33.36" height="11.95"/><rect class="cls-25" x="403.43" y="405.3" width="33.36" height="11.95"/><rect class="cls-25" x="523.13" y="424.46" width="16.68" height="11.95"/><rect class="cls-25" x="506.45" y="446.28" width="33.36" height="11.95"/><rect class="cls-25" x="523.13" y="468.1" width="16.68" height="11.95"/><rect class="cls-25" x="477.36" y="510.19" width="33.36" height="11.95"/><rect class="cls-25" x="500.58" y="357.35" width="33.36" height="11.95"/><rect class="cls-25" x="506.45" y="338.44" width="33.36" height="11.95"/><rect class="cls-25" x="460.68" y="283.39" width="33.36" height="11.95"/><rect class="cls-25" x="503.98" y="533.31" width="33.36" height="11.95"/><rect class="cls-19" x="655.81" y="435.79" width="33.36" height="11.95"/><rect class="cls-19" x="685.64" y="390.69" width="33.36" height="11.95"/><rect class="cls-19" x="628.44" y="402.65" width="33.36" height="11.95"/><rect class="cls-19" x="565.6" y="390.52" width="33.36" height="11.95"/><rect class="cls-19" x="643.54" y="454.7" width="33.36" height="11.95"/><rect class="cls-19" x="656.8" y="473.6" width="33.36" height="11.95"/><rect class="cls-19" x="637.23" y="510.64" width="33.36" height="11.95"/><rect class="cls-19" x="708.62" y="511.75" width="33.36" height="11.95"/><rect class="cls-19" x="777.67" y="404.48" width="21.19" height="11.95"/><rect class="cls-19" x="790.14" y="429.82" width="8.72" height="11.95"/><rect class="cls-19" x="782.18" y="506.59" width="16.68" height="11.95"/><rect class="cls-26" x="365.27" y="539.29" width="440.33" height="10.27"/><rect class="cls-7" x="372.02" y="549.56" width="426.84" height="25.09"/><path class="cls-3" d="M456.64,230.87l-95,165.8h10.6l84.43-147.31,82,147.31h13S458.19,233.6,456.64,230.87Z"/><polygon class="cls-26" points="816.02 396.67 551.67 396.67 456.64 230.87 721 230.87 816.02 396.67"/><rect class="cls-13" x="821.68" y="1450.58" width="121.7" height="69.13" rx="4.46" transform="translate(-837.35 1647.96) rotate(-64.69)"/><rect class="cls-27" x="806.35" y="1470.95" width="121.7" height="13.88" transform="translate(-839.57 1629.94) rotate(-64.69)"/><rect class="cls-28" x="859.28" y="1522.74" width="17.8" height="4.45" rx="1.3" transform="translate(-881.57 1657.79) rotate(-64.69)"/><rect class="cls-28" x="858.07" y="1509.63" width="57.41" height="4.45" rx="1.18" transform="translate(-859.07 1667.08) rotate(-64.69)"/><rect class="cls-28" x="871.66" y="1524.62" width="30.37" height="4.45" rx="1.18" transform="translate(-872.58 1675.73) rotate(-64.69)"/><rect class="cls-28" x="868.84" y="1502.54" width="17.8" height="4.45" rx="1.3" transform="translate(-857.84 1654.86) rotate(-64.69)"/><rect class="cls-28" x="878.39" y="1482.34" width="17.8" height="4.45" rx="1.3" transform="translate(-834.11 1651.93) rotate(-64.69)"/><rect class="cls-28" x="887.95" y="1462.14" width="17.8" height="4.45" rx="1.3" transform="translate(-810.38 1649) rotate(-64.69)"/><path class="cls-28" d="M917.22,1457.41a9.27,9.27,0,1,1-12.33,4.42A9.27,9.27,0,0,1,917.22,1457.41Z"/><path class="cls-28" d="M923.31,1444.55A9.27,9.27,0,1,1,911,1449,9.26,9.26,0,0,1,923.31,1444.55Z"/><path class="cls-3" d="M941.87,1419.61c-1.32-4.64-8.57-9.33-30.07-12.49l-3.42,8.8,12.33,7.83s-7.51,10.79-11.66,16.31-12.28,16.27-10.47,24.69,8.28,9.69,8.35,9.68,6.5-14.91,8.47-17.18,16.4-18.67,20.59-20.8S944.37,1428.4,941.87,1419.61Z"/></g></g></g></svg>