<svg xmlns="http://www.w3.org/2000/svg" viewBox="0 0 2469.99 1691.48"><defs><style>.cls-1{isolation:isolate;}.cls-2{fill:#eafcfc;}.cls-3{fill:#f8a492;}.cls-4{fill:#e08f7d;}.cls-5{fill:#f7a491;}.cls-6{fill:#ffb9a8;}.cls-7{fill:#c9563c;}.cls-8{fill:#e59f39;}.cls-10,.cls-9{fill:#f7cc7f;}.cls-10{opacity:0.3;mix-blend-mode:multiply;}.cls-11{fill:#eab054;}.cls-12{fill:#50bfa5;}.cls-13{fill:#96d9c9;}.cls-14{fill:#3c8f7c;}.cls-15{fill:#355389;}.cls-16{fill:#466eb6;}.cls-17{fill:#f47458;}.cls-18{fill:#fff;}.cls-19{fill:#82b0f5;}.cls-20{fill:#8fd6c5;}.cls-21{fill:#9bc1f9;}</style></defs><title>saving</title><g class="cls-1"><g id="Vrstva_2" data-name="Vrstva 2"><g id="Layer_1" data-name="Layer 1"><path class="cls-2" d="M337.82,1684c-446-62.28-387.13-405.4-184.56-545.84S11.7,625.45,319.82,367.43C510.57,207.7,778.26,93.71,977.08,164.64c221.39,79,291.63-432.38,1072.76,34.35s146,821.88,330,1015.6c230.65,242.82-54,469.4-54,469.4Z"/><path class="cls-3" d="M1126.82,613.27c21.34,3.46,20.08,7,22.83,7.32,3.25.43,41.78-18.92,41.78-18.92s114-56.24,120-59.5l82.25-103.48,63.39,29.23s-92.51,110-98.36,114.87-169.24,62.14-183.45,67.66c0,0-14.32,13.1-23.59,21S1130,682.5,1127,684.3a103.09,103.09,0,0,1-25.11,8.81c-12.45,2.71-2.07-5.75-2.07-5.75s22-9.3,20.94-11c-.83-1.29-12.54,4.52-26.28,7.67-3.54.8-7,1.59-10.24,2.28-8.43,1.83-12.14-3-3.66-6.36a82,82,0,0,1,11.79-3.82c4.09-.85,7.52-3,10.83-4.26,6.56-2.49,11.38-4.23,11.13-4.46s.58-1.74-3.2-1c-4.54.89-13.71,5-20.51,5.75-3.86.43-11.85,1.85-11.85,1.85s-14.13,1.35-14.23-.63c-.21-4.33,8.49-6.75,13.84-6.64,3.37-1.72,11.82-3,11.82-3s16.4-6.47,15.44-8.9c-.37-1-10.3.52-20.83,1.24-11.14.76-19.21.76-19.8-1.39-.94-3.43,7.92-4.72,7.92-4.72s7.81-1.14,10.37-1.72c3-.69,11.81-3.45,11.81-3.45s30.15-11.07,29.06-13.3-6.06-6.88-8.19-6.87-5.93,2.13-8.06,2.14-6.7-.39-7-3.07,11.49-8.22,11.49-8.22S1120.66,612.27,1126.82,613.27Z"/><path class="cls-4" d="M525.9,972.63C486,867.32,333.39,891.71,333.39,891.71c-22.65,160.1,131.36,208.74,131.36,208.74C512.31,1051.81,525.9,972.63,525.9,972.63Z"/><ellipse class="cls-4" cx="618.25" cy="1530.33" rx="156.48" ry="77.28" transform="translate(-1032.23 1535.76) rotate(-68.19)"/><ellipse class="cls-5" cx="840.21" cy="1530.33" rx="156.48" ry="77.28" transform="translate(-892.74 1741.83) rotate(-68.19)"/><ellipse class="cls-5" cx="1429.1" cy="1530.33" rx="77.28" ry="156.48" transform="translate(-466.27 640.5) rotate(-21.81)"/><ellipse class="cls-4" cx="1207.15" cy="1530.33" rx="77.28" ry="156.48" transform="translate(-482.16 558.03) rotate(-21.81)"/><path class="cls-5" d="M1568.61,1187c-2,238-252.49,431-563.95,431s-563.94-193-563.94-431C440.72,920.45,693.2,763,1004.66,763S1570.81,929.32,1568.61,1187Z"/><ellipse class="cls-4" cx="678.52" cy="1241.99" rx="129.1" ry="99.71"/><ellipse class="cls-6" cx="669.47" cy="1232.93" rx="129.1" ry="99.71"/><circle class="cls-4" cx="627.57" cy="1232.93" r="20.38"/><circle class="cls-4" cx="711.37" cy="1232.93" r="20.38"/><path class="cls-5" d="M1664.26,1045.44a118.62,118.62,0,0,1-35.85-8.48,98.84,98.84,0,0,1-13.49-7A143.8,143.8,0,0,0,1626,992.7c2.06-13.79,1.7-28.7-4.38-41.51a42.09,42.09,0,0,0-12-15.26,42.71,42.71,0,0,0-16.21-7.51,45.32,45.32,0,0,0-13.39-1,32.58,32.58,0,0,0-18.26,7c-10.4,8.47-12.83,22.49-10.85,35.13s8,24.76,15.67,35c1.72,2.3,3.57,4.51,5.49,6.66a124.82,124.82,0,0,1-11.24,13.44c-9.24,9.57-20.24,17.93-32.76,22.68a50,50,0,0,1-17.79,3.47,33.42,33.42,0,0,1-8.34-.89c-1.73-.45-3.46-.9-5.2-1.3-.12.79-.23,1.59-.34,2.38q-2.62,18.46-5.26,36.93-2,14-4,28a145.33,145.33,0,0,0,19.24.15,105.41,105.41,0,0,0,21.48-4c26.37-7.68,48.91-25.3,65.67-46.74a172.81,172.81,0,0,0,17.34-27,109.93,109.93,0,0,0,21.65,6.18,129.63,129.63,0,0,0,33.1,1.06Zm-88-65.3c-1.62-6.31-2.74-13.87-.39-20.13.39-1,1-2.6,2.17-3,.73-.3,2.25.34,3,.49,1.5.31,2.87,1.07,4.36,1.41a4.21,4.21,0,0,1-.51-.12c5.53,1.86,4.67,10.67,4,15.07a69.45,69.45,0,0,1-5.91,18.69c-.36.79-.75,1.56-1.14,2.34A71.9,71.9,0,0,1,1576.3,980.14Z"/><path class="cls-7" d="M1179.14,848c-117-23.09-233.26-22.4-349,.09a17.5,17.5,0,0,1-20.86-17.18v-.08a17.5,17.5,0,0,1,13.89-17.14,877.44,877.44,0,0,1,363,0,17.51,17.51,0,0,1,13.9,17.14h0A17.51,17.51,0,0,1,1179.14,848Z"/><path class="cls-7" d="M562.75,1094.46c16.57,0,31.41,5.65,41.5,14.58a42.47,42.47,0,0,0-83,0C531.35,1100.11,546.19,1094.46,562.75,1094.46Z"/><path class="cls-7" d="M776.18,1094.46c16.56,0,31.41,5.65,41.5,14.58a42.47,42.47,0,0,0-83,0C744.77,1100.11,759.61,1094.46,776.18,1094.46Z"/><ellipse class="cls-8" cx="1022.28" cy="670.43" rx="223.59" ry="225.41" transform="translate(-200.11 688.04) rotate(-34.08)"/><ellipse class="cls-9" cx="1022.28" cy="670.43" rx="193.26" ry="194.84" transform="matrix(0.83, -0.56, 0.56, 0.83, -200.1, 688.26)"/><path class="cls-8" d="M1088.4,803.33l-20.4-30a175.76,175.76,0,0,1-42.36,19,22.05,22.05,0,0,1-26.88-13.7l-.48-1.32a22,22,0,0,1,14.79-28.74,128.31,128.31,0,0,0,38.24-17.38c18-12.24,25.56-27.56,17-40.18-8.16-12-23.41-12.69-52.13-4.69-41.48,11.61-75.25,11.51-96.07-19.1C901.2,639.45,906,604.37,935.2,574.77l-20.4-30,30.93-21,18.89,27.77a163.31,163.31,0,0,1,31.61-15.44,22,22,0,0,1,28,13.38h0a22.05,22.05,0,0,1-14,28.48,117.18,117.18,0,0,0-30.4,14.93c-20.5,14-21.12,27.29-15.11,36.13,7.09,10.41,22.64,9.52,56.33,1.37,46.56-12.3,73.51-5.25,92.83,23.15,19.1,28.08,15.54,65.58-16.45,96.58l21.9,32.18Z"/><path class="cls-10" d="M918.34,505.63A192.18,192.18,0,0,0,830,644.7a191.64,191.64,0,0,1,83.56-114.38c90.31-56.89,210.05-29.22,267.45,61.79a194.91,194.91,0,0,1,28.72,128.75,194.91,194.91,0,0,0-24-153.44C1128.4,476.41,1008.66,448.74,918.34,505.63Z"/><path class="cls-8" d="M1370.49,1596.32v67.82c0,11,122.31,19.85,273.19,19.85s273.19-8.89,273.19-19.85v-67.82Z"/><path class="cls-11" d="M1568.19,1683.22v-86.9h-197.7v67.82C1370.49,1673.2,1454,1680.84,1568.19,1683.22Z"/><path class="cls-11" d="M1577.39,1683.4c21.23.39,43.43.59,66.29.59,34.06,0,66.67-.45,96.74-1.28v-86.39h-163Z"/><path class="cls-11" d="M1751.37,1682.39c97.33-3,165.5-10.07,165.5-18.25v-67.82h-165.5Z"/><ellipse class="cls-8" cx="1643.68" cy="1595.6" rx="273.19" ry="19.85"/><ellipse class="cls-9" cx="1643.68" cy="1595.6" rx="224.97" ry="13.76"/><path class="cls-8" d="M1323.75,1524.55v67.82c0,11,122.31,19.85,273.19,19.85s273.19-8.88,273.19-19.85v-67.82Z"/><path class="cls-11" d="M1521.45,1611.46v-86.91h-197.7v67.82C1323.75,1601.43,1407.29,1609.08,1521.45,1611.46Z"/><path class="cls-11" d="M1530.65,1611.64c21.23.38,43.43.58,66.29.58,34.06,0,66.67-.45,96.74-1.28v-86.39h-163Z"/><path class="cls-11" d="M1704.63,1610.62c97.33-3,165.5-10.06,165.5-18.25v-67.82h-165.5Z"/><ellipse class="cls-8" cx="1596.94" cy="1523.83" rx="273.19" ry="19.85"/><path class="cls-9" d="M1821.91,1523.83c0,7.6-100.72,13.77-225,13.77s-225-10.72-225-18.33,100.72-9.2,225-9.2S1821.91,1516.23,1821.91,1523.83Z"/><path class="cls-8" d="M1354.89,1450.88v67.82c0,11,122.31,19.85,273.19,19.85s273.19-8.89,273.19-19.85v-67.82Z"/><path class="cls-11" d="M1552.59,1537.78v-86.9h-197.7v67.82C1354.89,1527.76,1438.43,1535.4,1552.59,1537.78Z"/><path class="cls-11" d="M1561.79,1538c21.23.39,43.43.59,66.29.59,34.06,0,66.67-.45,96.74-1.28v-86.39h-163Z"/><path class="cls-11" d="M1735.77,1537c97.33-3,165.5-10.07,165.5-18.25v-67.82h-165.5Z"/><ellipse class="cls-8" cx="1628.08" cy="1450.16" rx="273.19" ry="19.85"/><ellipse class="cls-9" cx="1628.08" cy="1450.16" rx="224.97" ry="13.76"/><path class="cls-8" d="M1323.75,1378.21V1446c0,11,122.31,19.86,273.19,19.86s273.19-8.89,273.19-19.86v-67.82Z"/><path class="cls-11" d="M1521.45,1465.12v-86.91h-197.7V1446C1323.75,1455.09,1407.29,1462.74,1521.45,1465.12Z"/><path class="cls-11" d="M1530.65,1465.3c21.23.38,43.43.59,66.29.59,34.06,0,66.67-.46,96.74-1.29v-86.39h-163Z"/><path class="cls-11" d="M1704.63,1464.28c97.33-3,165.5-10.06,165.5-18.25v-67.82h-165.5Z"/><ellipse class="cls-8" cx="1596.94" cy="1377.49" rx="273.19" ry="19.85"/><ellipse class="cls-9" cx="1596.94" cy="1377.49" rx="224.97" ry="13.76"/><rect class="cls-12" x="1702.21" y="1509.8" width="478.6" height="174.19"/><rect class="cls-13" x="1702.21" y="1535.19" width="478.6" height="22.41"/><rect class="cls-13" x="1702.21" y="1578.96" width="478.6" height="22.41"/><rect class="cls-13" x="1702.21" y="1622.73" width="478.6" height="22.41"/><rect class="cls-13" x="1702.21" y="1661.58" width="478.6" height="22.41"/><rect class="cls-9" x="1903.11" y="1509.8" width="99.54" height="174.19"/><rect class="cls-14" x="1635.74" y="1509.8" width="72.28" height="174.19"/><path class="cls-5" d="M1179.14,883.7c-58.32-11.51-121.56,26.86-179.56,26.93-58.33.07-111.41-38.11-169.44-26.84a17.5,17.5,0,0,1-20.86-17.18v-.08a17.51,17.51,0,0,1,13.89-17.14,877.44,877.44,0,0,1,363,0,17.52,17.52,0,0,1,13.9,17.14h0A17.51,17.51,0,0,1,1179.14,883.7Z"/><path class="cls-4" d="M835.17,984.62c40-105.31,192.51-80.92,192.51-80.92,22.65,160.1-131.36,208.74-131.36,208.74C848.76,1063.8,835.17,984.62,835.17,984.62Z"/><path class="cls-15" d="M1333.22,502.78s20.52,18.64,29.06,24.78c7.09,5.1,41.67,21.75,41.67,21.75s34.4-52.67,49.44-79.09c18.25-32,30.88-79.7,26.57-81-12.11-3.63-28.76-5.85-44.14,1.21C1382.59,414.87,1333.22,502.78,1333.22,502.78Z"/><path class="cls-5" d="M1670,1310.15s2.28,40.33,2.29,40.41c.84,5.12,4.13,17.77,4.13,22.43,0,17.48-77.58-14.85-60.19-22.6,1.57-.7,9.82-6,10.34-12,.79-9.17,2.82-27.72,2.82-27.72Z"/><path class="cls-15" d="M1615.52,1350.57s18.21,5.35,27.54,6.68,21.63-9.92,28.22-6.88c7.27,3.35,7,33.48,7,33.48s-97.67,8.58-125.14-.29C1542.24,1380,1578.28,1363,1615.52,1350.57Z"/><path class="cls-5" d="M1799.22,1308.06s2.28,40.33,2.29,40.41c.84,5.12,4.13,17.77,4.13,22.43,0,17.48-77.58-14.85-60.19-22.6,1.57-.7,12.26-10,12.78-15.91.8-9.17.38-23.76.38-23.76Z"/><path class="cls-15" d="M1745.64,1348.14s18.22,5.35,27.54,6.68,21.63-9.92,28.23-6.88c7.26,3.35,7.55,33.48,7.55,33.48s-97,4-125.71-.29C1671.94,1379.44,1708.41,1360.6,1745.64,1348.14Z"/><path class="cls-15" d="M1776.21,667.52s13.15,68,7.79,119.61-5.78,234.82-5.78,234.82L1802.94,1315l-52.79,1.23s-57.52-293-56.45-285.52-19.29-206.33-19.29-206.33L1743,661.07Z"/><path class="cls-16" d="M1757.82,623.59s59.56,62.73,37.4,131.26c-8.89,27.52-91.9,290.47-93,312s-28.07,259-28.07,259l-56.41-1.69-12.2-264.12,16.12-355.87,34.24-60Z"/><path class="cls-17" d="M1396.21,419.4c19.5-21.76,62-52.73,62-52.73s25.29-21.6,35.6-25.15c15.17-5.24,41.16-19.19,78.75,37.78,26.91,40.77,196.65,251.87,224.52,259l-182,87.05c-5-41.58-94.92-120.13-107.86-134.78C1478.28,557.79,1377.74,440,1396.21,419.4Z"/><path class="cls-5" d="M1404.69,331l56.68,33.18s1.6,48.39-16.93,60.95c-15.55,10.55-27.38-14.76-27.38-14.76S1396,381.11,1380,372,1404.69,331,1404.69,331Z"/><path class="cls-17" d="M1414.2,352.24c-2.13,10.1-7.07,24.69-14.71,36.71-6.25-6.75-13.26-13.38-19.52-16.94-7.39-4.2-2.69-13.26,4.51-21.81,10.17-10.59,20.21-19.25,20.21-19.25l10.89,6.37C1416.29,341.46,1414.91,348.88,1414.2,352.24Z"/><path class="cls-5" d="M1375.17,247.78c.95-1.18,47.54,56.83,41.8,84s-33.91,52-53.49,45.21c-21.66-7.55-61.92-75.84-47.48-109S1375.17,247.78,1375.17,247.78Z"/><path class="cls-9" d="M1324.15,229.49c20.31-11.3,53.44-14.54,78.2-1.58,30.44,15.93,37.37,56,27.84,80.49s1.39,38.29,1.39,38.29l-16.15-9.43s-9.43-14.72-10.66-26.46-18.35-9.65-26.71-15c-6.43-4.1-14.64-17.42-25-24.33,0,0-26.21-3.21-39.1,4C1291.93,287.85,1295.05,245.67,1324.15,229.49Z"/><path class="cls-5" d="M1391.16,305.6c-.15,8.7,4,15.83,9.18,15.91s9.58-6.9,9.73-15.6-4-15.82-9.18-15.91S1391.31,296.9,1391.16,305.6Z"/><path class="cls-18" d="M1343.43,351.79l24.67-18.45s6.52,10-4.09,18.4C1351.08,362,1343.43,351.79,1343.43,351.79Z"/><path class="cls-3" d="M1281.48,718.72c6.18-9,8.87-22.06,17.41-32,2.87-3.34,7.44-7.1,12.64-10.85,41.1-24,148.17-86,152.33-90.84,4.94-5.7,78-127.11,78-127.11l-65.64-14.88-64.13,113.26c-5.36,4.25-107.17,79.5-107.17,79.5s-20.24,15.81-31.31,23.22a87.77,87.77,0,0,1-15.76,7c-6,2.08-17.35,7.75-19.65,9.77-2.68,2.36-8,7.39-11.21,10.46s-7,6.54-8.53,8.37c-.9,1.11-3.72,2.64-5.78,3.67a3.79,3.79,0,0,0,.63,7c3.11.88,7.32-1.07,9.94-2.3,7.36-3.46,16.37-12.82,16.85-11.67s-8.67,21.18-9.57,23.54-11.4,25.7-11.93,30.91,2.59,6.4,4.93,4.5c2-1.64,18.89-32.81,18.89-32.81s2.16-4,3-1.7-14.43,30.6-15.92,35.26-.31,8.46,4,6.83c5.23-2,19.67-33.23,19.67-33.23s1.88-3.89,3.17-2.54-12.12,25.25-12.27,28,2.34,5.47,6,3.17c4.26-2.71,16.92-30.72,16.92-30.72s1.56-1.85,2-.55-9.48,22.48-8.74,25.58a2.5,2.5,0,0,0,3,2.08C1268.44,749.68,1275.3,727.74,1281.48,718.72Z"/><path class="cls-15" d="M1523.9,522.06s-21.37-6.8-35.08-13.08c-9.18-4.2-49.23-24.13-49.23-24.13s17.26-72.84,28.94-99c42.83-96.11,91.52-29.83,98.12-14.38C1581.42,406,1523.9,522.06,1523.9,522.06Z"/><rect class="cls-19" x="96.09" y="1676.5" width="2373.76" height="14.98"/><polygon class="cls-20" points="1016.56 147.82 1030.83 181.69 1057.13 174.41 1072.38 207.34 1098.87 204.17 1113.5 227.42 1122.52 221.07 1102.96 189.97 1077.85 192.98 1061.99 158.72 1036.12 165.88 1023.19 135.19 1016.56 147.82"/><polygon class="cls-21" points="1772.22 132.58 1751.19 125.12 1735.29 141.32 1712.31 131.28 1700.71 153.77 1674.22 143.57 1660.98 162.95 1633.9 157.29 1636.01 147.06 1656.26 151.29 1670.23 130.83 1695.69 140.64 1707.49 117.77 1732.85 128.85 1748.38 113.03 1767.87 119.95 1775.89 107.42 1784.71 113.08 1772.22 132.58"/><path class="cls-9" d="M2243.56,612.07c-5.67,23.24,11.39,47.78,33.28,55,22.67,7.52,45.66-4.57,56.85-24.83,22.06-39.95-19.27-80.18-48.17-58.31-27,20.42-24.83,57,.46,60.78,9.55,1.42,26.09-4.31,21.71-16.78-1-2.79-4.85-3.17-6.62-1-3.84,4.77-3.62,5-5.25,6a13.16,13.16,0,0,1-8.64,1.16c-25.69-4.26.17-60.65,28.42-41.87,15.51,10.31,17.61,30,9.37,45.69-7.93,15.1-24.7,25.23-41.82,21.56-20.45-4.39-35-25.94-33.28-46.48a3.19,3.19,0,0,0-6.31-.94Z"/><path class="cls-21" d="M564,271.58c-5.68,23.24,11.39,47.78,33.27,55.05,22.67,7.52,45.66-4.57,56.85-24.83,22.07-39.95-19.26-80.18-48.16-58.31-27,20.42-24.83,57,.46,60.78,9.54,1.42,26.09-4.31,21.71-16.78-1-2.79-4.85-3.17-6.62-1-3.85,4.77-3.63,5-5.25,5.95a13.17,13.17,0,0,1-8.64,1.16c-25.69-4.26.17-60.65,28.42-41.87,15.5,10.31,17.61,30,9.37,45.69-7.93,15.1-24.71,25.23-41.83,21.56-20.45-4.39-34.95-25.94-33.27-46.48a3.19,3.19,0,0,0-6.31-.94Z"/><polygon class="cls-9" points="331.12 544.84 370.37 566.17 365.47 527.18 331.12 544.84"/><path class="cls-20" d="M2018.33,297.55l9.89-16.07-8-3.22a3.42,3.42,0,0,1-1.87-4.43h0a3.41,3.41,0,0,1,4.43-1.87l9.16,3.72,8.84-14.43-8.48-3.44a3.4,3.4,0,0,1-1.87-4.43h0a3.39,3.39,0,0,1,4.42-1.87l9.7,3.94,10.27-16.53a3.4,3.4,0,0,1,4.16-1.35l1.49.6a3.4,3.4,0,0,1,1.62,4.92l-9.56,15.59,14.07,5.71,10.27-16.53a3.4,3.4,0,0,1,4.16-1.35l1.62.65a3.4,3.4,0,0,1,1.62,4.93l-9.55,15.59,7.94,3.22a3.38,3.38,0,0,1,1.87,4.42h0a3.38,3.38,0,0,1-4.42,1.87l-9.16-3.71L2062.29,288l8.48,3.44a3.4,3.4,0,0,1,1.87,4.43h0a3.39,3.39,0,0,1-4.42,1.87l-9.7-3.94L2048,310.81a3.4,3.4,0,0,1-4.17,1.36l-1.73-.7a3.4,3.4,0,0,1-1.62-4.93l9.89-16.07-14.07-5.7-10.49,17a3.4,3.4,0,0,1-4.17,1.37l-1.73-.71A3.38,3.38,0,0,1,2018.33,297.55Zm35.84-12.88,8.84-14.43-14.06-5.7L2040.1,279Z"/></g></g></g></svg>