<?xml version="1.0" encoding="UTF-8" standalone="no"?>
<!-- Generator: Adobe Illustrator 22.0.1, SVG Export Plug-In . SVG Version: 6.00 Build 0)  -->

<svg
   xmlns:dc="http://purl.org/dc/elements/1.1/"
   xmlns:cc="http://creativecommons.org/ns#"
   xmlns:rdf="http://www.w3.org/1999/02/22-rdf-syntax-ns#"
   xmlns:svg="http://www.w3.org/2000/svg"
   xmlns="http://www.w3.org/2000/svg"
   xmlns:sodipodi="http://sodipodi.sourceforge.net/DTD/sodipodi-0.dtd"
   xmlns:inkscape="http://www.inkscape.org/namespaces/inkscape"
   version="1.1"
   id="Layer_1"
   x="0px"
   y="0px"
   viewBox="0 0 399.99999 500.00001"
   xml:space="preserve"
   inkscape:version="0.91 r13725"
   sodipodi:docname="placeni-je-hra-1.svg"
   width="400"
   height="500"><metadata
     id="metadata181"><rdf:RDF><cc:Work
         rdf:about=""><dc:format>image/svg+xml</dc:format><dc:type
           rdf:resource="http://purl.org/dc/dcmitype/StillImage" /><dc:title></dc:title></cc:Work></rdf:RDF></metadata><defs
     id="defs179" /><sodipodi:namedview
     pagecolor="#ffffff"
     bordercolor="#666666"
     borderopacity="1"
     objecttolerance="10"
     gridtolerance="10"
     guidetolerance="10"
     inkscape:pageopacity="0"
     inkscape:pageshadow="2"
     inkscape:window-width="1457"
     inkscape:window-height="841"
     id="namedview177"
     showgrid="false"
     inkscape:zoom="0.39643878"
     inkscape:cx="-19.218835"
     inkscape:cy="297.64999"
     inkscape:window-x="-8"
     inkscape:window-y="-8"
     inkscape:window-maximized="1"
     inkscape:current-layer="Layer_1" /><style
     type="text/css"
     id="style3">
	.st0{fill:#F3FAFE;}
	.st1{fill:#88C3EB;}
	.st2{fill:#025793;}
	.st3{fill:none;stroke:#166AB3;stroke-width:2.1845;stroke-linecap:round;stroke-miterlimit:10;}
	.st4{fill:none;stroke:#025793;stroke-width:2.1845;stroke-linecap:round;stroke-miterlimit:10;}
	.st5{fill:#8CCEE9;}
</style><g
     id="g5"
     inkscape:export-xdpi="326.77649"
     inkscape:export-ydpi="326.77649"
     transform="matrix(2.6474687,0,0,2.6474687,-881.34955,-504.44962)"><g
       id="g7"><circle
         class="st0"
         cx="383.5"
         cy="251"
         r="9.3999996"
         id="circle9"
         style="fill:#f3fafe" /></g></g><g
     id="g11"
     inkscape:export-xdpi="326.77649"
     inkscape:export-ydpi="326.77649"
     transform="matrix(2.6474687,0,0,2.6474687,-881.34955,-504.44962)"><g
       id="g13"><circle
         class="st0"
         cx="410.5"
         cy="293.89999"
         r="33.599998"
         id="circle15"
         style="fill:#f3fafe" /></g></g><g
     id="g17"
     inkscape:export-xdpi="326.77649"
     inkscape:export-ydpi="326.77649"
     transform="matrix(2.6474687,0,0,2.6474687,-881.34955,-504.44962)"><g
       id="g19"><path
         class="st1"
         d="m 387.1,294.6 c -0.2,0 -0.4,-0.1 -0.6,-0.2 -1.1,-0.7 -2.3,-1.6 -2.8,-3.1 -0.6,-1.6 -0.2,-3.5 1.3,-5.8 l 16.3,-25.2 c 1.7,-2.6 4.8,-3.3 7.2,-1.7 l 32.6,21.1 c 0.5,0.4 0.7,1.1 0.3,1.6 -0.4,0.5 -1.1,0.7 -1.6,0.3 l -32.6,-21.1 c -1.4,-0.9 -3,-0.5 -3.9,1 L 387,286.7 c -1,1.6 -1.4,2.8 -1.1,3.7 0.3,0.8 1.1,1.4 1.9,1.9 0.5,0.4 0.7,1.1 0.3,1.6 -0.2,0.5 -0.6,0.7 -1,0.7 z"
         id="path21"
         inkscape:connector-curvature="0"
         style="fill:#88c3eb" /></g></g><g
     id="g23"
     inkscape:export-xdpi="326.77649"
     inkscape:export-ydpi="326.77649"
     transform="matrix(2.6474687,0,0,2.6474687,-881.34955,-504.44962)"><g
       id="g25"><path
         class="st1"
         d="m 452.8,290 c -0.2,0 -0.4,-0.1 -0.6,-0.2 l -9.2,-6 c -0.5,-0.4 -0.7,-1.1 -0.3,-1.6 0.4,-0.5 1.1,-0.7 1.6,-0.3 l 9.2,6 c 0.5,0.4 0.7,1.1 0.3,1.6 -0.3,0.3 -0.6,0.5 -1,0.5 z"
         id="path27"
         inkscape:connector-curvature="0"
         style="fill:#88c3eb" /></g></g><g
     id="g29"
     inkscape:export-xdpi="326.77649"
     inkscape:export-ydpi="326.77649"
     transform="matrix(2.6474687,0,0,2.6474687,-881.34955,-504.44962)"><g
       id="g31"><path
         class="st2"
         d="m 448.9,333.5 c -0.5,0 -1,-0.1 -1.5,-0.2 l -56.2,-16 c -1.3,-0.4 -2.7,-0.9 -3.6,-2.1 -1,-1.4 -1.2,-3.3 -0.4,-5.9 l 8.3,-28.9 c 0.9,-2.9 3.6,-4.5 6.4,-3.7 l 37.3,10.7 c 0.6,0.2 1,0.8 0.8,1.5 -0.2,0.6 -0.8,1 -1.5,0.8 L 401.2,279 c -1.5,-0.4 -3,0.4 -3.5,2.1 l -8.3,28.9 c -0.5,1.8 -0.5,3.1 0.1,3.9 0.5,0.7 1.4,1 2.4,1.3 l 56.2,16 c 1.6,0.5 3.3,-0.5 3.8,-2.1 l 8.3,-28.7 c 0.7,-2.6 1,-4 -2.1,-4.9 l -9.1,-2.6 c -0.6,-0.2 -1,-0.8 -0.8,-1.5 0.2,-0.6 0.8,-1 1.5,-0.8 l 9.1,2.6 c 5.5,1.6 4.3,5.7 3.7,7.9 l -8.3,28.7 c -0.8,2.1 -2.9,3.7 -5.3,3.7 z"
         id="path33"
         inkscape:connector-curvature="0"
         style="fill:#025793" /></g></g><g
     id="g35"
     inkscape:export-xdpi="326.77649"
     inkscape:export-ydpi="326.77649"
     transform="matrix(2.6474687,0,0,2.6474687,-881.34955,-504.44962)"><g
       id="g37"><path
         class="st2"
         d="m 447.2,328 c -0.3,0 -0.7,0 -1,-0.1 l -2.4,-0.7 c -1.9,-0.5 -3,-2.6 -2.5,-4.5 l 0.6,-1.9 c 0.5,-1.9 2.5,-3 4.5,-2.5 l 2.4,0.7 c 1.9,0.5 3,2.6 2.5,4.5 l -0.6,1.9 c -0.3,0.9 -0.9,1.7 -1.7,2.2 -0.6,0.3 -1.1,0.4 -1.8,0.4 z m -1.8,-7.4 c -0.5,0 -1,0.4 -1.2,0.9 l -0.6,1.9 c -0.2,0.7 0.2,1.4 0.9,1.5 l 2.4,0.7 c 0.3,0.1 0.7,0.1 0.9,-0.1 0.3,-0.2 0.5,-0.4 0.6,-0.7 l 0,0 0.6,-1.9 c 0.2,-0.7 -0.2,-1.4 -0.9,-1.5 l -2.4,-0.7 c -0.1,-0.1 -0.2,-0.1 -0.3,-0.1 z"
         id="path39"
         inkscape:connector-curvature="0"
         style="fill:#025793" /></g></g><g
     id="g41"
     inkscape:export-xdpi="326.77649"
     inkscape:export-ydpi="326.77649"
     transform="matrix(2.6474687,0,0,2.6474687,-881.34955,-504.44962)"><g
       id="g43"><path
         class="st2"
         d="m 450.8,314.3 c -0.4,0 -0.9,-0.1 -1.5,-0.3 l -12.7,-3.6 c -0.6,-0.2 -1,-0.8 -0.8,-1.5 0.2,-0.6 0.8,-1 1.5,-0.8 l 12.7,3.6 c 0.2,0.1 0.4,0.1 0.6,0.2 0.2,-0.5 0.6,-1.7 1.1,-3.3 0.4,-1.6 0.8,-2.8 0.9,-3.4 -0.2,-0.1 -0.4,-0.1 -0.6,-0.2 l -9.3,-2.7 c -0.6,-0.2 -1,-0.8 -0.8,-1.5 0.2,-0.6 0.8,-1 1.5,-0.8 l 9.3,2.7 c 3,0.9 2.6,2 1.4,6.5 -1.2,3.7 -1.6,5.1 -3.3,5.1 z m 1.9,-8.9 0,0 0,0 z"
         id="path45"
         inkscape:connector-curvature="0"
         style="fill:#025793" /></g></g><g
     id="g47"
     inkscape:export-xdpi="326.77649"
     inkscape:export-ydpi="326.77649"
     transform="matrix(2.6474687,0,0,2.6474687,-881.34955,-504.44962)"><g
       id="g49"><path
         class="st1"
         d="m 420.9,280.8 c -0.2,0 -0.4,-0.1 -0.6,-0.2 l -18.4,-10.7 c -0.6,-0.3 -0.8,-1 -0.4,-1.6 0.3,-0.6 1,-0.8 1.6,-0.4 l 18.4,10.7 c 0.6,0.3 0.8,1.1 0.4,1.6 -0.2,0.4 -0.6,0.6 -1,0.6 z"
         id="path51"
         inkscape:connector-curvature="0"
         style="fill:#88c3eb" /></g></g><g
     id="g53"
     inkscape:export-xdpi="326.77649"
     inkscape:export-ydpi="326.77649"
     transform="matrix(2.6474687,0,0,2.6474687,-881.34955,-504.44962)"><g
       id="g55"><path
         class="st2"
         d="m 404.8,309 c -0.1,0 -0.2,0 -0.3,0 l -9.6,-2.7 c -0.6,-0.2 -1,-0.8 -0.8,-1.5 0.2,-0.6 0.8,-1 1.5,-0.8 l 9.6,2.7 c 0.6,0.2 1,0.8 0.8,1.5 -0.2,0.5 -0.7,0.8 -1.2,0.8 z"
         id="path57"
         inkscape:connector-curvature="0"
         style="fill:#025793" /></g></g><g
     id="g59"
     inkscape:export-xdpi="326.77649"
     inkscape:export-ydpi="326.77649"
     transform="matrix(2.6474687,0,0,2.6474687,-881.34955,-504.44962)"><g
       id="g61"><path
         class="st2"
         d="m 414.4,315.3 c -0.1,0 -0.2,0 -0.3,0 l -20.5,-5.9 c -0.6,-0.2 -1,-0.8 -0.8,-1.5 0.2,-0.6 0.8,-1 1.5,-0.8 l 20.5,5.9 c 0.6,0.2 1,0.8 0.8,1.5 -0.2,0.4 -0.7,0.8 -1.2,0.8 z"
         id="path63"
         inkscape:connector-curvature="0"
         style="fill:#025793" /></g></g><g
     id="g65"
     inkscape:export-xdpi="326.77649"
     inkscape:export-ydpi="326.77649"
     transform="matrix(2.6474687,0,0,2.6474687,-881.34955,-504.44962)"><g
       id="g67"><path
         class="st2"
         d="m 413.7,318.4 c -0.1,0 -0.2,0 -0.3,0 l -20.5,-5.9 c -0.6,-0.2 -1,-0.8 -0.8,-1.5 0.2,-0.6 0.8,-1 1.5,-0.8 l 20.5,5.9 c 0.6,0.2 1,0.8 0.8,1.5 -0.2,0.5 -0.7,0.8 -1.2,0.8 z"
         id="path69"
         inkscape:connector-curvature="0"
         style="fill:#025793" /></g></g><g
     id="g71"
     inkscape:export-xdpi="326.77649"
     inkscape:export-ydpi="326.77649"
     transform="matrix(2.6474687,0,0,2.6474687,-881.34955,-504.44962)"><path
       class="st2"
       d="m 439,301.1 c -0.1,0 -0.2,0 -0.3,0 l -39.1,-10.7 c -0.6,-0.2 -0.9,-0.8 -0.8,-1.3 0.1,-0.5 0.8,-0.9 1.3,-0.8 l 39.1,10.7 c 0.6,0.2 0.9,0.8 0.8,1.3 -0.1,0.5 -0.5,0.8 -1,0.8 z"
       id="path73"
       inkscape:connector-curvature="0"
       style="fill:#025793" /></g><g
     id="g75"
     inkscape:export-xdpi="326.77649"
     inkscape:export-ydpi="326.77649"
     transform="matrix(2.6474687,0,0,2.6474687,-881.34955,-504.44962)"><path
       class="st2"
       d="m 434.1,309.7 c -0.1,0 -0.2,0 -0.3,0 l -37,-10.7 c -0.6,-0.2 -0.9,-0.8 -0.7,-1.4 0.2,-0.6 0.8,-0.9 1.4,-0.7 l 37,10.6 c 0.6,0.2 0.9,0.8 0.7,1.4 -0.2,0.5 -0.6,0.8 -1.1,0.8 z"
       id="path77"
       inkscape:connector-curvature="0"
       style="fill:#025793" /></g><g
     id="g79"
     inkscape:export-xdpi="326.77649"
     inkscape:export-ydpi="326.77649"
     transform="matrix(2.6474687,0,0,2.6474687,-881.34955,-504.44962)"><g
       id="g81"><path
         class="st3"
         d="M 382.3,338.7"
         id="path83"
         inkscape:connector-curvature="0"
         style="fill:none;stroke:#166ab3;stroke-width:2.18449998;stroke-linecap:round;stroke-miterlimit:10" /></g><g
       id="g85"><path
         class="st2"
         d="m 399.1,375.5 c -0.3,0 -0.6,-0.1 -0.8,-0.4 -0.4,-0.4 -0.4,-1.1 0.1,-1.5 6.3,-5.8 18.4,-6 23.3,-5.8 3.8,0.2 7.8,-2.5 7.8,-2.5 l 31.3,-21.2 c 0.4,-0.3 2.2,-2.1 0.6,-4 -1.6,-2 -4.4,-0.1 -4.5,0 l -18.3,11.1 c -0.5,0.3 -1.2,0.2 -1.5,-0.4 -0.3,-0.5 -0.2,-1.2 0.4,-1.5 l 18.2,-11.1 c 1.5,-1.1 5.1,-2.4 7.4,0.4 2.4,2.9 0.4,5.9 -1,7 l -0.1,0.1 -31.3,21.2 c -0.2,0.1 -4.7,3.1 -9.1,2.9 -4.6,-0.2 -16,-0.1 -21.7,5.2 -0.2,0.4 -0.5,0.5 -0.8,0.5 z"
         id="path87"
         inkscape:connector-curvature="0"
         style="fill:#025793" /></g><g
       id="g89"><path
         class="st2"
         d="m 402,379.4 c -0.3,0 -0.5,-0.1 -0.7,-0.3 L 381,361.4 c -0.5,-0.4 -0.5,-1.1 -0.1,-1.5 0.4,-0.5 1.1,-0.5 1.5,-0.1 l 20.3,17.7 c 0.5,0.4 0.5,1.1 0.1,1.5 -0.2,0.2 -0.5,0.4 -0.8,0.4 z"
         id="path91"
         inkscape:connector-curvature="0"
         style="fill:#025793" /></g><g
       id="g93"><path
         class="st2"
         d="m 391.9,377.3 c -0.3,0 -0.5,-0.1 -0.7,-0.3 L 378,365.3 c -0.5,-0.4 -0.5,-1.1 -0.1,-1.5 0.4,-0.5 1.1,-0.5 1.5,-0.1 l 13.2,11.7 c 0.5,0.4 0.5,1.1 0.1,1.5 -0.2,0.3 -0.5,0.4 -0.8,0.4 z"
         id="path95"
         inkscape:connector-curvature="0"
         style="fill:#025793" /></g><g
       id="g97"><path
         class="st2"
         d="m 386.4,364.8 c -0.1,0 -0.2,0 -0.3,0 -0.6,-0.1 -0.9,-0.7 -0.8,-1.3 0,-0.2 1.1,-4.4 3.8,-8.8 3.7,-5.9 8.6,-9.2 14.3,-9.7 0.7,-0.1 4.6,-0.6 16.6,2.1 2.4,0.5 5.7,0.6 8.8,0.6 5,0.1 7.9,0.2 9.2,1.4 0.4,0.3 1.5,1.2 1.8,2.7 0.2,1.2 -0.2,2.4 -1.1,3.5 -2.2,2.7 -13.9,4.8 -21.6,3.9 -6.6,-0.8 -8.2,3.2 -8.3,3.4 -0.2,0.6 -0.8,0.8 -1.4,0.6 -0.6,-0.2 -0.9,-0.8 -0.6,-1.4 0.1,-0.2 2.2,-5.8 10.6,-4.8 7.8,0.9 18.3,-1.3 19.7,-3.1 0.5,-0.6 0.7,-1.2 0.7,-1.8 -0.1,-0.8 -0.9,-1.4 -1,-1.4 l -0.2,-0.2 c -0.6,-0.7 -4.8,-0.8 -7.6,-0.8 -3.3,-0.1 -6.6,-0.1 -9.2,-0.7 -12.2,-2.7 -15.8,-2.1 -15.8,-2.1 l -0.1,0 c -12.2,0.9 -16.2,16.6 -16.3,16.8 -0.3,0.8 -0.7,1.1 -1.2,1.1 z"
         id="path99"
         inkscape:connector-curvature="0"
         style="fill:#025793" /></g><g
       id="g101"><path
         class="st4"
         d="M 427.9,348.5"
         id="path103"
         inkscape:connector-curvature="0"
         style="fill:none;stroke:#025793;stroke-width:2.18449998;stroke-linecap:round;stroke-miterlimit:10" /></g><g
       id="g105"><path
         class="st2"
         d="m 429.7,349.6 c -0.4,0 -0.7,-0.2 -0.9,-0.5 -0.3,-0.5 -0.1,-1.2 0.4,-1.5 l 16.5,-9.9 c 0.5,-0.3 1.1,-0.6 1.6,-0.7 2,-0.6 3.9,-0.3 5.2,0.9 0.4,0.4 0.4,1.1 0,1.5 -0.4,0.4 -1.1,0.4 -1.5,0 -0.9,-0.9 -2.4,-0.6 -3,-0.4 -0.4,0.1 -0.8,0.3 -1.2,0.5 l -16.5,9.9 c -0.2,0.2 -0.4,0.2 -0.6,0.2 z"
         id="path107"
         inkscape:connector-curvature="0"
         style="fill:#025793" /></g><g
       id="g109"><path
         class="st2"
         d="m 420.3,349.1 c -0.4,0 -0.7,-0.2 -0.9,-0.5 -0.3,-0.5 -0.1,-1.2 0.4,-1.5 l 14.9,-8.9 c 0.5,-0.3 1.1,-0.6 1.6,-0.7 2,-0.6 3.9,-0.3 5.2,0.9 0.4,0.4 0.4,1.1 0,1.5 -0.4,0.4 -1.1,0.4 -1.5,0 -0.9,-0.9 -2.4,-0.6 -3,-0.4 -0.4,0.1 -0.8,0.3 -1.2,0.5 l -14.9,8.9 c -0.3,0.1 -0.5,0.2 -0.6,0.2 z"
         id="path111"
         inkscape:connector-curvature="0"
         style="fill:#025793" /></g></g><g
     id="g113"
     inkscape:export-xdpi="326.77649"
     inkscape:export-ydpi="326.77649"
     transform="matrix(2.6474687,0,0,2.6474687,-881.34955,-504.44962)"><g
       id="g115"><path
         class="st5"
         d="m 383.2,264.8 c -0.3,0 -0.6,-0.1 -0.8,-0.3 -0.3,-0.4 -0.2,-0.9 0.1,-1.2 0.8,-0.7 1.7,-1.3 2.6,-2 0.4,-0.3 1,-0.2 1.2,0.2 0.3,0.4 0.2,1 -0.2,1.2 -0.9,0.6 -1.7,1.2 -2.5,1.9 -0.1,0.1 -0.2,0.1 -0.4,0.2 z"
         id="path117"
         inkscape:connector-curvature="0"
         style="fill:#8ccee9" /></g><g
       id="g119"><path
         class="st5"
         d="m 370.6,282.6 c -0.1,0 -0.2,0 -0.4,0 -0.5,-0.2 -0.7,-0.7 -0.5,-1.1 1.6,-4.7 4.1,-9 7.3,-12.8 0.3,-0.4 0.9,-0.4 1.2,-0.1 0.4,0.3 0.4,0.9 0.1,1.2 -3.1,3.6 -5.4,7.8 -7,12.2 0,0.3 -0.3,0.5 -0.7,0.6 z"
         id="path121"
         inkscape:connector-curvature="0"
         style="fill:#8ccee9" /></g><g
       id="g123"><path
         class="st5"
         d="m 368.4,295.4 c 0,0 -0.1,0 0,0 -0.6,0 -1,-0.4 -1,-0.9 0,-0.9 0,-1.8 0.1,-2.8 0,-0.5 0.5,-0.9 1,-0.8 0.5,0 0.9,0.5 0.8,1 -0.1,0.9 -0.1,1.8 -0.1,2.6 0,0.5 -0.4,0.9 -0.8,0.9 z"
         id="path125"
         inkscape:connector-curvature="0"
         style="fill:#8ccee9" /></g><g
       id="g127"><path
         class="st5"
         d="m 372,312.3 c -0.4,0 -0.7,-0.2 -0.9,-0.5 -1.7,-3.8 -2.9,-7.9 -3.4,-12.1 -0.1,-0.5 0.3,-0.9 0.8,-1 0.5,-0.1 0.9,0.3 1,0.8 0.5,4 1.6,7.9 3.2,11.5 0.2,0.4 0,1 -0.4,1.2 -0.1,0.1 -0.2,0.1 -0.3,0.1 z"
         id="path129"
         inkscape:connector-curvature="0"
         style="fill:#8ccee9" /></g><g
       id="g131"><path
         class="st5"
         d="m 415.4,245.9 c -0.1,0 -0.1,0 -0.2,0 -3.7,-0.6 -7.5,-0.7 -11.3,-0.4 -2.9,0.2 -5.8,0.7 -8.5,1.4 -0.5,0.1 -1,-0.2 -1.1,-0.6 -0.1,-0.5 0.2,-1 0.6,-1.1 2.9,-0.7 5.9,-1.2 8.8,-1.4 3.9,-0.3 7.9,-0.1 11.8,0.4 0.5,0.1 0.8,0.5 0.8,1 -0.2,0.3 -0.5,0.6 -0.9,0.7 z"
         id="path133"
         inkscape:connector-curvature="0"
         style="fill:#8ccee9" /></g><g
       id="g135"><path
         class="st5"
         d="m 384,251.1 c -0.3,0 -0.7,-0.2 -0.9,-0.5 -0.2,-0.4 -0.1,-1 0.4,-1.2 1.2,-0.6 2.4,-1.2 3.7,-1.8 0.5,-0.2 1,0 1.2,0.5 0.2,0.5 0,1 -0.5,1.2 -1.2,0.5 -2.4,1.1 -3.6,1.7 -0.1,0.1 -0.2,0.1 -0.3,0.1 z"
         id="path137"
         inkscape:connector-curvature="0"
         style="fill:#8ccee9" /></g><g
       id="g139"><path
         class="st5"
         d="m 362.4,273.2 c -0.2,0 -0.3,0 -0.5,-0.1 -0.4,-0.2 -0.6,-0.8 -0.4,-1.2 2.1,-4.1 4.7,-7.9 7.7,-11.3 0.3,-0.4 0.9,-0.4 1.3,-0.1 0.4,0.3 0.4,0.9 0.1,1.3 -3,3.3 -5.5,7 -7.5,10.9 -0.1,0.3 -0.4,0.5 -0.7,0.5 z"
         id="path141"
         inkscape:connector-curvature="0"
         style="fill:#8ccee9" /></g><g
       id="g143"><path
         class="st5"
         d="m 359,281.9 c -0.1,0 -0.2,0 -0.3,0 -0.5,-0.1 -0.8,-0.6 -0.6,-1.1 0.4,-1.2 0.8,-2.5 1.2,-3.7 0.2,-0.5 0.7,-0.7 1.2,-0.5 0.5,0.2 0.7,0.7 0.5,1.2 -0.4,1.2 -0.8,2.3 -1.2,3.5 -0.1,0.3 -0.5,0.6 -0.8,0.6 z"
         id="path145"
         inkscape:connector-curvature="0"
         style="fill:#8ccee9" /></g><g
       id="g147"><path
         class="st5"
         d="m 359,304.5 c -0.4,0 -0.9,-0.3 -0.9,-0.7 -0.3,-1.6 -0.5,-3.3 -0.6,-5 -0.3,-3.5 -0.2,-7 0.3,-10.5 0.1,-0.5 0.5,-0.8 1,-0.8 0.5,0.1 0.8,0.5 0.8,1 -0.4,3.3 -0.5,6.7 -0.3,10.1 0.1,1.6 0.3,3.2 0.6,4.8 0,0.5 -0.3,1 -0.9,1.1 0.1,0 0,0 0,0 z"
         id="path149"
         inkscape:connector-curvature="0"
         style="fill:#8ccee9" /></g><g
       id="g151"><path
         class="st5"
         d="m 361.6,313.7 c -0.4,0 -0.8,-0.2 -0.9,-0.6 -0.6,-1.7 -1.2,-3.4 -1.7,-5.1 -0.1,-0.5 0.2,-1 0.6,-1.1 0.5,-0.1 1,0.2 1.1,0.6 0.4,1.7 1,3.3 1.6,4.9 0.2,0.5 -0.1,1 -0.5,1.1 -0.1,0.2 -0.1,0.2 -0.2,0.2 z"
         id="path153"
         inkscape:connector-curvature="0"
         style="fill:#8ccee9" /></g><g
       id="g155"><path
         class="st5"
         d="m 381.2,337.8 c -0.2,0 -0.4,0 -0.5,-0.1 -6.2,-4 -11.6,-9.4 -15.5,-15.7 -0.3,-0.4 -0.1,-1 0.3,-1.2 0.4,-0.3 1,-0.1 1.2,0.3 3.8,6 9,11.3 15,15.1 0.4,0.3 0.5,0.8 0.3,1.2 -0.3,0.3 -0.5,0.4 -0.8,0.4 z"
         id="path157"
         inkscape:connector-curvature="0"
         style="fill:#8ccee9" /></g><g
       id="g159"><path
         class="st5"
         d="m 411.3,335.5 c -6.5,0.5 -13.1,-0.6 -19.1,-3.2 -5.8,-2.5 -11,-6.3 -15.1,-11.2 -0.3,-0.4 -0.3,-0.9 0.1,-1.2 0.4,-0.3 0.9,-0.3 1.2,0.1 8.1,9.5 20.3,14.6 32.7,13.7 5.2,-0.4 10.3,-1.8 14.9,-4.2 0.4,-0.2 1,-0.1 1.2,0.4 0.2,0.4 0.1,1 -0.4,1.2 -4.8,2.5 -10,4 -15.5,4.4 z"
         id="path161"
         inkscape:connector-curvature="0"
         style="fill:#8ccee9" /></g></g><g
     id="g163"
     inkscape:export-xdpi="326.77649"
     inkscape:export-ydpi="326.77649"
     transform="matrix(2.6474687,0,0,2.6474687,-881.34955,-504.44962)"><g
       id="g165"><g
         id="g167"><path
           class="st1"
           d="m 369.7,246.9 c 0,0.3 -0.1,0.6 -0.3,0.8 -4,3 -7.5,6.7 -10.4,10.9 -0.3,0.4 -0.8,0.5 -1.2,0.2 -0.4,-0.3 -0.5,-0.8 -0.2,-1.2 3,-4.3 6.6,-8.1 10.8,-11.3 0.4,-0.3 0.9,-0.2 1.2,0.2 0,0.1 0,0.3 0.1,0.4 z"
           id="path169"
           inkscape:connector-curvature="0"
           style="fill:#88c3eb" /></g></g><g
       id="g171"><g
         id="g173"><path
           class="st1"
           d="m 355.8,263.6 c 0,0.2 0,0.3 -0.1,0.5 -0.5,1 -1,2.1 -1.4,3.1 -0.2,0.4 -0.7,0.6 -1.1,0.5 -0.4,-0.2 -0.6,-0.7 -0.5,-1.1 0.4,-1.1 0.9,-2.2 1.5,-3.3 0.2,-0.4 0.7,-0.6 1.1,-0.4 0.3,0.2 0.5,0.5 0.5,0.7 z"
           id="path175"
           inkscape:connector-curvature="0"
           style="fill:#88c3eb" /></g></g></g></svg>