<?xml version="1.0" encoding="utf-8"?>
<!-- Generator: Adobe Illustrator 19.0.0, SVG Export Plug-In . SVG Version: 6.00 Build 0)  -->
<svg version="1.1" xmlns="http://www.w3.org/2000/svg" xmlns:xlink="http://www.w3.org/1999/xlink" x="0px" y="0px"
	 viewBox="0 0 799.9 274.7" style="enable-background:new 0 0 799.9 274.7;" xml:space="preserve">
<style type="text/css">
	.st0{fill:#C8E0F4;stroke:#1D3156;stroke-width:3;stroke-linecap:round;stroke-linejoin:round;stroke-miterlimit:10;}
	.st1{fill:#C8E0F4;}
	.st2{fill:#FFFFFF;stroke:#213256;stroke-width:3;stroke-linecap:round;stroke-linejoin:round;stroke-miterlimit:10;}
	.st3{fill:none;stroke:#213256;stroke-width:3;stroke-linecap:round;stroke-linejoin:round;stroke-miterlimit:10;}
	
		.st4{fill:#C8E0F4;stroke:#213256;stroke-width:3;stroke-linecap:round;stroke-linejoin:round;stroke-miterlimit:10;stroke-dasharray:77,7,1,0;}
	.st5{fill:#C8E0F4;stroke:#213256;stroke-width:3;stroke-linecap:round;stroke-linejoin:round;stroke-miterlimit:10;}
	
		.st6{fill:#C8E0F4;stroke:#213256;stroke-width:3;stroke-linecap:round;stroke-linejoin:round;stroke-miterlimit:10;stroke-dasharray:87,7,1,0;}
	
		.st7{fill:none;stroke:#213256;stroke-width:3;stroke-linecap:round;stroke-linejoin:round;stroke-miterlimit:10;stroke-dasharray:18,5;}
	
		.st8{fill:#FFFFFF;stroke:#213256;stroke-width:3;stroke-linecap:round;stroke-linejoin:round;stroke-miterlimit:10;stroke-dasharray:24,8;}
	.st9{fill:#1D3156;stroke:#1D3156;stroke-width:3;stroke-linecap:round;stroke-linejoin:round;stroke-miterlimit:10;}
	.st10{fill:none;stroke:#1D3156;stroke-width:3;stroke-linecap:round;stroke-linejoin:round;stroke-miterlimit:10;}
	.st11{fill:none;stroke:#423265;stroke-width:3;stroke-linecap:round;stroke-linejoin:round;stroke-miterlimit:10;}
	.st12{fill:#FFFFFF;stroke:#1D3156;stroke-width:3;stroke-linecap:round;stroke-linejoin:round;stroke-miterlimit:10;}
	.st13{fill:none;stroke:#1F3256;stroke-width:3;stroke-linecap:round;stroke-linejoin:round;stroke-miterlimit:10;}
	
		.st14{fill:#FFFFFF;stroke:#213256;stroke-width:3;stroke-linecap:round;stroke-linejoin:round;stroke-miterlimit:10;stroke-dasharray:42,8;}
	.st15{fill:none;stroke:#C8E0F4;stroke-width:3;stroke-linecap:round;stroke-linejoin:round;stroke-miterlimit:10;}
	.st16{fill:#005EBC;}
	.st17{fill:#007EFF;}
	.st18{fill:#1D3156;stroke:#364D73;stroke-width:3;stroke-linecap:round;stroke-linejoin:round;stroke-miterlimit:10;}
	.st19{fill:#ACD1EA;}
	.st20{fill:none;stroke:#213256;stroke-width:3;stroke-linecap:round;stroke-linejoin:round;stroke-dasharray:7.0285,8.0326;}
	.st21{fill:#C6AA91;stroke:#1D3156;stroke-width:3;stroke-linecap:round;stroke-linejoin:round;stroke-miterlimit:10;}
	.st22{fill:#1585FF;stroke:#1F3156;stroke-width:3;stroke-linecap:round;stroke-linejoin:round;stroke-miterlimit:10;}
	.st23{fill:#007EFF;stroke:#213256;stroke-width:3;stroke-linecap:round;stroke-linejoin:round;stroke-miterlimit:10;}
	
		.st24{fill:#007EFF;stroke:#213256;stroke-width:3;stroke-linecap:round;stroke-linejoin:round;stroke-miterlimit:10;stroke-dasharray:7,8;}
	
		.st25{fill:none;stroke:#213256;stroke-width:3;stroke-linecap:round;stroke-linejoin:round;stroke-miterlimit:10;stroke-dasharray:77,7,1,0;}
	.st26{fill:#213256;}
	.st27{fill:none;stroke:#213256;stroke-width:4;stroke-linecap:round;stroke-miterlimit:10;stroke-dasharray:2,10;}
	.st28{fill:#1D3156;stroke:#1D3156;stroke-width:0.25;stroke-miterlimit:10;}
	.st29{fill:#1D3156;}
</style>
<g id="Layer_3">
	<polyline class="st0" points="612.6,190.2 612.6,174.3 596.9,174.3 596.9,190.2 	"/>
</g>
<g id="Layer_2">
	<g>
		<rect x="1.5" y="249.9" class="st1" width="160.4" height="24.9"/>
		<line class="st2" x1="1.5" y1="249.7" x2="108.1" y2="249.7"/>
	</g>
	<g>
		<path class="st2" d="M78.4,90.6L78.4,90.6c-10.2,0-18.5,8.3-18.5,18.5v30.1h36.9v-30.1C96.9,98.9,88.6,90.6,78.4,90.6z"/>
		<path class="st2" d="M74.2,132.6h-7.7v-14.5c0-2.1,1.7-3.9,3.9-3.9h0c2.1,0,3.9,1.7,3.9,3.9V132.6z"/>
		<path class="st2" d="M90.6,132.6h-7.7v-14.5c0-2.1,1.7-3.9,3.9-3.9h0c2.1,0,3.9,1.7,3.9,3.9V132.6z"/>
		<path class="st2" d="M93.3,98.3c-3.4-4.6-8.8-7.6-14.9-7.6c-6.1,0-11.6,3-14.9,7.6c-2,2.8-3.3,6.2-3.5,9.9
			c0.7,0.1,1.4,0.2,2.1,0.2c1.8,0,3.5-0.4,4.8-1c2.2-1,4.6-1,6.8,0c1.4,0.6,3,1,4.8,1c1.8,0,3.5-0.4,4.8-1c2.2-1,4.6-1,6.8,0
			c1.4,0.6,3,1,4.8,1c0.6,0,1.2,0,1.8-0.1C96.7,104.5,95.4,101.1,93.3,98.3z"/>
		<rect x="59.9" y="139.2" class="st2" width="36.9" height="7.9"/>
		<line class="st3" x1="78.4" y1="90.6" x2="78.4" y2="78.7"/>
		<line class="st3" x1="74.6" y1="83.5" x2="81.6" y2="83.5"/>
	</g>
	<g>
		<path class="st2" d="M78.4,90.6L78.4,90.6c-10.2,0-18.5,8.3-18.5,18.5v58.2h36.9v-58.2C96.9,98.9,88.6,90.6,78.4,90.6z"/>
		<path class="st2" d="M74.9,132.6h-7.7v-14.5c0-2.1,1.7-3.9,3.9-3.9h0c2.1,0,3.9,1.7,3.9,3.9V132.6z"/>
		<path class="st2" d="M89.9,132.6h-7.7v-14.5c0-2.1,1.7-3.9,3.9-3.9h0c2.1,0,3.9,1.7,3.9,3.9V132.6z"/>
		<path class="st4" d="M93.3,98.3c-3.4-4.6-8.8-7.6-14.9-7.6c-6.1,0-11.6,3-14.9,7.6c-2,2.8-3.3,6.2-3.5,9.9
			c0.7,0.1,1.4,0.2,2.1,0.2c1.8,0,3.5-0.4,4.8-1c2.2-1,4.6-1,6.8,0c1.4,0.6,3,1,4.8,1c1.8,0,3.5-0.4,4.8-1c2.2-1,4.6-1,6.8,0
			c1.4,0.6,3,1,4.8,1c0.6,0,1.2,0,1.8-0.1C96.7,104.5,95.4,101.1,93.3,98.3z"/>
		<rect x="59.9" y="139.2" class="st2" width="36.9" height="7.9"/>
		<line class="st3" x1="78.4" y1="90.6" x2="78.4" y2="78.7"/>
		<line class="st3" x1="74.6" y1="83.5" x2="81.6" y2="83.5"/>
	</g>
	<g>
		<path class="st2" d="M115.5,116.4L115.5,116.4c-10.2,0-18.5,8.3-18.5,18.5v30.1H134v-30.1C134,124.6,125.7,116.4,115.5,116.4z"/>
		<path class="st2" d="M111.3,158.4h-7.7v-14.5c0-2.1,1.7-3.9,3.9-3.9h0c2.1,0,3.9,1.7,3.9,3.9V158.4z"/>
		<path class="st2" d="M127.7,158.4H120v-14.5c0-2.1,1.7-3.9,3.9-3.9h0c2.1,0,3.9,1.7,3.9,3.9V158.4z"/>
		<path class="st2" d="M130.5,124c-3.4-4.6-8.8-7.6-14.9-7.6c-6.1,0-11.6,3-14.9,7.6c-2,2.8-3.3,6.2-3.5,9.9
			c0.7,0.1,1.4,0.2,2.1,0.2c1.8,0,3.5-0.4,4.8-1c2.2-1,4.6-1,6.8,0c1.4,0.6,3,1,4.8,1c1.8,0,3.5-0.4,4.8-1c2.2-1,4.6-1,6.8,0
			c1.4,0.6,3,1,4.8,1c0.6,0,1.2,0,1.8-0.1C133.8,130.2,132.5,126.8,130.5,124z"/>
		<rect x="97.1" y="164.9" class="st2" width="36.9" height="7.9"/>
		<line class="st3" x1="115.5" y1="116.4" x2="115.5" y2="104.4"/>
		<line class="st3" x1="111.7" y1="109.2" x2="118.7" y2="109.2"/>
	</g>
	<g>
		<polyline class="st2" points="97.1,252.6 97.1,165.2 134,165.2 134,252.6 		"/>
		<path class="st2" d="M115.5,116.4L115.5,116.4c-10.2,0-18.5,8.3-18.5,18.5v30.3H134v-30.3C134,124.7,125.7,116.4,115.5,116.4z"/>
		<path class="st2" d="M112,158.6h-7.7V144c0-2.1,1.7-3.9,3.9-3.9h0c2.1,0,3.9,1.7,3.9,3.9V158.6z"/>
		<path class="st2" d="M127,158.6h-7.7V144c0-2.1,1.7-3.9,3.9-3.9h0c2.1,0,3.9,1.7,3.9,3.9V158.6z"/>
		<path class="st2" d="M112,233h-7.7v-14.6c0-2.1,1.7-3.9,3.9-3.9h0c2.1,0,3.9,1.7,3.9,3.9V233z"/>
		<path class="st2" d="M127,233h-7.7v-14.6c0-2.1,1.7-3.9,3.9-3.9h0c2.1,0,3.9,1.7,3.9,3.9V233z"/>
		<path class="st4" d="M130.5,124.1c-3.4-4.6-8.8-7.7-14.9-7.7c-6.1,0-11.6,3-14.9,7.6c-2,2.8-3.3,6.2-3.5,9.9
			c0.7,0.1,1.4,0.2,2.1,0.2c1.8,0,3.5-0.4,4.8-1c2.2-1,4.6-1,6.8,0c1.4,0.6,3,1,4.8,1c1.8,0,3.5-0.4,4.8-1c2.2-1,4.6-1,6.8,0
			c1.4,0.6,3,1,4.8,1c0.6,0,1.2,0,1.8-0.1C133.8,130.3,132.5,126.9,130.5,124.1z"/>
		<rect x="97.1" y="165.2" class="st2" width="36.9" height="8"/>
		<line class="st3" x1="115.5" y1="116.4" x2="115.5" y2="104.4"/>
		<line class="st3" x1="111.7" y1="109.3" x2="118.7" y2="109.3"/>
	</g>
	<g>
		<path class="st2" d="M41.5,116.4L41.5,116.4c-10.2,0-18.5,8.3-18.5,18.5v30.1H60v-30.1C60,124.6,51.7,116.4,41.5,116.4z"/>
		<path class="st2" d="M37.2,158.4h-7.7v-14.5c0-2.1,1.7-3.9,3.9-3.9h0c2.1,0,3.9,1.7,3.9,3.9V158.4z"/>
		<path class="st2" d="M53.7,158.4h-7.7v-14.5c0-2.1,1.7-3.9,3.9-3.9h0c2.1,0,3.9,1.7,3.9,3.9V158.4z"/>
		<path class="st2" d="M56.4,124c-3.4-4.6-8.8-7.6-14.9-7.6c-6.1,0-11.6,3-14.9,7.6c-2,2.8-3.3,6.2-3.5,9.9c0.7,0.1,1.4,0.2,2.1,0.2
			c1.8,0,3.5-0.4,4.8-1c2.2-1,4.6-1,6.8,0c1.4,0.6,3,1,4.8,1c1.8,0,3.5-0.4,4.8-1c2.2-1,4.6-1,6.8,0c1.4,0.6,3,1,4.8,1
			c0.6,0,1.2,0,1.8-0.1C59.7,130.2,58.5,126.8,56.4,124z"/>
		<rect x="23" y="164.9" class="st2" width="36.9" height="7.9"/>
		<line class="st3" x1="41.5" y1="116.4" x2="41.5" y2="104.4"/>
		<line class="st3" x1="37.7" y1="109.2" x2="44.7" y2="109.2"/>
	</g>
	<g>
		<path class="st2" d="M41.5,116.4L41.5,116.4c-10.2,0-18.5,8.3-18.5,18.5v30.1H60v-30.1C60,124.6,51.7,116.4,41.5,116.4z"/>
		<path class="st2" d="M38,158.4h-7.7v-14.5c0-2.1,1.7-3.9,3.9-3.9h0c2.1,0,3.9,1.7,3.9,3.9V158.4z"/>
		<path class="st2" d="M53,158.4h-7.7v-14.5c0-2.1,1.7-3.9,3.9-3.9h0c2.1,0,3.9,1.7,3.9,3.9V158.4z"/>
		<path class="st4" d="M56.4,124c-3.4-4.6-8.8-7.6-14.9-7.6c-6.1,0-11.6,3-14.9,7.6c-2,2.8-3.3,6.2-3.5,9.9c0.7,0.1,1.4,0.2,2.1,0.2
			c1.8,0,3.5-0.4,4.8-1c2.2-1,4.6-1,6.8,0c1.4,0.6,3,1,4.8,1c1.8,0,3.5-0.4,4.8-1c2.2-1,4.6-1,6.8,0c1.4,0.6,3,1,4.8,1
			c0.6,0,1.2,0,1.8-0.1C59.7,130.2,58.5,126.8,56.4,124z"/>
		<polyline class="st2" points="23,252.6 23,164.9 60,164.9 60,252.6 		"/>
		<path class="st2" d="M38,232.7h-7.7v-14.5c0-2.1,1.7-3.9,3.9-3.9h0c2.1,0,3.9,1.7,3.9,3.9V232.7z"/>
		<path class="st2" d="M53,232.7h-7.7v-14.5c0-2.1,1.7-3.9,3.9-3.9h0c2.1,0,3.9,1.7,3.9,3.9V232.7z"/>
		<rect x="23" y="164.9" class="st2" width="36.9" height="7.9"/>
		<line class="st3" x1="41.5" y1="116.4" x2="41.5" y2="104.4"/>
		<line class="st3" x1="37.7" y1="109.2" x2="44.7" y2="109.2"/>
	</g>
	<path class="st2" d="M79.5,151.5L79.5,151.5c-15.4,0-27.9,12.5-27.9,27.9v29.3h55.8v-29.3C107.4,164,94.9,151.5,79.5,151.5z"/>
	<path class="st4" d="M78.7,160.5L78.7,160.5c-10,0-18,8.1-18,18v19.5h37.5v-18C98.2,169.3,89.5,160.5,78.7,160.5z"/>
	<polyline class="st2" points="51.6,253.9 51.6,208 107.4,208 107.4,253.9 	"/>
	<path class="st5" d="M98.2,256.5v-18c0-10.8-8.7-19.5-19.5-19.5h0c-10,0-18,8.1-18,18v19.5"/>
	<rect x="51.6" y="204.4" class="st2" width="55.8" height="7.1"/>
	<path class="st2" d="M75.9,191.4h-7.7V181c0-2.1,1.7-3.9,3.9-3.9h0c2.1,0,3.9,1.7,3.9,3.9V191.4z"/>
	<path class="st2" d="M90.9,191.4h-7.7V181c0-2.1,1.7-3.9,3.9-3.9h0c2.1,0,3.9,1.7,3.9,3.9V191.4z"/>
	<rect x="662.8" y="252.6" class="st1" width="134.1" height="22.2"/>
	<line class="st2" x1="798.4" y1="252.5" x2="662.2" y2="253.1"/>
	<polygon class="st6" points="767.6,201.8 728.4,201.8 748,166.3 	"/>
	<polyline class="st2" points="712.6,256.7 712.6,202.7 777.7,202.7 777.7,256.7 	"/>
	<polyline class="st2" points="666.5,256.7 666.5,147.1 718.6,147.1 718.6,256.7 	"/>
	<rect x="664.9" y="201.2" class="st2" width="47.4" height="9.8"/>
	<path class="st6" d="M703.9,201.3h-23.2c-0.3,0-0.5-0.2-0.5-0.5V179c0-6.7,5.4-12.1,12.1-12.1l0,0c6.7,0,12.2,5.4,12.2,12.2v21.7
		C704.4,201.1,704.2,201.3,703.9,201.3z"/>
	<path class="st5" d="M680.1,259.6V231c0-6.7,5.4-12.1,12.1-12.1l0,0c6.7,0,12.2,5.4,12.2,12.2v28.6"/>
	<path class="st5" d="M736,259.6V231c0-6.7,5.4-12.1,12.1-12.1l0,0c6.7,0,12.2,5.4,12.2,12.2v28.6"/>
	<g>
		<circle class="st2" cx="692.3" cy="179" r="6.1"/>
		<polyline class="st3" points="692,180.7 691.7,179.2 693.6,177.3 		"/>
	</g>
	<line class="st3" x1="661" y1="147.1" x2="718.6" y2="147.1"/>
	<rect x="680.1" y="136.4" class="st2" width="24.3" height="10.6"/>
	<path class="st4" d="M707.3,136.4h-30l0,0c0-4.9,4-8.9,8.9-8.9h12.1C703.3,127.5,707.3,131.5,707.3,136.4L707.3,136.4z"/>
	<rect x="684" y="115.2" class="st2" width="16.5" height="12.3"/>
	<path class="st4" d="M702.4,115.2h-20.3v0c0-3.3,2.7-6.1,6.1-6.1h8.2C699.7,109.2,702.4,111.9,702.4,115.2L702.4,115.2z"/>
	<rect x="687" y="98.7" class="st2" width="10.4" height="10.4"/>
	<polygon class="st4" points="697.4,98.7 687,98.7 692.2,84.4 	"/>
	<line class="st3" x1="692.2" y1="84.4" x2="692.2" y2="74.3"/>
	<line class="st3" x1="692.3" y1="102.6" x2="692.3" y2="104.8"/>
	<line class="st3" x1="689.9" y1="120.6" x2="689.9" y2="123.3"/>
	<line class="st3" x1="695.3" y1="120.6" x2="695.3" y2="123.3"/>
	<g>
		<polyline class="st2" points="726.5,260.8 720.9,147.1 712.6,147.1 712.6,260.8 		"/>
		<g>
			<rect x="712.7" y="139.1" class="st2" width="8.2" height="8.2"/>
			<line class="st3" x1="716.8" y1="133.5" x2="716.8" y2="120.6"/>
			<path class="st4" d="M714.2,142h5.2c1.9,0,3.5-1.6,3.5-3.5v0c0-1.9-1.6-3.5-3.5-3.5h-5.2c-1.9,0-3.5,1.6-3.5,3.5v0
				C710.7,140.4,712.3,142,714.2,142z"/>
			<path class="st4" d="M715.6,130.5h2.4c1.5,0,2.7-1.2,2.7-2.7l0,0c0-1.5-1.2-2.7-2.7-2.7h-2.4c-1.5,0-2.7,1.2-2.7,2.7l0,0
				C712.9,129.3,714.1,130.5,715.6,130.5z"/>
		</g>
	</g>
	<g>
		<polyline class="st2" points="657.9,260.8 663.5,147.1 671.8,147.1 671.8,260.8 		"/>
		<g>
			<rect x="663.6" y="139.1" class="st2" width="8.2" height="8.2"/>
			<line class="st3" x1="667.7" y1="133.5" x2="667.7" y2="120.6"/>
			<path class="st4" d="M670.2,142h-5.2c-1.9,0-3.5-1.6-3.5-3.5v0c0-1.9,1.6-3.5,3.5-3.5h5.2c1.9,0,3.5,1.6,3.5,3.5v0
				C673.7,140.4,672.2,142,670.2,142z"/>
		</g>
	</g>
	<path class="st2" d="M683.8,160h-6.2v-4.9c0-1.6,1.3-2.8,2.8-2.8h0.5c1.6,0,2.8,1.3,2.8,2.8V160z"/>
	<path class="st2" d="M695.4,160h-6.2v-4.9c0-1.6,1.3-2.8,2.8-2.8h0.5c1.6,0,2.8,1.3,2.8,2.8V160z"/>
	<path class="st2" d="M707.1,160h-6.2v-4.9c0-1.6,1.3-2.8,2.8-2.8h0.5c1.6,0,2.8,1.3,2.8,2.8V160z"/>
	<line class="st3" x1="748" y1="201.2" x2="748" y2="193.7"/>
	<line class="st3" x1="777.7" y1="201.2" x2="777.7" y2="193.7"/>
	<rect x="724.1" y="201.3" class="st2" width="53.6" height="9.7"/>
	<path class="st4" d="M666.4,130.5h2.4c1.5,0,2.7-1.2,2.7-2.7l0,0c0-1.5-1.2-2.7-2.7-2.7h-2.4c-1.5,0-2.7,1.2-2.7,2.7l0,0
		C663.8,129.3,665,130.5,666.4,130.5z"/>
	<g>
		<path class="st3" d="M41,81.1h12.5V81c3.4-0.6,6-3.6,6-7.2c0-4-3.3-7.3-7.3-7.3c-0.2,0-0.4,0-0.6,0c-1.5-4.5-5.7-7.7-10.7-7.7
			c-5,0-9.3,3.3-10.7,7.9c-0.5-0.1-1-0.2-1.6-0.2c-4,0-7.3,3.3-7.3,7.3c0,2.4,1.2,4.6,3.1,5.9"/>
		<line class="st7" x1="36.5" y1="81.1" x2="13.4" y2="81.1"/>
	</g>
	<path class="st8" d="M200.8,190.8"/>
	<path class="st8" d="M229.2,224.1h-16.4v8.5v30h-58.4l3.1-30v-8.5v8.7h-16.7v-5.5c0-4.2,0.6-8.4,2-12.3c3-8.7,9.2-15.9,17.1-20.4
		c0,0,0,0,0,0c0,0,0,0,0,0l0,0c2.8-1.6,5.9-2.9,9.2-3.7c0,0,0,0,0-0.1c2.6-0.6,5.2-1,8-1.1l0.1-2l15.7-0.1"/>
	<rect x="140.8" y="232.8" class="st0" width="16.7" height="32.5"/>
	<path class="st9" d="M212.2,134.8h-56.1c-3.9,0-7.1-3.2-7.1-7.1v-20.9c0-12.1,9.8-22,22-22h24c13.5,0,24.4,10.9,24.4,24.4v18.4
		C219.4,131.6,216.2,134.8,212.2,134.8z"/>
	<path class="st0" d="M185,200.8c-6.8,0-12.8-3.8-15.8-9.5c2.6-0.6,5.2-1,8-1.1v-15.9h15.7v12.4"/>
	<g>
		<g>
			<circle class="st0" cx="214.2" cy="154.5" r="10.1"/>
			<line class="st10" x1="216.8" y1="154.5" x2="208.5" y2="161.3"/>
		</g>
		<g>
			<circle class="st0" cx="154.4" cy="154.5" r="10.1"/>
			<line class="st10" x1="151.9" y1="154.5" x2="160.2" y2="161.3"/>
		</g>
		<path class="st0" d="M199.2,107.3c1.4,4.7,1.6,6,4.9,8.8c13.1,10.9,9-6.4,9-2.7v39.1c0,16-13,28.9-28.9,28.9h0
			c-16,0-28.9-13-28.9-28.9v-31.7"/>
		<g>
			<path class="st10" d="M206.3,130.4c-1.2-3.5-4.9-5.4-8.4-4.3"/>
		</g>
		<g>
			<path class="st11" d="M170.4,130.6"/>
			<path class="st11" d="M161.9,134.8"/>
		</g>
		<path class="st10" d="M185.4,141v5.6c1.7,0,3.1,1.4,3.1,3.2s-1.4,3.1-3.1,3.2v0"/>
	</g>
	<rect x="213.1" y="115.1" class="st9" width="6.3" height="29.3"/>
	<path class="st9" d="M155.5,144.4H149v-27.7c0,0-0.3,2,3.2,3c2.3,0.6,3.2,1.1,3.2,1.1V144.4z"/>
	<path class="st10" d="M164.3,132.3c1.2-3.5,4.9-5.4,8.4-4.3"/>
	<path class="st10" d="M163.2,142.3"/>
	<path class="st10" d="M169.9,142.3"/>
	<path class="st10" d="M189.8,134.7"/>
	<path class="st10" d="M200.8,134.7"/>
	<path class="st12" d="M176.8,162.6c0,4.7,3.9,8.6,8.6,8.6c4.7,0,8.6-3.9,8.6-8.6H176.8z"/>
	<circle class="st9" cx="640.2" cy="109.4" r="22.6"/>
	<circle class="st9" cx="606.7" cy="126.1" r="44.3"/>
	<path class="st1" d="M646,263.5"/>
	<g>
		<g>
			<circle class="st0" cx="575.9" cy="154.9" r="10.1"/>
			<line class="st13" x1="573.4" y1="154.9" x2="581.7" y2="161.7"/>
		</g>
		<g>
			<circle class="st0" cx="635.8" cy="154.9" r="10.1"/>
			<line class="st13" x1="638.3" y1="154.9" x2="630" y2="161.7"/>
		</g>
		<path class="st0" d="M623.5,112.8c2.2,6.8,11.4,10,11.4,10v30.1c0,16-13,28.9-28.9,28.9h0c-16,0-28.9-13-28.9-28.9v-31.7"/>
		<g>
			<path class="st13" d="M584.4,135.2c1.2-3.5,4.9-5.4,8.4-4.3"/>
		</g>
		<g>
			<path class="st13" d="M627.3,134c-1.2-3.5-4.9-5.4-8.4-4.3"/>
		</g>
		<path class="st13" d="M613,160.1c-0.9,3.9-5.9,6-11.4,4.8"/>
		<path class="st13" d="M604.8,141.4v5.6c-1.7,0-3.1,1.4-3.1,3.2s1.4,3.1,3.1,3.2v0"/>
	</g>
	<g>
		<path class="st14" d="M649,227.9c0-4.2-0.6-8.4-2-12.3c-3-8.7-9.2-15.9-17.1-20.4c0,0,0,0,0,0c0,0,0,0,0,0l0,0
			c-2.8-1.6-5.9-2.9-9.2-3.7c0,0,0,0,0-0.1c-2.6-0.6-5.2-1-8-1.1l-0.1-2l-15.7-0.1l0.1,2.1c-2.8,0.1-5.4,0.5-8,1.1
			c-0.2,0-0.2,0-0.2,0c-3.3,0.8-6.4,2.1-9.3,3.7c0.2,0.3,0.2,0.3,0,0c-10.5,6-17.9,16.8-19.1,29.5h16.4v8.5v27.2h58l-2.6-27.2v-8.5
			v8.7H649V227.9z"/>
		<rect x="632.3" y="233.4" class="st0" width="16.7" height="31.3"/>
	</g>
	<polygon class="st0" points="613,263.9 603.2,251.3 616.3,241.2 634.5,264.7 	"/>
	<g>
		<path class="st0" d="M611.4,251.4l-16.6-3.7c1.7-7.6,9.2-12.3,16.8-10.6c7.6,1.7,12.3,9.2,10.6,16.8"/>
	</g>
	<g>
		<path class="st2" d="M558.3,262.6"/>
		<g>
			<path class="st15" d="M448.9,85.8"/>
			<path class="st15" d="M453.1,85.8"/>
		</g>
		<line class="st1" x1="660.1" y1="269.1" x2="660.1" y2="264.3"/>
		<path class="st2" d="M455.1,261.3"/>
		<path class="st2" d="M672.2,261.3"/>
	</g>
	<path class="st16" d="M610.3,248H583v-48.4c0-3.3-2.7-5.9-6-5.9h-88.2c-3.3,0-6,2.6-6,5.9v55.7c0,3.3,2.7,5.9,6,5.9H577
		c1.5,0,35.6,0.5,35.6,0.5c3.3,0,5.5-3.6,5.5-6.8C618.1,251.7,613.6,248,610.3,248z"/>
	<path class="st9" d="M637.5,123.6c-6.4-1.6-11.8-5.8-15-11.6"/>
	<path class="st10" d="M588,143.5c0-1.6,1.3-3,3-3c1.6,0,3,1.3,3,3"/>
	<path class="st10" d="M615.7,143.5c0-1.6,1.3-3,3-3s3,1.3,3,3"/>
	<path class="st9" d="M625.2,103.9c-2.2,12-17.7,19.2-39.5,19.2c-5.9,0-11.4-0.6-16.4-1.7"/>
	<path class="st17" d="M571.2,261.7h-90.7c-3.1,0-5.7-2.5-5.7-5.7v-56.6c0-3.1,2.5-5.7,5.7-5.7h90.7c3.1,0,5.7,2.5,5.7,5.7v56.6
		C576.9,259.2,574.3,261.7,571.2,261.7z"/>
	<path class="st18" d="M613.4,107.8c-4.6,4.5-13.1,7.1-25.4,7.1"/>
	<circle class="st19" cx="623.8" cy="157.6" r="4.1"/>
	<circle class="st19" cx="589.4" cy="157.6" r="4.1"/>
	<g>
		<g>
			<path class="st5" d="M208.5,180.3l68.2-19.4c2.1-0.6,4.2,0.6,4.8,2.7l4.8,16.7"/>
			<path class="st2" d="M239.8,180.3l33.3-9.5c0.8-0.2,1.7,0.2,2,1.1l2.5,8.9"/>
		</g>
		<path class="st16" d="M288.1,261.1h-90.7c-3.1,0-5.7-2.5-5.7-5.7v-57.3c0-3.1,2.5-5.7,5.7-5.7h90.7c3.1,0,5.7,2.5,5.7,5.7v57.3
			C293.8,258.6,291.3,261.1,288.1,261.1z"/>
		<path class="st3" d="M287.1,186.8c3.1,0,5.7,2.6,5.7,5.8v62.8c0,3.2-2.5,5.8-5.7,5.8h-49.8"/>
		<path class="st17" d="M279.1,261.1h-90.7c-3.1,0-5.7-2.5-5.7-5.7v-57.3c0-3.1,2.5-5.7,5.7-5.7h90.7c3.1,0,5.7,2.5,5.7,5.7v57.3
			C284.8,258.6,282.3,261.1,279.1,261.1z"/>
		<path class="st3" d="M279.1,261.1H195c-3.1,0-5.7-2.5-5.7-5.7v-63c0-3.1,2.5-5.7,5.7-5.7h84.1c3.1,0,5.7,2.5,5.7,5.7v63
			C284.8,258.6,282.3,261.1,279.1,261.1z"/>
		<g>
			<path class="st20" d="M268.2,250.3h-63.4c-3.1,0-5.7-2.5-5.7-5.7v-39.3c0-3.1,2.5-5.7,5.7-5.7h63.4c3.1,0,5.7,2.5,5.7,5.7v39.3
				C273.9,247.8,271.3,250.3,268.2,250.3z"/>
		</g>
		<path class="st2" d="M289,238.3h-29.4c-1.8,0-3.3-1.5-3.3-3.3v-17.2c0-1.8,1.5-3.3,3.3-3.3H289V238.3z"/>
		<circle class="st0" cx="268.4" cy="226.4" r="4"/>
		<polygon class="st5" points="296.7,238.3 287,238.3 287,214.5 296.7,214.5 296.7,214.5 		"/>
	</g>
	<g>
		<path class="st5" d="M498.5,142.9L446.3,95c-1.6-1.5-1.7-3.9-0.2-5.5L470,63.4c1.5-1.6,3.9-1.7,5.5-0.2l52.2,47.9
			c1.6,1.5,1.7,3.9,0.2,5.5L504,142.7C502.5,144.3,500.1,144.4,498.5,142.9z"/>
		<path class="st2" d="M499.7,132.9L456,92.7c-0.7-0.6-0.7-1.6-0.1-2.3l16.1-17.5c0.6-0.7,1.6-0.7,2.3-0.1L518,113
			c0.7,0.6,0.7,1.6,0.1,2.3L502,132.8C501.4,133.4,500.4,133.5,499.7,132.9z"/>
		<circle class="st5" cx="471.1" cy="88.3" r="3.3"/>
		<circle class="st5" cx="503" cy="117.6" r="3.3"/>
	</g>
	<g>
		<path class="st5" d="M348.4,95.9l-47.9,52.2c-1.5,1.6-3.9,1.7-5.5,0.2l-26.1-23.9c-1.6-1.5-1.7-3.9-0.2-5.5l47.9-52.2
			c1.5-1.6,3.9-1.7,5.5-0.2l26.1,23.9C349.8,91.9,349.9,94.3,348.4,95.9z"/>
		<path class="st2" d="M338.3,94.7l-40.2,43.8c-0.6,0.7-1.6,0.7-2.3,0.1l-17.5-16.1c-0.7-0.6-0.7-1.6-0.1-2.3l40.2-43.8
			c0.6-0.7,1.6-0.7,2.3-0.1l17.5,16.1C338.9,93,338.9,94,338.3,94.7z"/>
		<circle class="st5" cx="293.8" cy="123.3" r="3.3"/>
		<circle class="st5" cx="323.1" cy="91.4" r="3.3"/>
	</g>
	<circle class="st21" cx="170.4" cy="139.7" r="1.1"/>
	<circle class="st21" cx="199.2" cy="139.7" r="1.1"/>
	<rect x="611.2" y="219.7" class="st22" width="12.6" height="6.1"/>
	<path class="st3" d="M562,261.8h49.3c3.8,0,6.8-3.1,6.8-6.8v0c0-3.8-3.1-6.8-6.8-6.8h-27.2v-53.3c0-2.4-1.2-4.5-3.1-5.7"/>
	<line class="st3" x1="585.1" y1="253.9" x2="588.4" y2="253.9"/>
	<line class="st3" x1="595.1" y1="253.9" x2="598.4" y2="253.9"/>
	<path class="st9" d="M213,120.7c-5.9-1.5-10.9-5.4-13.9-10.8"/>
	<path class="st9" d="M201.8,102.5c-2.1,11.1-16.3,17.8-36.5,17.8c-5.4,0-10.5-0.6-15.2-1.6"/>
	<circle class="st23" cx="641.3" cy="167.2" r="4.6"/>
	<circle class="st23" cx="571.4" cy="167.2" r="4.6"/>
	<path class="st23" d="M133.6,129l55.4-21.4c2.6-1,3.8-3.9,2.9-6.4v0c-1-2.6-3.9-3.8-6.4-2.9L130,119.7c-2.6,1-3.8,3.9-2.9,6.4v0
		C128.1,128.7,131,130,133.6,129z"/>
	<path class="st2" d="M146.4,124l72.6-28c-7.7-20-30.2-30-50.3-22.3S138.6,104,146.4,124z"/>
	<path class="st9" d="M186.3,99.5l20.2-7.8c-2.1-5.6-8.4-8.3-14-6.2C186.9,87.7,184.2,94,186.3,99.5z"/>
	
		<rect x="193.1" y="94.3" transform="matrix(-0.9329 0.3602 -0.3602 -0.9329 418.574 120.649)" class="st2" width="10" height="10"/>
	<circle class="st24" cx="169" cy="74.1" r="3"/>
	<path class="st9" d="M216.1,111.8l-2.2-13.9l0,0c5.2-1.7,9.6-5.2,12.4-9.9l0.7-1.1l1.1,4C232.6,106.4,216.1,111.8,216.1,111.8z"/>
	<g>
		<circle class="st5" cx="16.7" cy="235.6" r="11.8"/>
		<line class="st3" x1="16.7" y1="235.6" x2="16.7" y2="255.3"/>
		<line class="st3" x1="16.7" y1="241.5" x2="21.7" y2="239.1"/>
	</g>
	<path class="st4" d="M457.9,161.3h-34.3c-2.6,0-4.7,2.1-4.7,4.7v20.7c0,2.6,2.1,4.7,4.7,4.7H445l10.1,8.8v-8.8h2.8
		c2.6,0,4.7-2.1,4.7-4.7V166C462.6,163.4,460.5,161.3,457.9,161.3z"/>
	<polyline class="st3" points="446,172.6 439.1,179.6 435.6,176.1 	"/>
	<g>
		<path class="st3" d="M750.1,122.5h-12.5v-0.1c-3.4-0.6-6-3.6-6-7.2c0-4,3.3-7.3,7.3-7.3c0.2,0,0.4,0,0.6,0
			c1.5-4.5,5.7-7.7,10.7-7.7c5,0,9.3,3.3,10.7,7.9c0.5-0.1,1-0.2,1.6-0.2c4,0,7.3,3.3,7.3,7.3c0,2.4-1.2,4.6-3.1,5.9"/>
		<line class="st7" x1="754.6" y1="122.5" x2="777.7" y2="122.5"/>
	</g>
	<circle class="st4" cx="338.7" cy="179.1" r="20.8"/>
	<path class="st4" d="M343.6,184.2c0,3-2.4,5.4-5.4,5.4c-3,0-5.4-2.4-5.4-5.4"/>
	<line class="st25" x1="332.8" y1="170.7" x2="332.8" y2="175"/>
	<line class="st25" x1="344" y1="170.7" x2="344" y2="175"/>
	<g>
		<path class="st26" d="M315.9,222.1L315.9,222.1c0-3,2.3-5.5,5.5-5.5c1.6,0,2.6,0.4,3.6,1c0.2,0.2,0.5,0.5,0.5,0.9
			c0,0.6-0.5,1.1-1.1,1.1c-0.3,0-0.5-0.1-0.7-0.2c-0.6-0.4-1.3-0.7-2.3-0.7c-1.7,0-3,1.5-3,3.3v0c0,1.9,1.3,3.3,3.2,3.3
			c0.8,0,1.6-0.2,2.2-0.6v-1.5h-1.6c-0.6,0-1-0.4-1-1c0-0.6,0.5-1,1-1h2.6c0.6,0,1.2,0.5,1.2,1.2v2.5c0,0.7-0.3,1.1-0.8,1.5
			c-0.9,0.5-2.1,1-3.7,1C318.2,227.5,315.9,225.2,315.9,222.1z"/>
		<path class="st26" d="M327.2,223.4L327.2,223.4c0-2.3,1.9-4.2,4.4-4.2c2.5,0,4.3,1.8,4.3,4.2v0c0,2.3-1.9,4.2-4.4,4.2
			C329.1,227.5,327.2,225.7,327.2,223.4z M333.7,223.4L333.7,223.4c0-1.2-0.9-2.3-2.1-2.3c-1.3,0-2.1,1-2.1,2.2v0
			c0,1.2,0.9,2.2,2.1,2.2C332.9,225.6,333.7,224.6,333.7,223.4z"/>
		<path class="st26" d="M337.6,225.1v-3.8h-0.1c-0.5,0-1-0.4-1-1s0.4-1,1-1h0.1v-1c0-0.6,0.5-1.1,1.1-1.1c0.6,0,1.1,0.5,1.1,1.1v1h1
			c0.5,0,1,0.4,1,1s-0.4,1-1,1h-1v3.4c0,0.5,0.2,0.8,0.7,0.8c0.1,0,0.2,0,0.3,0c0.5,0,0.9,0.4,0.9,0.9c0,0.4-0.3,0.7-0.6,0.9
			c-0.4,0.2-0.8,0.2-1.3,0.2C338.6,227.5,337.6,226.9,337.6,225.1z"/>
		<path class="st26" d="M347.4,217.4c0-0.7,0.6-1.1,1.3-1.1c0.7,0,1.3,0.4,1.3,1.1v0c0,0.7-0.6,1.1-1.3,1.1
			C347.9,218.5,347.4,218.1,347.4,217.4L347.4,217.4z M347.5,220.4c0-0.6,0.5-1.1,1.1-1.1c0.6,0,1.1,0.5,1.1,1.1v5.9
			c0,0.6-0.5,1.1-1.1,1.1c-0.6,0-1.1-0.5-1.1-1.1V220.4z"/>
		<path class="st26" d="M352,225.1v-3.8h-0.1c-0.5,0-1-0.4-1-1s0.4-1,1-1h0.1v-1c0-0.6,0.5-1.1,1.1-1.1c0.6,0,1.1,0.5,1.1,1.1v1h1
			c0.5,0,1,0.4,1,1s-0.4,1-1,1h-1v3.4c0,0.5,0.2,0.8,0.7,0.8c0.1,0,0.2,0,0.3,0c0.5,0,0.9,0.4,0.9,0.9c0,0.4-0.3,0.7-0.6,0.9
			c-0.4,0.2-0.8,0.2-1.3,0.2C352.9,227.5,352,226.9,352,225.1z"/>
		<path class="st26" d="M357.6,217.6c0-0.4,0.2-0.8,0.6-0.8h1.5c0.4,0,0.6,0.3,0.6,0.8l-0.6,5.6c0,0.4-0.3,0.7-0.7,0.7
			s-0.6-0.3-0.7-0.7L357.6,217.6z M358.9,224.9c0.8,0,1.3,0.6,1.3,1.3v0c0,0.7-0.6,1.3-1.3,1.3s-1.3-0.6-1.3-1.3v0
			C357.6,225.4,358.2,224.9,358.9,224.9z"/>
	</g>
	<g>
		<path class="st26" d="M422.4,225.3c-0.3-0.2-0.4-0.5-0.4-0.9c0-0.6,0.5-1.1,1.1-1.1c0.3,0,0.5,0.1,0.7,0.2
			c0.8,0.6,1.7,0.9,2.7,0.9c0.9,0,1.5-0.4,1.5-1v0c0-0.6-0.4-0.9-2.1-1.3c-2.1-0.5-3.5-1.1-3.5-3.2v0c0-1.9,1.5-3.2,3.7-3.2
			c1.3,0,2.4,0.3,3.3,0.9c0.3,0.2,0.5,0.5,0.5,0.9c0,0.6-0.5,1.1-1.1,1.1c-0.2,0-0.4-0.1-0.6-0.2c-0.8-0.5-1.5-0.7-2.2-0.7
			c-0.9,0-1.3,0.4-1.3,0.9v0c0,0.7,0.5,0.9,2.3,1.4c2.1,0.6,3.3,1.3,3.3,3.2v0c0,2.1-1.6,3.3-3.9,3.3
			C425,226.6,423.6,226.2,422.4,225.3z"/>
		<path class="st26" d="M435.8,226.6c-2.4,0-4.2-1.7-4.2-4.2v0c0-2.3,1.6-4.2,4-4.2c2.7,0,3.9,2.2,3.9,3.9c0,0.7-0.5,1.1-1.1,1.1
			h-4.5c0.2,1,0.9,1.6,2,1.6c0.6,0,1.2-0.2,1.6-0.5c0.2-0.1,0.3-0.2,0.6-0.2c0.5,0,0.9,0.4,0.9,0.9c0,0.3-0.1,0.5-0.3,0.7
			C437.9,226.2,437,226.6,435.8,226.6z M437.3,221.8c-0.1-1-0.7-1.7-1.7-1.7c-0.9,0-1.6,0.7-1.7,1.7H437.3z"/>
		<path class="st26" d="M441.2,219.4c0-0.6,0.5-1.1,1.1-1.1c0.6,0,1.1,0.5,1.1,1.1v0.1c0.5-0.7,1.2-1.3,2.4-1.3c1.7,0,2.7,1.1,2.7,3
			v4.2c0,0.6-0.5,1.1-1.1,1.1s-1.1-0.5-1.1-1.1v-3.4c0-1.1-0.5-1.6-1.4-1.6s-1.4,0.6-1.4,1.6v3.4c0,0.6-0.5,1.1-1.1,1.1
			c-0.6,0-1.1-0.5-1.1-1.1V219.4z"/>
		<path class="st26" d="M450.9,224.1v-3.8h-0.1c-0.5,0-1-0.4-1-1s0.4-1,1-1h0.1v-1c0-0.6,0.5-1.1,1.1-1.1c0.6,0,1.1,0.5,1.1,1.1v1h1
			c0.5,0,1,0.4,1,1s-0.4,1-1,1h-1v3.4c0,0.5,0.2,0.8,0.7,0.8c0.1,0,0.2,0,0.3,0c0.5,0,0.9,0.4,0.9,0.9c0,0.4-0.3,0.7-0.6,0.9
			c-0.4,0.2-0.8,0.2-1.3,0.2C451.9,226.6,450.9,226,450.9,224.1z"/>
		<path class="st26" d="M456.9,216.6c0-0.4,0.2-0.8,0.6-0.8h1.5c0.4,0,0.6,0.3,0.6,0.8l-0.6,5.6c0,0.4-0.3,0.7-0.7,0.7
			s-0.6-0.3-0.7-0.7L456.9,216.6z M458.2,223.9c0.8,0,1.3,0.6,1.3,1.3v0c0,0.7-0.6,1.3-1.3,1.3s-1.3-0.6-1.3-1.3v0
			C456.9,224.5,457.4,223.9,458.2,223.9z"/>
	</g>
	<g>
		<line class="st5" x1="273.9" y1="56.2" x2="273.9" y2="60"/>
		<line class="st5" x1="273.9" y1="68.5" x2="273.9" y2="72.4"/>
		<line class="st5" x1="282" y1="64.3" x2="278.1" y2="64.3"/>
		<line class="st5" x1="269.6" y1="64.3" x2="265.8" y2="64.3"/>
	</g>
	<circle class="st3" cx="334.3" cy="12.5" r="7.9"/>
	<circle class="st3" cx="398.3" cy="99.6" r="5.9"/>
	<g>
		<line class="st5" x1="461.3" y1="1.5" x2="461.3" y2="5.4"/>
		<line class="st5" x1="461.3" y1="13.9" x2="461.3" y2="17.8"/>
		<line class="st5" x1="469.4" y1="9.6" x2="465.5" y2="9.6"/>
		<line class="st5" x1="457" y1="9.6" x2="453.1" y2="9.6"/>
	</g>
	<circle class="st3" cx="534" cy="56.2" r="5.9"/>
	<path class="st27" d="M395.9,162.5"/>
	<g>
		<path class="st27" d="M345.9,52.2c14.7-12.1,33.5-19.4,54-19.4c19.2,0,37,6.4,51.2,17.2"/>
		<path class="st27" d="M369,70c7.9-6.5,18-10.4,29.1-10.4c10.4,0,19.9,3.5,27.6,9.3"/>
	</g>
	<path class="st3" d="M570.6,261.7h-83c-3.1,0-5.7-2.5-5.7-5.7v-62.6c0-3.1,2.5-5.7,5.7-5.7h83c3.1,0,5.7,2.5,5.7,5.7v62.6
		C576.3,259.2,573.8,261.7,570.6,261.7z"/>
	<circle class="st2" cx="528" cy="224.6" r="6.9"/>
	<rect x="455.6" y="260.9" class="st1" width="213.9" height="13.8"/>
	<line class="st2" x1="670.9" y1="261.3" x2="453.9" y2="261.3"/>
	<g>
		<path class="st2" d="M204.3,262.6"/>
		<line class="st1" x1="306.1" y1="269.1" x2="306.1" y2="264.3"/>
		<path class="st2" d="M101.1,261.3"/>
		<path class="st2" d="M318.2,261.3"/>
	</g>
	<rect x="101.6" y="260.9" class="st1" width="213.9" height="13.8"/>
	<line class="st2" x1="316.9" y1="261.3" x2="99.9" y2="261.3"/>
	<g>
		<path class="st28" d="M488.2,96.8L488.2,96.8c-0.3-0.3-0.8-0.4-1.2-0.3l-4.2,0.9l0,0l2-2.1c0.5-0.5,0.5-1.4,0-1.9l-0.3-0.3
			c-0.5-0.5-1.4-0.5-1.9,0l-6,6.3c-0.5,0.5-0.5,1.4,0,1.9l0.3,0.3c0.5,0.5,1.4,0.5,1.9,0l0.8-0.8c0.2-0.2,0.4-0.3,0.7-0.4l1.4-0.2
			l-1.3,3.8c-0.2,0.5,0,1,0.3,1.4l0.2,0.2c0.7,0.7,1.9,0.4,2.2-0.6l1.2-4.4c0.1-0.5,0.5-0.9,1-0.9l2.2-0.4
			C488.6,98.9,489,97.6,488.2,96.8z"/>
		<path class="st28" d="M486.2,104.6c2-2.1,4.9-1.6,6.8,0.3c0.5,0.5,0.9,1,1.2,1.6c0.4,0.7-0.1,1.6-0.9,1.8l-0.2,0
			c-0.4,0.1-0.8-0.2-1-0.6c-0.2-0.4-0.4-0.7-0.6-1c-0.9-0.9-2.2-0.9-3.1,0c-0.9,1-0.9,2.2,0,3c0.4,0.4,0.9,0.6,1.3,0.8
			c0.4,0.1,0.6,0.6,0.6,1l0,0c-0.2,0.8-1,1.3-1.8,1c-0.8-0.3-1.5-0.8-2-1.3C484.6,109.3,484.2,106.7,486.2,104.6z M493.6,99.9
			L493.6,99.9c0.4,0,0.8,0.3,0.9,0.7l0.3,1.3c0.1,0.4,0.4,0.7,0.8,0.7l1.4,0.3c0.4,0.1,0.7,0.4,0.7,0.8v0c0,0.5-0.3,0.9-0.8,0.9
			l-0.2,0c-1.2,0.1-2.4-0.3-3.2-1.1l0,0c-0.5-0.5-0.8-1.3-0.8-2l0.1-0.9C492.7,100.2,493.1,99.9,493.6,99.9z"/>
	</g>
	<path class="st29" d="M314.9,107.2l-0.9-0.1c-0.5-0.1-0.9,0.3-1,0.8c-0.1,1-0.4,1.8-0.9,2.4c-0.8,0.9-1.6,0.9-2.3,0.3
		c-0.3-0.3-0.5-0.6-0.5-1l3.5-4.1c0.3-0.4,0.3-0.9-0.1-1.2l0,0c-0.4-0.3-0.9-0.3-1.2,0.1l-2.1,2.5c0.1-0.5,0.1-1,0.1-1.5
		c0-0.2,0.1-0.4,0.2-0.6l1-1.1c0.3-0.4,0.3-0.9-0.1-1.2l0,0c-0.4-0.3-0.9-0.3-1.2,0.1l-0.5,0.5c-0.2-0.4-0.5-0.7-0.8-1
		c-1.9-1.6-4.2-1.3-6.1,0.9c-1,1.2-1.3,2.4-1.3,3.7c0,0.5,0.4,0.8,0.9,0.8l0.8,0c0.5,0,0.8-0.4,0.8-0.8c0-0.7,0.2-1.3,0.7-1.8
		c0.7-0.8,1.4-0.8,2.1-0.3c0.4,0.3,0.5,0.8,0.5,1.4l-3.3,3.9c-0.3,0.4-0.2,1,0.2,1.3l0,0c0.4,0.2,0.8,0.2,1.1-0.2l1.7-2
		c0,0.6,0,1.1,0.1,1.7l-0.3,0.4l-0.5,0.7c-0.3,0.4-0.2,0.9,0.1,1.1l0.6,0.5l0.9-1.1c0.2,0.2,0.4,0.5,0.6,0.7c2,1.7,4.4,1.5,6.5-1
		c0.8-0.9,1.4-2.4,1.6-3.9C315.7,107.6,315.4,107.2,314.9,107.2z"/>
</g>
<g id="Layer_4">
</g>
<g id="Layer_5">
</g>
</svg>
