<?xml version="1.0" encoding="UTF-8"?>
<!DOCTYPE svg PUBLIC "-//W3C//DTD SVG 1.1//EN" "http://www.w3.org/Graphics/SVG/1.1/DTD/svg11.dtd">
<!-- Creator: CorelDRAW -->
<svg xmlns="http://www.w3.org/2000/svg" xml:space="preserve" width="297mm" height="48.798mm" style="shape-rendering:geometricPrecision; text-rendering:geometricPrecision; image-rendering:optimizeQuality; fill-rule:evenodd; clip-rule:evenodd"
viewBox="0 0 297 48.798"
 xmlns:xlink="http://www.w3.org/1999/xlink">
 <defs>
  <style type="text/css">
   <![CDATA[
    .str2 {stroke:#00923F;stroke-width:0.0762}
    .str0 {stroke:white;stroke-width:0.0762}
    .str1 {stroke:white;stroke-width:0.3528}
    .fil1 {fill:white}
    .fil0 {fill:#7CC492}
   ]]>
  </style>
 </defs>
 <g id="Vrstva_x0020_1">
  <metadata id="CorelCorpID_0Corel-Layer"/>
  <g id="_167852624">
   <rect id="_159091960" class="fil0" x="2.48713e-005" width="297" height="48.798"/>
   <polygon id="_159089504" class="fil1 str0" points="32.096,12.9727 32.5924,12.9727 32.5924,15.1125 34.9999,15.1125 34.9999,15.5465 32.5924,15.5465 32.5924,17.674 32.096,17.674 32.096,15.5465 29.6781,15.5465 29.6781,15.1125 32.096,15.1125 "/>
   <path id="_159089240" class="fil1 str0" d="M225.25 31.304l5.3218 0 0 0.4356 -5.3218 0 0 -0.4356zm0 1.6705l5.3218 0 0 0.4432 -5.3218 0 0 -0.4432z"/>
   <path id="_159088272" class="fil1 str0" d="M90.6694 7.1038l-0.1937 0 -0.4445 -3.6314c-0.0207,-0.1574 -0.0311,-0.269 -0.0311,-0.3317 0,-0.1987 0.0553,-0.3561 0.1678,-0.4692 0.1106,-0.1131 0.2456,-0.1697 0.4047,-0.1697 0.1625,0 0.2974,0.0566 0.4081,0.1697 0.109,0.1131 0.1643,0.2828 0.1643,0.5105 0,0.0749 -0.0086,0.1742 -0.0259,0.2996l-0.4497 3.6222zm0.4601 1.2365c0,0.1375 -0.0536,0.2537 -0.1643,0.3515 -0.109,0.0963 -0.2422,0.1452 -0.3978,0.1452 -0.1522,0 -0.2819,-0.0489 -0.3926,-0.1452 -0.109,-0.0978 -0.1643,-0.214 -0.1643,-0.3515 0,-0.1376 0.0553,-0.2537 0.1643,-0.35 0.1107,-0.0948 0.2404,-0.1422 0.3926,-0.1422 0.1556,0 0.2888,0.0474 0.3978,0.1422 0.1107,0.0963 0.1643,0.2124 0.1643,0.35z"/>
   <path id="_159088112" class="fil1 str0" d="M261.35 7.4839l10.2601 6.2249 1.7955 -0.3854c0.0743,-0.1119 0.057,-0.2076 -0.0448,-0.2872l-3.4883 -2.5977c0.1288,-0.1042 0.2426,-0.1232 0.3387,-0.0522l3.5147 2.5296c0.1427,0.0999 0.1826,0.2113 0.1264,0.3278l2.8047 -0.682 0.0711 -0.1315 -7.1444 -3.6656 -8.1075 -1.514 -0.1262 0.2333zm-0.2284 4.4436c1.5404,-0.6669 3.0074,-0.7062 4.4007,-0.1179 0.2557,0.1079 0.5076,0.2417 0.7545,0.3977 1.5294,0.975 2.5131,2.3721 2.9497,4.1938 0.2406,-0.362 0.5042,-0.6836 0.7839,-0.965 0.6769,-0.6777 1.4049,-1.1052 2.1867,-1.2813 0.273,-0.0646 0.5351,-0.0515 0.7903,0.0379l0.4133 -0.7646 -1.8529 0.4343 -7.2464 -4.4343c-0.2515,0.0311 -0.7125,0.1627 -1.3788,0.3997 -0.7373,0.3809 -1.3386,1.0783 -1.801,2.0997zm8.8236 -1.4766l3.4909 2.5927c0.1087,0.0734 0.1208,0.1851 0.0429,0.3291l-2.2693 4.1979c0.0191,0.0538 0.0519,0.089 0.0967,0.1018 0.0562,0.0237 0.1049,0.023 0.142,-0.001l2.1164 -3.9149c0.1328,-0.2457 0.2092,-0.3934 0.2264,-0.438 0.051,-0.1644 0.0164,-0.2919 -0.0941,-0.3812 -0.5569,-0.4058 -1.7187,-1.25 -3.4895,-2.5251 -0.0707,-0.0542 -0.1568,-0.0418 -0.2624,0.0387zm3.9006 2.8815c-0.0583,0.1462 -0.1305,0.2925 -0.2153,0.4366l-0.2859 0.5288c0.3579,0.1358 0.6443,0.3208 0.8595,0.561 0.034,-0.1777 0.031,-0.5296 -0.0132,-1.0605 -0.0348,-0.1336 -0.1077,-0.2986 -0.219,-0.4949l-0.1261 0.029zm-3.528 4.4136c-0.0782,0.2596 0.113,0.4867 0.5793,0.6836 0.4663,0.1969 0.7892,0.1868 0.9686,-0.0302 0.0103,-0.1084 -0.0139,-0.268 -0.0766,-0.4775 -0.0517,-0.0767 -0.1508,-0.1551 -0.2985,-0.2327 -0.0478,0.05 -0.1144,0.0584 -0.2043,0.0205 -0.0871,-0.0368 -0.1216,-0.0879 -0.1076,-0.1522 -0.1216,-0.0239 -0.2529,-0.0427 -0.3925,-0.0589 -0.132,0.0144 -0.2876,0.0981 -0.4684,0.2474zm-0.7288 0.6588l-0.0073 0.122 0.5308 -0.401 -0.4871 0.5627 0.0935 0.1462 0.5201 -0.5153 -0.3849 0.6608 0.1304 0.1099 0.4903 -0.607 -0.296 0.7135 0.1577 0.0848 0.4505 -0.6482 -0.2847 0.7182 0.171 0.0539 0.4449 -0.6507 -0.2292 0.7174 0.1815 0.0217 0.3371 -0.6809 -0.124 0.6825 0.1846 -0.0288 0.1921 -0.6873 -0.0194 0.6169 0.1028 -0.0817 0.1375 -0.8352c-0.1637,0.2327 -0.5061,0.2406 -1.023,0.0224 -0.5141,-0.2171 -0.7223,-0.4574 -0.6231,-0.7174l-0.6461 0.6206z"/>
   <path id="_159087072" class="fil1 str0" d="M142.892 4.9154c0,0.1376 -0.0537,0.2553 -0.1626,0.3515 -0.1073,0.0979 -0.2404,0.1468 -0.3944,0.1468 -0.1556,0 -0.2888,-0.0489 -0.3977,-0.1468 -0.1107,-0.0962 -0.1661,-0.2139 -0.1661,-0.3515 0,-0.1375 0.0554,-0.2537 0.1661,-0.3515 0.1089,-0.0963 0.2421,-0.1452 0.3977,-0.1452 0.154,0 0.2871,0.0489 0.3944,0.1452 0.1089,0.0978 0.1626,0.214 0.1626,0.3515zm-3.2135 1.1998l5.3217 0 0 0.4448 -5.3217 0 0 -0.4448zm3.2238 1.6659c0,0.1376 -0.0553,0.2553 -0.166,0.3516 -0.109,0.0978 -0.2422,0.1467 -0.3961,0.1467 -0.1556,0 -0.2888,-0.0489 -0.3978,-0.1467 -0.1107,-0.0963 -0.166,-0.214 -0.166,-0.3516 0,-0.1375 0.0553,-0.2552 0.166,-0.353 0.109,-0.0994 0.2422,-0.1483 0.3978,-0.1483 0.1539,0 0.2871,0.0489 0.3961,0.1483 0.1107,0.0978 0.166,0.2155 0.166,0.353z"/>
   <polygon id="_159084080" class="fil1 str0" points="207.096,34.9239 207.592,34.9239 207.592,37.0636 210,37.0636 210,37.4977 207.592,37.4977 207.592,39.6252 207.096,39.6252 207.096,37.4977 204.678,37.4977 204.678,37.0636 207.096,37.0636 "/>
   <polygon id="_159083816" class="fil1 str0" points="212.339,4.4186 217.661,4.4186 217.661,4.8633 212.339,4.8633 "/>
   <polygon id="_159083224" class="fil1 str0" points="25.0001,41.9406 30.3219,41.9406 30.3219,42.3853 25.0001,42.3853 "/>
   <polygon id="_159082560" class="fil1 str0" points="245.617,3.2977 247.5,4.9545 249.385,3.2977 249.735,3.6019 247.856,5.2724 249.735,6.9292 249.385,7.2425 247.5,5.5811 245.617,7.2425 245.262,6.9292 247.145,5.2678 245.262,3.6111 "/>
   <path id="_159079512" class="fil1 str0" d="M45.0002 26.3766c0,0.2591 -0.0586,0.5347 -0.1712,0.8248 -0.1243,0.3129 -0.2673,0.516 -0.4268,0.6134l0.3846 0.0974 0 0.3875 -0.3166 0.0912c-0.0352,0.1181 -0.075,0.315 -0.1172,0.5906 -0.0047,0.2901 0.0352,0.5719 0.1172,0.8434l0.3166 0.1264 0 0.371 -6.2096 2.781 -4.0123 -3.0421c-0.4549,-0.3441 -0.6707,-0.9015 -0.6473,-1.6765 0.0047,-0.2425 0.0657,-0.4186 0.1783,-0.5264 0.0609,-0.0622 0.1993,-0.1388 0.4197,-0.2321 0.1595,-0.0684 0.6519,-0.1699 1.4774,-0.3025l-1.0717 -0.4435 0 -0.3047 0.4127 -0.0953c0.0868,-0.2922 0.129,-0.5885 0.129,-0.8869 0,-0.0684 -0.007,-0.1658 -0.0187,-0.2922l-2.0144 -0.3813 0 -0.3046 0.2626 -0.0291c0.0962,-0.2238 0.1431,-0.489 0.1431,-0.7957 0,-0.3129 -0.0469,-0.5823 -0.1431,-0.8082l-0.2626 0 0 -0.2238 3.5879 -0.3585 6.3596 0.3647c0.3025,0.0186 0.5535,0.1368 0.7528,0.3481 0.1993,0.2135 0.3002,0.4891 0.3002,0.829 0,0.4621 -0.2557,0.8102 -0.7645,1.0444 0.4127,-0.0041 0.6894,0.0394 0.8325,0.1326 0.1407,0.0933 0.2626,0.2819 0.3634,0.5658 0.0915,0.2549 0.1384,0.4849 0.1384,0.6921zm-0.3236 0.0187c0.0047,-0.3171 -0.0704,-0.5927 -0.2275,-0.8269 -0.1454,-0.2217 -0.3025,-0.3253 -0.4737,-0.3088l-3.8599 0.4062c0.1595,0.3689 0.2392,0.7751 0.2392,1.2206 0,0.4725 -0.082,0.9553 -0.2462,1.4444l4.0803 -0.8496c0.1243,-0.0249 0.2345,-0.143 0.3307,-0.3586 0.0961,-0.2134 0.1477,-0.4579 0.1571,-0.7273zm-6.5872 -2.6049c0.0071,-0.3564 -0.1008,-0.6362 -0.3283,-0.8414 -0.2251,-0.2051 -0.5018,-0.2921 -0.8278,-0.2631l-3.1329 0.2548c0.1008,0.2549 0.1524,0.5368 0.1524,0.8497 0,0.3067 -0.0516,0.6051 -0.1524,0.8911l2.9078 0.4144c0.054,0.0083 0.1102,0.0104 0.1642,0.0104 0.3306,0 0.612,-0.1223 0.8489,-0.3668 0.2345,-0.2445 0.3587,-0.5616 0.3681,-0.9491zm2.1504 3.096c0,-0.4455 -0.0844,-0.8517 -0.2486,-1.2206l-1.1818 -0.1948c-0.788,0.0974 -1.3367,0.1471 -1.6486,0.1471 -0.0774,0 -0.1383,-0.0041 -0.1782,-0.0124l-1.4234 -0.2735c0.014,0.1326 0.0211,0.2342 0.0211,0.3025 0,0.3005 -0.0563,0.6321 -0.1712,0.9968l4.5821 1.6993c0.1642,-0.4891 0.2486,-0.9719 0.2486,-1.4444zm4.1835 3.1333c-0.1149,-0.3295 -0.1712,-0.661 -0.1665,-0.9968 0,-0.1492 0.0375,-0.3502 0.1102,-0.6009l-5.6679 1.7117c-0.0914,0.2673 -0.136,0.5823 -0.136,0.947 0,0.4373 0.0493,0.8683 0.1501,1.2931l5.7101 -2.3541zm-5.8602 2.3541c-0.0961,-0.4248 -0.1454,-0.8558 -0.1454,-1.2931 0,-0.3647 0.0493,-0.6797 0.1454,-0.947l-3.5738 -2.0765c-0.1055,-0.06 -0.2087,-0.0911 -0.3095,-0.0911 -0.2697,0 -0.3987,0.1927 -0.3916,0.5781 0.014,0.5409 0.1454,0.8994 0.3916,1.0735l3.8833 2.7561z"/>
   <path id="_159078264" class="fil1 str0" d="M90.6499 37.8093l-0.2076 0c0.0242,-0.376 0.0761,-0.6863 0.1592,-0.9324 0.083,-0.246 0.2542,-0.5899 0.5154,-1.0286 0.2023,-0.3362 0.3337,-0.596 0.3943,-0.7764 0.0605,-0.1803 0.0916,-0.3637 0.0916,-0.5487 0,-0.379 -0.1141,-0.6801 -0.3424,-0.9048 -0.2283,-0.2231 -0.5067,-0.3347 -0.8388,-0.3347 -0.294,0 -0.5241,0.0611 -0.6936,0.1834 -0.1695,0.1223 -0.2542,0.2553 -0.2542,0.3974 0,0.1116 0.0519,0.2476 0.1522,0.4081 0.102,0.162 0.1522,0.2843 0.1522,0.3668 0,0.1085 -0.0381,0.1987 -0.1159,0.272 -0.0778,0.0719 -0.1729,0.1086 -0.2836,0.1086 -0.1418,0 -0.2716,-0.0612 -0.3874,-0.185 -0.1176,-0.1238 -0.1747,-0.2965 -0.1747,-0.5181 0,-0.3362 0.1626,-0.6358 0.4912,-0.8956 0.3268,-0.2599 0.7713,-0.3882 1.3317,-0.3882 0.697,0 1.2072,0.1788 1.5358,0.5364 0.2439,0.2629 0.3649,0.5533 0.3649,0.8727 0,0.2186 -0.0553,0.4417 -0.1643,0.6725 -0.1107,0.2293 -0.3182,0.4998 -0.626,0.8101 -0.4895,0.489 -0.7904,0.836 -0.8994,1.0408 -0.1107,0.2048 -0.1764,0.486 -0.2006,0.8437zm-0.0709 0.5563c0.1591,0 0.294,0.0489 0.403,0.1452 0.1089,0.0963 0.1643,0.2155 0.1643,0.3561 0,0.1376 -0.0554,0.2537 -0.1661,0.3515 -0.1124,0.0963 -0.2456,0.1452 -0.4012,0.1452 -0.1557,0 -0.2871,-0.0489 -0.3978,-0.1452 -0.109,-0.0978 -0.1643,-0.2139 -0.1643,-0.3515 0,-0.1406 0.0553,-0.2598 0.1643,-0.3561 0.1107,-0.0963 0.2421,-0.1452 0.3978,-0.1452z"/>
   <path id="_159078104" class="fil1 str0" d="M252.718 42.3244c-0.818,-0.1024 -1.515,-0.3699 -2.0944,-0.807l-1.1381 -0.107 -1.458 -0.5425c0.2456,-0.4601 0.595,-0.6894 1.0481,-0.6894 0.0986,0 0.2041,0.0138 0.3183,0.0428 0.1158,0.0291 0.2369,0.0719 0.3649,0.133 0.2577,-0.0688 0.4687,-0.1223 0.6382,-0.1574 0.0398,-0.1911 0.0605,-0.3393 0.0605,-0.4432 -0.2836,-0.185 -0.5119,-0.3653 -0.6883,-0.5426 -0.2058,0.1054 -0.4376,0.2033 -0.6936,0.2965 -0.0605,0.5945 -0.4202,0.891 -1.0792,0.891l0 -1.3251 1.1761 -0.9674 -0.9634 -0.7214c-0.4462,-0.3271 -0.6693,-0.6206 -0.6693,-0.8773 0,-0.1819 0.1021,-0.3684 0.3044,-0.5594l1.6621 1.0699 -0.1626 -0.318c-0.1418,-0.2766 -0.2127,-0.5242 -0.2127,-0.7428 0,-0.298 0.1954,-0.5242 0.588,-0.6801l1.119 1.7546 0.045 -0.3179c0.0778,-0.5915 0.3805,-0.8865 0.908,-0.8865 0.0329,0 0.0934,0.0031 0.1764,0.0092 -0.0294,0.2063 -0.045,0.4524 -0.045,0.7382 0,0.6954 0.0623,1.4642 0.1868,2.3063l2.4127 2.8077c-0.3615,0.5884 -0.7938,0.9522 -1.2971,1.0928l-0.5068 -0.457zm-0.9322 -3.824c-0.0847,-0.5762 -0.1262,-1.212 -0.1262,-1.9074 0,-0.1407 0.0086,-0.3241 0.0259,-0.5503 -0.2145,0.0505 -0.3632,0.1483 -0.448,0.295 -0.0847,0.1467 -0.1262,0.3821 -0.1262,0.7077 0,0.0917 0.0104,0.243 0.0311,0.4524l0.6434 1.0026zm-0.5223 -0.3408l-1.6413 -2.5693c-0.1609,0.0948 -0.2422,0.2201 -0.2422,0.376 0,0.1941 0.0986,0.4769 0.2941,0.8498l0.2473 0.4707 1.3421 0.8728zm-0.1159 0.1834l-3.2532 -2.0771c-0.0571,0.0871 -0.0865,0.1681 -0.0865,0.2415 0,0.2155 0.2421,0.4967 0.7247,0.8467l0.9633 0.6939 1.6517 0.295zm1.6569 3.7445l0.4808 0.4692c0.403,-0.2231 0.7108,-0.5135 0.927,-0.8681l-2.6081 -3.014 -2.2242 -0.4386 -1.1397 0.9262 0.0052 0.998c0.3857,-0.0764 0.5776,-0.295 0.5776,-0.6526 0,-0.0489 -0.0017,-0.1024 -0.0052,-0.162 0.3736,-0.107 0.7022,-0.2476 0.9824,-0.4203 0.2491,0.2384 0.5552,0.486 0.9201,0.7428 0,0.2124 -0.0467,0.4539 -0.1418,0.7259 -0.1487,0.0245 -0.2888,0.052 -0.4203,0.0841 -0.1989,0.0535 -0.3493,0.0917 -0.4548,0.1116 -0.1004,-0.0627 -0.2024,-0.1101 -0.3062,-0.1406 -0.102,-0.0321 -0.2075,-0.0474 -0.3113,-0.0474 -0.2698,0 -0.4964,0.1207 -0.678,0.3637l1.1536 0.4295 1.1381 0.0948c0.6088,0.4768 1.3109,0.7428 2.1048,0.7978z"/>
   <g>
    <path id="_159076696" class="fil1 str1" d="M14.9664 34.3651c0,0.6972 -0.3695,1.2941 -1.1039,1.7867 -0.7365,0.4944 -1.6262,0.7417 -2.6688,0.7417 -0.5027,0 -0.9836,-0.0638 -1.4405,-0.1912 -0.1399,0.7649 -0.6316,1.1473 -1.4732,1.1473 -0.2864,0 -0.6251,-0.1004 -1.0185,-0.3051 0.3563,-0.0349 0.6425,-0.1662 0.8655,-0.3979 0.223,-0.2338 0.3322,-0.5274 0.3322,-0.8867 0,-0.0522 -0.0021,-0.1081 -0.0066,-0.1642 -0.6819,-0.4867 -1.0229,-1.0643 -1.0229,-1.7306 0,-0.6955 0.3673,-1.2788 1.1017,-1.7501 0.7212,-0.4636 1.6065,-0.6953 2.6558,-0.6953 1.0469,0 1.9388,0.2336 2.6753,0.7011 0.7344,0.4674 1.1039,1.0488 1.1039,1.7443z"/>
    <path id="_159071816" class="fil1 str0" d="M20.2288 31.4401c0,0.792 -0.4524,1.441 -1.3573,1.9451 -0.0219,0.1334 -0.0328,0.255 -0.0328,0.369 0,0.3361 0.1158,0.6181 0.3453,0.8479 0.0263,0.027 0.2667,0.2086 0.7235,0.5448 -0.7541,0.0135 -1.342,-0.1043 -1.7596,-0.3574 -0.3168,-0.1893 -0.5705,-0.4868 -0.7628,-0.8943 -0.3038,0.054 -0.6098,0.0791 -0.9223,0.0791 -0.3454,0 -0.7104,-0.0463 -1.0951,-0.1409 -0.1487,-0.4945 -0.4678,-0.9407 -0.9531,-1.3405 -0.5223,-0.4308 -1.0754,-0.6646 -1.659,-0.7032 -0.0393,-0.1468 -0.059,-0.2627 -0.059,-0.3496 0,-0.6876 0.3672,-1.2593 1.1016,-1.7152 0.7213,-0.4424 1.6109,-0.6625 2.6646,-0.6625 1.0535,0 1.9431,0.2201 2.6645,0.6625 0.7344,0.4559 1.1015,1.0276 1.1015,1.7152z"/>
   </g>
   <path id="_159069016" class="fil1 str0" d="M260 29.3528l0.2232 0c0.038,0.4096 0.1833,0.7229 0.4358,0.9415 0.2542,0.217 0.633,0.3469 1.1363,0.3897l0 -2.615c-0.761,-0.4158 -1.2678,-0.7826 -1.5203,-1.102 -0.1798,-0.2262 -0.2698,-0.5028 -0.2698,-0.8284 0,-0.3668 0.1557,-0.6878 0.4635,-0.9629 0.3096,-0.2751 0.7507,-0.4401 1.3266,-0.4967l0 -0.4126 0.3234 0 0 0.4126c0.2767,0.0153 0.5102,0.0428 0.6987,0.0856 0.0986,0.0199 0.422,0.1238 0.9738,0.3087l0 1.3389 -0.1972 0c-0.045,-0.4753 -0.1833,-0.8223 -0.4185,-1.0408 -0.2353,-0.2201 -0.5864,-0.35 -1.0568,-0.3928l0 2.2742c0.8509,0.5258 1.3975,0.914 1.6396,1.1631 0.2404,0.2491 0.3615,0.5579 0.3615,0.9293 0,0.4111 -0.1764,0.7733 -0.5293,1.0882 -0.3528,0.3133 -0.844,0.4937 -1.4718,0.541l0 0.5732 -0.3234 0 0 -0.5732c-0.3182,-0.0122 -0.614,-0.0443 -0.8873,-0.0963 -0.2732,-0.0519 -0.5759,-0.1375 -0.908,-0.2567l0 -1.2686zm1.7953 -2.288l0 -2.0816c-0.339,0.0366 -0.5898,0.1314 -0.7541,0.2842 -0.1626,0.1544 -0.2456,0.347 -0.2456,0.5808 0,0.2171 0.0744,0.4203 0.2231,0.6099 0.1488,0.1895 0.4082,0.3927 0.7766,0.6067zm0.3234 3.6192c0.2542,-0.0397 0.448,-0.0947 0.5829,-0.1666 0.1885,-0.1039 0.339,-0.2414 0.4479,-0.4096 0.1107,-0.1681 0.1643,-0.3484 0.1643,-0.5395 0,-0.1972 -0.0657,-0.3836 -0.1989,-0.5594 -0.1332,-0.1757 -0.4652,-0.4249 -0.9962,-0.7474l0 2.4225z"/>
   <path id="_159068632" class="fil1 str0" d="M180.88 6.6421l0.2232 0c0.038,0.4096 0.1833,0.723 0.4358,0.9415 0.2542,0.217 0.633,0.3469 1.1363,0.3897l0 -2.615c-0.761,-0.4157 -1.2678,-0.7826 -1.5203,-1.102 -0.1798,-0.2262 -0.2698,-0.5028 -0.2698,-0.8284 0,-0.3668 0.1557,-0.6877 0.4635,-0.9629 0.3096,-0.2751 0.7507,-0.4401 1.3266,-0.4967l0 -0.4126 0.3234 0 0 0.4126c0.2767,0.0153 0.5102,0.0428 0.6987,0.0856 0.0986,0.0199 0.422,0.1238 0.9738,0.3088l0 1.3388 -0.1972 0c-0.045,-0.4753 -0.1833,-0.8223 -0.4185,-1.0408 -0.2353,-0.2201 -0.5864,-0.35 -1.0568,-0.3928l0 2.2742c0.8509,0.5258 1.3975,0.914 1.6396,1.1631 0.2404,0.2491 0.3615,0.5579 0.3615,0.9293 0,0.4111 -0.1764,0.7733 -0.5293,1.0882 -0.3528,0.3133 -0.844,0.4937 -1.4718,0.541l0 0.5732 -0.3234 0 0 -0.5732c-0.3182,-0.0122 -0.614,-0.0443 -0.8873,-0.0962 -0.2732,-0.052 -0.5759,-0.1376 -0.908,-0.2568l0 -1.2686zm1.7953 -2.288l0 -2.0816c-0.339,0.0366 -0.5898,0.1314 -0.7541,0.2842 -0.1626,0.1544 -0.2456,0.347 -0.2456,0.5808 0,0.2171 0.0744,0.4203 0.2231,0.6099 0.1488,0.1895 0.4082,0.3928 0.7766,0.6067zm0.3234 3.6192c0.2542,-0.0397 0.448,-0.0947 0.5829,-0.1666 0.1885,-0.1039 0.339,-0.2414 0.4479,-0.4095 0.1107,-0.1682 0.1643,-0.3485 0.1643,-0.5396 0,-0.1971 -0.0657,-0.3836 -0.1989,-0.5594 -0.1332,-0.1757 -0.4652,-0.4249 -0.9962,-0.7473l0 2.4224z"/>
   <path id="_159068248" class="fil1 str0" d="M57.506 43.1678l0 -0.3408c0,-0.2889 0.0415,-0.5181 0.1245,-0.6862 0.083,-0.1697 0.2543,-0.376 0.5137,-0.6206l0.6693 -0.622c0.2128,-0.2003 0.32,-0.3302 0.32,-0.3898 0,-0.0657 -0.1297,-0.2155 -0.3909,-0.4478l-0.6693 -0.6098c-0.2266,-0.2033 -0.3771,-0.3913 -0.4531,-0.564 -0.0761,-0.1727 -0.1142,-0.4111 -0.1142,-0.7168l0 -0.3668c0,-0.2537 0.1868,-0.4433 0.5621,-0.5701 0.3753,-0.1269 0.9374,-0.191 1.688,-0.191 1.4995,0 2.2501,0.2537 2.2501,0.7611l0 0.3668c0,0.3057 -0.038,0.5441 -0.1141,0.7168 -0.0761,0.1727 -0.2266,0.3607 -0.4532,0.564l-0.6693 0.6098c-0.2577,0.2323 -0.3857,0.3821 -0.3857,0.4478 0,0.0596 0.1055,0.1895 0.3148,0.3898l0.6693 0.622c0.2595,0.2446 0.4307,0.4509 0.5137,0.6206 0.083,0.1681 0.1245,0.3973 0.1245,0.6862l0 0.3408c0,0.2751 -0.1902,0.4815 -0.5724,0.6221 -0.3823,0.1406 -0.9409,0.2109 -1.6777,0.2109 -0.7368,0 -1.2954,-0.0703 -1.6776,-0.2109 -0.3823,-0.1406 -0.5725,-0.347 -0.5725,-0.6221zm2.2501 -5.0773c0.4653,0 0.8959,-0.0458 1.292,-0.1391 0.3943,-0.0917 0.5898,-0.1925 0.5828,-0.2995 -0.0069,-0.1101 -0.1885,-0.2033 -0.5448,-0.2782 -0.3562,-0.0749 -0.8008,-0.1116 -1.33,-0.1116 -0.5344,0 -0.9789,0.0382 -1.3369,0.1147 -0.358,0.0764 -0.5379,0.1711 -0.5379,0.2843 0,0.1039 0.1989,0.2017 0.595,0.2934 0.3978,0.0902 0.8232,0.136 1.2798,0.136zm-2.001 -0.1696l0 0.4294c0,0.2064 0.0345,0.3653 0.102,0.4769 0.0674,0.1116 0.2404,0.3011 0.5223,0.5655l0.5725 0.538c0.2871,0.2766 0.4306,0.4723 0.4306,0.5869 0,0.1162 -0.1314,0.2996 -0.396,0.5502l-0.659 0.6221c-0.2559,0.2415 -0.4168,0.4218 -0.479,0.541 -0.0623,0.1208 -0.0934,0.3011 -0.0934,0.5426l0 0.3225c0,0.1941 0.0795,0.3286 0.2386,0.402 0.3874,0.1879 0.9755,0.2827 1.7624,0.2827 0.7904,0 1.3785,-0.0948 1.7624,-0.2827 0.1591,-0.0734 0.2387,-0.2079 0.2387,-0.402l0 -0.3225c0,-0.2415 -0.0311,-0.4218 -0.0934,-0.5426 -0.0623,-0.1192 -0.2231,-0.2995 -0.4791,-0.541l-0.6589 -0.6221c-0.2629,-0.2506 -0.3944,-0.4402 -0.3944,-0.5685 0,-0.1024 0.1453,-0.292 0.4359,-0.5686l0.5673 -0.538c0.2801,-0.2644 0.4531,-0.4539 0.5205,-0.5655 0.0675,-0.1116 0.1021,-0.2705 0.1021,-0.4769l0 -0.4294c-0.4635,0.2598 -1.1294,0.3897 -2.0011,0.3897 -0.4358,0 -0.8198,-0.0336 -1.1519,-0.0993 -0.3337,-0.0658 -0.6157,-0.162 -0.8491,-0.2904zm0.5361 0.8864c0.4998,0.2797 0.9893,0.4203 1.4649,0.4203 0.4756,0 0.9651,-0.1406 1.4684,-0.4203 -0.083,0.1193 -0.2698,0.3164 -0.5569,0.5915l-0.4203 0.4066c-0.1885,0.1818 -0.3027,0.3087 -0.3442,0.379 -0.0397,0.0703 -0.0743,0.2033 -0.1003,0.4004 -0.0069,0.0597 -0.0225,0.1498 -0.045,0.269 -0.0242,-0.1192 -0.0397,-0.2093 -0.0466,-0.269 -0.0277,-0.1971 -0.0606,-0.3301 -0.1004,-0.4004 -0.0415,-0.0703 -0.1556,-0.1972 -0.3459,-0.379l-0.4202 -0.4066c-0.2871,-0.2751 -0.4722,-0.4722 -0.5535,-0.5915zm-0.2836 4.3743c0.0553,-0.1788 0.2577,-0.35 0.6088,-0.5105l0.4462 -0.2018c0.2802,-0.1283 0.4479,-0.2139 0.505,-0.2598 0.0553,-0.0443 0.1176,-0.1436 0.1902,-0.2995 0.0727,0.1559 0.1384,0.2552 0.192,0.2995 0.0536,0.0459 0.2214,0.1315 0.5016,0.2598l0.4445 0.2018c0.3511,0.1605 0.5534,0.3317 0.6088,0.5105 -0.4307,0.191 -1.0118,0.2858 -1.7486,0.2858 -0.7368,0 -1.3196,-0.0948 -1.7485,-0.2858z"/>
   <path id="_159068088" class="fil1 str0" d="M12.9406 5.6028c0,0.2285 -0.1655,0.5371 -0.494,0.9257 -0.3828,0.4594 -0.6053,0.7611 -0.6674,0.9029 -0.6414,-0.192 -1.2518,-0.288 -1.8338,-0.288 -0.3673,0 -0.7501,0.0205 -1.1433,0.0617 -0.4759,-0.8138 -0.7112,-1.3783 -0.7112,-1.696 0,-0.1738 0.1655,-0.2926 0.4991,-0.3543 0.2871,-0.0526 0.582,-0.08 0.8872,-0.08l-0.1215 1.0171 0.15 0.0274 0.4242 -1.2045c0.2069,-0.0549 0.613,-0.0823 1.2131,-0.0823 0.3491,0 0.7087,0.0594 1.076,0.176 0.4811,0.1508 0.7216,0.3497 0.7216,0.5943zm0.6958 6.6972c0,0.6217 -0.1164,1.1588 -0.3492,1.6137 -0.3725,0.7268 -1.5235,1.0926 -3.4479,1.0926 -1.5545,0 -2.6667,-0.3178 -3.334,-0.9509 -0.2871,-0.2743 -0.432,-0.7474 -0.432,-1.4194 0,-1.0058 0.2121,-1.968 0.6363,-2.8869 0.4967,-1.0857 1.1821,-1.8218 2.0615,-2.2103 0.3957,-0.0412 0.776,-0.0594 1.1458,-0.0594 0.5794,0 1.1976,0.0982 1.8546,0.2948 0.5716,0.4732 1.0346,1.1703 1.3864,2.096 0.3207,0.8389 0.4785,1.6481 0.4785,2.4298zm-2.7883 -2.2903c-0.1216,-0.5052 -0.4164,-0.8001 -0.8872,-0.8915l0.0388 -0.2811 -0.3336 -0.0389 -0.0388 0.2949c-0.3441,0.0091 -0.6234,0.0983 -0.8407,0.2674 -0.2276,0.1829 -0.3414,0.4229 -0.3414,0.7223 0,0.3749 0.3,0.7109 0.9027,1.0057l-0.1966 1.4652c-0.375,-0.0846 -0.5897,-0.3429 -0.644,-0.7749l-0.5924 0.0983c0.1061,0.6537 0.4967,1.0354 1.1666,1.1451l-0.0595 0.4572 0.3259 0.0389 0.0673 -0.4686c0.3983,0 0.732,-0.1051 1.0009,-0.3177 0.2665,-0.2126 0.4009,-0.4937 0.4009,-0.848 0,-0.4321 -0.3569,-0.832 -1.0759,-1.1978l0.1526 -1.0926c0.2379,0.0641 0.3802,0.2332 0.4319,0.5098l0.5225 -0.0937zm-1.2881 -0.448l-0.1293 0.9577c-0.2483,-0.1486 -0.3699,-0.3017 -0.3699,-0.4617 0,-0.304 0.1655,-0.4686 0.4992,-0.496zm0.6518 2.3428c0,0.4069 -0.2457,0.6332 -0.7346,0.6766l0.1889 -1.3394c0.3647,0.1965 0.5457,0.4183 0.5457,0.6628z"/>
   <path id="_159067928" class="fil1 str0" d="M71.2373 3.3812c0.3987,0 0.704,0.142 0.9129,0.4285 0.2103,0.2866 0.3155,0.608 0.3155,0.9668 0,0.4376 -0.1213,0.777 -0.3608,1.0171 -0.2395,0.2388 -0.5273,0.3589 -0.8632,0.3589 -0.3856,0 -0.6894,-0.1343 -0.91,-0.4028 -0.2206,-0.2684 -0.3316,-0.5937 -0.3316,-0.9732 0,-0.2659 0.0585,-0.5086 0.1739,-0.7319 0.1153,-0.2232 0.2716,-0.3898 0.4673,-0.4995 0.1972,-0.1097 0.3959,-0.1639 0.596,-0.1639zm0.0044 0.2117c-0.1461,0 -0.2761,0.0748 -0.39,0.2259 -0.114,0.1523 -0.1709,0.4685 -0.1709,0.95 0,0.3523 0.0307,0.6195 0.0935,0.8015 0.0482,0.1407 0.1241,0.2491 0.2278,0.3253 0.0599,0.0452 0.1329,0.0671 0.222,0.0671 0.1373,0 0.2542,-0.0645 0.3506,-0.1962 0.1431,-0.1936 0.2147,-0.5176 0.2147,-0.9719 0,-0.4789 -0.0701,-0.8158 -0.2103,-1.0094 -0.0906,-0.1291 -0.2045,-0.1923 -0.3374,-0.1923zm4.4067 -0.2117l-4.2271 5.456 -0.3812 0 4.227 -5.456 0.3813 0zm-0.1797 2.699c0.1913,0 0.3871,0.0568 0.5886,0.1703 0.2016,0.1136 0.3564,0.2788 0.466,0.4957 0.111,0.2168 0.165,0.4543 0.165,0.7151 0,0.4453 -0.1212,0.7873 -0.3637,1.0223 -0.2424,0.2362 -0.5287,0.3536 -0.8603,0.3536 -0.3272,0 -0.6164,-0.1226 -0.8647,-0.3691 -0.2468,-0.2453 -0.371,-0.5809 -0.371,-1.0068 0,-0.2621 0.0555,-0.5034 0.1666,-0.7241 0.111,-0.2208 0.2643,-0.386 0.4601,-0.4944 0.1957,-0.1084 0.4002,-0.1626 0.6134,-0.1626zm-0.0044 0.2013c-0.1417,0 -0.2629,0.0658 -0.3637,0.2001 -0.1285,0.1768 -0.1928,0.5098 -0.1928,1.0016 0,0.4544 0.0658,0.7706 0.1972,0.95 0.0979,0.1278 0.2147,0.1923 0.3506,0.1923 0.1314,0 0.2483,-0.0697 0.352,-0.2078 0.1358,-0.1846 0.2045,-0.5008 0.2045,-0.9487 0,-0.475 -0.0687,-0.8067 -0.2045,-0.9951 -0.095,-0.1291 -0.2089,-0.1924 -0.3433,-0.1924z"/>
   <path id="_159066400" class="fil1 str0" d="M45.7844 6.4603l1.0934 -1.4849 4.5547 -3.0647c0.5213,0.1389 0.8051,0.4636 0.8515,0.9753l-4.5683 3.0647 -1.9313 0.5096zm4.8362 -3.8202c0.3336,0.1559 0.5417,0.4037 0.6231,0.7435l0.8514 -0.5716c-0.0768,-0.3587 -0.2872,-0.6035 -0.6298,-0.7344l-0.8447 0.5625zm-3.3391 2.2424c0.0373,-0.008 0.0678,-0.012 0.0927,-0.012 0.0882,0 0.1323,0.037 0.1323,0.1109l-0.0034 0.029 2.7466 -1.8586c-0.0735,-0.049 -0.1447,-0.087 -0.2159,-0.1139l-2.7523 1.8446zm0.3177 0.2398c0.1018,0.022 0.1527,0.0789 0.1527,0.1729l2.759 -1.8676c-0.0327,-0.065 -0.0791,-0.122 -0.139,-0.1729l-2.7727 1.8676zm0.2488 0.2868c0.0418,0.002 0.0724,0.012 0.0927,0.028 0.0192,0.017 0.0294,0.0409 0.0294,0.0719 0,0.027 -0.0147,0.067 -0.0429,0.1199l2.7432 -1.8536c-0.026,-0.0839 -0.0554,-0.1569 -0.0859,-0.2188l-2.7365 1.8526zm-1.4542 0.4836l0.1889 0.2109 1.0301 -0.2698c0.1504,-0.1169 0.225,-0.2039 0.225,-0.2608 0,-0.023 -0.0068,-0.04 -0.0215,-0.051 -0.0147,-0.011 -0.0373,-0.016 -0.0678,-0.016 -0.0645,0 -0.1741,0.034 -0.3313,0.1029 0.1323,-0.1119 0.199,-0.2048 0.199,-0.2788 0,-0.0369 -0.0113,-0.0649 -0.0351,-0.0829 -0.0226,-0.019 -0.0588,-0.028 -0.1074,-0.028 -0.0509,0 -0.1549,0.033 -0.3121,0.1 0.1391,-0.106 0.2092,-0.1989 0.2092,-0.2788 0,-0.022 -0.0068,-0.038 -0.0203,-0.049 -0.0125,-0.011 -0.034,-0.016 -0.0622,-0.016 -0.0995,0 -0.2058,0.038 -0.3178,0.1149l-0.5767 0.8024z"/>
   <path id="_159064024" class="fil1 str0" d="M286.834 18.032l-0.2076 0c0.0242,-0.376 0.0761,-0.6862 0.1592,-0.9323 0.083,-0.2461 0.2542,-0.5899 0.5154,-1.0286 0.2023,-0.3362 0.3337,-0.5961 0.3943,-0.7764 0.0605,-0.1804 0.0916,-0.3638 0.0916,-0.5487 0,-0.379 -0.1141,-0.6801 -0.3424,-0.9048 -0.2283,-0.2232 -0.5067,-0.3347 -0.8388,-0.3347 -0.294,0 -0.5241,0.0611 -0.6936,0.1834 -0.1695,0.1222 -0.2542,0.2552 -0.2542,0.3974 0,0.1115 0.0519,0.2476 0.1522,0.408 0.102,0.1621 0.1522,0.2843 0.1522,0.3668 0,0.1086 -0.0381,0.1987 -0.1159,0.2721 -0.0778,0.0718 -0.1729,0.1085 -0.2836,0.1085 -0.1418,0 -0.2716,-0.0611 -0.3874,-0.1849 -0.1176,-0.1238 -0.1747,-0.2965 -0.1747,-0.5181 0,-0.3363 0.1626,-0.6359 0.4912,-0.8957 0.3268,-0.2598 0.7713,-0.3882 1.3317,-0.3882 0.697,0 1.2072,0.1788 1.5358,0.5365 0.2439,0.2629 0.3649,0.5533 0.3649,0.8727 0,0.2185 -0.0553,0.4417 -0.1643,0.6725 -0.1107,0.2292 -0.3182,0.4998 -0.626,0.81 -0.4895,0.4891 -0.7904,0.836 -0.8994,1.0409 -0.1107,0.2048 -0.1764,0.486 -0.2006,0.8436zm-0.0709 0.5563c0.1591,0 0.294,0.049 0.403,0.1453 0.1089,0.0962 0.1643,0.2155 0.1643,0.3561 0,0.1375 -0.0554,0.2537 -0.1661,0.3515 -0.1124,0.0963 -0.2456,0.1452 -0.4012,0.1452 -0.1557,0 -0.2871,-0.0489 -0.3978,-0.1452 -0.109,-0.0978 -0.1643,-0.214 -0.1643,-0.3515 0,-0.1406 0.0553,-0.2599 0.1643,-0.3561 0.1107,-0.0963 0.2421,-0.1453 0.3978,-0.1453z"/>
   <g>
    <path id="_159063328" class="fil1 str2" d="M285.44 41.9848c0,0.1513 -0.0848,0.2278 -0.2577,0.2278l-7.9299 0c-0.1729,0 -0.2577,-0.0765 -0.2577,-0.2278l0 -4.8098c0,-0.1529 0.0848,-0.2278 0.2577,-0.2278l7.9299 0c0.1729,0 0.2577,0.0749 0.2577,0.2278l0 4.8098z"/>
    <g>
     <path id="_159062640" class="fil1 str2" d="M287.462 40.9352c-0.0786,0.1344 -0.1936,0.168 -0.3472,0.0979l-7.046 -3.2153c-0.1536,-0.0701 -0.1893,-0.1724 -0.1107,-0.3069l2.4973 -4.2736c0.0793,-0.1358 0.1936,-0.168 0.3472,-0.0979l7.046 3.2152c0.1536,0.0701 0.19,0.1711 0.1107,0.3069l-2.4973 4.2737z"/>
     <g>
      <path id="_159061664" class="fil1 str2" d="M282.71 35.8204c-0.1155,-0.0321 -0.2311,-0.0642 -0.3474,-0.0983 -0.1295,-0.0282 -0.248,-0.0186 -0.3593,0.0286 0.0167,0.018 0.0466,0.0368 0.0912,0.0572 0.129,0.0589 0.2299,0.0894 0.3027,0.0916 0.0733,0.0043 0.1766,-0.0226 0.3128,-0.0791z"/>
      <path id="_159061280" class="fil1 str2" d="M283.116 35.5926c-0.0362,-0.1112 -0.1678,-0.2125 -0.3923,-0.3046 -0.1156,0.0247 -0.1962,0.0825 -0.2401,0.1778 0.0216,0.0597 0.1245,0.1634 0.3087,0.3111l0.0154 0.0036c0.0818,-0.0366 0.1847,-0.0997 0.3083,-0.1879z"/>
      <path id="_159059280" class="fil1 str2" d="M285.412 37.1599c0.0306,-0.0325 0.0259,-0.0811 -0.0142,-0.1424 -0.2212,-0.1044 -0.3766,-0.165 -0.4684,-0.1845 -0.0252,0.0366 0.0026,0.0889 0.0835,0.1603 0.068,0.0602 0.127,0.1026 0.1777,0.1257 0.0261,0.0119 0.1002,0.0251 0.2214,0.0409z"/>
      <path id="_159059904" class="fil1 str2" d="M284.875 36.6533l-0.1881 0.0087 -0.4413 -0.1807c-0.1001,-0.0319 -0.1376,-0.0644 -0.1146,-0.097 -0.2195,-0.0142 -0.4538,-0.0763 -0.6996,-0.1885 -0.06,-0.0274 -0.0809,-0.0748 -0.0653,-0.1416l0.2118 -0.0393c-0.1342,-0.0268 -0.3563,-0.0765 -0.6715,-0.1499l0.1077 0.0888 -0.1285 0.0067 -0.1124 -0.0909c-0.2545,0.1024 -0.4996,0.0989 -0.7363,-0.0092 -0.046,-0.021 -0.0881,-0.0556 -0.126,-0.1073l0.0627 -0.0574c0.2444,-0.0485 0.4501,-0.0406 0.6177,0.0256 -0.0657,-0.0575 -0.1122,-0.1012 -0.1381,-0.1336 -0.0424,-0.0572 -0.0601,-0.1134 -0.0508,-0.1693 0.0405,-0.0693 0.1093,-0.1204 0.2057,-0.1556 0.0965,-0.0351 0.1839,-0.0348 0.2622,0.001 0.0661,0.0302 0.138,0.0835 0.2196,0.1604 0.0947,0.0913 0.1285,0.16 0.1007,0.2076 -0.0215,0.0367 -0.1136,0.0944 -0.2772,0.1711 0.1819,0.0486 0.4541,0.1091 0.818,0.1823l-0.2768 0.1042c0.1181,0.071 0.3276,0.1289 0.6294,0.172 0.2725,0.04 0.4928,0.0528 0.66,0.0397l0.033 0.0701c-0.126,-0.0041 -0.3056,0.0033 -0.5363,0.0219 0.0567,0.0327 0.1612,0.077 0.3152,0.1335 0.1768,0.0669 0.2837,0.1105 0.3191,0.1267z"/>
      <path id="_159058120" class="fil1 str2" d="M288.015 38.0709c-0.1903,0.006 -0.318,0.0045 -0.3804,-0.0084 -0.0633,-0.0117 -0.1779,-0.0554 -0.3424,-0.1305 -0.1013,-0.0462 -0.1314,-0.1081 -0.0861,-0.1855l-0.3428 -0.1065 0.1744 -0.1217c-0.4201,0.0026 -0.8187,-0.0812 -1.1968,-0.2537 -0.1122,-0.0513 -0.205,-0.1022 -0.2816,-0.1543 0.0117,0.0466 0.012,0.0795 -0.0007,0.1011 -0.0484,0.0829 -0.1844,0.0724 -0.4057,-0.0286 -0.2228,-0.1016 -0.334,-0.2212 -0.3336,-0.3586 0.0821,-0.0537 0.2495,-0.0238 0.5031,0.0885 -0.0562,-0.1203 -0.0655,-0.2276 -0.0301,-0.3216 0.1493,-0.0454 0.3315,-0.0208 0.5481,0.0781 0.0815,0.0371 0.0935,0.1029 0.0396,0.1953l-0.0204 0.025 -0.1269 0.004c0.0361,-0.0351 0.0558,-0.0622 0.0653,-0.0819l0.0209 -0.0456c-0.0382,-0.0346 -0.0573,-0.0519 -0.0603,-0.0533 -0.103,-0.047 -0.2287,-0.0751 -0.3778,-0.0864 -0.0451,0.0637 -0.0013,0.1886 0.1282,0.3767 0.0276,0.0161 0.0575,0.0349 0.0875,0.0537 0.0567,0.0328 0.1227,0.0664 0.198,0.1008 0.4256,0.1942 0.9558,0.2796 1.5921,0.2534l-0.3277 0.2477 0.2752 0.0551 -0.0698 0.1195 0.1099 0.0553c0.172,0.0854 0.3838,0.1459 0.6408,0.1824z"/>
      <polygon id="_159057528" class="fil1 str2" points="280.949,37.8392 281.199,37.4101 280.92,37.2825 280.669,37.7116 "/>
      <polygon id="_159056800" class="fil1 str2" points="281.745,37.1087 281.843,36.9417 281.01,36.5616 280.912,36.7287 "/>
      <polygon id="_159056208" class="fil1 str2" points="288.234,38.7796 288.784,37.8371 282.009,34.7452 281.458,35.6877 "/>
      <polygon id="_159055616" class="fil1 str2" points="281.26,38.0964 280.282,37.6504 280.633,37.0501 281.61,37.4961 "/>
      <polygon id="_159055024" class="fil1 str2" points="281.683,37.3725 280.705,36.9265 281.056,36.3263 282.033,36.7723 "/>
      <polygon id="_159054432" class="fil1 str2" points="285.56,39.3038 282.446,37.8824 282.553,37.6991 285.668,39.1205 "/>
      <polygon id="_159053840" class="fil1 str2" points="284.761,38.2337 282.771,37.3256 282.878,37.1423 284.868,38.0504 "/>
      <polygon id="_159053248" class="fil1 str2" points="285.408,38.8817 282.608,37.6041 282.715,37.4207 285.515,38.6984 "/>
      <polygon id="_159052656" class="fil1 str2" points="286.048,38.4687 282.933,37.0473 283.041,36.8639 286.156,38.2854 "/>
      <polygon id="_159052064" class="fil1 str2" points="288.278,38.9011 281.322,35.7271 281.967,34.6245 288.922,37.7984 "/>
      <path id="_159049392" class="fil1 str2" d="M289.662 36.8615l0.1325 -0.2267c0.0326,-0.0558 0.0177,-0.097 -0.0453,-0.1257l-7.0459 -3.2153c-0.063,-0.0288 -0.1111,-0.0163 -0.1437,0.0394l-0.1325 0.2268 7.2349 3.3015z"/>
     </g>
    </g>
   </g>
   <path id="_159048248" class="fil1 str0" d="M70.7201 31.263c-0.1643,-0.3546 -0.2473,-0.7092 -0.2473,-1.0607 0,-0.3607 0.0917,-0.7138 0.2733,-1.0561l0.5932 0c0.1349,0 0.2352,-0.0199 0.2992,-0.0612 0.064,-0.0397 0.1712,-0.1513 0.3234,-0.3332l0.1419 -0.165c0.1556,-0.188 0.2663,-0.3149 0.3303,-0.3806l0.9426 -0.8819 0.2542 -0.995 0.1418 0.0321c0.5327,0.1101 0.7991,0.3883 0.7991,0.833 0,0.1605 -0.09,0.3898 -0.2681,0.6847l-0.0761 0.1254c-0.1487,0.2506 -0.2421,0.5105 -0.2836,0.7794l0.1418 0c0.4894,0 0.8855,0.0749 1.1847,0.2262 0.3009,0.1514 0.4514,0.347 0.4514,0.5885 0,0.2124 -0.0934,0.405 -0.2784,0.5777 0.0743,0.1039 0.1107,0.2033 0.1107,0.295 0,0.2292 -0.1367,0.3775 -0.4099,0.4432 0.0103,0.0535 0.0155,0.0963 0.0155,0.1299 0,0.2767 -0.1833,0.4295 -0.5482,0.4555 0.0069,0.0397 0.0103,0.0672 0.0103,0.0856 0,0.1559 -0.0622,0.272 -0.185,0.35 -0.1228,0.0779 -0.3096,0.1161 -0.5586,0.1161l-0.2232 0 -0.1764 -0.081c-0.2231,0.0535 -0.4202,0.081 -0.588,0.081 -0.0605,0 -0.1557,-0.0046 -0.2836,-0.0137 -0.4065,-0.1636 -0.7835,-0.4219 -1.1312,-0.7749l-0.7558 0zm2.7586 0.4707l0.2024 0.0841c0.0847,0.0153 0.1487,0.0229 0.192,0.0229 0.166,0 0.2888,-0.029 0.3718,-0.0856 0.083,-0.0565 0.1245,-0.1391 0.1245,-0.2506 0,-0.0627 -0.0052,-0.1345 -0.0155,-0.2186 0.3753,0 0.5621,-0.0902 0.5621,-0.269 0,-0.0351 -0.0156,-0.1207 -0.045,-0.2552 0.2767,-0.0505 0.4151,-0.1422 0.4151,-0.2767 0,-0.084 -0.0623,-0.1956 -0.1868,-0.3362 0.2439,-0.188 0.3649,-0.3791 0.3649,-0.5762 0,-0.1911 -0.1349,-0.3332 -0.4029,-0.428 -0.2681,-0.0932 -0.6711,-0.1406 -1.2073,-0.1406l-0.1833 0 0.0052 -0.1253c0,-0.3531 0.1314,-0.7229 0.3943,-1.1111l0.0657 -0.0994c0.1159,-0.1696 0.173,-0.3286 0.173,-0.4738 0,-0.2812 -0.1695,-0.4722 -0.5068,-0.5747l-0.2023 0.83 -1.0187 0.9583c-0.1729,0.1895 -0.3027,0.3377 -0.3909,0.4417 -0.2196,0.269 -0.3822,0.4264 -0.4894,0.4707 -0.1055,0.0443 -0.3719,0.0672 -0.7973,0.0672 -0.1159,0.2843 -0.173,0.5717 -0.173,0.8636 0,0.2476 0.0519,0.5074 0.1574,0.7795l0.6987 0c0.2871,0.3377 0.6503,0.6128 1.0862,0.8283l0.1418 -0.0045c0.2629,0 0.4843,-0.0398 0.6641,-0.1208z"/>
  </g>
 </g>
</svg>
